G04 #@! TF.FileFunction,Copper,L1,Top,Signal*
%FSLAX46Y46*%
G04 Gerber Fmt 4.6, Leading zero omitted, Abs format (unit mm)*
G04 Created by KiCad (PCBNEW 4.0.5) date Thursday 06 April 2017 11:04:19*
%MOMM*%
%LPD*%
G01*
G04 APERTURE LIST*
%ADD10C,0.100000*%
%ADD11R,1.000000X2.400000*%
%ADD12R,2.032000X1.727200*%
%ADD13O,2.032000X1.727200*%
%ADD14R,0.900000X0.500000*%
%ADD15C,0.250000*%
G04 APERTURE END LIST*
D10*
D11*
X8308000Y1524000D03*
X5408000Y1524000D03*
X8308000Y4572000D03*
X5408000Y4572000D03*
X8308000Y7620000D03*
X5408000Y7620000D03*
X8308000Y10668000D03*
X5408000Y10668000D03*
X8308000Y13716000D03*
X5408000Y13716000D03*
X8308000Y16764000D03*
X5408000Y16764000D03*
X8308000Y19812000D03*
X5408000Y19812000D03*
X8308000Y22860000D03*
X5408000Y22860000D03*
X8308000Y25908000D03*
X5408000Y25908000D03*
X8308000Y28956000D03*
X5408000Y28956000D03*
D12*
X1270000Y29210000D03*
D13*
X1270000Y26670000D03*
X1270000Y24130000D03*
X1270000Y21590000D03*
X1270000Y19050000D03*
X1270000Y16510000D03*
X1270000Y13970000D03*
X1270000Y11430000D03*
X1270000Y8890000D03*
X1270000Y6350000D03*
X1270000Y3810000D03*
D14*
X3810000Y3060000D03*
X3810000Y4560000D03*
X3810000Y5600000D03*
X3810000Y7100000D03*
X3810000Y8140000D03*
X3810000Y9640000D03*
X3810000Y10680000D03*
X3810000Y12180000D03*
X3810000Y13220000D03*
X3810000Y14720000D03*
X3810000Y17260000D03*
X3810000Y15760000D03*
X3810000Y19800000D03*
X3810000Y18300000D03*
X3810000Y22340000D03*
X3810000Y20840000D03*
X3810000Y24880000D03*
X3810000Y23380000D03*
X3810000Y27420000D03*
X3810000Y25920000D03*
D15*
X8308000Y4572000D02*
X8308000Y1524000D01*
X8308000Y7620000D02*
X8308000Y4572000D01*
X8308000Y10668000D02*
X8308000Y7620000D01*
X8308000Y13716000D02*
X8308000Y10668000D01*
X8308000Y16764000D02*
X8308000Y13716000D01*
X8308000Y19812000D02*
X8308000Y16764000D01*
X8308000Y19812000D02*
X8308000Y22860000D01*
X8308000Y25908000D02*
X8308000Y22860000D01*
X8308000Y28956000D02*
X8308000Y25908000D01*
X1270000Y29210000D02*
X2540000Y29210000D01*
X6530000Y30734000D02*
X8308000Y28956000D01*
X4064000Y30734000D02*
X6530000Y30734000D01*
X2540000Y29210000D02*
X4064000Y30734000D01*
X3810000Y3060000D02*
X3872000Y3060000D01*
X3872000Y3060000D02*
X5408000Y1524000D01*
X3810000Y5600000D02*
X4380000Y5600000D01*
X4380000Y5600000D02*
X5408000Y4572000D01*
X3810000Y8140000D02*
X4888000Y8140000D01*
X4888000Y8140000D02*
X5408000Y7620000D01*
X3810000Y10680000D02*
X5396000Y10680000D01*
X5396000Y10680000D02*
X5408000Y10668000D01*
X3810000Y13220000D02*
X4912000Y13220000D01*
X4912000Y13220000D02*
X5408000Y13716000D01*
X3810000Y17260000D02*
X4912000Y17260000D01*
X4912000Y17260000D02*
X5408000Y16764000D01*
X3810000Y19800000D02*
X5396000Y19800000D01*
X5396000Y19800000D02*
X5408000Y19812000D01*
X3810000Y22340000D02*
X4888000Y22340000D01*
X4888000Y22340000D02*
X5408000Y22860000D01*
X3810000Y24880000D02*
X4380000Y24880000D01*
X4380000Y24880000D02*
X5408000Y25908000D01*
X3810000Y27420000D02*
X3872000Y27420000D01*
X3872000Y27420000D02*
X5408000Y28956000D01*
X3810000Y25920000D02*
X2020000Y25920000D01*
X2020000Y25920000D02*
X1270000Y26670000D01*
X3810000Y23380000D02*
X2020000Y23380000D01*
X2020000Y23380000D02*
X1270000Y24130000D01*
X3810000Y20840000D02*
X2020000Y20840000D01*
X2020000Y20840000D02*
X1270000Y21590000D01*
X3810000Y18300000D02*
X2020000Y18300000D01*
X2020000Y18300000D02*
X1270000Y19050000D01*
X3810000Y15760000D02*
X2020000Y15760000D01*
X2020000Y15760000D02*
X1270000Y16510000D01*
X3810000Y14720000D02*
X2020000Y14720000D01*
X2020000Y14720000D02*
X1270000Y13970000D01*
X3810000Y12180000D02*
X2020000Y12180000D01*
X2020000Y12180000D02*
X1270000Y11430000D01*
X3810000Y9640000D02*
X2020000Y9640000D01*
X2020000Y9640000D02*
X1270000Y8890000D01*
X3810000Y7100000D02*
X2020000Y7100000D01*
X2020000Y7100000D02*
X1270000Y6350000D01*
X3810000Y4560000D02*
X2020000Y4560000D01*
X2020000Y4560000D02*
X1270000Y3810000D01*
M02*
