<?xml version="1.0" standalone="no"?>
<!DOCTYPE svg PUBLIC "-//W3C//DTD SVG 1.1//EN"
"http://www.w3.org/Graphics/SVG/1.1/DTD/svg11.dtd">
<svg width="780" height="2480" viewBox="0 0 780 2480" version="1.1"
xmlns="http://www.w3.org/2000/svg"
xmlns:xlink="http://www.w3.org/1999/xlink">
<g fill-rule="evenodd"><path d="M 375.432,2235.69 L 426.456,2286.71 L 426.456,2245.51 L 505.196,2245.51 L 505.196,2434.49 L 426.456,2434.49 L 426.456,2314.55 L 350.646,2238.74 L 304.568,2238.74 L 304.568,2199.37 L 375.432,2199.37 L 375.432,2235.69 z " style="fill-opacity:1.000000;fill:rgb(167,241,217);stroke:rgb(0,0,0);stroke-width:2"/></g>
<g fill-rule="evenodd"><path d="M 375.432,1828.9 L 375.432,1838.74 L 304.568,1838.74 L 304.568,1799.37 L 375.432,1799.37 L 375.432,1809.21 L 426.456,1809.37 L 426.456,1765.51 L 505.196,1765.51 L 505.196,1954.49 L 426.456,1954.49 L 426.456,1834.55 L 420.804,1828.9 L 375.432,1828.9 z " style="fill-opacity:1.000000;fill:rgb(42,130,200);stroke:rgb(0,0,0);stroke-width:2"/></g>
<g fill-rule="evenodd"><path d="M 375.432,1628.9 L 375.432,1638.74 L 304.568,1638.74 L 304.568,1599.37 L 375.432,1599.37 L 375.432,1609.21 L 426.456,1609.21 L 426.456,1525.51 L 505.196,1525.51 L 505.196,1714.49 L 426.456,1714.49 L 426.456,1628.9 L 375.432,1628.9 z " style="fill-opacity:1.000000;fill:rgb(216,254,67);stroke:rgb(0,0,0);stroke-width:2"/></g>
<g fill-rule="evenodd"><path d="M 375.432,1428.9 L 375.432,1438.74 L 304.568,1438.74 L 304.568,1399.37 L 375.432,1399.37 L 375.432,1409.21 L 422.694,1409.21 L 426.456,1405.45 L 426.456,1285.51 L 505.196,1285.51 L 505.196,1474.49 L 426.456,1474.49 L 426.456,1428.9 L 375.432,1428.9 z " style="fill-opacity:1.000000;fill:rgb(77,152,85);stroke:rgb(0,0,0);stroke-width:2"/></g>
<g fill-rule="evenodd"><path d="M 350.646,281.262 L 426.456,205.452 L 426.456,85.512 L 505.196,85.512 L 505.196,274.488 L 426.456,274.488 L 426.456,233.288 L 375.432,284.312 L 375.432,320.63 L 304.568,320.63 L 304.568,281.262 L 350.646,281.262 z " style="fill-opacity:1.000000;fill:rgb(140,226,179);stroke:rgb(0,0,0);stroke-width:2"/></g>
<g fill-rule="evenodd"><path d="M 375.432,1110.79 L 375.432,1120.63 L 304.568,1120.63 L 304.568,1081.26 L 375.432,1081.26 L 375.432,1091.1 L 426.456,1091.1 L 426.456,1045.51 L 505.196,1045.51 L 505.196,1234.49 L 426.456,1234.49 L 426.456,1114.55 L 422.694,1110.79 L 375.432,1110.79 z " style="fill-opacity:1.000000;fill:rgb(71,23,17);stroke:rgb(0,0,0);stroke-width:2"/></g>
<g fill-rule="evenodd"><path d="M 375.432,910.788 L 375.432,920.63 L 304.568,920.63 L 304.568,881.262 L 375.432,881.262 L 375.432,891.104 L 426.456,891.104 L 426.456,805.512 L 505.196,805.512 L 505.196,994.488 L 426.456,994.488 L 426.456,910.788 L 375.432,910.788 z " style="fill-opacity:1.000000;fill:rgb(152,84,47);stroke:rgb(0,0,0);stroke-width:2"/></g>
<g fill-rule="evenodd"><path d="M 375.432,710.788 L 375.432,720.63 L 304.568,720.63 L 304.568,681.262 L 375.432,681.262 L 375.432,691.104 L 420.804,691.104 L 426.456,685.452 L 426.456,565.512 L 505.196,565.512 L 505.196,754.488 L 426.456,754.488 L 426.456,710.632 L 375.432,710.788 z " style="fill-opacity:1.000000;fill:rgb(17,45,5);stroke:rgb(0,0,0);stroke-width:2"/></g>
<g fill-rule="evenodd"><path d="M 426.456,2046.71 L 426.456,2005.51 L 505.196,2005.51 L 505.196,2194.49 L 426.456,2194.49 L 426.456,2074.55 L 380.804,2028.9 L 375.432,2028.9 L 375.432,2038.74 L 304.568,2038.74 L 304.568,1999.37 L 375.432,1999.37 L 375.432,2009.21 L 386.8,2009.4 L 390.346,2010.87 L 426.456,2046.71 z " style="fill-opacity:1.000000;fill:rgb(88,245,107);stroke:rgb(0,0,0);stroke-width:2"/></g>
<g fill-rule="evenodd"><path d="M 426.456,445.452 L 426.456,325.512 L 505.196,325.512 L 505.196,514.488 L 426.456,514.488 L 426.456,473.288 L 390.346,509.13 L 386.798,510.6 L 375.432,510.788 L 375.432,520.63 L 304.568,520.63 L 304.568,481.262 L 375.432,481.262 L 375.432,491.104 L 380.804,491.104 L 426.456,445.452 z " style="fill-opacity:1.000000;fill:rgb(214,136,7);stroke:rgb(0,0,0);stroke-width:2"/></g>
<g fill-rule="evenodd"><path d="M 304.568,1209.21 L 304.568,1199.37 L 375.432,1199.37 L 375.432,1238.74 L 304.568,1238.74 L 304.568,1228.9 L 197.132,1228.71 L 193.586,1227.24 L 185.314,1219.23 L 172.356,1224.88 L 158.878,1227.65 L 128.002,1228 L 114.312,1226.61 L 101.184,1222.49 L 89.154,1215.81 L 78.716,1206.85 L 70.294,1195.97 L 64.234,1183.62 L 60.786,1170.3 L 60.088,1156.56 L 62.172,1142.96 L 66.95,1130.05 L 74.228,1118.38 L 83.708,1108.41 L 95,1100.55 L 107.644,1095.12 L 121.122,1092.35 L 152,1092 L 165.688,1093.39 L 178.816,1097.51 L 190.846,1104.19 L 201.284,1113.15 L 209.706,1124.03 L 215.766,1136.38 L 219.214,1149.7 L 219.912,1163.44 L 217.828,1177.04 L 213.05,1189.95 L 205.772,1201.62 L 200.784,1206.87 L 203.128,1209.21 L 304.568,1209.21 z " style="fill-opacity:1.000000;fill:rgb(153,146,72);stroke:rgb(0,0,0);stroke-width:2"/></g>
<g fill-rule="evenodd"><path d="M 304.568,1291.1 L 304.568,1281.26 L 375.432,1281.26 L 375.432,1320.63 L 304.568,1320.63 L 304.568,1310.79 L 203.13,1310.79 L 201.004,1312.91 L 209.706,1324.03 L 215.766,1336.38 L 219.214,1349.7 L 219.912,1363.44 L 217.828,1377.04 L 213.05,1389.95 L 205.772,1401.62 L 196.292,1411.59 L 185,1419.45 L 172.356,1424.88 L 158.878,1427.65 L 128.002,1428 L 114.312,1426.61 L 101.184,1422.49 L 89.154,1415.81 L 78.716,1406.85 L 70.294,1395.97 L 64.234,1383.62 L 60.786,1370.3 L 60.088,1356.56 L 62.172,1342.96 L 66.95,1330.05 L 74.228,1318.38 L 83.708,1308.41 L 95,1300.55 L 107.644,1295.12 L 121.122,1292.35 L 152,1292 L 165.688,1293.39 L 178.816,1297.51 L 185.088,1300.99 L 193.584,1292.76 L 195.286,1291.85 L 199.054,1291.1 L 304.568,1291.1 z " style="fill-opacity:1.000000;fill:rgb(51,98,65);stroke:rgb(0,0,0);stroke-width:2"/></g>
<g fill-rule="evenodd"><path d="M 304.568,1491.1 L 304.568,1481.26 L 375.432,1481.26 L 375.432,1520.63 L 304.568,1520.63 L 304.568,1510.79 L 203.13,1510.79 L 201.004,1512.91 L 209.706,1524.03 L 215.766,1536.38 L 219.214,1549.7 L 219.912,1563.44 L 217.828,1577.04 L 213.05,1589.95 L 205.772,1601.62 L 196.292,1611.59 L 185,1619.45 L 172.356,1624.88 L 158.878,1627.65 L 128.002,1628 L 114.312,1626.61 L 101.184,1622.49 L 89.154,1615.81 L 78.716,1606.85 L 70.294,1595.97 L 64.234,1583.62 L 60.786,1570.3 L 60.088,1556.56 L 62.172,1542.96 L 66.95,1530.05 L 74.228,1518.38 L 83.708,1508.41 L 95,1500.55 L 107.644,1495.12 L 121.122,1492.35 L 152,1492 L 165.688,1493.39 L 178.816,1497.51 L 185.088,1500.99 L 193.584,1492.76 L 195.286,1491.85 L 199.054,1491.1 L 304.568,1491.1 z " style="fill-opacity:1.000000;fill:rgb(243,13,35);stroke:rgb(0,0,0);stroke-width:2"/></g>
<g fill-rule="evenodd"><path d="M 304.568,1691.1 L 304.568,1681.26 L 375.432,1681.26 L 375.432,1720.63 L 304.568,1720.63 L 304.568,1710.79 L 203.13,1710.79 L 201.004,1712.91 L 209.706,1724.03 L 215.766,1736.38 L 219.214,1749.7 L 219.912,1763.44 L 217.828,1777.04 L 213.05,1789.95 L 205.772,1801.62 L 196.292,1811.59 L 185,1819.45 L 172.356,1824.88 L 158.878,1827.65 L 128.002,1828 L 114.312,1826.61 L 101.184,1822.49 L 89.154,1815.81 L 78.716,1806.85 L 70.294,1795.97 L 64.234,1783.62 L 60.786,1770.3 L 60.088,1756.56 L 62.172,1742.96 L 66.95,1730.05 L 74.228,1718.38 L 83.708,1708.41 L 95,1700.55 L 107.644,1695.12 L 121.122,1692.35 L 152,1692 L 165.688,1693.39 L 178.816,1697.51 L 185.088,1700.99 L 193.584,1692.76 L 195.286,1691.85 L 199.054,1691.1 L 304.568,1691.1 z " style="fill-opacity:1.000000;fill:rgb(229,95,48);stroke:rgb(0,0,0);stroke-width:2"/></g>
<g fill-rule="evenodd"><path d="M 304.568,1891.1 L 304.568,1881.26 L 375.432,1881.26 L 375.432,1920.63 L 304.568,1920.63 L 304.568,1910.79 L 203.13,1910.79 L 201.004,1912.91 L 209.706,1924.03 L 215.766,1936.38 L 219.214,1949.7 L 219.912,1963.44 L 217.828,1977.04 L 213.05,1989.95 L 205.772,2001.62 L 196.292,2011.59 L 185,2019.45 L 172.356,2024.88 L 158.878,2027.65 L 128.002,2028 L 114.312,2026.61 L 101.184,2022.49 L 89.154,2015.81 L 78.716,2006.85 L 70.294,1995.97 L 64.234,1983.62 L 60.786,1970.3 L 60.088,1956.56 L 62.172,1942.96 L 66.95,1930.05 L 74.228,1918.38 L 83.708,1908.41 L 95,1900.55 L 107.644,1895.12 L 121.122,1892.35 L 152,1892 L 165.688,1893.39 L 178.816,1897.51 L 185.088,1900.99 L 193.584,1892.76 L 195.286,1891.85 L 199.054,1891.1 L 304.568,1891.1 z " style="fill-opacity:1.000000;fill:rgb(209,200,237);stroke:rgb(0,0,0);stroke-width:2"/></g>
<g fill-rule="evenodd"><path d="M 304.568,2091.1 L 304.568,2081.26 L 375.432,2081.26 L 375.432,2120.63 L 304.568,2120.63 L 304.568,2110.79 L 203.13,2110.79 L 201.004,2112.91 L 209.706,2124.03 L 215.766,2136.38 L 219.214,2149.7 L 219.912,2163.44 L 217.828,2177.04 L 213.05,2189.95 L 205.772,2201.62 L 196.292,2211.59 L 185,2219.45 L 172.356,2224.88 L 158.878,2227.65 L 128.002,2228 L 114.312,2226.61 L 101.184,2222.49 L 89.154,2215.81 L 78.716,2206.85 L 70.294,2195.97 L 64.234,2183.62 L 60.786,2170.3 L 60.088,2156.56 L 62.172,2142.96 L 66.95,2130.05 L 74.228,2118.38 L 83.708,2108.41 L 95,2100.55 L 107.644,2095.12 L 121.122,2092.35 L 152,2092 L 165.688,2093.39 L 178.816,2097.51 L 185.088,2100.99 L 193.584,2092.76 L 195.286,2091.85 L 199.054,2091.1 L 304.568,2091.1 z " style="fill-opacity:1.000000;fill:rgb(97,12,75);stroke:rgb(0,0,0);stroke-width:2"/></g>
<g fill-rule="evenodd"><path d="M 220,169.842 L 220,228 L 60,228 L 60,92 L 220,92 L 220,150.158 L 235.924,150.158 L 353.04,33.042 L 354.53,31.818 L 358.078,30.348 L 554.172,30.158 L 557.938,30.908 L 561.13,33.042 L 654.802,126.714 L 654.802,85.512 L 733.542,85.512 L 733.542,274.488 L 704.014,274.488 L 704.014,325.512 L 733.542,325.512 L 733.542,514.488 L 704.014,514.488 L 704.014,565.512 L 733.542,565.512 L 733.542,754.488 L 704.014,754.488 L 704.014,805.512 L 733.542,805.512 L 733.542,994.488 L 704.014,994.488 L 704.014,1045.51 L 733.542,1045.51 L 733.542,1234.49 L 704.014,1234.49 L 704.014,1285.51 L 733.542,1285.51 L 733.542,1474.49 L 704.014,1474.49 L 704.014,1525.51 L 733.542,1525.51 L 733.542,1714.49 L 704.014,1714.49 L 704.014,1765.51 L 733.542,1765.51 L 733.542,1954.49 L 704.014,1954.49 L 704.014,2005.51 L 733.542,2005.51 L 733.542,2194.49 L 704.014,2194.49 L 704.014,2245.51 L 733.542,2245.51 L 733.542,2434.49 L 654.802,2434.49 L 654.802,2245.51 L 684.33,2245.51 L 684.33,2194.49 L 654.802,2194.49 L 654.802,2005.51 L 684.33,2005.51 L 684.33,1954.49 L 654.802,1954.49 L 654.802,1765.51 L 684.33,1765.51 L 684.33,1714.49 L 654.802,1714.49 L 654.802,1525.51 L 684.33,1525.51 L 684.33,1474.49 L 654.802,1474.49 L 654.802,1285.51 L 684.33,1285.51 L 684.33,1234.49 L 654.802,1234.49 L 654.802,1045.51 L 684.33,1045.51 L 684.33,994.488 L 654.802,994.488 L 654.802,805.512 L 684.33,805.512 L 684.33,754.488 L 654.802,754.488 L 654.802,565.512 L 684.33,565.512 L 684.33,514.488 L 654.802,514.488 L 654.802,325.512 L 684.33,325.512 L 684.33,274.488 L 654.802,274.488 L 654.802,154.55 L 550.094,49.842 L 364.076,49.842 L 246.958,166.96 L 243.764,169.094 L 241.918,169.654 L 220,169.842 z " style="fill-opacity:1.000000;fill:rgb(2,53,57);stroke:rgb(0,0,0);stroke-width:2"/></g>
<g fill-rule="evenodd"><path d="M 304.568,409.214 L 304.568,399.372 L 375.432,399.372 L 375.432,438.74 L 304.568,438.74 L 304.568,428.898 L 197.132,428.71 L 193.586,427.24 L 185.314,419.234 L 172.356,424.88 L 158.878,427.65 L 128.002,428 L 114.312,426.608 L 101.184,422.488 L 89.154,415.81 L 78.716,406.848 L 70.294,395.968 L 64.234,383.616 L 60.786,370.296 L 60.088,356.556 L 62.172,342.956 L 66.95,330.054 L 74.228,318.378 L 83.708,308.406 L 95,300.546 L 107.644,295.12 L 121.122,292.35 L 152,292 L 165.688,293.392 L 178.816,297.512 L 190.846,304.19 L 201.284,313.152 L 209.706,324.032 L 215.766,336.384 L 219.214,349.704 L 219.912,363.444 L 217.828,377.044 L 213.05,389.946 L 205.772,401.622 L 200.784,406.868 L 203.128,409.214 L 304.568,409.214 z " style="fill-opacity:1.000000;fill:rgb(129,132,184);stroke:rgb(0,0,0);stroke-width:2"/></g>
<g fill-rule="evenodd"><path d="M 304.568,609.214 L 304.568,599.372 L 375.432,599.372 L 375.432,638.74 L 304.568,638.74 L 304.568,628.898 L 197.132,628.71 L 193.586,627.24 L 185.314,619.234 L 172.356,624.88 L 158.878,627.65 L 128.002,628 L 114.312,626.608 L 101.184,622.488 L 89.154,615.81 L 78.716,606.848 L 70.294,595.968 L 64.234,583.616 L 60.786,570.296 L 60.088,556.556 L 62.172,542.956 L 66.95,530.054 L 74.228,518.378 L 83.708,508.406 L 95,500.546 L 107.644,495.12 L 121.122,492.35 L 152,492 L 165.688,493.392 L 178.816,497.512 L 190.846,504.19 L 201.284,513.152 L 209.706,524.032 L 215.766,536.384 L 219.214,549.704 L 219.912,563.444 L 217.828,577.044 L 213.05,589.946 L 205.772,601.622 L 200.784,606.868 L 203.128,609.214 L 304.568,609.214 z " style="fill-opacity:1.000000;fill:rgb(20,162,156);stroke:rgb(0,0,0);stroke-width:2"/></g>
<g fill-rule="evenodd"><path d="M 304.568,809.214 L 304.568,799.372 L 375.432,799.372 L 375.432,838.74 L 304.568,838.74 L 304.568,828.898 L 197.132,828.71 L 193.586,827.24 L 185.314,819.234 L 172.356,824.88 L 158.878,827.65 L 128.002,828 L 114.312,826.608 L 101.184,822.488 L 89.154,815.81 L 78.716,806.848 L 70.294,795.968 L 64.234,783.616 L 60.786,770.296 L 60.088,756.556 L 62.172,742.956 L 66.95,730.054 L 74.228,718.378 L 83.708,708.406 L 95,700.546 L 107.644,695.12 L 121.122,692.35 L 152,692 L 165.688,693.392 L 178.816,697.512 L 190.846,704.19 L 201.284,713.152 L 209.706,724.032 L 215.766,736.384 L 219.214,749.704 L 219.912,763.444 L 217.828,777.044 L 213.05,789.946 L 205.772,801.622 L 200.784,806.868 L 203.128,809.214 L 304.568,809.214 z " style="fill-opacity:1.000000;fill:rgb(180,90,103);stroke:rgb(0,0,0);stroke-width:2"/></g>
<g fill-rule="evenodd"><path d="M 304.568,1009.21 L 304.568,999.372 L 375.432,999.372 L 375.432,1038.74 L 304.568,1038.74 L 304.568,1028.9 L 197.132,1028.71 L 193.586,1027.24 L 185.314,1019.23 L 172.356,1024.88 L 158.878,1027.65 L 128.002,1028 L 114.312,1026.61 L 101.184,1022.49 L 89.154,1015.81 L 78.716,1006.85 L 70.294,995.968 L 64.234,983.616 L 60.786,970.296 L 60.088,956.556 L 62.172,942.956 L 66.95,930.054 L 74.228,918.378 L 83.708,908.406 L 95,900.546 L 107.644,895.12 L 121.122,892.35 L 152,892 L 165.688,893.392 L 178.816,897.512 L 190.846,904.19 L 201.284,913.152 L 209.706,924.032 L 215.766,936.384 L 219.214,949.704 L 219.912,963.444 L 217.828,977.044 L 213.05,989.946 L 205.772,1001.62 L 200.784,1006.87 L 203.128,1009.21 L 304.568,1009.21 z " style="fill-opacity:1.000000;fill:rgb(42,202,229);stroke:rgb(0,0,0);stroke-width:2"/></g>
</svg>
