<?xml version="1.0" standalone="no"?>
<!DOCTYPE svg PUBLIC "-//W3C//DTD SVG 1.1//EN"
"http://www.w3.org/Graphics/SVG/1.1/DTD/svg11.dtd">
<svg width="858" height="2558" viewBox="0 0 858 2558" version="1.1"
xmlns="http://www.w3.org/2000/svg"
xmlns:xlink="http://www.w3.org/1999/xlink">
<g fill-rule="evenodd"><path d="M -2.84217e-14,40.0685 L 0.757347,32.3952 L 2.99542,25.0155 L 6.63028,18.2154 L 11.5221,12.2545 L 17.4829,7.36275 L 24.2831,3.72789 L 31.6627,1.48982 L 39.3361,0.732469 L 818.664,0.732469 L 826.337,1.48982 L 833.717,3.72789 L 840.517,7.36275 L 846.478,12.2545 L 851.37,18.2154 L 855.005,25.0155 L 857.243,32.3952 L 858,40.0685 L 858,2517.93 L 857.243,2525.6 L 855.005,2532.98 L 851.37,2539.78 L 846.478,2545.75 L 840.517,2550.64 L 833.717,2554.27 L 826.337,2556.51 L 818.664,2557.27 L 39.3361,2557.27 L 31.6627,2556.51 L 24.2831,2554.27 L 17.4829,2550.64 L 11.5221,2545.75 L 6.63028,2539.78 L 2.99542,2532.98 L 0.757347,2525.6 L -2.84217e-14,2517.93 L -2.84217e-14,40.0685 z " style="fill-opacity:1.000000;fill:rgb(167,241,217);stroke:rgb(0,0,0);stroke-width:2"/></g>
</svg>
