<?xml version="1.0" standalone="no"?>
<!DOCTYPE svg PUBLIC "-//W3C//DTD SVG 1.1//EN"
"http://www.w3.org/Graphics/SVG/1.1/DTD/svg11.dtd">
<svg width="673" height="2404" viewBox="0 0 673 2404" version="1.1"
xmlns="http://www.w3.org/2000/svg"
xmlns:xlink="http://www.w3.org/1999/xlink">
<g fill-rule="evenodd"><path d="M 444.839,2403.2 L 366.162,2403.2 L 366.162,2283.36 L 290.413,2207.61 L 244.372,2207.61 L 244.372,2168.27 L 315.179,2168.27 L 315.179,2204.56 L 366.162,2255.54 L 366.162,2214.37 L 444.839,2214.37 L 444.839,2403.2 z " style="fill-opacity:1.000000;fill:rgb(167,241,217);stroke:rgb(0,0,0);stroke-width:2"/></g>
<g fill-rule="evenodd"><path d="M 315.179,1798.09 L 315.179,1807.93 L 244.372,1807.93 L 244.372,1768.59 L 315.179,1768.59 L 315.179,1778.43 L 366.162,1778.58 L 366.162,1734.76 L 444.839,1734.76 L 444.839,1923.58 L 366.162,1923.58 L 366.162,1803.74 L 360.515,1798.09 L 315.179,1798.09 z " style="fill-opacity:1.000000;fill:rgb(42,130,200);stroke:rgb(0,0,0);stroke-width:2"/></g>
<g fill-rule="evenodd"><path d="M 315.179,1598.25 L 315.179,1608.09 L 244.372,1608.09 L 244.372,1568.75 L 315.179,1568.75 L 315.179,1578.59 L 366.162,1578.59 L 366.162,1494.95 L 444.839,1494.95 L 444.839,1683.78 L 366.162,1683.78 L 366.162,1598.25 L 315.179,1598.25 z " style="fill-opacity:1.000000;fill:rgb(216,254,67);stroke:rgb(0,0,0);stroke-width:2"/></g>
<g fill-rule="evenodd"><path d="M 315.179,1398.42 L 315.179,1408.25 L 244.372,1408.25 L 244.372,1368.91 L 315.179,1368.91 L 315.179,1378.75 L 362.403,1378.75 L 366.162,1374.99 L 366.162,1255.15 L 444.839,1255.15 L 444.839,1443.97 L 366.162,1443.97 L 366.162,1398.42 L 315.179,1398.42 z " style="fill-opacity:1.000000;fill:rgb(77,152,85);stroke:rgb(0,0,0);stroke-width:2"/></g>
<g fill-rule="evenodd"><path d="M 290.413,251.703 L 366.162,175.954 L 366.162,56.1108 L 444.839,56.1108 L 444.839,244.935 L 366.162,244.935 L 366.162,203.768 L 315.179,254.751 L 315.179,291.04 L 244.372,291.04 L 244.372,251.703 L 290.413,251.703 z " style="fill-opacity:1.000000;fill:rgb(140,226,179);stroke:rgb(0,0,0);stroke-width:2"/></g>
<g fill-rule="evenodd"><path d="M 315.179,1080.56 L 315.179,1090.4 L 244.372,1090.4 L 244.372,1051.06 L 315.179,1051.06 L 315.179,1060.89 L 366.162,1060.89 L 366.162,1015.34 L 444.839,1015.34 L 444.839,1204.16 L 366.162,1204.16 L 366.162,1084.32 L 362.403,1080.56 L 315.179,1080.56 z " style="fill-opacity:1.000000;fill:rgb(71,23,17);stroke:rgb(0,0,0);stroke-width:2"/></g>
<g fill-rule="evenodd"><path d="M 315.179,880.723 L 315.179,890.557 L 244.372,890.557 L 244.372,851.22 L 315.179,851.22 L 315.179,861.055 L 366.162,861.055 L 366.162,775.531 L 444.839,775.531 L 444.839,964.355 L 366.162,964.355 L 366.162,880.723 L 315.179,880.723 z " style="fill-opacity:1.000000;fill:rgb(152,84,47);stroke:rgb(0,0,0);stroke-width:2"/></g>
<g fill-rule="evenodd"><path d="M 315.179,680.884 L 315.179,690.718 L 244.372,690.718 L 244.372,651.381 L 315.179,651.381 L 315.179,661.216 L 360.515,661.216 L 366.162,655.568 L 366.162,535.725 L 444.839,535.725 L 444.839,724.549 L 366.162,724.549 L 366.162,680.728 L 315.179,680.884 z " style="fill-opacity:1.000000;fill:rgb(17,45,5);stroke:rgb(0,0,0);stroke-width:2"/></g>
<g fill-rule="evenodd"><path d="M 366.162,2015.73 L 366.162,1974.57 L 444.839,1974.57 L 444.839,2163.39 L 366.162,2163.39 L 366.162,2043.55 L 320.547,1997.93 L 315.179,1997.93 L 315.179,2007.77 L 244.372,2007.77 L 244.372,1968.43 L 315.179,1968.43 L 315.179,1978.26 L 326.538,1978.45 L 330.081,1979.92 L 366.162,2015.73 z " style="fill-opacity:1.000000;fill:rgb(88,245,107);stroke:rgb(0,0,0);stroke-width:2"/></g>
<g fill-rule="evenodd"><path d="M 366.162,415.761 L 366.162,295.918 L 444.839,295.918 L 444.839,484.742 L 366.162,484.742 L 366.162,443.575 L 330.081,479.388 L 326.536,480.857 L 315.179,481.045 L 315.179,490.879 L 244.372,490.879 L 244.372,451.542 L 315.179,451.542 L 315.179,461.376 L 320.547,461.376 L 366.162,415.761 z " style="fill-opacity:1.000000;fill:rgb(214,136,7);stroke:rgb(0,0,0);stroke-width:2"/></g>
<g fill-rule="evenodd"><path d="M 244.372,1178.91 L 244.372,1169.07 L 315.179,1169.07 L 315.179,1208.41 L 244.372,1208.41 L 244.372,1198.58 L 137.023,1198.39 L 133.48,1196.92 L 125.214,1188.92 L 112.267,1194.56 L 98.7994,1197.33 L 67.9483,1197.68 L 54.2693,1196.29 L 41.1519,1192.17 L 29.1315,1185.5 L 18.7019,1176.54 L 10.2867,1165.67 L 4.23159,1153.33 L 0.786367,1140.02 L 0.0889284,1126.29 L 2.17125,1112.7 L 6.94541,1099.81 L 14.2175,1088.15 L 23.6899,1078.18 L 34.9728,1070.33 L 47.6067,1064.91 L 61.0738,1062.14 L 91.927,1061.79 L 105.604,1063.18 L 118.721,1067.3 L 130.742,1073.97 L 141.171,1082.92 L 149.587,1093.8 L 155.642,1106.14 L 159.087,1119.45 L 159.784,1133.18 L 157.702,1146.76 L 152.928,1159.66 L 145.656,1171.32 L 140.672,1176.56 L 143.014,1178.91 L 244.372,1178.91 z " style="fill-opacity:1.000000;fill:rgb(153,146,72);stroke:rgb(0,0,0);stroke-width:2"/></g>
<g fill-rule="evenodd"><path d="M 244.372,1260.73 L 244.372,1250.9 L 315.179,1250.9 L 315.179,1290.23 L 244.372,1290.23 L 244.372,1280.4 L 143.016,1280.4 L 140.892,1282.52 L 149.587,1293.63 L 155.642,1305.98 L 159.087,1319.29 L 159.784,1333.01 L 157.702,1346.6 L 152.928,1359.5 L 145.656,1371.16 L 136.183,1381.13 L 124.9,1388.98 L 112.267,1394.4 L 98.7994,1397.17 L 67.9483,1397.52 L 54.2693,1396.13 L 41.1519,1392.01 L 29.1315,1385.34 L 18.7019,1376.38 L 10.2867,1365.51 L 4.23159,1353.17 L 0.786367,1339.86 L 0.0889284,1326.13 L 2.17125,1312.54 L 6.94541,1299.65 L 14.2175,1287.98 L 23.6899,1278.02 L 34.9728,1270.17 L 47.6067,1264.75 L 61.0738,1261.98 L 91.927,1261.63 L 105.604,1263.02 L 118.721,1267.14 L 124.988,1270.61 L 133.478,1262.39 L 135.178,1261.48 L 138.943,1260.73 L 244.372,1260.73 z " style="fill-opacity:1.000000;fill:rgb(51,98,65);stroke:rgb(0,0,0);stroke-width:2"/></g>
<g fill-rule="evenodd"><path d="M 244.372,1460.57 L 244.372,1450.74 L 315.179,1450.74 L 315.179,1490.07 L 244.372,1490.07 L 244.372,1480.24 L 143.016,1480.24 L 140.892,1482.36 L 149.587,1493.47 L 155.642,1505.82 L 159.087,1519.12 L 159.784,1532.85 L 157.702,1546.44 L 152.928,1559.33 L 145.656,1571 L 136.183,1580.96 L 124.9,1588.82 L 112.267,1594.24 L 98.7994,1597.01 L 67.9483,1597.36 L 54.2693,1595.97 L 41.1519,1591.85 L 29.1315,1585.18 L 18.7019,1576.22 L 10.2867,1565.35 L 4.23159,1553.01 L 0.786367,1539.7 L 0.0889284,1525.97 L 2.17125,1512.38 L 6.94541,1499.49 L 14.2175,1487.82 L 23.6899,1477.86 L 34.9728,1470.01 L 47.6067,1464.58 L 61.0738,1461.82 L 91.927,1461.47 L 105.604,1462.86 L 118.721,1466.97 L 124.988,1470.45 L 133.478,1462.23 L 135.178,1461.32 L 138.943,1460.57 L 244.372,1460.57 z " style="fill-opacity:1.000000;fill:rgb(243,13,35);stroke:rgb(0,0,0);stroke-width:2"/></g>
<g fill-rule="evenodd"><path d="M 244.372,1660.41 L 244.372,1650.58 L 315.179,1650.58 L 315.179,1689.91 L 244.372,1689.91 L 244.372,1680.08 L 143.016,1680.08 L 140.892,1682.2 L 149.587,1693.31 L 155.642,1705.65 L 159.087,1718.96 L 159.784,1732.69 L 157.702,1746.28 L 152.928,1759.17 L 145.656,1770.84 L 136.183,1780.8 L 124.9,1788.66 L 112.267,1794.08 L 98.7994,1796.85 L 67.9483,1797.2 L 54.2693,1795.81 L 41.1519,1791.69 L 29.1315,1785.02 L 18.7019,1776.06 L 10.2867,1765.19 L 4.23159,1752.85 L 0.786367,1739.54 L 0.0889284,1725.81 L 2.17125,1712.22 L 6.94541,1699.33 L 14.2175,1687.66 L 23.6899,1677.7 L 34.9728,1669.85 L 47.6067,1664.42 L 61.0738,1661.66 L 91.927,1661.31 L 105.604,1662.7 L 118.721,1666.81 L 124.988,1670.29 L 133.478,1662.07 L 135.178,1661.16 L 138.943,1660.41 L 244.372,1660.41 z " style="fill-opacity:1.000000;fill:rgb(229,95,48);stroke:rgb(0,0,0);stroke-width:2"/></g>
<g fill-rule="evenodd"><path d="M 244.372,1860.25 L 244.372,1850.42 L 315.179,1850.42 L 315.179,1889.75 L 244.372,1889.75 L 244.372,1879.92 L 143.016,1879.92 L 140.892,1882.04 L 149.587,1893.15 L 155.642,1905.49 L 159.087,1918.8 L 159.784,1932.53 L 157.702,1946.12 L 152.928,1959.01 L 145.656,1970.68 L 136.183,1980.64 L 124.9,1988.5 L 112.267,1993.92 L 98.7994,1996.69 L 67.9483,1997.04 L 54.2693,1995.64 L 41.1519,1991.53 L 29.1315,1984.86 L 18.7019,1975.9 L 10.2867,1965.03 L 4.23159,1952.69 L 0.786367,1939.38 L 0.0889284,1925.65 L 2.17125,1912.06 L 6.94541,1899.17 L 14.2175,1887.5 L 23.6899,1877.54 L 34.9728,1869.68 L 47.6067,1864.26 L 61.0738,1861.49 L 91.927,1861.15 L 105.604,1862.54 L 118.721,1866.65 L 124.988,1870.13 L 133.478,1861.91 L 135.178,1861 L 138.943,1860.25 L 244.372,1860.25 z " style="fill-opacity:1.000000;fill:rgb(209,200,237);stroke:rgb(0,0,0);stroke-width:2"/></g>
<g fill-rule="evenodd"><path d="M 244.372,2060.09 L 244.372,2050.25 L 315.179,2050.25 L 315.179,2089.59 L 244.372,2089.59 L 244.372,2079.76 L 143.016,2079.76 L 140.892,2081.88 L 149.587,2092.99 L 155.642,2105.33 L 159.087,2118.64 L 159.784,2132.37 L 157.702,2145.96 L 152.928,2158.85 L 145.656,2170.52 L 136.183,2180.48 L 124.9,2188.34 L 112.267,2193.76 L 98.7994,2196.53 L 67.9483,2196.87 L 54.2693,2195.48 L 41.1519,2191.37 L 29.1315,2184.69 L 18.7019,2175.74 L 10.2867,2164.87 L 4.23159,2152.53 L 0.786367,2139.22 L 0.0889284,2125.49 L 2.17125,2111.9 L 6.94541,2099.01 L 14.2175,2087.34 L 23.6899,2077.38 L 34.9728,2069.52 L 47.6067,2064.1 L 61.0738,2061.33 L 91.927,2060.98 L 105.604,2062.38 L 118.721,2066.49 L 124.988,2069.97 L 133.478,2061.75 L 135.178,2060.84 L 138.943,2060.09 L 244.372,2060.09 z " style="fill-opacity:1.000000;fill:rgb(97,12,75);stroke:rgb(0,0,0);stroke-width:2"/></g>
<g fill-rule="evenodd"><path d="M 0.000999195,198.484 L 0.000999195,62.5936 L 159.872,62.5936 L 159.872,120.705 L 175.783,120.705 L 292.805,3.68306 L 294.294,2.46005 L 297.839,0.991231 L 493.775,0.801384 L 497.538,1.55078 L 500.728,3.68306 L 594.324,97.2797 L 594.324,56.1108 L 673.001,56.1108 L 673.001,244.935 L 643.497,244.935 L 643.497,295.918 L 673.001,295.918 L 673.001,484.742 L 643.497,484.742 L 643.497,535.725 L 673.001,535.725 L 673.001,724.549 L 643.497,724.549 L 643.497,775.531 L 673.001,775.531 L 673.001,964.355 L 643.497,964.355 L 643.497,1015.34 L 673.001,1015.34 L 673.001,1204.16 L 643.497,1204.16 L 643.497,1255.15 L 673.001,1255.15 L 673.001,1443.97 L 643.497,1443.97 L 643.497,1494.95 L 673.001,1494.95 L 673.001,1683.78 L 643.497,1683.78 L 643.497,1734.76 L 673.001,1734.76 L 673.001,1923.58 L 643.497,1923.58 L 643.497,1974.57 L 673.001,1974.57 L 673.001,2163.39 L 643.497,2163.39 L 643.497,2214.37 L 673.001,2214.37 L 673.001,2403.2 L 594.324,2403.2 L 594.324,2214.37 L 623.829,2214.37 L 623.829,2163.39 L 594.324,2163.39 L 594.324,1974.57 L 623.829,1974.57 L 623.829,1923.58 L 594.324,1923.58 L 594.324,1734.76 L 623.829,1734.76 L 623.829,1683.78 L 594.324,1683.78 L 594.324,1494.95 L 623.829,1494.95 L 623.829,1443.97 L 594.324,1443.97 L 594.324,1255.15 L 623.829,1255.15 L 623.829,1204.16 L 594.324,1204.16 L 594.324,1015.34 L 623.829,1015.34 L 623.829,964.355 L 594.324,964.355 L 594.324,775.531 L 623.829,775.531 L 623.829,724.549 L 594.324,724.549 L 594.324,535.725 L 623.829,535.725 L 623.829,484.742 L 594.324,484.742 L 594.324,295.918 L 623.829,295.918 L 623.829,244.935 L 594.324,244.935 L 594.324,125.093 L 489.701,20.4695 L 303.832,20.4695 L 186.809,137.493 L 183.617,139.626 L 181.773,140.185 L 159.872,140.373 L 159.872,198.484 L 0.000999195,198.484 z " style="fill-opacity:1.000000;fill:rgb(2,53,57);stroke:rgb(0,0,0);stroke-width:2"/></g>
<g fill-rule="evenodd"><path d="M 244.372,379.552 L 244.372,369.718 L 315.179,369.718 L 315.179,409.055 L 244.372,409.055 L 244.372,399.221 L 137.023,399.033 L 133.48,397.564 L 125.214,389.564 L 112.267,395.206 L 98.7994,397.974 L 67.9483,398.323 L 54.2693,396.932 L 41.1519,392.816 L 29.1315,386.143 L 18.7019,377.188 L 10.2867,366.317 L 4.23159,353.975 L 0.786367,340.666 L 0.0889284,326.937 L 2.17125,313.348 L 6.94541,300.456 L 14.2175,288.789 L 23.6899,278.825 L 34.9728,270.972 L 47.6067,265.55 L 61.0738,262.782 L 91.927,262.433 L 105.604,263.824 L 118.721,267.94 L 130.742,274.613 L 141.171,283.568 L 149.587,294.439 L 155.642,306.781 L 159.087,320.09 L 159.784,333.819 L 157.702,347.408 L 152.928,360.3 L 145.656,371.966 L 140.672,377.208 L 143.014,379.552 L 244.372,379.552 z " style="fill-opacity:1.000000;fill:rgb(129,132,184);stroke:rgb(0,0,0);stroke-width:2"/></g>
<g fill-rule="evenodd"><path d="M 244.372,579.391 L 244.372,569.557 L 315.179,569.557 L 315.179,608.894 L 244.372,608.894 L 244.372,599.06 L 137.023,598.872 L 133.48,597.403 L 125.214,589.403 L 112.267,595.045 L 98.7994,597.813 L 67.9483,598.162 L 54.2693,596.771 L 41.1519,592.655 L 29.1315,585.982 L 18.7019,577.027 L 10.2867,566.156 L 4.23159,553.814 L 0.786367,540.505 L 0.0889284,526.776 L 2.17125,513.187 L 6.94541,500.295 L 14.2175,488.629 L 23.6899,478.665 L 34.9728,470.811 L 47.6067,465.389 L 61.0738,462.621 L 91.927,462.272 L 105.604,463.663 L 118.721,467.779 L 130.742,474.452 L 141.171,483.407 L 149.587,494.278 L 155.642,506.62 L 159.087,519.929 L 159.784,533.658 L 157.702,547.247 L 152.928,560.139 L 145.656,571.806 L 140.672,577.047 L 143.014,579.391 L 244.372,579.391 z " style="fill-opacity:1.000000;fill:rgb(20,162,156);stroke:rgb(0,0,0);stroke-width:2"/></g>
<g fill-rule="evenodd"><path d="M 244.372,779.23 L 244.372,769.396 L 315.179,769.396 L 315.179,808.733 L 244.372,808.733 L 244.372,798.899 L 137.023,798.711 L 133.48,797.242 L 125.214,789.242 L 112.267,794.884 L 98.7994,797.652 L 67.9483,798.001 L 54.2693,796.61 L 41.1519,792.494 L 29.1315,785.821 L 18.7019,776.866 L 10.2867,765.995 L 4.23159,753.653 L 0.786367,740.344 L 0.0889284,726.615 L 2.17125,713.026 L 6.94541,700.134 L 14.2175,688.468 L 23.6899,678.504 L 34.9728,670.65 L 47.6067,665.228 L 61.0738,662.461 L 91.927,662.111 L 105.604,663.502 L 118.721,667.618 L 130.742,674.291 L 141.171,683.246 L 149.587,694.117 L 155.642,706.459 L 159.087,719.768 L 159.784,733.497 L 157.702,747.086 L 152.928,759.978 L 145.656,771.645 L 140.672,776.886 L 143.014,779.23 L 244.372,779.23 z " style="fill-opacity:1.000000;fill:rgb(180,90,103);stroke:rgb(0,0,0);stroke-width:2"/></g>
<g fill-rule="evenodd"><path d="M 244.372,979.07 L 244.372,969.235 L 315.179,969.235 L 315.179,1008.57 L 244.372,1008.57 L 244.372,998.738 L 137.023,998.55 L 133.48,997.081 L 125.214,989.081 L 112.267,994.723 L 98.7994,997.491 L 67.9483,997.84 L 54.2693,996.45 L 41.1519,992.333 L 29.1315,985.66 L 18.7019,976.705 L 10.2867,965.834 L 4.23159,953.492 L 0.786367,940.183 L 0.0889284,926.454 L 2.17125,912.865 L 6.94541,899.973 L 14.2175,888.307 L 23.6899,878.343 L 34.9728,870.489 L 47.6067,865.067 L 61.0738,862.3 L 91.927,861.95 L 105.604,863.341 L 118.721,867.457 L 130.742,874.13 L 141.171,883.085 L 149.587,893.956 L 155.642,906.298 L 159.087,919.607 L 159.784,933.336 L 157.702,946.925 L 152.928,959.817 L 145.656,971.484 L 140.672,976.725 L 143.014,979.07 L 244.372,979.07 z " style="fill-opacity:1.000000;fill:rgb(42,202,229);stroke:rgb(0,0,0);stroke-width:2"/></g>
</svg>
