<?xml version="1.0" standalone="no"?>
<!DOCTYPE svg PUBLIC "-//W3C//DTD SVG 1.1//EN"
"http://www.w3.org/Graphics/SVG/1.1/DTD/svg11.dtd">
<svg width="780" height="2480" viewBox="0 0 780 2480" version="1.1"
xmlns="http://www.w3.org/2000/svg"
xmlns:xlink="http://www.w3.org/1999/xlink">
<g fill-rule="evenodd"><path d="M 579.998,2480 L 177.542,2480 L 203.768,2446.07 L 212.964,2434.49 L 214.936,2432.07 L 217.844,2428.47 L 226.066,2350.04 L 229.582,2323.34 L 234.798,2291 L 238.594,2272.37 L 242.758,2255.77 L 247.306,2241.11 L 248.196,2238.74 L 251.124,2229.89 L 255.062,2216.13 L 257.338,2206.35 L 258.588,2199.37 L 260.046,2192.68 L 262.316,2183.86 L 266.812,2170.63 L 270.658,2161.57 L 275.04,2160 L 304.568,2160 L 375.432,2160 L 385.754,2160 L 396.146,2177.25 L 400.71,2194.49 L 401.176,2199.37 L 403.206,2209.69 L 407.322,2220 L 426.456,2220 L 505.196,2220 L 579.998,2220 L 579.998,2245.51 L 579.998,2434.49 L 579.998,2480 z " style="fill-opacity:0.300000;fill:rgb(167,241,217);"/></g>
<g fill-rule="evenodd"><path d="M 281.866,1860 L 267.034,1851.47 L 252.202,1838.74 L 249.258,1835.8 L 251.124,1829.89 L 255.062,1816.13 L 257.338,1806.35 L 258.588,1799.37 L 260.046,1792.68 L 262.316,1783.86 L 266.812,1770.63 L 270.658,1761.57 L 275.04,1760 L 304.568,1760 L 375.432,1760 L 386.05,1760 L 403.644,1740 L 426.456,1740 L 505.196,1740 L 579.998,1740 L 579.998,1765.51 L 579.998,1954.49 L 579.998,1980 L 505.196,1980 L 426.456,1980 L 404.214,1980 L 403.368,1979.46 L 402.902,1979.16 L 386.052,1960 L 389.71,1954.49 L 398.134,1937.56 L 400.944,1920.63 L 400.944,1881.26 L 399.836,1870.63 L 396.514,1860 L 375.432,1860 L 304.568,1860 L 281.866,1860 z " style="fill-opacity:0.300000;fill:rgb(42,130,200);"/></g>
<g fill-rule="evenodd"><path d="M 281.866,1660 L 267.034,1651.47 L 252.202,1638.74 L 249.258,1635.8 L 251.124,1629.89 L 255.062,1616.13 L 257.338,1606.35 L 258.588,1599.37 L 260.046,1592.68 L 262.316,1583.86 L 266.812,1570.63 L 270.658,1561.57 L 275.04,1560 L 304.568,1560 L 375.432,1560 L 385.754,1560 L 396.146,1542.76 L 400.71,1525.51 L 401.176,1520.63 L 403.206,1510.32 L 407.322,1500 L 426.456,1500 L 505.196,1500 L 579.998,1500 L 579.998,1525.51 L 579.998,1714.49 L 579.998,1740 L 505.196,1740 L 426.456,1740 L 403.644,1740 L 401.312,1720.63 L 400.944,1714.49 L 400.944,1681.26 L 399.836,1670.63 L 396.514,1660 L 375.432,1660 L 304.568,1660 L 281.866,1660 z " style="fill-opacity:0.300000;fill:rgb(216,254,67);"/></g>
<g fill-rule="evenodd"><path d="M 281.866,1460 L 267.034,1451.47 L 252.202,1438.74 L 249.258,1435.8 L 251.124,1429.89 L 255.062,1416.13 L 257.338,1406.35 L 258.588,1399.37 L 260.046,1392.68 L 262.316,1383.86 L 266.812,1370.63 L 270.658,1361.57 L 275.04,1360 L 304.568,1360 L 375.432,1360 L 385.754,1360 L 392.398,1350.16 L 397.146,1340.32 L 399.994,1330.47 L 400.944,1320.63 L 400.944,1285.51 L 401.12,1281.26 L 402.89,1260 L 402.892,1260 L 426.456,1260 L 505.196,1260 L 579.998,1260 L 579.998,1285.51 L 579.998,1474.49 L 579.998,1500 L 505.196,1500 L 426.456,1500 L 407.322,1500 L 403.496,1490.63 L 401.392,1481.26 L 400.494,1474.49 L 396.514,1460 L 375.432,1460 L 304.568,1460 L 281.866,1460 z " style="fill-opacity:0.300000;fill:rgb(77,152,85);"/></g>
<g fill-rule="evenodd"><path d="M 275.04,360.002 L 270.546,358.39 L 266.032,347.326 L 262.982,338.374 L 259.552,325.05 L 258.768,320.63 L 257.774,315.774 L 254.582,302.016 L 251.594,291.608 L 248.058,281.264 L 247.184,278.606 L 279.056,228 L 284.792,219.56 L 294.608,214.612 L 304.568,210.054 L 318.722,204.192 L 349.384,173.53 L 382.346,93.952 L 390.784,85.512 L 399.702,77.71 L 408.62,72.136 L 417.538,68.792 L 426.456,67.678 L 505.196,67.678 L 513.116,68.558 L 521.036,71.196 L 536.878,81.748 L 538.568,85.512 L 579.998,185.536 L 579.998,274.488 L 579.998,300 L 505.196,300 L 426.456,300 L 407.322,300 L 403.206,310.316 L 401.176,320.63 L 400.71,325.512 L 396.146,342.758 L 385.754,360.002 L 375.432,360.002 L 304.568,360.002 L 275.04,360.002 z " style="fill-opacity:0.300000;fill:rgb(140,226,179);"/></g>
<g fill-rule="evenodd"><path d="M 275.04,1160 L 270.546,1158.39 L 266.032,1147.33 L 262.982,1138.37 L 259.552,1125.05 L 258.768,1120.63 L 257.774,1115.77 L 254.582,1102.02 L 251.594,1091.61 L 249.09,1084.28 L 252.112,1081.26 L 266.964,1068.53 L 281.81,1060 L 304.568,1060 L 375.432,1060 L 396.514,1060 L 400.494,1045.51 L 401.392,1038.74 L 403.496,1029.37 L 407.322,1020 L 426.456,1020 L 505.196,1020 L 579.998,1020 L 579.998,1045.51 L 579.998,1234.49 L 579.998,1260 L 505.196,1260 L 426.456,1260 L 402.892,1260 L 401.12,1238.74 L 400.944,1234.49 L 400.944,1199.37 L 399.994,1189.53 L 397.146,1179.69 L 392.398,1169.84 L 385.754,1160 L 375.432,1160 L 304.568,1160 L 275.04,1160 z " style="fill-opacity:0.300000;fill:rgb(71,23,17);"/></g>
<g fill-rule="evenodd"><path d="M 275.04,960.002 L 270.546,958.39 L 266.032,947.326 L 262.982,938.374 L 259.552,925.05 L 258.768,920.63 L 257.774,915.774 L 254.582,902.016 L 251.594,891.608 L 249.09,884.28 L 252.112,881.264 L 266.964,868.532 L 281.81,860.002 L 304.568,860.002 L 375.432,860.002 L 396.514,860.002 L 399.836,849.372 L 400.944,838.74 L 400.944,805.512 L 401.312,799.372 L 403.644,780 L 426.456,780 L 505.196,780 L 579.998,780 L 579.998,805.512 L 579.998,994.488 L 579.998,1020 L 505.196,1020 L 426.456,1020 L 407.322,1020 L 403.206,1009.69 L 401.176,999.372 L 400.71,994.488 L 396.146,977.246 L 385.754,960.002 L 375.432,960.002 L 304.568,960.002 L 275.04,960.002 z " style="fill-opacity:0.300000;fill:rgb(152,84,47);"/></g>
<g fill-rule="evenodd"><path d="M 275.04,760.002 L 270.546,758.39 L 266.032,747.326 L 262.982,738.374 L 259.552,725.05 L 258.768,720.63 L 257.774,715.774 L 254.582,702.016 L 251.594,691.608 L 249.09,684.28 L 252.112,681.262 L 266.964,668.532 L 281.81,660.002 L 304.568,660.002 L 375.432,660.002 L 396.514,660.002 L 399.836,649.372 L 400.944,638.74 L 400.944,599.372 L 398.134,582.442 L 389.708,565.512 L 386.05,560.002 L 402.9,540.846 L 403.362,540.548 L 404.218,540 L 426.456,540 L 505.196,540 L 579.998,540 L 579.998,565.512 L 579.998,754.488 L 579.998,780 L 505.196,780 L 426.456,780 L 403.644,780 L 386.052,760.002 L 375.432,760.002 L 304.568,760.002 L 275.04,760.002 z " style="fill-opacity:0.300000;fill:rgb(17,45,5);"/></g>
<g fill-rule="evenodd"><path d="M 281.866,2060 L 267.034,2051.47 L 252.202,2038.74 L 249.258,2035.8 L 251.124,2029.89 L 255.062,2016.13 L 257.338,2006.35 L 258.588,1999.37 L 260.046,1992.68 L 262.316,1983.86 L 266.812,1970.63 L 270.658,1961.57 L 275.04,1960 L 304.568,1960 L 375.432,1960 L 386.052,1960 L 402.902,1979.16 L 403.368,1979.46 L 404.214,1980 L 426.456,1980 L 505.196,1980 L 579.998,1980 L 579.998,2005.51 L 579.998,2194.49 L 579.998,2220 L 505.196,2220 L 426.456,2220 L 407.322,2220 L 403.206,2209.69 L 401.176,2199.37 L 400.71,2194.49 L 396.146,2177.25 L 385.754,2160 L 392.398,2150.16 L 397.146,2140.32 L 399.994,2130.47 L 400.944,2120.63 L 400.944,2085.12 L 399.346,2081.26 L 391.818,2068.92 L 380.87,2060 L 375.432,2060 L 304.568,2060 L 281.866,2060 z " style="fill-opacity:0.300000;fill:rgb(88,245,107);"/></g>
<g fill-rule="evenodd"><path d="M 275.04,560.002 L 270.546,558.39 L 266.032,547.326 L 262.982,538.374 L 259.552,525.05 L 258.768,520.63 L 257.774,515.774 L 254.582,502.016 L 251.594,491.608 L 249.09,484.28 L 252.112,481.264 L 266.964,468.532 L 281.81,460.002 L 304.568,460.002 L 375.432,460.002 L 380.87,460.002 L 391.818,451.08 L 399.346,438.74 L 400.944,434.886 L 400.944,399.372 L 399.994,389.53 L 397.146,379.688 L 392.398,369.844 L 385.754,360.002 L 396.146,342.758 L 400.71,325.512 L 401.176,320.63 L 403.206,310.316 L 407.322,300 L 426.456,300 L 505.196,300 L 579.998,300 L 579.998,325.512 L 579.998,514.488 L 579.998,540 L 505.196,540 L 426.456,540 L 404.218,540 L 403.362,540.548 L 402.9,540.846 L 386.05,560.002 L 375.432,560.002 L 304.568,560.002 L 275.04,560.002 z " style="fill-opacity:0.300000;fill:rgb(214,136,7);"/></g>
<g fill-rule="evenodd"><path d="M 0,1059.92 L 10.126,1059.94 L 12.878,1060.05 L 32.798,1060.01 L 33.088,1059.99 L 49.992,1059.97 L 51.186,1060.03 L 64.592,1060.06 L 66.738,1059.95 L 77.57,1059.93 L 80.32,1060.07 L 89.386,1060.08 L 92.538,1059.92 L 100.408,1059.92 L 103.804,1060.09 L 110.906,1060.09 L 114.454,1059.91 L 120.754,1059.89 L 124.74,1060.07 L 128.366,1060.13 L 151.634,1059.87 L 155.26,1059.93 L 159.244,1060.11 L 165.544,1060.09 L 169.092,1059.91 L 176.194,1059.91 L 179.194,1060.07 L 179.874,1060.32 L 183.484,1061.63 L 189.484,1063.51 L 196.632,1065.42 L 197.066,1065.53 L 210.384,1068.99 L 218.788,1071.65 L 232.538,1076.75 L 242.664,1081.12 L 249.09,1084.28 L 251.594,1091.61 L 254.582,1102.02 L 257.774,1115.77 L 258.768,1120.63 L 259.552,1125.05 L 262.982,1138.37 L 266.032,1147.33 L 270.546,1158.39 L 275.04,1160 L 304.568,1160 L 375.432,1160 L 385.754,1160 L 392.398,1169.84 L 397.146,1179.69 L 399.994,1189.53 L 400.944,1199.37 L 400.944,1234.49 L 401.12,1238.74 L 402.892,1260 L 402.89,1260 L 375.432,1260 L 304.568,1260 L 281.866,1260 L 281.82,1259.98 L 199.054,1259.91 L 197.076,1259.94 L 192.876,1260.07 L 188.958,1260.07 L 184.188,1259.93 L 180.036,1259.93 L 179.206,1259.95 L 178.91,1260.05 L 176.194,1259.91 L 169.092,1259.91 L 165.544,1260.09 L 159.244,1260.11 L 155.26,1259.93 L 151.634,1259.87 L 128.366,1260.13 L 124.74,1260.07 L 120.754,1259.89 L 114.454,1259.91 L 110.906,1260.09 L 103.804,1260.09 L 100.408,1259.92 L 92.538,1259.92 L 89.386,1260.08 L 80.32,1260.07 L 77.57,1259.93 L 66.738,1259.95 L 64.592,1260.06 L 51.186,1260.03 L 49.992,1259.97 L 33.088,1259.99 L 32.798,1260.01 L 12.878,1260.05 L 10.126,1259.94 L 0,1259.92 L 0,1059.92 z " style="fill-opacity:0.300000;fill:rgb(153,146,72);"/></g>
<g fill-rule="evenodd"><path d="M 0,1259.92 L 10.126,1259.94 L 12.878,1260.05 L 32.798,1260.01 L 33.088,1259.99 L 49.992,1259.97 L 51.186,1260.03 L 64.592,1260.06 L 66.738,1259.95 L 77.57,1259.93 L 80.32,1260.07 L 89.386,1260.08 L 92.538,1259.92 L 100.408,1259.92 L 103.804,1260.09 L 110.906,1260.09 L 114.454,1259.91 L 120.754,1259.89 L 124.74,1260.07 L 128.366,1260.13 L 151.634,1259.87 L 155.26,1259.93 L 159.244,1260.11 L 165.544,1260.09 L 169.092,1259.91 L 176.194,1259.91 L 178.91,1260.05 L 179.206,1259.95 L 180.036,1259.93 L 184.188,1259.93 L 188.958,1260.07 L 192.876,1260.07 L 197.076,1259.94 L 199.054,1259.91 L 281.82,1259.98 L 281.866,1260 L 304.568,1260 L 375.432,1260 L 402.89,1260 L 401.12,1281.26 L 400.944,1285.51 L 400.944,1320.63 L 399.994,1330.47 L 397.146,1340.32 L 392.398,1350.16 L 385.754,1360 L 375.432,1360 L 304.568,1360 L 275.04,1360 L 270.658,1361.57 L 266.812,1370.63 L 262.316,1383.86 L 260.046,1392.68 L 258.588,1399.37 L 257.338,1406.35 L 255.062,1416.13 L 251.124,1429.89 L 249.258,1435.8 L 244.168,1438.13 L 230.41,1444.03 L 221.238,1447.44 L 207.48,1451.75 L 199.724,1453.77 L 199.054,1453.9 L 192.008,1455.71 L 188.32,1456.86 L 186.354,1457.5 L 179.538,1459.83 L 178.91,1460.05 L 176.194,1459.91 L 169.092,1459.91 L 165.544,1460.09 L 159.244,1460.11 L 155.26,1459.93 L 151.634,1459.87 L 128.366,1460.13 L 124.74,1460.07 L 120.754,1459.89 L 114.454,1459.91 L 110.906,1460.09 L 103.804,1460.09 L 100.408,1459.92 L 92.538,1459.92 L 89.386,1460.08 L 80.32,1460.07 L 77.57,1459.93 L 66.738,1459.95 L 64.592,1460.06 L 51.186,1460.03 L 49.992,1459.97 L 33.088,1459.99 L 32.798,1460.01 L 12.878,1460.05 L 10.126,1459.94 L 0,1459.92 L 0,1259.92 z " style="fill-opacity:0.300000;fill:rgb(51,98,65);"/></g>
<g fill-rule="evenodd"><path d="M 0,1459.92 L 10.126,1459.94 L 12.878,1460.05 L 32.798,1460.01 L 33.088,1459.99 L 49.992,1459.97 L 51.186,1460.03 L 64.592,1460.06 L 66.738,1459.95 L 77.57,1459.93 L 80.32,1460.07 L 89.386,1460.08 L 92.538,1459.92 L 100.408,1459.92 L 103.804,1460.09 L 110.906,1460.09 L 114.454,1459.91 L 120.754,1459.89 L 124.74,1460.07 L 128.366,1460.13 L 151.634,1459.87 L 155.26,1459.93 L 159.244,1460.11 L 165.544,1460.09 L 169.092,1459.91 L 176.194,1459.91 L 178.91,1460.05 L 179.538,1459.83 L 186.354,1457.5 L 188.32,1456.86 L 192.008,1455.71 L 199.054,1453.9 L 199.724,1453.77 L 207.48,1451.75 L 221.238,1447.44 L 230.41,1444.03 L 244.168,1438.13 L 249.258,1435.8 L 252.202,1438.74 L 267.034,1451.47 L 281.866,1460 L 304.568,1460 L 375.432,1460 L 396.514,1460 L 400.494,1474.49 L 401.392,1481.26 L 403.496,1490.63 L 407.322,1500 L 403.206,1510.32 L 401.176,1520.63 L 400.71,1525.51 L 396.146,1542.76 L 385.754,1560 L 375.432,1560 L 304.568,1560 L 275.04,1560 L 270.658,1561.57 L 266.812,1570.63 L 262.316,1583.86 L 260.046,1592.68 L 258.588,1599.37 L 257.338,1606.35 L 255.062,1616.13 L 251.124,1629.89 L 249.258,1635.8 L 244.168,1638.13 L 230.41,1644.03 L 221.238,1647.44 L 207.48,1651.75 L 199.724,1653.77 L 199.054,1653.9 L 192.008,1655.71 L 188.32,1656.86 L 186.354,1657.5 L 179.538,1659.83 L 178.91,1660.05 L 176.194,1659.91 L 169.092,1659.91 L 165.544,1660.09 L 159.244,1660.11 L 155.26,1659.93 L 151.634,1659.87 L 128.366,1660.13 L 124.74,1660.07 L 120.754,1659.89 L 114.454,1659.91 L 110.906,1660.09 L 103.804,1660.09 L 100.408,1659.92 L 92.538,1659.92 L 89.386,1660.08 L 80.32,1660.07 L 77.57,1659.93 L 66.738,1659.95 L 64.592,1660.06 L 51.186,1660.03 L 49.992,1659.97 L 33.088,1659.99 L 32.798,1660.01 L 12.878,1660.05 L 10.126,1659.94 L 0,1659.92 L 0,1459.92 z " style="fill-opacity:0.300000;fill:rgb(243,13,35);"/></g>
<g fill-rule="evenodd"><path d="M 0,1659.92 L 10.126,1659.94 L 12.878,1660.05 L 32.798,1660.01 L 33.088,1659.99 L 49.992,1659.97 L 51.186,1660.03 L 64.592,1660.06 L 66.738,1659.95 L 77.57,1659.93 L 80.32,1660.07 L 89.386,1660.08 L 92.538,1659.92 L 100.408,1659.92 L 103.804,1660.09 L 110.906,1660.09 L 114.454,1659.91 L 120.754,1659.89 L 124.74,1660.07 L 128.366,1660.13 L 151.634,1659.87 L 155.26,1659.93 L 159.244,1660.11 L 165.544,1660.09 L 169.092,1659.91 L 176.194,1659.91 L 178.91,1660.05 L 179.538,1659.83 L 186.354,1657.5 L 188.32,1656.86 L 192.008,1655.71 L 199.054,1653.9 L 199.724,1653.77 L 207.48,1651.75 L 221.238,1647.44 L 230.41,1644.03 L 244.168,1638.13 L 249.258,1635.8 L 252.202,1638.74 L 267.034,1651.47 L 281.866,1660 L 304.568,1660 L 375.432,1660 L 396.514,1660 L 399.836,1670.63 L 400.944,1681.26 L 400.944,1714.49 L 401.312,1720.63 L 403.644,1740 L 386.05,1760 L 375.432,1760 L 304.568,1760 L 275.04,1760 L 270.658,1761.57 L 266.812,1770.63 L 262.316,1783.86 L 260.046,1792.68 L 258.588,1799.37 L 257.338,1806.35 L 255.062,1816.13 L 251.124,1829.89 L 249.258,1835.8 L 244.168,1838.13 L 230.41,1844.03 L 221.238,1847.44 L 207.48,1851.75 L 199.724,1853.77 L 199.054,1853.9 L 192.008,1855.71 L 188.32,1856.86 L 186.354,1857.5 L 179.538,1859.83 L 178.91,1860.05 L 176.194,1859.91 L 169.092,1859.91 L 165.544,1860.09 L 159.244,1860.11 L 155.26,1859.93 L 151.634,1859.87 L 128.366,1860.13 L 124.74,1860.07 L 120.754,1859.89 L 114.454,1859.91 L 110.906,1860.09 L 103.804,1860.09 L 100.408,1859.92 L 92.538,1859.92 L 89.386,1860.08 L 80.32,1860.07 L 77.57,1859.93 L 66.738,1859.95 L 64.592,1860.06 L 51.186,1860.03 L 49.992,1859.97 L 33.088,1859.99 L 32.798,1860.01 L 12.878,1860.05 L 10.126,1859.94 L 0,1859.92 L 0,1659.92 z " style="fill-opacity:0.300000;fill:rgb(229,95,48);"/></g>
<g fill-rule="evenodd"><path d="M 0,1859.92 L 10.126,1859.94 L 12.878,1860.05 L 32.798,1860.01 L 33.088,1859.99 L 49.992,1859.97 L 51.186,1860.03 L 64.592,1860.06 L 66.738,1859.95 L 77.57,1859.93 L 80.32,1860.07 L 89.386,1860.08 L 92.538,1859.92 L 100.408,1859.92 L 103.804,1860.09 L 110.906,1860.09 L 114.454,1859.91 L 120.754,1859.89 L 124.74,1860.07 L 128.366,1860.13 L 151.634,1859.87 L 155.26,1859.93 L 159.244,1860.11 L 165.544,1860.09 L 169.092,1859.91 L 176.194,1859.91 L 178.91,1860.05 L 179.538,1859.83 L 186.354,1857.5 L 188.32,1856.86 L 192.008,1855.71 L 199.054,1853.9 L 199.724,1853.77 L 207.48,1851.75 L 221.238,1847.44 L 230.41,1844.03 L 244.168,1838.13 L 249.258,1835.8 L 252.202,1838.74 L 267.034,1851.47 L 281.866,1860 L 304.568,1860 L 375.432,1860 L 396.514,1860 L 399.836,1870.63 L 400.944,1881.26 L 400.944,1920.63 L 398.134,1937.56 L 389.71,1954.49 L 386.052,1960 L 375.432,1960 L 304.568,1960 L 275.04,1960 L 270.658,1961.57 L 266.812,1970.63 L 262.316,1983.86 L 260.046,1992.68 L 258.588,1999.37 L 257.338,2006.35 L 255.062,2016.13 L 251.124,2029.89 L 249.258,2035.8 L 244.168,2038.13 L 230.41,2044.03 L 221.238,2047.44 L 207.48,2051.75 L 199.724,2053.77 L 199.054,2053.9 L 192.008,2055.71 L 188.32,2056.86 L 186.354,2057.5 L 179.538,2059.83 L 178.91,2060.05 L 176.194,2059.91 L 169.092,2059.91 L 165.544,2060.09 L 159.244,2060.11 L 155.26,2059.93 L 151.634,2059.87 L 128.366,2060.13 L 124.74,2060.07 L 120.754,2059.89 L 114.454,2059.91 L 110.906,2060.09 L 103.804,2060.09 L 100.408,2059.92 L 92.538,2059.92 L 89.386,2060.08 L 80.32,2060.07 L 77.57,2059.93 L 66.738,2059.95 L 64.592,2060.06 L 51.186,2060.03 L 49.992,2059.97 L 33.088,2059.99 L 32.798,2060.01 L 12.878,2060.05 L 10.126,2059.94 L 0,2059.92 L 0,1859.92 z " style="fill-opacity:0.300000;fill:rgb(209,200,237);"/></g>
<g fill-rule="evenodd"><path d="M 0,2059.92 L 10.126,2059.94 L 12.878,2060.05 L 32.798,2060.01 L 33.088,2059.99 L 49.992,2059.97 L 51.186,2060.03 L 64.592,2060.06 L 66.738,2059.95 L 77.57,2059.93 L 80.32,2060.07 L 89.386,2060.08 L 92.538,2059.92 L 100.408,2059.92 L 103.804,2060.09 L 110.906,2060.09 L 114.454,2059.91 L 120.754,2059.89 L 124.74,2060.07 L 128.366,2060.13 L 151.634,2059.87 L 155.26,2059.93 L 159.244,2060.11 L 165.544,2060.09 L 169.092,2059.91 L 176.194,2059.91 L 178.91,2060.05 L 179.538,2059.83 L 186.354,2057.5 L 188.32,2056.86 L 192.008,2055.71 L 199.054,2053.9 L 199.724,2053.77 L 207.48,2051.75 L 221.238,2047.44 L 230.41,2044.03 L 244.168,2038.13 L 249.258,2035.8 L 252.202,2038.74 L 267.034,2051.47 L 281.866,2060 L 304.568,2060 L 375.432,2060 L 380.87,2060 L 391.818,2068.92 L 399.346,2081.26 L 400.944,2085.12 L 400.944,2120.63 L 399.994,2130.47 L 397.146,2140.32 L 392.398,2150.16 L 385.754,2160 L 375.432,2160 L 304.568,2160 L 275.04,2160 L 270.658,2161.57 L 266.812,2170.63 L 262.316,2183.86 L 260.046,2192.68 L 258.588,2199.37 L 257.338,2206.35 L 255.062,2216.13 L 251.124,2229.89 L 248.196,2238.74 L 247.306,2241.11 L 242.758,2255.77 L 238.594,2272.37 L 234.798,2291 L 229.582,2323.34 L 226.066,2350.04 L 217.844,2428.47 L 214.936,2432.07 L 212.964,2434.49 L 203.768,2446.07 L 177.544,2480 L 0,2480 L 0,2059.92 z " style="fill-opacity:0.300000;fill:rgb(97,12,75);"/></g>
<g fill-rule="evenodd"><path d="M 0,283.048 L 0,0 L 780,0 L 780,2480 L 579.998,17154.8 L 579.998,2434.49 L 579.998,2245.51 L 579.998,2220 L 579.998,2194.49 L 579.998,2005.51 L 579.998,1980 L 579.998,1954.49 L 579.998,1765.51 L 579.998,1740 L 579.998,1714.49 L 579.998,1525.51 L 579.998,1500 L 579.998,1474.49 L 579.998,1285.51 L 579.998,1260 L 579.998,1234.49 L 579.998,1045.51 L 579.998,1020 L 579.998,994.488 L 579.998,805.512 L 579.998,780 L 579.998,754.488 L 579.998,565.512 L 579.998,540 L 579.998,514.488 L 579.998,325.512 L 579.998,300 L 579.998,274.488 L 579.998,185.536 L 538.568,85.512 L 536.878,81.748 L 521.036,71.196 L 513.116,68.558 L 505.196,67.678 L 426.456,67.678 L 417.538,68.792 L 408.62,72.136 L 399.702,77.71 L 390.784,85.512 L 382.346,93.952 L 349.384,173.53 L 318.722,204.192 L 304.568,210.054 L 294.608,214.612 L 284.792,219.56 L 279.056,228 L 247.184,278.606 L 246.19,278.39 L 233.52,275.606 L 219.998,271.668 L 219.066,271.322 L 210.574,268.65 L 196.814,265.088 L 189.466,263.574 L 175.708,261.464 L 169.004,260.782 L 155.244,260.084 L 151.636,260.002 L 120.756,260.178 L 114.576,260.508 L 100.818,261.908 L 93.85,262.978 L 80.09,265.806 L 72.236,267.846 L 60,271.684 L 58.47,272.15 L 48.622,275.054 L 32.438,278.65 L 14.916,281.408 L 0,283.048 z " style="fill-opacity:0.300000;fill:rgb(2,53,57);"/></g>
<g fill-rule="evenodd"><path d="M 0,283.05 L 14.916,281.408 L 32.438,278.65 L 48.622,275.054 L 58.47,272.15 L 60,271.684 L 72.236,267.846 L 80.09,265.806 L 93.85,262.978 L 100.818,261.908 L 114.576,260.508 L 120.756,260.178 L 151.636,260.002 L 155.244,260.084 L 169.004,260.782 L 175.708,261.464 L 189.466,263.574 L 196.814,265.088 L 210.574,268.65 L 219.066,271.322 L 219.998,271.668 L 233.52,275.606 L 246.19,278.39 L 247.184,278.606 L 248.058,281.264 L 251.594,291.608 L 254.582,302.016 L 257.774,315.774 L 258.768,320.63 L 259.552,325.05 L 262.982,338.374 L 266.032,347.326 L 270.546,358.39 L 275.04,360.002 L 304.568,360.002 L 375.432,360.002 L 385.754,360.002 L 392.398,369.844 L 397.146,379.688 L 399.994,389.53 L 400.944,399.372 L 400.944,434.886 L 399.346,438.74 L 391.818,451.08 L 380.87,460.002 L 375.432,460.002 L 304.568,460.002 L 281.81,460.002 L 266.964,468.532 L 252.112,481.264 L 249.09,484.28 L 242.664,481.12 L 232.538,476.752 L 218.788,471.646 L 210.384,468.992 L 197.066,465.532 L 196.632,465.418 L 189.484,463.514 L 183.484,461.63 L 179.874,460.318 L 179.194,460.066 L 176.194,459.914 L 169.092,459.91 L 165.544,460.09 L 159.244,460.11 L 155.26,459.93 L 151.634,459.87 L 128.366,460.132 L 124.74,460.072 L 120.754,459.892 L 114.454,459.912 L 110.906,460.092 L 103.804,460.088 L 100.408,459.916 L 92.538,459.922 L 89.386,460.082 L 80.32,460.072 L 77.57,459.932 L 66.738,459.946 L 64.592,460.056 L 51.186,460.032 L 49.992,459.97 L 33.088,459.994 L 32.798,460.008 L 12.878,460.054 L 10.126,459.944 L 0,459.922 L 0,283.05 z " style="fill-opacity:0.300000;fill:rgb(129,132,184);"/></g>
<g fill-rule="evenodd"><path d="M 0,459.92 L 10.126,459.944 L 12.878,460.054 L 32.798,460.008 L 33.088,459.994 L 49.992,459.97 L 51.186,460.032 L 64.592,460.056 L 66.738,459.946 L 77.57,459.932 L 80.32,460.072 L 89.386,460.082 L 92.538,459.922 L 100.408,459.916 L 103.804,460.088 L 110.906,460.092 L 114.454,459.912 L 120.754,459.892 L 124.74,460.072 L 128.366,460.132 L 151.634,459.87 L 155.26,459.93 L 159.244,460.11 L 165.544,460.09 L 169.092,459.91 L 176.194,459.914 L 179.194,460.066 L 179.874,460.318 L 183.484,461.63 L 189.484,463.514 L 196.632,465.418 L 197.066,465.532 L 210.384,468.992 L 218.788,471.646 L 232.538,476.752 L 242.664,481.12 L 249.09,484.28 L 251.594,491.608 L 254.582,502.016 L 257.774,515.774 L 258.768,520.63 L 259.552,525.05 L 262.982,538.374 L 266.032,547.326 L 270.546,558.39 L 275.04,560.002 L 304.568,560.002 L 375.432,560.002 L 386.05,560.002 L 389.708,565.512 L 398.134,582.442 L 400.944,599.372 L 400.944,638.74 L 399.836,649.372 L 396.514,660.002 L 375.432,660.002 L 304.568,660.002 L 281.81,660.002 L 266.964,668.532 L 252.112,681.262 L 249.09,684.28 L 242.664,681.12 L 232.538,676.752 L 218.788,671.646 L 210.384,668.992 L 197.066,665.532 L 196.632,665.418 L 189.484,663.514 L 183.484,661.63 L 179.874,660.318 L 179.194,660.066 L 176.194,659.914 L 169.092,659.91 L 165.544,660.09 L 159.244,660.11 L 155.26,659.93 L 151.634,659.87 L 128.366,660.132 L 124.74,660.072 L 120.754,659.892 L 114.454,659.912 L 110.906,660.092 L 103.804,660.088 L 100.408,659.916 L 92.538,659.922 L 89.386,660.082 L 80.32,660.072 L 77.57,659.932 L 66.738,659.946 L 64.592,660.056 L 51.186,660.032 L 49.992,659.97 L 33.088,659.994 L 32.798,660.008 L 12.878,660.054 L 10.126,659.944 L 0,659.922 L 0,459.92 z " style="fill-opacity:0.300000;fill:rgb(20,162,156);"/></g>
<g fill-rule="evenodd"><path d="M 0,659.92 L 10.126,659.944 L 12.878,660.054 L 32.798,660.008 L 33.088,659.994 L 49.992,659.97 L 51.186,660.032 L 64.592,660.056 L 66.738,659.946 L 77.57,659.932 L 80.32,660.072 L 89.386,660.082 L 92.538,659.922 L 100.408,659.916 L 103.804,660.088 L 110.906,660.092 L 114.454,659.912 L 120.754,659.892 L 124.74,660.072 L 128.366,660.132 L 151.634,659.87 L 155.26,659.93 L 159.244,660.11 L 165.544,660.09 L 169.092,659.91 L 176.194,659.914 L 179.194,660.066 L 179.874,660.318 L 183.484,661.63 L 189.484,663.514 L 196.632,665.418 L 197.066,665.532 L 210.384,668.992 L 218.788,671.646 L 232.538,676.752 L 242.664,681.12 L 249.09,684.28 L 251.594,691.608 L 254.582,702.016 L 257.774,715.774 L 258.768,720.63 L 259.552,725.05 L 262.982,738.374 L 266.032,747.326 L 270.546,758.39 L 275.04,760.002 L 304.568,760.002 L 375.432,760.002 L 386.052,760.002 L 403.644,780 L 401.312,799.372 L 400.944,805.512 L 400.944,838.74 L 399.836,849.372 L 396.514,860.002 L 375.432,860.002 L 304.568,860.002 L 281.81,860.002 L 266.964,868.532 L 252.112,881.264 L 249.09,884.28 L 242.664,881.12 L 232.538,876.752 L 218.788,871.646 L 210.384,868.992 L 197.066,865.532 L 196.632,865.418 L 189.484,863.514 L 183.484,861.63 L 179.874,860.318 L 179.194,860.066 L 176.194,859.914 L 169.092,859.91 L 165.544,860.09 L 159.244,860.11 L 155.26,859.93 L 151.634,859.87 L 128.366,860.132 L 124.74,860.072 L 120.754,859.892 L 114.454,859.912 L 110.906,860.092 L 103.804,860.088 L 100.408,859.916 L 92.538,859.922 L 89.386,860.082 L 80.32,860.072 L 77.57,859.932 L 66.738,859.946 L 64.592,860.056 L 51.186,860.032 L 49.992,859.97 L 33.088,859.994 L 32.798,860.008 L 12.878,860.054 L 10.126,859.944 L 0,859.922 L 0,659.92 z " style="fill-opacity:0.300000;fill:rgb(180,90,103);"/></g>
<g fill-rule="evenodd"><path d="M 0,859.92 L 10.126,859.944 L 12.878,860.054 L 32.798,860.008 L 33.088,859.994 L 49.992,859.97 L 51.186,860.032 L 64.592,860.056 L 66.738,859.946 L 77.57,859.932 L 80.32,860.072 L 89.386,860.082 L 92.538,859.922 L 100.408,859.916 L 103.804,860.088 L 110.906,860.092 L 114.454,859.912 L 120.754,859.892 L 124.74,860.072 L 128.366,860.132 L 151.634,859.87 L 155.26,859.93 L 159.244,860.11 L 165.544,860.09 L 169.092,859.91 L 176.194,859.914 L 179.194,860.066 L 179.874,860.318 L 183.484,861.63 L 189.484,863.514 L 196.632,865.418 L 197.066,865.532 L 210.384,868.992 L 218.788,871.646 L 232.538,876.752 L 242.664,881.12 L 249.09,884.28 L 251.594,891.608 L 254.582,902.016 L 257.774,915.774 L 258.768,920.63 L 259.552,925.05 L 262.982,938.374 L 266.032,947.326 L 270.546,958.39 L 275.04,960.002 L 304.568,960.002 L 375.432,960.002 L 385.754,960.002 L 396.146,977.246 L 400.71,994.488 L 401.176,999.372 L 403.206,1009.69 L 407.322,1020 L 403.496,1029.37 L 401.392,1038.74 L 400.494,1045.51 L 396.514,1060 L 375.432,1060 L 304.568,1060 L 281.81,1060 L 266.964,1068.53 L 252.112,1081.26 L 249.09,1084.28 L 242.664,1081.12 L 232.538,1076.75 L 218.788,1071.65 L 210.384,1068.99 L 197.066,1065.53 L 196.632,1065.42 L 189.484,1063.51 L 183.484,1061.63 L 179.874,1060.32 L 179.194,1060.07 L 176.194,1059.91 L 169.092,1059.91 L 165.544,1060.09 L 159.244,1060.11 L 155.26,1059.93 L 151.634,1059.87 L 128.366,1060.13 L 124.74,1060.07 L 120.754,1059.89 L 114.454,1059.91 L 110.906,1060.09 L 103.804,1060.09 L 100.408,1059.92 L 92.538,1059.92 L 89.386,1060.08 L 80.32,1060.07 L 77.57,1059.93 L 66.738,1059.95 L 64.592,1060.06 L 51.186,1060.03 L 49.992,1059.97 L 33.088,1059.99 L 32.798,1060.01 L 12.878,1060.05 L 10.126,1059.94 L 0,1059.92 L 0,859.92 z " style="fill-opacity:0.300000;fill:rgb(42,202,229);"/></g>
<g fill-rule="evenodd"><path d="M 177.542,2480 L 203.768,2446.07 L 212.964,2434.49 L 214.936,2432.07 L 217.844,2428.47 L 226.066,2350.04 L 229.582,2323.34 L 234.798,2291 L 238.594,2272.37 L 242.758,2255.77 L 247.306,2241.11 L 248.196,2238.74 L 251.124,2229.89 L 255.062,2216.13 L 257.338,2206.35 L 258.588,2199.37 L 260.046,2192.68 L 262.316,2183.86 L 266.812,2170.63 L 270.658,2161.57 L 275.04,2160 L 304.568,2160 L 375.432,2160 L 385.754,2160 L 396.146,2177.25 L 400.71,2194.49 L 401.176,2199.37 L 403.206,2209.69 L 407.322,2220 L 426.456,2220 L 505.196,2220 L 579.998,2220 L 579.998,2245.51 L 579.998,2434.49 L 579.998,2480 L 177.542,2480 z " style="fill-opacity:0.600000;fill:rgb(167,241,217);stroke:rgb(0,0,0);stroke-width:2"/></g>
<g fill-rule="evenodd"><path d="M 281.866,1860 L 267.034,1851.47 L 252.202,1838.74 L 249.258,1835.8 L 251.124,1829.89 L 255.062,1816.13 L 257.338,1806.35 L 258.588,1799.37 L 260.046,1792.68 L 262.316,1783.86 L 266.812,1770.63 L 270.658,1761.57 L 275.04,1760 L 304.568,1760 L 375.432,1760 L 386.05,1760 L 403.644,1740 L 426.456,1740 L 505.196,1740 L 579.998,1740 L 579.998,1765.51 L 579.998,1954.49 L 579.998,1980 L 505.196,1980 L 426.456,1980 L 404.214,1980 L 403.368,1979.46 L 402.902,1979.16 L 386.052,1960 L 389.71,1954.49 L 398.134,1937.56 L 400.944,1920.63 L 400.944,1881.26 L 399.836,1870.63 L 396.514,1860 L 375.432,1860 L 304.568,1860 L 281.866,1860 z " style="fill-opacity:0.600000;fill:rgb(42,130,200);stroke:rgb(0,0,0);stroke-width:2"/></g>
<g fill-rule="evenodd"><path d="M 281.866,1660 L 267.034,1651.47 L 252.202,1638.74 L 249.258,1635.8 L 251.124,1629.89 L 255.062,1616.13 L 257.338,1606.35 L 258.588,1599.37 L 260.046,1592.68 L 262.316,1583.86 L 266.812,1570.63 L 270.658,1561.57 L 275.04,1560 L 304.568,1560 L 375.432,1560 L 385.754,1560 L 396.146,1542.76 L 400.71,1525.51 L 401.176,1520.63 L 403.206,1510.32 L 407.322,1500 L 426.456,1500 L 505.196,1500 L 579.998,1500 L 579.998,1525.51 L 579.998,1714.49 L 579.998,1740 L 505.196,1740 L 426.456,1740 L 403.644,1740 L 401.312,1720.63 L 400.944,1714.49 L 400.944,1681.26 L 399.836,1670.63 L 396.514,1660 L 375.432,1660 L 304.568,1660 L 281.866,1660 z " style="fill-opacity:0.600000;fill:rgb(216,254,67);stroke:rgb(0,0,0);stroke-width:2"/></g>
<g fill-rule="evenodd"><path d="M 281.866,1460 L 267.034,1451.47 L 252.202,1438.74 L 249.258,1435.8 L 251.124,1429.89 L 255.062,1416.13 L 257.338,1406.35 L 258.588,1399.37 L 260.046,1392.68 L 262.316,1383.86 L 266.812,1370.63 L 270.658,1361.57 L 275.04,1360 L 304.568,1360 L 375.432,1360 L 385.754,1360 L 392.398,1350.16 L 397.146,1340.32 L 399.994,1330.47 L 400.944,1320.63 L 400.944,1285.51 L 401.12,1281.26 L 402.89,1260 L 402.892,1260 L 426.456,1260 L 505.196,1260 L 579.998,1260 L 579.998,1285.51 L 579.998,1474.49 L 579.998,1500 L 505.196,1500 L 426.456,1500 L 407.322,1500 L 403.496,1490.63 L 401.392,1481.26 L 400.494,1474.49 L 396.514,1460 L 375.432,1460 L 304.568,1460 L 281.866,1460 z " style="fill-opacity:0.600000;fill:rgb(77,152,85);stroke:rgb(0,0,0);stroke-width:2"/></g>
<g fill-rule="evenodd"><path d="M 275.04,360.002 L 270.546,358.39 L 266.032,347.326 L 262.982,338.374 L 259.552,325.05 L 258.768,320.63 L 257.774,315.774 L 254.582,302.016 L 251.594,291.608 L 248.058,281.264 L 247.184,278.606 L 279.056,228 L 284.792,219.56 L 294.608,214.612 L 304.568,210.054 L 318.722,204.192 L 349.384,173.53 L 382.346,93.952 L 390.784,85.512 L 399.702,77.71 L 408.62,72.136 L 417.538,68.792 L 426.456,67.678 L 505.196,67.678 L 513.116,68.558 L 521.036,71.196 L 536.878,81.748 L 538.568,85.512 L 579.998,185.536 L 579.998,274.488 L 579.998,300 L 505.196,300 L 426.456,300 L 407.322,300 L 403.206,310.316 L 401.176,320.63 L 400.71,325.512 L 396.146,342.758 L 385.754,360.002 L 375.432,360.002 L 304.568,360.002 L 275.04,360.002 z " style="fill-opacity:0.600000;fill:rgb(140,226,179);stroke:rgb(0,0,0);stroke-width:2"/></g>
<g fill-rule="evenodd"><path d="M 275.04,1160 L 270.546,1158.39 L 266.032,1147.33 L 262.982,1138.37 L 259.552,1125.05 L 258.768,1120.63 L 257.774,1115.77 L 254.582,1102.02 L 251.594,1091.61 L 249.09,1084.28 L 252.112,1081.26 L 266.964,1068.53 L 281.81,1060 L 304.568,1060 L 375.432,1060 L 396.514,1060 L 400.494,1045.51 L 401.392,1038.74 L 403.496,1029.37 L 407.322,1020 L 426.456,1020 L 505.196,1020 L 579.998,1020 L 579.998,1045.51 L 579.998,1234.49 L 579.998,1260 L 505.196,1260 L 426.456,1260 L 402.892,1260 L 401.12,1238.74 L 400.944,1234.49 L 400.944,1199.37 L 399.994,1189.53 L 397.146,1179.69 L 392.398,1169.84 L 385.754,1160 L 375.432,1160 L 304.568,1160 L 275.04,1160 z " style="fill-opacity:0.600000;fill:rgb(71,23,17);stroke:rgb(0,0,0);stroke-width:2"/></g>
<g fill-rule="evenodd"><path d="M 275.04,960.002 L 270.546,958.39 L 266.032,947.326 L 262.982,938.374 L 259.552,925.05 L 258.768,920.63 L 257.774,915.774 L 254.582,902.016 L 251.594,891.608 L 249.09,884.28 L 252.112,881.264 L 266.964,868.532 L 281.81,860.002 L 304.568,860.002 L 375.432,860.002 L 396.514,860.002 L 399.836,849.372 L 400.944,838.74 L 400.944,805.512 L 401.312,799.372 L 403.644,780 L 426.456,780 L 505.196,780 L 579.998,780 L 579.998,805.512 L 579.998,994.488 L 579.998,1020 L 505.196,1020 L 426.456,1020 L 407.322,1020 L 403.206,1009.69 L 401.176,999.372 L 400.71,994.488 L 396.146,977.246 L 385.754,960.002 L 375.432,960.002 L 304.568,960.002 L 275.04,960.002 z " style="fill-opacity:0.600000;fill:rgb(152,84,47);stroke:rgb(0,0,0);stroke-width:2"/></g>
<g fill-rule="evenodd"><path d="M 275.04,760.002 L 270.546,758.39 L 266.032,747.326 L 262.982,738.374 L 259.552,725.05 L 258.768,720.63 L 257.774,715.774 L 254.582,702.016 L 251.594,691.608 L 249.09,684.28 L 252.112,681.262 L 266.964,668.532 L 281.81,660.002 L 304.568,660.002 L 375.432,660.002 L 396.514,660.002 L 399.836,649.372 L 400.944,638.74 L 400.944,599.372 L 398.134,582.442 L 389.708,565.512 L 386.05,560.002 L 402.9,540.846 L 403.362,540.548 L 404.218,540 L 426.456,540 L 505.196,540 L 579.998,540 L 579.998,565.512 L 579.998,754.488 L 579.998,780 L 505.196,780 L 426.456,780 L 403.644,780 L 386.052,760.002 L 375.432,760.002 L 304.568,760.002 L 275.04,760.002 z " style="fill-opacity:0.600000;fill:rgb(17,45,5);stroke:rgb(0,0,0);stroke-width:2"/></g>
<g fill-rule="evenodd"><path d="M 281.866,2060 L 267.034,2051.47 L 252.202,2038.74 L 249.258,2035.8 L 251.124,2029.89 L 255.062,2016.13 L 257.338,2006.35 L 258.588,1999.37 L 260.046,1992.68 L 262.316,1983.86 L 266.812,1970.63 L 270.658,1961.57 L 275.04,1960 L 304.568,1960 L 375.432,1960 L 386.052,1960 L 402.902,1979.16 L 403.368,1979.46 L 404.214,1980 L 426.456,1980 L 505.196,1980 L 579.998,1980 L 579.998,2005.51 L 579.998,2194.49 L 579.998,2220 L 505.196,2220 L 426.456,2220 L 407.322,2220 L 403.206,2209.69 L 401.176,2199.37 L 400.71,2194.49 L 396.146,2177.25 L 385.754,2160 L 392.398,2150.16 L 397.146,2140.32 L 399.994,2130.47 L 400.944,2120.63 L 400.944,2085.12 L 399.346,2081.26 L 391.818,2068.92 L 380.87,2060 L 375.432,2060 L 304.568,2060 L 281.866,2060 z " style="fill-opacity:0.600000;fill:rgb(88,245,107);stroke:rgb(0,0,0);stroke-width:2"/></g>
<g fill-rule="evenodd"><path d="M 275.04,560.002 L 270.546,558.39 L 266.032,547.326 L 262.982,538.374 L 259.552,525.05 L 258.768,520.63 L 257.774,515.774 L 254.582,502.016 L 251.594,491.608 L 249.09,484.28 L 252.112,481.264 L 266.964,468.532 L 281.81,460.002 L 304.568,460.002 L 375.432,460.002 L 380.87,460.002 L 391.818,451.08 L 399.346,438.74 L 400.944,434.886 L 400.944,399.372 L 399.994,389.53 L 397.146,379.688 L 392.398,369.844 L 385.754,360.002 L 396.146,342.758 L 400.71,325.512 L 401.176,320.63 L 403.206,310.316 L 407.322,300 L 426.456,300 L 505.196,300 L 579.998,300 L 579.998,325.512 L 579.998,514.488 L 579.998,540 L 505.196,540 L 426.456,540 L 404.218,540 L 403.362,540.548 L 402.9,540.846 L 386.05,560.002 L 375.432,560.002 L 304.568,560.002 L 275.04,560.002 z " style="fill-opacity:0.600000;fill:rgb(214,136,7);stroke:rgb(0,0,0);stroke-width:2"/></g>
<g fill-rule="evenodd"><path d="M 0,1259.92 L 0,1059.92 L 10.126,1059.94 L 12.878,1060.05 L 32.798,1060.01 L 33.088,1059.99 L 49.992,1059.97 L 51.186,1060.03 L 64.592,1060.06 L 66.738,1059.95 L 77.57,1059.93 L 80.32,1060.07 L 89.386,1060.08 L 92.538,1059.92 L 100.408,1059.92 L 103.804,1060.09 L 110.906,1060.09 L 114.454,1059.91 L 120.754,1059.89 L 124.74,1060.07 L 128.366,1060.13 L 151.634,1059.87 L 155.26,1059.93 L 159.244,1060.11 L 165.544,1060.09 L 169.092,1059.91 L 176.194,1059.91 L 179.194,1060.07 L 179.874,1060.32 L 183.484,1061.63 L 189.484,1063.51 L 196.632,1065.42 L 197.066,1065.53 L 210.384,1068.99 L 218.788,1071.65 L 232.538,1076.75 L 242.664,1081.12 L 249.09,1084.28 L 251.594,1091.61 L 254.582,1102.02 L 257.774,1115.77 L 258.768,1120.63 L 259.552,1125.05 L 262.982,1138.37 L 266.032,1147.33 L 270.546,1158.39 L 275.04,1160 L 304.568,1160 L 375.432,1160 L 385.754,1160 L 392.398,1169.84 L 397.146,1179.69 L 399.994,1189.53 L 400.944,1199.37 L 400.944,1234.49 L 401.12,1238.74 L 402.892,1260 L 402.89,1260 L 375.432,1260 L 304.568,1260 L 281.866,1260 L 281.82,1259.98 L 199.054,1259.91 L 197.076,1259.94 L 192.876,1260.07 L 188.958,1260.07 L 184.188,1259.93 L 180.036,1259.93 L 179.206,1259.95 L 178.91,1260.05 L 176.194,1259.91 L 169.092,1259.91 L 165.544,1260.09 L 159.244,1260.11 L 155.26,1259.93 L 151.634,1259.87 L 128.366,1260.13 L 124.74,1260.07 L 120.754,1259.89 L 114.454,1259.91 L 110.906,1260.09 L 103.804,1260.09 L 100.408,1259.92 L 92.538,1259.92 L 89.386,1260.08 L 80.32,1260.07 L 77.57,1259.93 L 66.738,1259.95 L 64.592,1260.06 L 51.186,1260.03 L 49.992,1259.97 L 33.088,1259.99 L 32.798,1260.01 L 12.878,1260.05 L 10.126,1259.94 L 0,1259.92 z " style="fill-opacity:0.600000;fill:rgb(153,146,72);stroke:rgb(0,0,0);stroke-width:2"/></g>
<g fill-rule="evenodd"><path d="M 0,1459.92 L 0,1259.92 L 10.126,1259.94 L 12.878,1260.05 L 32.798,1260.01 L 33.088,1259.99 L 49.992,1259.97 L 51.186,1260.03 L 64.592,1260.06 L 66.738,1259.95 L 77.57,1259.93 L 80.32,1260.07 L 89.386,1260.08 L 92.538,1259.92 L 100.408,1259.92 L 103.804,1260.09 L 110.906,1260.09 L 114.454,1259.91 L 120.754,1259.89 L 124.74,1260.07 L 128.366,1260.13 L 151.634,1259.87 L 155.26,1259.93 L 159.244,1260.11 L 165.544,1260.09 L 169.092,1259.91 L 176.194,1259.91 L 178.91,1260.05 L 179.206,1259.95 L 180.036,1259.93 L 184.188,1259.93 L 188.958,1260.07 L 192.876,1260.07 L 197.076,1259.94 L 199.054,1259.91 L 281.82,1259.98 L 281.866,1260 L 304.568,1260 L 375.432,1260 L 402.89,1260 L 401.12,1281.26 L 400.944,1285.51 L 400.944,1320.63 L 399.994,1330.47 L 397.146,1340.32 L 392.398,1350.16 L 385.754,1360 L 375.432,1360 L 304.568,1360 L 275.04,1360 L 270.658,1361.57 L 266.812,1370.63 L 262.316,1383.86 L 260.046,1392.68 L 258.588,1399.37 L 257.338,1406.35 L 255.062,1416.13 L 251.124,1429.89 L 249.258,1435.8 L 244.168,1438.13 L 230.41,1444.03 L 221.238,1447.44 L 207.48,1451.75 L 199.724,1453.77 L 199.054,1453.9 L 192.008,1455.71 L 188.32,1456.86 L 186.354,1457.5 L 179.538,1459.83 L 178.91,1460.05 L 176.194,1459.91 L 169.092,1459.91 L 165.544,1460.09 L 159.244,1460.11 L 155.26,1459.93 L 151.634,1459.87 L 128.366,1460.13 L 124.74,1460.07 L 120.754,1459.89 L 114.454,1459.91 L 110.906,1460.09 L 103.804,1460.09 L 100.408,1459.92 L 92.538,1459.92 L 89.386,1460.08 L 80.32,1460.07 L 77.57,1459.93 L 66.738,1459.95 L 64.592,1460.06 L 51.186,1460.03 L 49.992,1459.97 L 33.088,1459.99 L 32.798,1460.01 L 12.878,1460.05 L 10.126,1459.94 L 0,1459.92 z " style="fill-opacity:0.600000;fill:rgb(51,98,65);stroke:rgb(0,0,0);stroke-width:2"/></g>
<g fill-rule="evenodd"><path d="M 0,1659.92 L 0,1459.92 L 10.126,1459.94 L 12.878,1460.05 L 32.798,1460.01 L 33.088,1459.99 L 49.992,1459.97 L 51.186,1460.03 L 64.592,1460.06 L 66.738,1459.95 L 77.57,1459.93 L 80.32,1460.07 L 89.386,1460.08 L 92.538,1459.92 L 100.408,1459.92 L 103.804,1460.09 L 110.906,1460.09 L 114.454,1459.91 L 120.754,1459.89 L 124.74,1460.07 L 128.366,1460.13 L 151.634,1459.87 L 155.26,1459.93 L 159.244,1460.11 L 165.544,1460.09 L 169.092,1459.91 L 176.194,1459.91 L 178.91,1460.05 L 179.538,1459.83 L 186.354,1457.5 L 188.32,1456.86 L 192.008,1455.71 L 199.054,1453.9 L 199.724,1453.77 L 207.48,1451.75 L 221.238,1447.44 L 230.41,1444.03 L 244.168,1438.13 L 249.258,1435.8 L 252.202,1438.74 L 267.034,1451.47 L 281.866,1460 L 304.568,1460 L 375.432,1460 L 396.514,1460 L 400.494,1474.49 L 401.392,1481.26 L 403.496,1490.63 L 407.322,1500 L 403.206,1510.32 L 401.176,1520.63 L 400.71,1525.51 L 396.146,1542.76 L 385.754,1560 L 375.432,1560 L 304.568,1560 L 275.04,1560 L 270.658,1561.57 L 266.812,1570.63 L 262.316,1583.86 L 260.046,1592.68 L 258.588,1599.37 L 257.338,1606.35 L 255.062,1616.13 L 251.124,1629.89 L 249.258,1635.8 L 244.168,1638.13 L 230.41,1644.03 L 221.238,1647.44 L 207.48,1651.75 L 199.724,1653.77 L 199.054,1653.9 L 192.008,1655.71 L 188.32,1656.86 L 186.354,1657.5 L 179.538,1659.83 L 178.91,1660.05 L 176.194,1659.91 L 169.092,1659.91 L 165.544,1660.09 L 159.244,1660.11 L 155.26,1659.93 L 151.634,1659.87 L 128.366,1660.13 L 124.74,1660.07 L 120.754,1659.89 L 114.454,1659.91 L 110.906,1660.09 L 103.804,1660.09 L 100.408,1659.92 L 92.538,1659.92 L 89.386,1660.08 L 80.32,1660.07 L 77.57,1659.93 L 66.738,1659.95 L 64.592,1660.06 L 51.186,1660.03 L 49.992,1659.97 L 33.088,1659.99 L 32.798,1660.01 L 12.878,1660.05 L 10.126,1659.94 L 0,1659.92 z " style="fill-opacity:0.600000;fill:rgb(243,13,35);stroke:rgb(0,0,0);stroke-width:2"/></g>
<g fill-rule="evenodd"><path d="M 0,1859.92 L 0,1659.92 L 10.126,1659.94 L 12.878,1660.05 L 32.798,1660.01 L 33.088,1659.99 L 49.992,1659.97 L 51.186,1660.03 L 64.592,1660.06 L 66.738,1659.95 L 77.57,1659.93 L 80.32,1660.07 L 89.386,1660.08 L 92.538,1659.92 L 100.408,1659.92 L 103.804,1660.09 L 110.906,1660.09 L 114.454,1659.91 L 120.754,1659.89 L 124.74,1660.07 L 128.366,1660.13 L 151.634,1659.87 L 155.26,1659.93 L 159.244,1660.11 L 165.544,1660.09 L 169.092,1659.91 L 176.194,1659.91 L 178.91,1660.05 L 179.538,1659.83 L 186.354,1657.5 L 188.32,1656.86 L 192.008,1655.71 L 199.054,1653.9 L 199.724,1653.77 L 207.48,1651.75 L 221.238,1647.44 L 230.41,1644.03 L 244.168,1638.13 L 249.258,1635.8 L 252.202,1638.74 L 267.034,1651.47 L 281.866,1660 L 304.568,1660 L 375.432,1660 L 396.514,1660 L 399.836,1670.63 L 400.944,1681.26 L 400.944,1714.49 L 401.312,1720.63 L 403.644,1740 L 386.05,1760 L 375.432,1760 L 304.568,1760 L 275.04,1760 L 270.658,1761.57 L 266.812,1770.63 L 262.316,1783.86 L 260.046,1792.68 L 258.588,1799.37 L 257.338,1806.35 L 255.062,1816.13 L 251.124,1829.89 L 249.258,1835.8 L 244.168,1838.13 L 230.41,1844.03 L 221.238,1847.44 L 207.48,1851.75 L 199.724,1853.77 L 199.054,1853.9 L 192.008,1855.71 L 188.32,1856.86 L 186.354,1857.5 L 179.538,1859.83 L 178.91,1860.05 L 176.194,1859.91 L 169.092,1859.91 L 165.544,1860.09 L 159.244,1860.11 L 155.26,1859.93 L 151.634,1859.87 L 128.366,1860.13 L 124.74,1860.07 L 120.754,1859.89 L 114.454,1859.91 L 110.906,1860.09 L 103.804,1860.09 L 100.408,1859.92 L 92.538,1859.92 L 89.386,1860.08 L 80.32,1860.07 L 77.57,1859.93 L 66.738,1859.95 L 64.592,1860.06 L 51.186,1860.03 L 49.992,1859.97 L 33.088,1859.99 L 32.798,1860.01 L 12.878,1860.05 L 10.126,1859.94 L 0,1859.92 z " style="fill-opacity:0.600000;fill:rgb(229,95,48);stroke:rgb(0,0,0);stroke-width:2"/></g>
<g fill-rule="evenodd"><path d="M 0,2059.92 L 0,1859.92 L 10.126,1859.94 L 12.878,1860.05 L 32.798,1860.01 L 33.088,1859.99 L 49.992,1859.97 L 51.186,1860.03 L 64.592,1860.06 L 66.738,1859.95 L 77.57,1859.93 L 80.32,1860.07 L 89.386,1860.08 L 92.538,1859.92 L 100.408,1859.92 L 103.804,1860.09 L 110.906,1860.09 L 114.454,1859.91 L 120.754,1859.89 L 124.74,1860.07 L 128.366,1860.13 L 151.634,1859.87 L 155.26,1859.93 L 159.244,1860.11 L 165.544,1860.09 L 169.092,1859.91 L 176.194,1859.91 L 178.91,1860.05 L 179.538,1859.83 L 186.354,1857.5 L 188.32,1856.86 L 192.008,1855.71 L 199.054,1853.9 L 199.724,1853.77 L 207.48,1851.75 L 221.238,1847.44 L 230.41,1844.03 L 244.168,1838.13 L 249.258,1835.8 L 252.202,1838.74 L 267.034,1851.47 L 281.866,1860 L 304.568,1860 L 375.432,1860 L 396.514,1860 L 399.836,1870.63 L 400.944,1881.26 L 400.944,1920.63 L 398.134,1937.56 L 389.71,1954.49 L 386.052,1960 L 375.432,1960 L 304.568,1960 L 275.04,1960 L 270.658,1961.57 L 266.812,1970.63 L 262.316,1983.86 L 260.046,1992.68 L 258.588,1999.37 L 257.338,2006.35 L 255.062,2016.13 L 251.124,2029.89 L 249.258,2035.8 L 244.168,2038.13 L 230.41,2044.03 L 221.238,2047.44 L 207.48,2051.75 L 199.724,2053.77 L 199.054,2053.9 L 192.008,2055.71 L 188.32,2056.86 L 186.354,2057.5 L 179.538,2059.83 L 178.91,2060.05 L 176.194,2059.91 L 169.092,2059.91 L 165.544,2060.09 L 159.244,2060.11 L 155.26,2059.93 L 151.634,2059.87 L 128.366,2060.13 L 124.74,2060.07 L 120.754,2059.89 L 114.454,2059.91 L 110.906,2060.09 L 103.804,2060.09 L 100.408,2059.92 L 92.538,2059.92 L 89.386,2060.08 L 80.32,2060.07 L 77.57,2059.93 L 66.738,2059.95 L 64.592,2060.06 L 51.186,2060.03 L 49.992,2059.97 L 33.088,2059.99 L 32.798,2060.01 L 12.878,2060.05 L 10.126,2059.94 L 0,2059.92 z " style="fill-opacity:0.600000;fill:rgb(209,200,237);stroke:rgb(0,0,0);stroke-width:2"/></g>
<g fill-rule="evenodd"><path d="M 177.544,2480 L 0,2480 L 0,2059.92 L 10.126,2059.94 L 12.878,2060.05 L 32.798,2060.01 L 33.088,2059.99 L 49.992,2059.97 L 51.186,2060.03 L 64.592,2060.06 L 66.738,2059.95 L 77.57,2059.93 L 80.32,2060.07 L 89.386,2060.08 L 92.538,2059.92 L 100.408,2059.92 L 103.804,2060.09 L 110.906,2060.09 L 114.454,2059.91 L 120.754,2059.89 L 124.74,2060.07 L 128.366,2060.13 L 151.634,2059.87 L 155.26,2059.93 L 159.244,2060.11 L 165.544,2060.09 L 169.092,2059.91 L 176.194,2059.91 L 178.91,2060.05 L 179.538,2059.83 L 186.354,2057.5 L 188.32,2056.86 L 192.008,2055.71 L 199.054,2053.9 L 199.724,2053.77 L 207.48,2051.75 L 221.238,2047.44 L 230.41,2044.03 L 244.168,2038.13 L 249.258,2035.8 L 252.202,2038.74 L 267.034,2051.47 L 281.866,2060 L 304.568,2060 L 375.432,2060 L 380.87,2060 L 391.818,2068.92 L 399.346,2081.26 L 400.944,2085.12 L 400.944,2120.63 L 399.994,2130.47 L 397.146,2140.32 L 392.398,2150.16 L 385.754,2160 L 375.432,2160 L 304.568,2160 L 275.04,2160 L 270.658,2161.57 L 266.812,2170.63 L 262.316,2183.86 L 260.046,2192.68 L 258.588,2199.37 L 257.338,2206.35 L 255.062,2216.13 L 251.124,2229.89 L 248.196,2238.74 L 247.306,2241.11 L 242.758,2255.77 L 238.594,2272.37 L 234.798,2291 L 229.582,2323.34 L 226.066,2350.04 L 217.844,2428.47 L 214.936,2432.07 L 212.964,2434.49 L 203.768,2446.07 L 177.544,2480 z " style="fill-opacity:0.600000;fill:rgb(97,12,75);stroke:rgb(0,0,0);stroke-width:2"/></g>
<g fill-rule="evenodd"><path d="M 0,0 L 780,0 L 780,2480 L 579.998,15332.8 L 579.998,2434.49 L 579.998,2245.51 L 579.998,2220 L 579.998,2194.49 L 579.998,2005.51 L 579.998,1980 L 579.998,1954.49 L 579.998,1765.51 L 579.998,1740 L 579.998,1714.49 L 579.998,1525.51 L 579.998,1500 L 579.998,1474.49 L 579.998,1285.51 L 579.998,1260 L 579.998,1234.49 L 579.998,1045.51 L 579.998,1020 L 579.998,994.488 L 579.998,805.512 L 579.998,780 L 579.998,754.488 L 579.998,565.512 L 579.998,540 L 579.998,514.488 L 579.998,325.512 L 579.998,300 L 579.998,274.488 L 579.998,185.536 L 538.568,85.512 L 536.878,81.748 L 521.036,71.196 L 513.116,68.558 L 505.196,67.678 L 426.456,67.678 L 417.538,68.792 L 408.62,72.136 L 399.702,77.71 L 390.784,85.512 L 382.346,93.952 L 349.384,173.53 L 318.722,204.192 L 304.568,210.054 L 294.608,214.612 L 284.792,219.56 L 279.056,228 L 247.184,278.606 L 246.19,278.39 L 233.52,275.606 L 219.998,271.668 L 219.066,271.322 L 210.574,268.65 L 196.814,265.088 L 189.466,263.574 L 175.708,261.464 L 169.004,260.782 L 155.244,260.084 L 151.636,260.002 L 120.756,260.178 L 114.576,260.508 L 100.818,261.908 L 93.85,262.978 L 80.09,265.806 L 72.236,267.846 L 60,271.684 L 58.47,272.15 L 48.622,275.054 L 32.438,278.65 L 14.916,281.408 L 0,283.048 L 0,0 z " style="fill-opacity:0.600000;fill:rgb(2,53,57);stroke:rgb(0,0,0);stroke-width:2"/></g>
<g fill-rule="evenodd"><path d="M 0,459.922 L 0,283.05 L 14.916,281.408 L 32.438,278.65 L 48.622,275.054 L 58.47,272.15 L 60,271.684 L 72.236,267.846 L 80.09,265.806 L 93.85,262.978 L 100.818,261.908 L 114.576,260.508 L 120.756,260.178 L 151.636,260.002 L 155.244,260.084 L 169.004,260.782 L 175.708,261.464 L 189.466,263.574 L 196.814,265.088 L 210.574,268.65 L 219.066,271.322 L 219.998,271.668 L 233.52,275.606 L 246.19,278.39 L 247.184,278.606 L 248.058,281.264 L 251.594,291.608 L 254.582,302.016 L 257.774,315.774 L 258.768,320.63 L 259.552,325.05 L 262.982,338.374 L 266.032,347.326 L 270.546,358.39 L 275.04,360.002 L 304.568,360.002 L 375.432,360.002 L 385.754,360.002 L 392.398,369.844 L 397.146,379.688 L 399.994,389.53 L 400.944,399.372 L 400.944,434.886 L 399.346,438.74 L 391.818,451.08 L 380.87,460.002 L 375.432,460.002 L 304.568,460.002 L 281.81,460.002 L 266.964,468.532 L 252.112,481.264 L 249.09,484.28 L 242.664,481.12 L 232.538,476.752 L 218.788,471.646 L 210.384,468.992 L 197.066,465.532 L 196.632,465.418 L 189.484,463.514 L 183.484,461.63 L 179.874,460.318 L 179.194,460.066 L 176.194,459.914 L 169.092,459.91 L 165.544,460.09 L 159.244,460.11 L 155.26,459.93 L 151.634,459.87 L 128.366,460.132 L 124.74,460.072 L 120.754,459.892 L 114.454,459.912 L 110.906,460.092 L 103.804,460.088 L 100.408,459.916 L 92.538,459.922 L 89.386,460.082 L 80.32,460.072 L 77.57,459.932 L 66.738,459.946 L 64.592,460.056 L 51.186,460.032 L 49.992,459.97 L 33.088,459.994 L 32.798,460.008 L 12.878,460.054 L 10.126,459.944 L 0,459.922 z " style="fill-opacity:0.600000;fill:rgb(129,132,184);stroke:rgb(0,0,0);stroke-width:2"/></g>
<g fill-rule="evenodd"><path d="M 0,659.922 L 0,459.92 L 10.126,459.944 L 12.878,460.054 L 32.798,460.008 L 33.088,459.994 L 49.992,459.97 L 51.186,460.032 L 64.592,460.056 L 66.738,459.946 L 77.57,459.932 L 80.32,460.072 L 89.386,460.082 L 92.538,459.922 L 100.408,459.916 L 103.804,460.088 L 110.906,460.092 L 114.454,459.912 L 120.754,459.892 L 124.74,460.072 L 128.366,460.132 L 151.634,459.87 L 155.26,459.93 L 159.244,460.11 L 165.544,460.09 L 169.092,459.91 L 176.194,459.914 L 179.194,460.066 L 179.874,460.318 L 183.484,461.63 L 189.484,463.514 L 196.632,465.418 L 197.066,465.532 L 210.384,468.992 L 218.788,471.646 L 232.538,476.752 L 242.664,481.12 L 249.09,484.28 L 251.594,491.608 L 254.582,502.016 L 257.774,515.774 L 258.768,520.63 L 259.552,525.05 L 262.982,538.374 L 266.032,547.326 L 270.546,558.39 L 275.04,560.002 L 304.568,560.002 L 375.432,560.002 L 386.05,560.002 L 389.708,565.512 L 398.134,582.442 L 400.944,599.372 L 400.944,638.74 L 399.836,649.372 L 396.514,660.002 L 375.432,660.002 L 304.568,660.002 L 281.81,660.002 L 266.964,668.532 L 252.112,681.262 L 249.09,684.28 L 242.664,681.12 L 232.538,676.752 L 218.788,671.646 L 210.384,668.992 L 197.066,665.532 L 196.632,665.418 L 189.484,663.514 L 183.484,661.63 L 179.874,660.318 L 179.194,660.066 L 176.194,659.914 L 169.092,659.91 L 165.544,660.09 L 159.244,660.11 L 155.26,659.93 L 151.634,659.87 L 128.366,660.132 L 124.74,660.072 L 120.754,659.892 L 114.454,659.912 L 110.906,660.092 L 103.804,660.088 L 100.408,659.916 L 92.538,659.922 L 89.386,660.082 L 80.32,660.072 L 77.57,659.932 L 66.738,659.946 L 64.592,660.056 L 51.186,660.032 L 49.992,659.97 L 33.088,659.994 L 32.798,660.008 L 12.878,660.054 L 10.126,659.944 L 0,659.922 z " style="fill-opacity:0.600000;fill:rgb(20,162,156);stroke:rgb(0,0,0);stroke-width:2"/></g>
<g fill-rule="evenodd"><path d="M 0,859.922 L 0,659.92 L 10.126,659.944 L 12.878,660.054 L 32.798,660.008 L 33.088,659.994 L 49.992,659.97 L 51.186,660.032 L 64.592,660.056 L 66.738,659.946 L 77.57,659.932 L 80.32,660.072 L 89.386,660.082 L 92.538,659.922 L 100.408,659.916 L 103.804,660.088 L 110.906,660.092 L 114.454,659.912 L 120.754,659.892 L 124.74,660.072 L 128.366,660.132 L 151.634,659.87 L 155.26,659.93 L 159.244,660.11 L 165.544,660.09 L 169.092,659.91 L 176.194,659.914 L 179.194,660.066 L 179.874,660.318 L 183.484,661.63 L 189.484,663.514 L 196.632,665.418 L 197.066,665.532 L 210.384,668.992 L 218.788,671.646 L 232.538,676.752 L 242.664,681.12 L 249.09,684.28 L 251.594,691.608 L 254.582,702.016 L 257.774,715.774 L 258.768,720.63 L 259.552,725.05 L 262.982,738.374 L 266.032,747.326 L 270.546,758.39 L 275.04,760.002 L 304.568,760.002 L 375.432,760.002 L 386.052,760.002 L 403.644,780 L 401.312,799.372 L 400.944,805.512 L 400.944,838.74 L 399.836,849.372 L 396.514,860.002 L 375.432,860.002 L 304.568,860.002 L 281.81,860.002 L 266.964,868.532 L 252.112,881.264 L 249.09,884.28 L 242.664,881.12 L 232.538,876.752 L 218.788,871.646 L 210.384,868.992 L 197.066,865.532 L 196.632,865.418 L 189.484,863.514 L 183.484,861.63 L 179.874,860.318 L 179.194,860.066 L 176.194,859.914 L 169.092,859.91 L 165.544,860.09 L 159.244,860.11 L 155.26,859.93 L 151.634,859.87 L 128.366,860.132 L 124.74,860.072 L 120.754,859.892 L 114.454,859.912 L 110.906,860.092 L 103.804,860.088 L 100.408,859.916 L 92.538,859.922 L 89.386,860.082 L 80.32,860.072 L 77.57,859.932 L 66.738,859.946 L 64.592,860.056 L 51.186,860.032 L 49.992,859.97 L 33.088,859.994 L 32.798,860.008 L 12.878,860.054 L 10.126,859.944 L 0,859.922 z " style="fill-opacity:0.600000;fill:rgb(180,90,103);stroke:rgb(0,0,0);stroke-width:2"/></g>
<g fill-rule="evenodd"><path d="M 0,1059.92 L 0,859.92 L 10.126,859.944 L 12.878,860.054 L 32.798,860.008 L 33.088,859.994 L 49.992,859.97 L 51.186,860.032 L 64.592,860.056 L 66.738,859.946 L 77.57,859.932 L 80.32,860.072 L 89.386,860.082 L 92.538,859.922 L 100.408,859.916 L 103.804,860.088 L 110.906,860.092 L 114.454,859.912 L 120.754,859.892 L 124.74,860.072 L 128.366,860.132 L 151.634,859.87 L 155.26,859.93 L 159.244,860.11 L 165.544,860.09 L 169.092,859.91 L 176.194,859.914 L 179.194,860.066 L 179.874,860.318 L 183.484,861.63 L 189.484,863.514 L 196.632,865.418 L 197.066,865.532 L 210.384,868.992 L 218.788,871.646 L 232.538,876.752 L 242.664,881.12 L 249.09,884.28 L 251.594,891.608 L 254.582,902.016 L 257.774,915.774 L 258.768,920.63 L 259.552,925.05 L 262.982,938.374 L 266.032,947.326 L 270.546,958.39 L 275.04,960.002 L 304.568,960.002 L 375.432,960.002 L 385.754,960.002 L 396.146,977.246 L 400.71,994.488 L 401.176,999.372 L 403.206,1009.69 L 407.322,1020 L 403.496,1029.37 L 401.392,1038.74 L 400.494,1045.51 L 396.514,1060 L 375.432,1060 L 304.568,1060 L 281.81,1060 L 266.964,1068.53 L 252.112,1081.26 L 249.09,1084.28 L 242.664,1081.12 L 232.538,1076.75 L 218.788,1071.65 L 210.384,1068.99 L 197.066,1065.53 L 196.632,1065.42 L 189.484,1063.51 L 183.484,1061.63 L 179.874,1060.32 L 179.194,1060.07 L 176.194,1059.91 L 169.092,1059.91 L 165.544,1060.09 L 159.244,1060.11 L 155.26,1059.93 L 151.634,1059.87 L 128.366,1060.13 L 124.74,1060.07 L 120.754,1059.89 L 114.454,1059.91 L 110.906,1060.09 L 103.804,1060.09 L 100.408,1059.92 L 92.538,1059.92 L 89.386,1060.08 L 80.32,1060.07 L 77.57,1059.93 L 66.738,1059.95 L 64.592,1060.06 L 51.186,1060.03 L 49.992,1059.97 L 33.088,1059.99 L 32.798,1060.01 L 12.878,1060.05 L 10.126,1059.94 L 0,1059.92 z " style="fill-opacity:0.600000;fill:rgb(42,202,229);stroke:rgb(0,0,0);stroke-width:2"/></g>
<g fill-rule="evenodd"><path d="M 375.432,2235.69 L 426.456,2286.71 L 426.456,2245.51 L 505.196,2245.51 L 505.196,2434.49 L 426.456,2434.49 L 426.456,2314.55 L 350.646,2238.74 L 304.568,2238.74 L 304.568,2199.37 L 375.432,2199.37 L 375.432,2235.69 z " style="fill-opacity:1.000000;fill:rgb(167,241,217);stroke:rgb(0,0,0);stroke-width:2"/></g>
<g fill-rule="evenodd"><path d="M 375.432,1828.9 L 375.432,1838.74 L 304.568,1838.74 L 304.568,1799.37 L 375.432,1799.37 L 375.432,1809.21 L 426.456,1809.37 L 426.456,1765.51 L 505.196,1765.51 L 505.196,1954.49 L 426.456,1954.49 L 426.456,1834.55 L 420.804,1828.9 L 375.432,1828.9 z " style="fill-opacity:1.000000;fill:rgb(42,130,200);stroke:rgb(0,0,0);stroke-width:2"/></g>
<g fill-rule="evenodd"><path d="M 375.432,1628.9 L 375.432,1638.74 L 304.568,1638.74 L 304.568,1599.37 L 375.432,1599.37 L 375.432,1609.21 L 426.456,1609.21 L 426.456,1525.51 L 505.196,1525.51 L 505.196,1714.49 L 426.456,1714.49 L 426.456,1628.9 L 375.432,1628.9 z " style="fill-opacity:1.000000;fill:rgb(216,254,67);stroke:rgb(0,0,0);stroke-width:2"/></g>
<g fill-rule="evenodd"><path d="M 375.432,1428.9 L 375.432,1438.74 L 304.568,1438.74 L 304.568,1399.37 L 375.432,1399.37 L 375.432,1409.21 L 422.694,1409.21 L 426.456,1405.45 L 426.456,1285.51 L 505.196,1285.51 L 505.196,1474.49 L 426.456,1474.49 L 426.456,1428.9 L 375.432,1428.9 z " style="fill-opacity:1.000000;fill:rgb(77,152,85);stroke:rgb(0,0,0);stroke-width:2"/></g>
<g fill-rule="evenodd"><path d="M 350.646,281.262 L 426.456,205.452 L 426.456,85.512 L 505.196,85.512 L 505.196,274.488 L 426.456,274.488 L 426.456,233.288 L 375.432,284.312 L 375.432,320.63 L 304.568,320.63 L 304.568,281.262 L 350.646,281.262 z " style="fill-opacity:1.000000;fill:rgb(140,226,179);stroke:rgb(0,0,0);stroke-width:2"/></g>
<g fill-rule="evenodd"><path d="M 375.432,1110.79 L 375.432,1120.63 L 304.568,1120.63 L 304.568,1081.26 L 375.432,1081.26 L 375.432,1091.1 L 426.456,1091.1 L 426.456,1045.51 L 505.196,1045.51 L 505.196,1234.49 L 426.456,1234.49 L 426.456,1114.55 L 422.694,1110.79 L 375.432,1110.79 z " style="fill-opacity:1.000000;fill:rgb(71,23,17);stroke:rgb(0,0,0);stroke-width:2"/></g>
<g fill-rule="evenodd"><path d="M 375.432,910.788 L 375.432,920.63 L 304.568,920.63 L 304.568,881.262 L 375.432,881.262 L 375.432,891.104 L 426.456,891.104 L 426.456,805.512 L 505.196,805.512 L 505.196,994.488 L 426.456,994.488 L 426.456,910.788 L 375.432,910.788 z " style="fill-opacity:1.000000;fill:rgb(152,84,47);stroke:rgb(0,0,0);stroke-width:2"/></g>
<g fill-rule="evenodd"><path d="M 375.432,710.788 L 375.432,720.63 L 304.568,720.63 L 304.568,681.262 L 375.432,681.262 L 375.432,691.104 L 420.804,691.104 L 426.456,685.452 L 426.456,565.512 L 505.196,565.512 L 505.196,754.488 L 426.456,754.488 L 426.456,710.632 L 375.432,710.788 z " style="fill-opacity:1.000000;fill:rgb(17,45,5);stroke:rgb(0,0,0);stroke-width:2"/></g>
<g fill-rule="evenodd"><path d="M 426.456,2046.71 L 426.456,2005.51 L 505.196,2005.51 L 505.196,2194.49 L 426.456,2194.49 L 426.456,2074.55 L 380.804,2028.9 L 375.432,2028.9 L 375.432,2038.74 L 304.568,2038.74 L 304.568,1999.37 L 375.432,1999.37 L 375.432,2009.21 L 386.8,2009.4 L 390.346,2010.87 L 426.456,2046.71 z " style="fill-opacity:1.000000;fill:rgb(88,245,107);stroke:rgb(0,0,0);stroke-width:2"/></g>
<g fill-rule="evenodd"><path d="M 426.456,445.452 L 426.456,325.512 L 505.196,325.512 L 505.196,514.488 L 426.456,514.488 L 426.456,473.288 L 390.346,509.13 L 386.798,510.6 L 375.432,510.788 L 375.432,520.63 L 304.568,520.63 L 304.568,481.262 L 375.432,481.262 L 375.432,491.104 L 380.804,491.104 L 426.456,445.452 z " style="fill-opacity:1.000000;fill:rgb(214,136,7);stroke:rgb(0,0,0);stroke-width:2"/></g>
<g fill-rule="evenodd"><path d="M 304.568,1209.21 L 304.568,1199.37 L 375.432,1199.37 L 375.432,1238.74 L 304.568,1238.74 L 304.568,1228.9 L 197.132,1228.71 L 193.586,1227.24 L 185.314,1219.23 L 172.356,1224.88 L 158.878,1227.65 L 128.002,1228 L 114.312,1226.61 L 101.184,1222.49 L 89.154,1215.81 L 78.716,1206.85 L 70.294,1195.97 L 64.234,1183.62 L 60.786,1170.3 L 60.088,1156.56 L 62.172,1142.96 L 66.95,1130.05 L 74.228,1118.38 L 83.708,1108.41 L 95,1100.55 L 107.644,1095.12 L 121.122,1092.35 L 152,1092 L 165.688,1093.39 L 178.816,1097.51 L 190.846,1104.19 L 201.284,1113.15 L 209.706,1124.03 L 215.766,1136.38 L 219.214,1149.7 L 219.912,1163.44 L 217.828,1177.04 L 213.05,1189.95 L 205.772,1201.62 L 200.784,1206.87 L 203.128,1209.21 L 304.568,1209.21 z " style="fill-opacity:1.000000;fill:rgb(153,146,72);stroke:rgb(0,0,0);stroke-width:2"/></g>
<g fill-rule="evenodd"><path d="M 304.568,1291.1 L 304.568,1281.26 L 375.432,1281.26 L 375.432,1320.63 L 304.568,1320.63 L 304.568,1310.79 L 203.13,1310.79 L 201.004,1312.91 L 209.706,1324.03 L 215.766,1336.38 L 219.214,1349.7 L 219.912,1363.44 L 217.828,1377.04 L 213.05,1389.95 L 205.772,1401.62 L 196.292,1411.59 L 185,1419.45 L 172.356,1424.88 L 158.878,1427.65 L 128.002,1428 L 114.312,1426.61 L 101.184,1422.49 L 89.154,1415.81 L 78.716,1406.85 L 70.294,1395.97 L 64.234,1383.62 L 60.786,1370.3 L 60.088,1356.56 L 62.172,1342.96 L 66.95,1330.05 L 74.228,1318.38 L 83.708,1308.41 L 95,1300.55 L 107.644,1295.12 L 121.122,1292.35 L 152,1292 L 165.688,1293.39 L 178.816,1297.51 L 185.088,1300.99 L 193.584,1292.76 L 195.286,1291.85 L 199.054,1291.1 L 304.568,1291.1 z " style="fill-opacity:1.000000;fill:rgb(51,98,65);stroke:rgb(0,0,0);stroke-width:2"/></g>
<g fill-rule="evenodd"><path d="M 304.568,1491.1 L 304.568,1481.26 L 375.432,1481.26 L 375.432,1520.63 L 304.568,1520.63 L 304.568,1510.79 L 203.13,1510.79 L 201.004,1512.91 L 209.706,1524.03 L 215.766,1536.38 L 219.214,1549.7 L 219.912,1563.44 L 217.828,1577.04 L 213.05,1589.95 L 205.772,1601.62 L 196.292,1611.59 L 185,1619.45 L 172.356,1624.88 L 158.878,1627.65 L 128.002,1628 L 114.312,1626.61 L 101.184,1622.49 L 89.154,1615.81 L 78.716,1606.85 L 70.294,1595.97 L 64.234,1583.62 L 60.786,1570.3 L 60.088,1556.56 L 62.172,1542.96 L 66.95,1530.05 L 74.228,1518.38 L 83.708,1508.41 L 95,1500.55 L 107.644,1495.12 L 121.122,1492.35 L 152,1492 L 165.688,1493.39 L 178.816,1497.51 L 185.088,1500.99 L 193.584,1492.76 L 195.286,1491.85 L 199.054,1491.1 L 304.568,1491.1 z " style="fill-opacity:1.000000;fill:rgb(243,13,35);stroke:rgb(0,0,0);stroke-width:2"/></g>
<g fill-rule="evenodd"><path d="M 304.568,1691.1 L 304.568,1681.26 L 375.432,1681.26 L 375.432,1720.63 L 304.568,1720.63 L 304.568,1710.79 L 203.13,1710.79 L 201.004,1712.91 L 209.706,1724.03 L 215.766,1736.38 L 219.214,1749.7 L 219.912,1763.44 L 217.828,1777.04 L 213.05,1789.95 L 205.772,1801.62 L 196.292,1811.59 L 185,1819.45 L 172.356,1824.88 L 158.878,1827.65 L 128.002,1828 L 114.312,1826.61 L 101.184,1822.49 L 89.154,1815.81 L 78.716,1806.85 L 70.294,1795.97 L 64.234,1783.62 L 60.786,1770.3 L 60.088,1756.56 L 62.172,1742.96 L 66.95,1730.05 L 74.228,1718.38 L 83.708,1708.41 L 95,1700.55 L 107.644,1695.12 L 121.122,1692.35 L 152,1692 L 165.688,1693.39 L 178.816,1697.51 L 185.088,1700.99 L 193.584,1692.76 L 195.286,1691.85 L 199.054,1691.1 L 304.568,1691.1 z " style="fill-opacity:1.000000;fill:rgb(229,95,48);stroke:rgb(0,0,0);stroke-width:2"/></g>
<g fill-rule="evenodd"><path d="M 304.568,1891.1 L 304.568,1881.26 L 375.432,1881.26 L 375.432,1920.63 L 304.568,1920.63 L 304.568,1910.79 L 203.13,1910.79 L 201.004,1912.91 L 209.706,1924.03 L 215.766,1936.38 L 219.214,1949.7 L 219.912,1963.44 L 217.828,1977.04 L 213.05,1989.95 L 205.772,2001.62 L 196.292,2011.59 L 185,2019.45 L 172.356,2024.88 L 158.878,2027.65 L 128.002,2028 L 114.312,2026.61 L 101.184,2022.49 L 89.154,2015.81 L 78.716,2006.85 L 70.294,1995.97 L 64.234,1983.62 L 60.786,1970.3 L 60.088,1956.56 L 62.172,1942.96 L 66.95,1930.05 L 74.228,1918.38 L 83.708,1908.41 L 95,1900.55 L 107.644,1895.12 L 121.122,1892.35 L 152,1892 L 165.688,1893.39 L 178.816,1897.51 L 185.088,1900.99 L 193.584,1892.76 L 195.286,1891.85 L 199.054,1891.1 L 304.568,1891.1 z " style="fill-opacity:1.000000;fill:rgb(209,200,237);stroke:rgb(0,0,0);stroke-width:2"/></g>
<g fill-rule="evenodd"><path d="M 304.568,2091.1 L 304.568,2081.26 L 375.432,2081.26 L 375.432,2120.63 L 304.568,2120.63 L 304.568,2110.79 L 203.13,2110.79 L 201.004,2112.91 L 209.706,2124.03 L 215.766,2136.38 L 219.214,2149.7 L 219.912,2163.44 L 217.828,2177.04 L 213.05,2189.95 L 205.772,2201.62 L 196.292,2211.59 L 185,2219.45 L 172.356,2224.88 L 158.878,2227.65 L 128.002,2228 L 114.312,2226.61 L 101.184,2222.49 L 89.154,2215.81 L 78.716,2206.85 L 70.294,2195.97 L 64.234,2183.62 L 60.786,2170.3 L 60.088,2156.56 L 62.172,2142.96 L 66.95,2130.05 L 74.228,2118.38 L 83.708,2108.41 L 95,2100.55 L 107.644,2095.12 L 121.122,2092.35 L 152,2092 L 165.688,2093.39 L 178.816,2097.51 L 185.088,2100.99 L 193.584,2092.76 L 195.286,2091.85 L 199.054,2091.1 L 304.568,2091.1 z " style="fill-opacity:1.000000;fill:rgb(97,12,75);stroke:rgb(0,0,0);stroke-width:2"/></g>
<g fill-rule="evenodd"><path d="M 220,169.842 L 220,228 L 60,228 L 60,92 L 220,92 L 220,150.158 L 235.924,150.158 L 353.04,33.042 L 354.53,31.818 L 358.078,30.348 L 554.172,30.158 L 557.938,30.908 L 561.13,33.042 L 654.802,126.714 L 654.802,85.512 L 733.542,85.512 L 733.542,274.488 L 704.014,274.488 L 704.014,325.512 L 733.542,325.512 L 733.542,514.488 L 704.014,514.488 L 704.014,565.512 L 733.542,565.512 L 733.542,754.488 L 704.014,754.488 L 704.014,805.512 L 733.542,805.512 L 733.542,994.488 L 704.014,994.488 L 704.014,1045.51 L 733.542,1045.51 L 733.542,1234.49 L 704.014,1234.49 L 704.014,1285.51 L 733.542,1285.51 L 733.542,1474.49 L 704.014,1474.49 L 704.014,1525.51 L 733.542,1525.51 L 733.542,1714.49 L 704.014,1714.49 L 704.014,1765.51 L 733.542,1765.51 L 733.542,1954.49 L 704.014,1954.49 L 704.014,2005.51 L 733.542,2005.51 L 733.542,2194.49 L 704.014,2194.49 L 704.014,2245.51 L 733.542,2245.51 L 733.542,2434.49 L 654.802,2434.49 L 654.802,2245.51 L 684.33,2245.51 L 684.33,2194.49 L 654.802,2194.49 L 654.802,2005.51 L 684.33,2005.51 L 684.33,1954.49 L 654.802,1954.49 L 654.802,1765.51 L 684.33,1765.51 L 684.33,1714.49 L 654.802,1714.49 L 654.802,1525.51 L 684.33,1525.51 L 684.33,1474.49 L 654.802,1474.49 L 654.802,1285.51 L 684.33,1285.51 L 684.33,1234.49 L 654.802,1234.49 L 654.802,1045.51 L 684.33,1045.51 L 684.33,994.488 L 654.802,994.488 L 654.802,805.512 L 684.33,805.512 L 684.33,754.488 L 654.802,754.488 L 654.802,565.512 L 684.33,565.512 L 684.33,514.488 L 654.802,514.488 L 654.802,325.512 L 684.33,325.512 L 684.33,274.488 L 654.802,274.488 L 654.802,154.55 L 550.094,49.842 L 364.076,49.842 L 246.958,166.96 L 243.764,169.094 L 241.918,169.654 L 220,169.842 z " style="fill-opacity:1.000000;fill:rgb(2,53,57);stroke:rgb(0,0,0);stroke-width:2"/></g>
<g fill-rule="evenodd"><path d="M 304.568,409.214 L 304.568,399.372 L 375.432,399.372 L 375.432,438.74 L 304.568,438.74 L 304.568,428.898 L 197.132,428.71 L 193.586,427.24 L 185.314,419.234 L 172.356,424.88 L 158.878,427.65 L 128.002,428 L 114.312,426.608 L 101.184,422.488 L 89.154,415.81 L 78.716,406.848 L 70.294,395.968 L 64.234,383.616 L 60.786,370.296 L 60.088,356.556 L 62.172,342.956 L 66.95,330.054 L 74.228,318.378 L 83.708,308.406 L 95,300.546 L 107.644,295.12 L 121.122,292.35 L 152,292 L 165.688,293.392 L 178.816,297.512 L 190.846,304.19 L 201.284,313.152 L 209.706,324.032 L 215.766,336.384 L 219.214,349.704 L 219.912,363.444 L 217.828,377.044 L 213.05,389.946 L 205.772,401.622 L 200.784,406.868 L 203.128,409.214 L 304.568,409.214 z " style="fill-opacity:1.000000;fill:rgb(129,132,184);stroke:rgb(0,0,0);stroke-width:2"/></g>
<g fill-rule="evenodd"><path d="M 304.568,609.214 L 304.568,599.372 L 375.432,599.372 L 375.432,638.74 L 304.568,638.74 L 304.568,628.898 L 197.132,628.71 L 193.586,627.24 L 185.314,619.234 L 172.356,624.88 L 158.878,627.65 L 128.002,628 L 114.312,626.608 L 101.184,622.488 L 89.154,615.81 L 78.716,606.848 L 70.294,595.968 L 64.234,583.616 L 60.786,570.296 L 60.088,556.556 L 62.172,542.956 L 66.95,530.054 L 74.228,518.378 L 83.708,508.406 L 95,500.546 L 107.644,495.12 L 121.122,492.35 L 152,492 L 165.688,493.392 L 178.816,497.512 L 190.846,504.19 L 201.284,513.152 L 209.706,524.032 L 215.766,536.384 L 219.214,549.704 L 219.912,563.444 L 217.828,577.044 L 213.05,589.946 L 205.772,601.622 L 200.784,606.868 L 203.128,609.214 L 304.568,609.214 z " style="fill-opacity:1.000000;fill:rgb(20,162,156);stroke:rgb(0,0,0);stroke-width:2"/></g>
<g fill-rule="evenodd"><path d="M 304.568,809.214 L 304.568,799.372 L 375.432,799.372 L 375.432,838.74 L 304.568,838.74 L 304.568,828.898 L 197.132,828.71 L 193.586,827.24 L 185.314,819.234 L 172.356,824.88 L 158.878,827.65 L 128.002,828 L 114.312,826.608 L 101.184,822.488 L 89.154,815.81 L 78.716,806.848 L 70.294,795.968 L 64.234,783.616 L 60.786,770.296 L 60.088,756.556 L 62.172,742.956 L 66.95,730.054 L 74.228,718.378 L 83.708,708.406 L 95,700.546 L 107.644,695.12 L 121.122,692.35 L 152,692 L 165.688,693.392 L 178.816,697.512 L 190.846,704.19 L 201.284,713.152 L 209.706,724.032 L 215.766,736.384 L 219.214,749.704 L 219.912,763.444 L 217.828,777.044 L 213.05,789.946 L 205.772,801.622 L 200.784,806.868 L 203.128,809.214 L 304.568,809.214 z " style="fill-opacity:1.000000;fill:rgb(180,90,103);stroke:rgb(0,0,0);stroke-width:2"/></g>
<g fill-rule="evenodd"><path d="M 304.568,1009.21 L 304.568,999.372 L 375.432,999.372 L 375.432,1038.74 L 304.568,1038.74 L 304.568,1028.9 L 197.132,1028.71 L 193.586,1027.24 L 185.314,1019.23 L 172.356,1024.88 L 158.878,1027.65 L 128.002,1028 L 114.312,1026.61 L 101.184,1022.49 L 89.154,1015.81 L 78.716,1006.85 L 70.294,995.968 L 64.234,983.616 L 60.786,970.296 L 60.088,956.556 L 62.172,942.956 L 66.95,930.054 L 74.228,918.378 L 83.708,908.406 L 95,900.546 L 107.644,895.12 L 121.122,892.35 L 152,892 L 165.688,893.392 L 178.816,897.512 L 190.846,904.19 L 201.284,913.152 L 209.706,924.032 L 215.766,936.384 L 219.214,949.704 L 219.912,963.444 L 217.828,977.044 L 213.05,989.946 L 205.772,1001.62 L 200.784,1006.87 L 203.128,1009.21 L 304.568,1009.21 z " style="fill-opacity:1.000000;fill:rgb(42,202,229);stroke:rgb(0,0,0);stroke-width:2"/></g>
</svg>
