G04 #@! TF.FileFunction,Copper,L2,Bot,Signal*
%FSLAX46Y46*%
G04 Gerber Fmt 4.6, Leading zero omitted, Abs format (unit mm)*
G04 Created by KiCad (PCBNEW 4.0.5) date Sunday 02 April 2017 12:25:38*
%MOMM*%
%LPD*%
G01*
G04 APERTURE LIST*
%ADD10C,0.100000*%
%ADD11C,2.499360*%
%ADD12O,0.800000X2.000000*%
%ADD13O,2.000000X0.800000*%
%ADD14C,1.998980*%
%ADD15O,1.727200X2.032000*%
%ADD16O,2.032000X1.727200*%
%ADD17R,2.032000X2.032000*%
%ADD18O,2.032000X2.032000*%
%ADD19R,2.032000X1.727200*%
%ADD20C,4.064000*%
%ADD21C,1.400000*%
%ADD22C,0.500000*%
%ADD23C,0.450000*%
G04 APERTURE END LIST*
D10*
D11*
X24130000Y73914000D03*
X26670000Y63754000D03*
X21590000Y63754000D03*
D12*
X8557000Y60217000D03*
X10057000Y60217000D03*
X11557000Y60217000D03*
X13057000Y60217000D03*
X14557000Y60217000D03*
X16057000Y60217000D03*
X17557000Y60217000D03*
X19057000Y60217000D03*
X20557000Y60217000D03*
X7057000Y60217000D03*
X20557000Y46717000D03*
X19057000Y46717000D03*
X17557000Y46717000D03*
X16057000Y46717000D03*
X14557000Y46717000D03*
X13057000Y46717000D03*
X11557000Y46717000D03*
X10057000Y46717000D03*
X8557000Y46717000D03*
X7057000Y46717000D03*
X5557000Y46717000D03*
X4057000Y46717000D03*
X2557000Y46717000D03*
D13*
X1057000Y48217000D03*
X1057000Y49717000D03*
X1057000Y51217000D03*
X1057000Y52717000D03*
X1057000Y54217000D03*
X1057000Y55717000D03*
X1057000Y57217000D03*
X1057000Y58717000D03*
D12*
X2557000Y60217000D03*
X4057000Y60217000D03*
X5557000Y60217000D03*
D14*
X14605000Y31750000D03*
X14605000Y24130000D03*
X17780000Y24130000D03*
X17780000Y31750000D03*
D15*
X7493000Y38608000D03*
X10033000Y38608000D03*
X12573000Y38608000D03*
X15113000Y38608000D03*
X17653000Y38608000D03*
X20193000Y38608000D03*
X19050000Y8255000D03*
X16510000Y8255000D03*
X13970000Y8255000D03*
D16*
X21590000Y8255000D03*
X21590000Y10795000D03*
X21590000Y13335000D03*
X21590000Y15875000D03*
X21590000Y18415000D03*
X21590000Y20955000D03*
X21590000Y23495000D03*
X21590000Y26035000D03*
X21590000Y28575000D03*
X21590000Y31115000D03*
X21590000Y33655000D03*
X21590000Y36195000D03*
X6350000Y36195000D03*
X6350000Y33655000D03*
X6350000Y31115000D03*
X6350000Y28575000D03*
X6350000Y26035000D03*
X6350000Y23495000D03*
X6350000Y20955000D03*
X6350000Y18415000D03*
X6350000Y15875000D03*
X6350000Y13335000D03*
X6350000Y10795000D03*
X6350000Y8255000D03*
D17*
X6858000Y42672000D03*
D18*
X9398000Y42672000D03*
D17*
X17399000Y42418000D03*
D18*
X19939000Y42418000D03*
D17*
X12065000Y4445000D03*
D18*
X14605000Y4445000D03*
D19*
X3048000Y27940000D03*
D16*
X3048000Y30480000D03*
X3048000Y33020000D03*
X3048000Y35560000D03*
X3048000Y38100000D03*
D17*
X25654000Y43180000D03*
D18*
X28194000Y43180000D03*
D17*
X24638000Y38354000D03*
D18*
X27178000Y38354000D03*
D19*
X3048000Y16891000D03*
D16*
X3048000Y14351000D03*
X3048000Y11811000D03*
X3048000Y9271000D03*
D20*
X15748000Y67564000D03*
X6096000Y3556000D03*
X26416000Y3556000D03*
X24130000Y68707000D03*
D14*
X16510000Y11430000D03*
X16510000Y19050000D03*
D21*
X25146000Y31496000D03*
X25146000Y20574000D03*
X22860000Y43688000D03*
X18034000Y63500000D03*
X24257000Y62738000D03*
X27432000Y29083000D03*
D22*
X3048000Y27940000D02*
X1905000Y27940000D01*
X1016000Y42418000D02*
X2557000Y43959000D01*
X2557000Y43959000D02*
X2557000Y46717000D01*
X1016000Y28829000D02*
X1016000Y42418000D01*
X1905000Y27940000D02*
X1016000Y28829000D01*
X3048000Y16891000D02*
X3048000Y27940000D01*
X12065000Y10795000D02*
X16510000Y15240000D01*
X16510000Y15240000D02*
X16510000Y19050000D01*
X3429000Y62865000D02*
X15113000Y62865000D01*
X2557000Y60217000D02*
X2557000Y61993000D01*
X3429000Y62865000D02*
X2557000Y61993000D01*
X24892000Y65532000D02*
X26670000Y63754000D01*
X17780000Y65532000D02*
X24892000Y65532000D01*
X15113000Y62865000D02*
X17780000Y65532000D01*
X27178000Y38354000D02*
X27178000Y36703000D01*
X24130000Y33655000D02*
X21590000Y33655000D01*
X27178000Y36703000D02*
X24130000Y33655000D01*
X3048000Y16891000D02*
X2032000Y16891000D01*
X2032000Y16891000D02*
X1143000Y16002000D01*
X12446000Y11176000D02*
X12446000Y31496000D01*
X7620000Y6350000D02*
X12065000Y10795000D01*
X12065000Y10795000D02*
X12446000Y11176000D01*
X2667000Y6350000D02*
X7620000Y6350000D01*
X1143000Y7874000D02*
X2667000Y6350000D01*
X1143000Y16002000D02*
X1143000Y7874000D01*
X17653000Y38608000D02*
X17653000Y38354000D01*
X17653000Y38354000D02*
X12446000Y33147000D01*
X15748000Y29718000D02*
X17780000Y31750000D01*
X14224000Y29718000D02*
X15748000Y29718000D01*
X12446000Y31496000D02*
X14224000Y29718000D01*
X12446000Y33147000D02*
X12446000Y31496000D01*
X17653000Y38608000D02*
X20193000Y38608000D01*
X17780000Y31750000D02*
X19685000Y31750000D01*
X19685000Y31750000D02*
X21590000Y33655000D01*
X2557000Y60217000D02*
X2557000Y46717000D01*
X2557000Y60217000D02*
X1057000Y58717000D01*
X14605000Y4445000D02*
X20701000Y4445000D01*
X25146000Y8890000D02*
X20701000Y4445000D01*
X25146000Y20574000D02*
X25146000Y8890000D01*
X25654000Y43180000D02*
X23368000Y43180000D01*
X23368000Y43180000D02*
X22860000Y43688000D01*
X21590000Y28575000D02*
X22225000Y28575000D01*
X22225000Y28575000D02*
X25146000Y31496000D01*
X25146000Y31496000D02*
X28829000Y35179000D01*
X28829000Y35179000D02*
X28829000Y39878000D01*
X28829000Y39878000D02*
X27686000Y41021000D01*
X27686000Y41021000D02*
X26289000Y41021000D01*
X26289000Y41021000D02*
X25654000Y41656000D01*
X25654000Y41656000D02*
X25654000Y43180000D01*
X18034000Y63500000D02*
X18288000Y63754000D01*
X21590000Y63754000D02*
X18288000Y63754000D01*
X22860000Y40386000D02*
X16891000Y40386000D01*
X22860000Y43688000D02*
X22860000Y40386000D01*
X16891000Y40386000D02*
X15113000Y38608000D01*
X5207000Y49276000D02*
X21082000Y49276000D01*
X4057000Y46717000D02*
X4057000Y48126000D01*
X5207000Y49276000D02*
X4057000Y48126000D01*
X22860000Y47498000D02*
X22860000Y43688000D01*
X21082000Y49276000D02*
X22860000Y47498000D01*
X3048000Y38100000D02*
X3048000Y40259000D01*
X4057000Y41268000D02*
X4057000Y46717000D01*
X3048000Y40259000D02*
X4057000Y41268000D01*
D23*
X10033000Y38608000D02*
X8255000Y40386000D01*
X6858000Y41402000D02*
X6858000Y42672000D01*
X7874000Y40386000D02*
X6858000Y41402000D01*
X8255000Y40386000D02*
X7874000Y40386000D01*
X6350000Y36195000D02*
X7620000Y36195000D01*
X7620000Y36195000D02*
X10033000Y38608000D01*
X3048000Y35560000D02*
X5715000Y35560000D01*
X5715000Y35560000D02*
X6350000Y36195000D01*
X12573000Y38608000D02*
X12573000Y39243000D01*
X12573000Y39243000D02*
X15748000Y42418000D01*
X15748000Y42418000D02*
X17399000Y42418000D01*
X6350000Y33655000D02*
X7620000Y33655000D01*
X7620000Y33655000D02*
X12573000Y38608000D01*
X3048000Y33020000D02*
X5715000Y33020000D01*
X5715000Y33020000D02*
X6350000Y33655000D01*
D22*
X21590000Y36195000D02*
X22479000Y36195000D01*
X22479000Y36195000D02*
X24638000Y38354000D01*
X14605000Y31750000D02*
X14605000Y31877000D01*
X14605000Y31877000D02*
X18923000Y36195000D01*
X18923000Y36195000D02*
X21590000Y36195000D01*
D23*
X17780000Y24130000D02*
X20955000Y24130000D01*
X20955000Y24130000D02*
X21590000Y23495000D01*
X14605000Y24130000D02*
X17780000Y24130000D01*
X3048000Y30480000D02*
X5715000Y30480000D01*
X5715000Y30480000D02*
X6350000Y31115000D01*
X19939000Y42418000D02*
X19939000Y44196000D01*
X20557000Y44814000D02*
X20557000Y46717000D01*
X19939000Y44196000D02*
X20557000Y44814000D01*
X19057000Y46717000D02*
X19057000Y46362000D01*
X19057000Y46362000D02*
X17399000Y44704000D01*
X17399000Y44704000D02*
X10414000Y44704000D01*
X10414000Y44704000D02*
X9398000Y43688000D01*
X9398000Y43688000D02*
X9398000Y42672000D01*
X21590000Y26035000D02*
X24384000Y26035000D01*
X25908000Y73914000D02*
X28702000Y71120000D01*
X28702000Y71120000D02*
X28702000Y62992000D01*
X28702000Y62992000D02*
X27432000Y61722000D01*
X27432000Y61722000D02*
X25273000Y61722000D01*
X25273000Y61722000D02*
X24257000Y62738000D01*
X25908000Y73914000D02*
X24130000Y73914000D01*
X24384000Y26035000D02*
X27432000Y29083000D01*
X20557000Y60217000D02*
X20557000Y52468000D01*
X28194000Y44831000D02*
X28194000Y43180000D01*
X20557000Y52468000D02*
X28194000Y44831000D01*
X21590000Y20955000D02*
X22606000Y20955000D01*
X22606000Y20955000D02*
X29591000Y27940000D01*
X29591000Y27940000D02*
X29591000Y41783000D01*
X29591000Y41783000D02*
X28194000Y43180000D01*
X3048000Y9271000D02*
X5334000Y9271000D01*
X5334000Y9271000D02*
X6350000Y8255000D01*
X3048000Y11811000D02*
X5334000Y11811000D01*
X5334000Y11811000D02*
X6350000Y10795000D01*
X3048000Y14351000D02*
X5334000Y14351000D01*
X5334000Y14351000D02*
X6350000Y13335000D01*
X21590000Y18415000D02*
X18415000Y15240000D01*
X18415000Y13335000D02*
X16510000Y11430000D01*
X18415000Y15240000D02*
X18415000Y13335000D01*
X12065000Y4445000D02*
X12065000Y8890000D01*
X14605000Y11430000D02*
X16510000Y11430000D01*
X12065000Y8890000D02*
X14605000Y11430000D01*
M02*
