M48
;DRILL file {KiCad 4.0.5} date Sunday 02 April 2017 12:21:25
;FORMAT={-:-/ absolute / metric / decimal}
FMAT,2
METRIC,TZ
T1C1.000
T2C1.001
T3C1.016
T4C1.300
T5C3.048
T6C3.200
%
G90
G05
M71
T1
X18.034Y63.5
X22.86Y43.688
X24.257Y62.738
X25.146Y31.496
X25.146Y20.574
X27.432Y29.083
T2
X14.605Y31.75
X14.605Y24.13
X16.51Y19.05
X16.51Y11.43
X17.78Y31.75
X17.78Y24.13
T3
X3.048Y38.1
X3.048Y35.56
X3.048Y33.02
X3.048Y30.48
X3.048Y27.94
X3.048Y16.891
X3.048Y14.351
X3.048Y11.811
X3.048Y9.271
X6.35Y36.195
X6.35Y33.655
X6.35Y31.115
X6.35Y28.575
X6.35Y26.035
X6.35Y23.495
X6.35Y20.955
X6.35Y18.415
X6.35Y15.875
X6.35Y13.335
X6.35Y10.795
X6.35Y8.255
X6.858Y42.672
X7.493Y38.608
X9.398Y42.672
X10.033Y38.608
X12.065Y4.445
X12.573Y38.608
X13.97Y8.255
X14.605Y4.445
X15.113Y38.608
X16.51Y8.255
X17.399Y42.418
X17.653Y38.608
X19.05Y8.255
X19.939Y42.418
X20.193Y38.608
X21.59Y36.195
X21.59Y33.655
X21.59Y31.115
X21.59Y28.575
X21.59Y26.035
X21.59Y23.495
X21.59Y20.955
X21.59Y18.415
X21.59Y15.875
X21.59Y13.335
X21.59Y10.795
X21.59Y8.255
X24.638Y38.354
X25.654Y43.18
X27.178Y38.354
X28.194Y43.18
T4
X21.59Y63.754
X24.13Y73.914
X26.67Y63.754
T5
X24.13Y68.707
T6
X6.096Y3.556
X15.748Y67.564
X26.416Y3.556
T0
M30
