<?xml version="1.0" standalone="no"?>
<!DOCTYPE svg PUBLIC "-//W3C//DTD SVG 1.1//EN"
"http://www.w3.org/Graphics/SVG/1.1/DTD/svg11.dtd">
<svg width="3198.55" height="5998.55" viewBox="0 0 3198.55 5998.55" version="1.1"
xmlns="http://www.w3.org/2000/svg"
xmlns:xlink="http://www.w3.org/1999/xlink">
<circle cx="1828" cy="3948" r="38" style=""/>
<circle cx="1459" cy="3478" r="38" style=""/>
<circle cx="2038" cy="3128" r="38" style=""/>
<circle cx="629" cy="3238" r="38" style=""/>
<circle cx="1638" cy="4538" r="38" style=""/>
<circle cx="1379" cy="4538" r="38" style=""/>
<circle cx="1379" cy="3938" r="38" style=""/>
<circle cx="1638" cy="3938" r="38" style=""/>
<circle cx="2198" cy="5638" r="39" style=""/>
<circle cx="2198" cy="5438" r="39" style=""/>
<circle cx="2198" cy="5238" r="39" style=""/>
<circle cx="2198" cy="4958" r="39" style=""/>
<circle cx="2198" cy="4758" r="39" style=""/>
<circle cx="2198" cy="4558" r="39" style=""/>
<circle cx="2198" cy="4358" r="39" style=""/>
<circle cx="1948" cy="4448" r="39" style=""/>
<circle cx="1948" cy="4648" r="39" style=""/>
<circle cx="1948" cy="4848" r="39" style=""/>
<circle cx="1948" cy="5048" r="39" style=""/>
<circle cx="1948" cy="5248" r="39" style=""/>
<circle cx="1948" cy="5448" r="39" style=""/>
<circle cx="1948" cy="5648" r="39" style=""/>
<circle cx="1748" cy="5648" r="39" style=""/>
<circle cx="1549" cy="5648" r="39" style=""/>
<circle cx="1349" cy="5648" r="39" style=""/>
<circle cx="749" cy="5648" r="39" style=""/>
<circle cx="749" cy="5448" r="39" style=""/>
<circle cx="749" cy="5248" r="39" style=""/>
<circle cx="749" cy="5048" r="39" style=""/>
<circle cx="749" cy="4848" r="39" style=""/>
<circle cx="749" cy="4648" r="39" style=""/>
<circle cx="749" cy="4448" r="39" style=""/>
<circle cx="749" cy="4248" r="39" style=""/>
<circle cx="749" cy="4048" r="39" style=""/>
<circle cx="749" cy="3848" r="39" style=""/>
<circle cx="749" cy="3648" r="39" style=""/>
<circle cx="749" cy="3448" r="39" style=""/>
<circle cx="839" cy="3258" r="39" style=""/>
<circle cx="1039" cy="3258" r="39" style=""/>
<circle cx="1239" cy="3258" r="39" style=""/>
<circle cx="1439" cy="3258" r="39" style=""/>
<circle cx="1638" cy="3258" r="39" style=""/>
<circle cx="1838" cy="3258" r="39" style=""/>
<circle cx="1948" cy="3448" r="39" style=""/>
<circle cx="1948" cy="3648" r="39" style=""/>
<circle cx="1948" cy="3848" r="39" style=""/>
<circle cx="1948" cy="4048" r="39" style=""/>
<circle cx="1948" cy="4248" r="39" style=""/>
<circle cx="2198" cy="3848" r="39" style=""/>
<circle cx="2198" cy="3648" r="39" style=""/>
<circle cx="1948" cy="2849" r="39" style=""/>
<circle cx="1948" cy="2649" r="39" style=""/>
<circle cx="1648" cy="2649" r="39" style=""/>
<circle cx="1648" cy="2849" r="39" style=""/>
<circle cx="1099" cy="3018" r="39" style=""/>
<circle cx="899" cy="3018" r="39" style=""/>
<circle cx="699" cy="3018" r="39" style=""/>
<circle cx="499" cy="3018" r="39" style=""/>
<circle cx="499" cy="3498" r="39" style=""/>
<circle cx="499" cy="3698" r="39" style=""/>
<circle cx="499" cy="3898" r="39" style=""/>
<circle cx="499" cy="4098" r="39" style=""/>
<circle cx="499" cy="4298" r="39" style=""/>
<circle cx="499" cy="4598" r="39" style=""/>
<circle cx="499" cy="4798" r="39" style=""/>
<circle cx="499" cy="4998" r="39" style=""/>
<circle cx="499" cy="5198" r="39" style=""/>
<circle cx="499" cy="5398" r="39" style=""/>
<circle cx="499" cy="5598" r="39" style=""/>
</svg>
