<?xml version="1.0" standalone="no"?>
<!DOCTYPE svg PUBLIC "-//W3C//DTD SVG 1.1//EN"
"http://www.w3.org/Graphics/SVG/1.1/DTD/svg11.dtd">
<svg width="3198.55" height="5998.55" viewBox="0 0 3198.55 5998.55" version="1.1"
xmlns="http://www.w3.org/2000/svg"
xmlns:xlink="http://www.w3.org/1999/xlink">
<circle cx="1829.28" cy="3949.28" r="38.7597" style=""/>
<circle cx="1459.28" cy="3479.28" r="38.7597" style=""/>
<circle cx="2039.28" cy="3129.28" r="38.7597" style=""/>
<circle cx="629.276" cy="3239.28" r="38.7597" style=""/>
<circle cx="1639.28" cy="4539.28" r="38.7984" style=""/>
<circle cx="1379.28" cy="4539.28" r="38.7984" style=""/>
<circle cx="1379.28" cy="3939.28" r="38.7984" style=""/>
<circle cx="1639.28" cy="3939.28" r="38.7984" style=""/>
<circle cx="2199.28" cy="5639.28" r="39.3798" style=""/>
<circle cx="2199.28" cy="5439.28" r="39.3798" style=""/>
<circle cx="2199.28" cy="5239.28" r="39.3798" style=""/>
<circle cx="2199.28" cy="4959.28" r="39.3798" style=""/>
<circle cx="2199.28" cy="4759.28" r="39.3798" style=""/>
<circle cx="2199.28" cy="4559.28" r="39.3798" style=""/>
<circle cx="2199.28" cy="4359.28" r="39.3798" style=""/>
<circle cx="1949.28" cy="4449.28" r="39.3798" style=""/>
<circle cx="1949.28" cy="4649.28" r="39.3798" style=""/>
<circle cx="1949.28" cy="4849.28" r="39.3798" style=""/>
<circle cx="1949.28" cy="5049.28" r="39.3798" style=""/>
<circle cx="1949.28" cy="5249.28" r="39.3798" style=""/>
<circle cx="1949.28" cy="5449.28" r="39.3798" style=""/>
<circle cx="1949.28" cy="5649.28" r="39.3798" style=""/>
<circle cx="1749.28" cy="5649.28" r="39.3798" style=""/>
<circle cx="1549.28" cy="5649.28" r="39.3798" style=""/>
<circle cx="1349.28" cy="5649.28" r="39.3798" style=""/>
<circle cx="749.276" cy="5649.28" r="39.3798" style=""/>
<circle cx="749.276" cy="5449.28" r="39.3798" style=""/>
<circle cx="749.276" cy="5249.28" r="39.3798" style=""/>
<circle cx="749.276" cy="5049.28" r="39.3798" style=""/>
<circle cx="749.276" cy="4849.28" r="39.3798" style=""/>
<circle cx="749.276" cy="4649.28" r="39.3798" style=""/>
<circle cx="749.276" cy="4449.28" r="39.3798" style=""/>
<circle cx="749.276" cy="4249.28" r="39.3798" style=""/>
<circle cx="749.276" cy="4049.28" r="39.3798" style=""/>
<circle cx="749.276" cy="3849.28" r="39.3798" style=""/>
<circle cx="749.276" cy="3649.28" r="39.3798" style=""/>
<circle cx="749.276" cy="3449.28" r="39.3798" style=""/>
<circle cx="839.276" cy="3259.28" r="39.3798" style=""/>
<circle cx="1039.28" cy="3259.28" r="39.3798" style=""/>
<circle cx="1239.28" cy="3259.28" r="39.3798" style=""/>
<circle cx="1439.28" cy="3259.28" r="39.3798" style=""/>
<circle cx="1639.28" cy="3259.28" r="39.3798" style=""/>
<circle cx="1839.28" cy="3259.28" r="39.3798" style=""/>
<circle cx="1949.28" cy="3449.28" r="39.3798" style=""/>
<circle cx="1949.28" cy="3649.28" r="39.3798" style=""/>
<circle cx="1949.28" cy="3849.28" r="39.3798" style=""/>
<circle cx="1949.28" cy="4049.28" r="39.3798" style=""/>
<circle cx="1949.28" cy="4249.28" r="39.3798" style=""/>
<circle cx="2199.28" cy="3849.28" r="39.3798" style=""/>
<circle cx="2199.28" cy="3649.28" r="39.3798" style=""/>
<circle cx="1949.28" cy="2849.28" r="39.3798" style=""/>
<circle cx="1949.28" cy="2649.28" r="39.3798" style=""/>
<circle cx="1649.28" cy="2649.28" r="39.3798" style=""/>
<circle cx="1649.28" cy="2849.28" r="39.3798" style=""/>
<circle cx="1099.28" cy="3019.28" r="39.3798" style=""/>
<circle cx="899.276" cy="3019.28" r="39.3798" style=""/>
<circle cx="699.276" cy="3019.28" r="39.3798" style=""/>
<circle cx="499.276" cy="3019.28" r="39.3798" style=""/>
<circle cx="499.276" cy="3499.28" r="39.3798" style=""/>
<circle cx="499.276" cy="3699.28" r="39.3798" style=""/>
<circle cx="499.276" cy="3899.28" r="39.3798" style=""/>
<circle cx="499.276" cy="4099.28" r="39.3798" style=""/>
<circle cx="499.276" cy="4299.28" r="39.3798" style=""/>
<circle cx="499.276" cy="4599.28" r="39.3798" style=""/>
<circle cx="499.276" cy="4799.28" r="39.3798" style=""/>
<circle cx="499.276" cy="4999.28" r="39.3798" style=""/>
<circle cx="499.276" cy="5199.28" r="39.3798" style=""/>
<circle cx="499.276" cy="5399.28" r="39.3798" style=""/>
<circle cx="499.276" cy="5599.28" r="39.3798" style=""/>
</svg>
