<?xml version="1.0" standalone="no"?>
<!DOCTYPE svg PUBLIC "-//W3C//DTD SVG 1.1//EN"
"http://www.w3.org/Graphics/SVG/1.1/DTD/svg11.dtd">
<svg width="2119" height="3455" viewBox="0 0 2119 3455" version="1.1"
xmlns="http://www.w3.org/2000/svg"
xmlns:xlink="http://www.w3.org/1999/xlink">
<g fill-rule="evenodd"><path d="M 587,837 L 586,851 L 582,864 L 575,876 L 566,886 L 555,895 L 543,901 L 529,904 L 516,905 L 502,903 L 489,898 L 477,891 L 468,881 L 460,870 L 454,858 L 451,844 L 451,813 L 452,799 L 457,786 L 463,774 L 472,764 L 483,755 L 495,749 L 509,746 L 523,745 L 536,747 L 549,752 L 561,759 L 571,769 L 579,780 L 584,793 L 587,806 L 587,837 z " style="fill-opacity:1.000000;fill:rgb(167,241,217);stroke:rgb(0,0,0);stroke-width:2"/></g>
<g fill-rule="evenodd"><path d="M 1497,3227 L 1496,3240 L 1491,3254 L 1485,3266 L 1476,3276 L 1465,3284 L 1453,3291 L 1439,3294 L 1425,3295 L 1412,3293 L 1399,3288 L 1387,3281 L 1377,3271 L 1369,3260 L 1364,3247 L 1361,3234 L 1361,3203 L 1362,3189 L 1366,3176 L 1373,3164 L 1382,3153 L 1393,3145 L 1405,3139 L 1419,3136 L 1432,3135 L 1446,3137 L 1459,3142 L 1471,3149 L 1481,3158 L 1488,3170 L 1494,3182 L 1497,3196 L 1497,3227 z " style="fill-opacity:1.000000;fill:rgb(42,130,200);stroke:rgb(0,0,0);stroke-width:2"/></g>
<g fill-rule="evenodd"><path d="M 1297,3227 L 1296,3240 L 1291,3254 L 1285,3266 L 1276,3276 L 1265,3284 L 1253,3291 L 1239,3294 L 1226,3295 L 1212,3293 L 1199,3288 L 1187,3281 L 1177,3271 L 1170,3260 L 1164,3247 L 1161,3234 L 1161,3203 L 1162,3189 L 1166,3176 L 1173,3164 L 1182,3153 L 1193,3145 L 1205,3139 L 1219,3136 L 1232,3135 L 1246,3137 L 1259,3142 L 1271,3149 L 1281,3158 L 1288,3170 L 1294,3182 L 1297,3196 L 1297,3227 z " style="fill-opacity:1.000000;fill:rgb(216,254,67);stroke:rgb(0,0,0);stroke-width:2"/></g>
<g fill-rule="evenodd"><path d="M 1097,3227 L 1096,3240 L 1091,3254 L 1085,3266 L 1076,3276 L 1065,3284 L 1053,3291 L 1039,3294 L 1026,3295 L 1012,3293 L 999,3288 L 987,3281 L 977,3271 L 970,3260 L 964,3247 L 961,3234 L 961,3203 L 962,3189 L 967,3176 L 973,3164 L 982,3153 L 993,3145 L 1005,3139 L 1019,3136 L 1032,3135 L 1046,3137 L 1059,3142 L 1071,3149 L 1081,3158 L 1088,3170 L 1094,3182 L 1097,3196 L 1097,3227 z " style="fill-opacity:1.000000;fill:rgb(77,152,85);stroke:rgb(0,0,0);stroke-width:2"/></g>
<g fill-rule="evenodd"><path d="M 1617,3083 L 1603,3081 L 1590,3077 L 1578,3071 L 1568,3062 L 1559,3051 L 1553,3038 L 1550,3025 L 1549,3011 L 1551,2998 L 1556,2985 L 1563,2973 L 1573,2963 L 1584,2955 L 1597,2950 L 1610,2947 L 1641,2947 L 1655,2948 L 1668,2952 L 1680,2959 L 1690,2968 L 1699,2979 L 1705,2991 L 1708,3004 L 1709,3018 L 1707,3032 L 1702,3045 L 1695,3056 L 1685,3066 L 1674,3074 L 1661,3080 L 1648,3082 L 1617,3083 z " style="fill-opacity:1.000000;fill:rgb(140,226,179);stroke:rgb(0,0,0);stroke-width:2"/></g>
<g fill-rule="evenodd"><path d="M 1617,2883 L 1603,2881 L 1590,2877 L 1578,2871 L 1568,2862 L 1559,2851 L 1553,2838 L 1550,2825 L 1549,2811 L 1551,2798 L 1556,2785 L 1563,2773 L 1573,2763 L 1584,2755 L 1597,2750 L 1610,2747 L 1641,2747 L 1655,2748 L 1668,2752 L 1680,2759 L 1690,2768 L 1699,2779 L 1705,2791 L 1708,2805 L 1709,2818 L 1707,2832 L 1702,2845 L 1695,2856 L 1685,2866 L 1674,2874 L 1661,2880 L 1648,2882 L 1617,2883 z " style="fill-opacity:1.000000;fill:rgb(71,23,17);stroke:rgb(0,0,0);stroke-width:2"/></g>
<g fill-rule="evenodd"><path d="M 1617,1883 L 1603,1882 L 1590,1877 L 1578,1871 L 1568,1862 L 1559,1851 L 1553,1839 L 1550,1825 L 1549,1812 L 1551,1798 L 1556,1785 L 1563,1773 L 1573,1763 L 1584,1756 L 1597,1750 L 1610,1747 L 1641,1747 L 1655,1748 L 1668,1753 L 1680,1759 L 1690,1768 L 1699,1779 L 1705,1791 L 1708,1805 L 1709,1818 L 1707,1832 L 1702,1845 L 1695,1857 L 1685,1867 L 1674,1874 L 1661,1880 L 1648,1883 L 1617,1883 z " style="fill-opacity:1.000000;fill:rgb(152,84,47);stroke:rgb(0,0,0);stroke-width:2"/></g>
<g fill-rule="evenodd"><path d="M 1617,1483 L 1603,1482 L 1590,1478 L 1578,1471 L 1568,1462 L 1559,1451 L 1553,1439 L 1550,1425 L 1549,1412 L 1551,1398 L 1556,1385 L 1563,1373 L 1573,1363 L 1584,1356 L 1597,1350 L 1610,1347 L 1641,1347 L 1655,1348 L 1668,1353 L 1680,1359 L 1690,1368 L 1699,1379 L 1705,1391 L 1708,1405 L 1709,1419 L 1707,1432 L 1702,1445 L 1695,1457 L 1685,1467 L 1674,1475 L 1661,1480 L 1648,1483 L 1617,1483 z " style="fill-opacity:1.000000;fill:rgb(17,45,5);stroke:rgb(0,0,0);stroke-width:2"/></g>
<g fill-rule="evenodd"><path d="M 1617,1083 L 1603,1082 L 1590,1078 L 1578,1071 L 1568,1062 L 1559,1051 L 1553,1039 L 1550,1025 L 1549,1012 L 1551,998 L 1556,985 L 1563,974 L 1573,964 L 1584,956 L 1597,950 L 1610,948 L 1641,947 L 1655,949 L 1668,953 L 1680,959 L 1690,968 L 1699,979 L 1705,992 L 1708,1005 L 1709,1019 L 1707,1032 L 1702,1045 L 1695,1057 L 1685,1067 L 1674,1075 L 1661,1080 L 1648,1083 L 1617,1083 z " style="fill-opacity:1.000000;fill:rgb(88,245,107);stroke:rgb(0,0,0);stroke-width:2"/></g>
<g fill-rule="evenodd"><path d="M 417,1683 L 403,1682 L 390,1678 L 378,1671 L 368,1662 L 359,1651 L 353,1639 L 350,1625 L 349,1612 L 351,1598 L 356,1585 L 363,1573 L 373,1563 L 384,1556 L 397,1550 L 410,1547 L 441,1547 L 455,1548 L 468,1553 L 480,1559 L 490,1568 L 499,1579 L 505,1591 L 508,1605 L 509,1618 L 507,1632 L 502,1645 L 495,1657 L 485,1667 L 474,1674 L 461,1680 L 448,1683 L 417,1683 z " style="fill-opacity:1.000000;fill:rgb(214,136,7);stroke:rgb(0,0,0);stroke-width:2"/></g>
<g fill-rule="evenodd"><path d="M 417,1883 L 403,1882 L 390,1877 L 378,1871 L 368,1862 L 359,1851 L 353,1839 L 350,1825 L 349,1812 L 351,1798 L 356,1785 L 363,1773 L 373,1763 L 384,1756 L 397,1750 L 410,1747 L 441,1747 L 455,1748 L 468,1753 L 480,1759 L 490,1768 L 499,1779 L 505,1791 L 508,1805 L 509,1818 L 507,1832 L 502,1845 L 495,1857 L 485,1867 L 474,1874 L 461,1880 L 448,1883 L 417,1883 z " style="fill-opacity:1.000000;fill:rgb(153,146,72);stroke:rgb(0,0,0);stroke-width:2"/></g>
<g fill-rule="evenodd"><path d="M 417,2083 L 403,2082 L 390,2077 L 378,2071 L 368,2062 L 359,2051 L 353,2039 L 350,2025 L 349,2012 L 351,1998 L 356,1985 L 363,1973 L 373,1963 L 384,1956 L 397,1950 L 410,1947 L 441,1947 L 455,1948 L 468,1952 L 480,1959 L 490,1968 L 499,1979 L 505,1991 L 508,2005 L 509,2018 L 507,2032 L 502,2045 L 495,2057 L 485,2067 L 474,2074 L 461,2080 L 448,2083 L 417,2083 z " style="fill-opacity:1.000000;fill:rgb(51,98,65);stroke:rgb(0,0,0);stroke-width:2"/></g>
<g fill-rule="evenodd"><path d="M 417,2283 L 403,2282 L 390,2277 L 378,2271 L 368,2262 L 359,2251 L 353,2239 L 350,2225 L 349,2211 L 351,2198 L 356,2185 L 363,2173 L 373,2163 L 384,2155 L 397,2150 L 410,2147 L 441,2147 L 455,2148 L 468,2152 L 480,2159 L 490,2168 L 499,2179 L 505,2191 L 508,2205 L 509,2218 L 507,2232 L 502,2245 L 495,2257 L 485,2267 L 474,2274 L 461,2280 L 448,2283 L 417,2283 z " style="fill-opacity:1.000000;fill:rgb(243,13,35);stroke:rgb(0,0,0);stroke-width:2"/></g>
<g fill-rule="evenodd"><path d="M 1136,2123 L 1131,2137 L 1123,2151 L 1112,2163 L 1098,2173 L 1083,2180 L 1067,2183 L 1051,2183 L 1035,2180 L 1020,2173 L 1006,2163 L 995,2151 L 987,2137 L 982,2121 L 980,2105 L 982,2089 L 987,2073 L 995,2059 L 1006,2046 L 1020,2037 L 1035,2030 L 1051,2027 L 1067,2027 L 1083,2030 L 1098,2037 L 1112,2046 L 1123,2059 L 1131,2073 L 1136,2087 L 1242,2087 L 1247,2073 L 1255,2059 L 1266,2046 L 1280,2037 L 1295,2030 L 1311,2027 L 1327,2027 L 1343,2030 L 1358,2037 L 1372,2046 L 1383,2059 L 1391,2073 L 1395,2087 L 1532,2087 L 1563,2056 L 1559,2051 L 1553,2039 L 1550,2025 L 1549,2012 L 1551,1998 L 1556,1985 L 1563,1973 L 1573,1963 L 1584,1956 L 1597,1950 L 1610,1947 L 1641,1947 L 1655,1948 L 1668,1952 L 1680,1959 L 1690,1968 L 1699,1979 L 1705,1991 L 1708,2005 L 1709,2018 L 1707,2032 L 1702,2045 L 1695,2057 L 1685,2067 L 1674,2074 L 1661,2080 L 1648,2083 L 1617,2083 L 1603,2082 L 1591,2078 L 1551,2117 L 1549,2120 L 1546,2121 L 1542,2122 L 1539,2123 L 1395,2123 L 1391,2137 L 1383,2151 L 1372,2163 L 1358,2173 L 1343,2180 L 1327,2183 L 1311,2183 L 1295,2180 L 1280,2173 L 1266,2163 L 1255,2151 L 1247,2137 L 1242,2123 L 1136,2123 z " style="fill-opacity:1.000000;fill:rgb(229,95,48);stroke:rgb(0,0,0);stroke-width:2"/></g>
<g fill-rule="evenodd"><path d="M 765,763 L 1125,403 L 1128,401 L 1131,399 L 1135,398 L 1138,398 L 1249,398 L 1249,335 L 1409,335 L 1409,495 L 1249,495 L 1249,433 L 1145,433 L 784,794 L 787,806 L 787,837 L 786,851 L 782,864 L 775,876 L 766,886 L 755,895 L 743,901 L 729,904 L 716,905 L 702,903 L 689,898 L 678,891 L 542,1028 L 539,1030 L 536,1032 L 533,1033 L 529,1033 L 507,1033 L 502,1045 L 495,1057 L 485,1067 L 474,1075 L 461,1080 L 448,1083 L 417,1083 L 403,1082 L 391,1078 L 245,1224 L 249,1229 L 255,1241 L 258,1255 L 259,1269 L 257,1282 L 252,1295 L 245,1307 L 235,1317 L 224,1325 L 212,1330 L 198,1333 L 167,1333 L 153,1332 L 140,1328 L 128,1321 L 118,1312 L 109,1301 L 103,1289 L 100,1275 L 99,1262 L 101,1248 L 106,1235 L 113,1223 L 123,1214 L 134,1206 L 147,1200 L 160,1197 L 191,1197 L 205,1198 L 217,1202 L 363,1056 L 359,1051 L 353,1039 L 350,1025 L 349,1012 L 351,998 L 356,985 L 363,974 L 373,964 L 384,956 L 397,950 L 410,948 L 441,947 L 455,949 L 468,953 L 480,959 L 490,968 L 499,979 L 505,992 L 506,997 L 522,997 L 656,863 L 654,858 L 651,844 L 651,813 L 652,799 L 657,786 L 663,774 L 672,764 L 683,755 L 695,749 L 709,746 L 723,745 L 736,747 L 749,752 L 761,759 L 765,763 z " style="fill-opacity:1.000000;fill:rgb(209,200,237);stroke:rgb(0,0,0);stroke-width:2"/></g>
<g fill-rule="evenodd"><path d="M 971,770 L 1144,597 L 1147,594 L 1151,593 L 1153,592 L 1157,591 L 1566,591 L 1611,546 L 1611,495 L 1549,495 L 1549,335 L 1709,335 L 1709,495 L 1647,495 L 1647,553 L 1646,557 L 1645,560 L 1644,563 L 1641,566 L 1585,622 L 1583,624 L 1580,626 L 1576,627 L 1573,627 L 1164,627 L 986,805 L 987,806 L 987,837 L 986,851 L 982,864 L 975,876 L 966,886 L 955,895 L 943,901 L 937,902 L 937,1005 L 936,1009 L 935,1012 L 934,1015 L 932,1018 L 722,1228 L 719,1230 L 716,1231 L 713,1232 L 709,1233 L 507,1233 L 502,1245 L 495,1257 L 485,1267 L 474,1275 L 461,1280 L 448,1283 L 417,1283 L 403,1282 L 391,1278 L 245,1424 L 249,1429 L 255,1441 L 258,1455 L 259,1469 L 257,1482 L 252,1495 L 245,1507 L 235,1517 L 224,1525 L 212,1530 L 198,1533 L 167,1533 L 153,1532 L 140,1528 L 128,1521 L 118,1512 L 109,1501 L 103,1489 L 100,1475 L 99,1462 L 101,1448 L 106,1435 L 113,1423 L 123,1413 L 134,1406 L 147,1400 L 160,1397 L 191,1397 L 205,1398 L 217,1402 L 363,1256 L 359,1251 L 353,1239 L 350,1225 L 349,1212 L 351,1198 L 356,1185 L 363,1173 L 373,1164 L 384,1156 L 397,1150 L 410,1147 L 441,1147 L 455,1149 L 468,1153 L 480,1159 L 490,1168 L 499,1179 L 505,1191 L 506,1197 L 702,1197 L 901,998 L 901,903 L 889,898 L 877,891 L 867,881 L 860,870 L 854,858 L 851,844 L 851,813 L 852,799 L 857,786 L 863,774 L 872,764 L 883,755 L 895,749 L 909,746 L 922,745 L 936,747 L 949,752 L 961,759 L 971,769 L 971,770 z " style="fill-opacity:1.000000;fill:rgb(97,12,75);stroke:rgb(0,0,0);stroke-width:2"/></g>
<g fill-rule="evenodd"><path d="M 1251,198 L 1252,195 L 1257,180 L 1266,166 L 1277,155 L 1290,145 L 1305,139 L 1321,136 L 1329,135 L 1345,137 L 1360,142 L 1375,150 L 1387,160 L 1397,173 L 1404,187 L 1408,203 L 1409,219 L 1406,235 L 1401,251 L 1392,264 L 1381,276 L 1368,285 L 1353,292 L 1337,295 L 1329,295 L 1313,294 L 1297,289 L 1283,281 L 1271,270 L 1261,258 L 1254,243 L 1251,233 L 1024,233 L 797,461 L 797,508 L 809,512 L 821,519 L 831,529 L 838,540 L 844,553 L 847,566 L 847,597 L 846,611 L 842,624 L 835,636 L 826,646 L 815,655 L 803,661 L 789,664 L 776,665 L 762,663 L 749,658 L 737,651 L 727,641 L 720,630 L 714,618 L 711,604 L 711,573 L 712,560 L 717,546 L 723,534 L 732,524 L 743,516 L 755,509 L 761,508 L 761,453 L 762,450 L 763,446 L 764,443 L 767,441 L 1004,203 L 1007,201 L 1011,199 L 1013,198 L 1017,198 L 1251,198 z " style="fill-opacity:1.000000;fill:rgb(2,53,57);stroke:rgb(0,0,0);stroke-width:2"/></g>
<g fill-rule="evenodd"><path d="M 1101,903 L 1089,898 L 1077,891 L 1067,881 L 1060,870 L 1054,858 L 1051,844 L 1051,813 L 1052,799 L 1057,786 L 1063,774 L 1072,764 L 1083,755 L 1095,749 L 1109,746 L 1122,745 L 1136,747 L 1149,752 L 1161,759 L 1171,769 L 1175,775 L 1266,683 L 1269,680 L 1272,679 L 1276,678 L 1279,677 L 1667,677 L 1669,673 L 1674,663 L 1682,654 L 1691,647 L 1702,643 L 1713,640 L 1725,640 L 1736,643 L 1746,647 L 1756,654 L 1763,663 L 1769,673 L 1773,684 L 1774,695 L 1773,707 L 1769,718 L 1763,728 L 1756,736 L 1746,743 L 1736,748 L 1725,750 L 1713,750 L 1702,748 L 1691,743 L 1682,736 L 1674,728 L 1669,718 L 1667,713 L 1286,713 L 1187,813 L 1187,837 L 1186,851 L 1181,864 L 1175,876 L 1166,886 L 1155,895 L 1143,901 L 1137,902 L 1137,990 L 1145,990 L 1156,993 L 1167,997 L 1176,1004 L 1184,1013 L 1189,1023 L 1193,1034 L 1194,1045 L 1193,1057 L 1189,1068 L 1184,1078 L 1176,1086 L 1167,1093 L 1156,1098 L 1145,1100 L 1133,1100 L 1122,1098 L 1111,1093 L 1102,1086 L 1094,1078 L 1089,1068 L 1085,1057 L 1084,1045 L 1085,1034 L 1089,1023 L 1094,1013 L 1101,1005 L 1101,903 z " style="fill-opacity:1.000000;fill:rgb(129,132,184);stroke:rgb(0,0,0);stroke-width:2"/></g>
<g fill-rule="evenodd"><path d="M 392,2552 L 397,2550 L 410,2547 L 441,2547 L 455,2548 L 468,2552 L 480,2559 L 490,2568 L 499,2579 L 505,2591 L 508,2605 L 509,2618 L 507,2632 L 502,2645 L 495,2656 L 485,2666 L 474,2674 L 461,2680 L 448,2683 L 417,2683 L 403,2681 L 390,2677 L 378,2671 L 368,2662 L 359,2651 L 353,2638 L 350,2625 L 349,2611 L 351,2598 L 356,2585 L 363,2574 L 217,2428 L 212,2430 L 198,2433 L 167,2433 L 153,2432 L 140,2427 L 128,2421 L 118,2412 L 109,2401 L 103,2389 L 100,2375 L 99,2361 L 101,2348 L 106,2335 L 113,2323 L 123,2313 L 134,2305 L 147,2300 L 160,2297 L 191,2297 L 205,2298 L 218,2302 L 230,2309 L 240,2318 L 249,2329 L 255,2341 L 258,2355 L 259,2368 L 257,2382 L 252,2395 L 245,2406 L 392,2552 z " style="fill-opacity:1.000000;fill:rgb(20,162,156);stroke:rgb(0,0,0);stroke-width:2"/></g>
<g fill-rule="evenodd"><path d="M 245,3006 L 392,3152 L 397,3150 L 410,3147 L 441,3147 L 455,3148 L 468,3152 L 480,3159 L 490,3168 L 499,3179 L 505,3191 L 508,3204 L 509,3218 L 507,3232 L 502,3245 L 495,3256 L 485,3266 L 474,3274 L 461,3280 L 448,3282 L 417,3283 L 403,3281 L 390,3277 L 378,3271 L 368,3262 L 359,3251 L 353,3238 L 350,3225 L 349,3211 L 351,3198 L 356,3185 L 363,3174 L 217,3027 L 212,3030 L 198,3032 L 167,3033 L 153,3031 L 140,3027 L 128,3021 L 118,3012 L 109,3001 L 103,2988 L 100,2975 L 99,2961 L 101,2948 L 106,2935 L 113,2923 L 123,2913 L 134,2905 L 147,2900 L 160,2897 L 191,2897 L 205,2898 L 218,2902 L 230,2909 L 240,2918 L 249,2929 L 255,2941 L 258,2955 L 259,2968 L 257,2982 L 252,2995 L 245,3006 z " style="fill-opacity:1.000000;fill:rgb(180,90,103);stroke:rgb(0,0,0);stroke-width:2"/></g>
<g fill-rule="evenodd"><path d="M 245,2806 L 392,2952 L 397,2950 L 410,2947 L 441,2947 L 455,2948 L 468,2952 L 480,2959 L 490,2968 L 499,2979 L 505,2991 L 508,3004 L 509,3018 L 507,3032 L 502,3045 L 495,3056 L 485,3066 L 474,3074 L 461,3080 L 448,3082 L 417,3083 L 403,3081 L 390,3077 L 378,3071 L 368,3062 L 359,3051 L 353,3038 L 350,3025 L 349,3011 L 351,2998 L 356,2985 L 363,2974 L 217,2827 L 212,2830 L 198,2832 L 167,2833 L 153,2831 L 140,2827 L 128,2821 L 118,2812 L 109,2801 L 103,2788 L 100,2775 L 99,2761 L 101,2748 L 106,2735 L 113,2723 L 123,2713 L 134,2705 L 147,2700 L 160,2697 L 191,2697 L 205,2698 L 218,2702 L 230,2709 L 240,2718 L 249,2729 L 255,2741 L 258,2755 L 259,2768 L 257,2782 L 252,2795 L 245,2806 z " style="fill-opacity:1.000000;fill:rgb(42,202,229);stroke:rgb(0,0,0);stroke-width:2"/></g>
<g fill-rule="evenodd"><path d="M 217,2627 L 212,2630 L 198,2633 L 167,2633 L 153,2631 L 140,2627 L 128,2621 L 118,2612 L 109,2601 L 103,2588 L 100,2575 L 99,2561 L 101,2548 L 106,2535 L 113,2523 L 123,2513 L 134,2505 L 147,2500 L 160,2497 L 191,2497 L 205,2498 L 218,2502 L 230,2509 L 240,2518 L 249,2529 L 255,2541 L 258,2555 L 259,2568 L 257,2582 L 252,2595 L 245,2606 L 392,2752 L 397,2750 L 410,2747 L 441,2747 L 455,2748 L 468,2752 L 480,2759 L 490,2768 L 499,2779 L 505,2791 L 508,2805 L 509,2818 L 507,2832 L 502,2845 L 495,2856 L 485,2866 L 474,2874 L 461,2880 L 448,2882 L 417,2883 L 403,2881 L 390,2877 L 378,2871 L 368,2862 L 359,2851 L 353,2838 L 350,2825 L 349,2811 L 351,2798 L 356,2785 L 363,2774 L 217,2627 z " style="fill-opacity:1.000000;fill:rgb(72,233,197);stroke:rgb(0,0,0);stroke-width:2"/></g>
<g fill-rule="evenodd"><path d="M 363,2374 L 217,2228 L 212,2230 L 198,2233 L 167,2233 L 153,2232 L 140,2227 L 128,2221 L 118,2212 L 109,2201 L 103,2189 L 100,2175 L 99,2161 L 101,2148 L 106,2135 L 113,2123 L 123,2113 L 134,2105 L 147,2100 L 160,2097 L 191,2097 L 205,2098 L 218,2102 L 230,2109 L 240,2118 L 249,2129 L 255,2141 L 258,2155 L 259,2168 L 257,2182 L 252,2195 L 245,2206 L 392,2352 L 397,2350 L 410,2347 L 441,2347 L 455,2348 L 468,2352 L 480,2359 L 490,2368 L 499,2379 L 505,2391 L 508,2405 L 509,2418 L 507,2432 L 502,2445 L 495,2457 L 485,2466 L 474,2474 L 461,2480 L 448,2483 L 417,2483 L 403,2481 L 390,2477 L 378,2471 L 368,2462 L 359,2451 L 353,2439 L 350,2425 L 349,2411 L 351,2398 L 356,2385 L 363,2374 z " style="fill-opacity:1.000000;fill:rgb(241,176,196);stroke:rgb(0,0,0);stroke-width:2"/></g>
<g fill-rule="evenodd"><path d="M 925,0 L 1526,0 L 1529,0 L 1533,1 L 1536,3 L 1538,5 L 1641,108 L 1643,110 L 1645,113 L 1646,118 L 1647,137 L 1660,142 L 1675,150 L 1687,160 L 1697,173 L 1704,187 L 1708,203 L 1709,219 L 1706,235 L 1701,251 L 1692,264 L 1681,276 L 1668,285 L 1653,292 L 1637,295 L 1629,295 L 1613,294 L 1597,289 L 1583,281 L 1571,270 L 1561,258 L 1554,243 L 1550,227 L 1549,211 L 1551,195 L 1557,180 L 1566,166 L 1577,155 L 1590,145 L 1605,139 L 1611,138 L 1611,128 L 1519,35 L 932,35 L 597,371 L 597,508 L 609,512 L 621,519 L 631,529 L 639,540 L 644,553 L 647,566 L 647,597 L 646,611 L 642,624 L 635,636 L 626,646 L 615,655 L 603,661 L 589,664 L 576,665 L 562,663 L 549,658 L 537,651 L 527,641 L 520,630 L 514,618 L 511,604 L 511,573 L 512,560 L 517,546 L 523,534 L 532,524 L 543,516 L 555,509 L 561,508 L 561,363 L 562,360 L 563,356 L 564,353 L 567,351 L 912,5 L 915,3 L 918,1 L 922,0 L 925,0 z " style="fill-opacity:1.000000;fill:rgb(21,138,229);stroke:rgb(0,0,0);stroke-width:2"/></g>
<g fill-rule="evenodd"><path d="M 260,829 L 259,828 L 255,817 L 254,805 L 255,794 L 259,783 L 265,773 L 272,764 L 282,757 L 292,753 L 303,750 L 315,750 L 326,753 L 337,757 L 346,764 L 354,773 L 359,783 L 363,794 L 364,805 L 363,817 L 359,828 L 354,838 L 346,846 L 337,853 L 326,858 L 315,860 L 303,860 L 292,858 L 285,854 L 197,942 L 197,998 L 205,999 L 218,1003 L 230,1009 L 240,1018 L 249,1029 L 255,1042 L 258,1055 L 259,1069 L 257,1082 L 252,1095 L 245,1107 L 235,1117 L 224,1125 L 212,1130 L 198,1133 L 167,1133 L 153,1132 L 140,1128 L 128,1121 L 118,1112 L 109,1101 L 103,1089 L 100,1075 L 99,1062 L 101,1048 L 106,1035 L 113,1024 L 123,1014 L 134,1006 L 147,1000 L 160,997 L 161,997 L 161,665 L 111,665 L 111,505 L 247,505 L 247,665 L 197,665 L 197,892 L 260,829 z " style="fill-opacity:1.000000;fill:rgb(155,77,57);stroke:rgb(0,0,0);stroke-width:2"/></g>
<g fill-rule="evenodd"><path d="M 217,1602 L 363,1456 L 359,1451 L 353,1439 L 350,1425 L 349,1412 L 351,1398 L 356,1385 L 363,1373 L 373,1363 L 384,1356 L 397,1350 L 410,1347 L 441,1347 L 455,1348 L 468,1353 L 480,1359 L 490,1368 L 499,1379 L 505,1391 L 508,1405 L 509,1419 L 507,1432 L 502,1445 L 495,1457 L 485,1467 L 474,1475 L 461,1480 L 448,1483 L 417,1483 L 403,1482 L 391,1478 L 245,1624 L 249,1629 L 255,1641 L 258,1655 L 259,1668 L 257,1682 L 252,1695 L 245,1707 L 235,1717 L 224,1724 L 212,1730 L 198,1733 L 167,1733 L 153,1732 L 140,1728 L 128,1721 L 118,1712 L 109,1701 L 103,1689 L 100,1675 L 99,1662 L 101,1648 L 106,1635 L 113,1623 L 123,1613 L 134,1606 L 147,1600 L 160,1597 L 191,1597 L 205,1598 L 217,1602 z " style="fill-opacity:1.000000;fill:rgb(246,247,232);stroke:rgb(0,0,0);stroke-width:2"/></g>
<g fill-rule="evenodd"><path d="M 1591,1678 L 1571,1698 L 1569,1700 L 1566,1701 L 1562,1702 L 1559,1703 L 1286,1703 L 927,2062 L 927,3297 L 976,3347 L 1892,3347 L 2011,3227 L 2011,3142 L 1929,3060 L 1924,3064 L 1911,3070 L 1898,3072 L 1867,3073 L 1853,3071 L 1840,3067 L 1828,3061 L 1818,3052 L 1809,3041 L 1803,3028 L 1800,3015 L 1799,3001 L 1801,2988 L 1806,2975 L 1813,2963 L 1823,2953 L 1834,2945 L 1847,2940 L 1860,2937 L 1891,2937 L 1905,2938 L 1918,2942 L 1930,2949 L 1940,2958 L 1949,2969 L 1955,2981 L 1958,2994 L 1959,3008 L 1957,3022 L 1952,3033 L 2041,3122 L 2044,3125 L 2045,3128 L 2046,3131 L 2047,3135 L 2047,3235 L 2046,3238 L 2045,3242 L 2044,3245 L 2041,3247 L 1911,3377 L 1909,3379 L 1906,3381 L 1902,3382 L 1899,3382 L 969,3382 L 966,3382 L 962,3381 L 959,3379 L 956,3377 L 897,3317 L 894,3315 L 893,3312 L 892,3308 L 891,3305 L 891,2055 L 892,2052 L 893,2048 L 894,2045 L 897,2042 L 1266,1672 L 1269,1670 L 1272,1669 L 1276,1668 L 1279,1667 L 1552,1667 L 1563,1656 L 1559,1651 L 1553,1639 L 1550,1625 L 1549,1612 L 1551,1598 L 1555,1587 L 1533,1564 L 1526,1567 L 1515,1570 L 1503,1570 L 1492,1567 L 1481,1563 L 1472,1556 L 1464,1547 L 1459,1537 L 1455,1527 L 1454,1515 L 1455,1504 L 1459,1493 L 1464,1483 L 1472,1474 L 1481,1467 L 1492,1463 L 1503,1460 L 1515,1460 L 1526,1463 L 1536,1467 L 1546,1474 L 1554,1483 L 1559,1493 L 1563,1504 L 1564,1515 L 1563,1527 L 1559,1537 L 1558,1539 L 1578,1559 L 1584,1556 L 1597,1550 L 1610,1547 L 1641,1547 L 1655,1548 L 1668,1553 L 1680,1559 L 1690,1568 L 1699,1579 L 1705,1591 L 1708,1605 L 1709,1618 L 1707,1632 L 1702,1645 L 1695,1657 L 1685,1667 L 1674,1674 L 1661,1680 L 1648,1683 L 1617,1683 L 1603,1682 L 1591,1678 z " style="fill-opacity:1.000000;fill:rgb(161,5,211);stroke:rgb(0,0,0);stroke-width:2"/></g>
<g fill-rule="evenodd"><path d="M 1813,2566 L 1809,2561 L 1803,2548 L 1800,2535 L 1799,2521 L 1801,2508 L 1806,2495 L 1813,2483 L 1823,2473 L 1834,2465 L 1847,2460 L 1860,2457 L 1891,2457 L 1905,2458 L 1918,2462 L 1930,2469 L 1940,2478 L 1949,2489 L 1955,2501 L 1958,2515 L 1959,2528 L 1957,2542 L 1952,2555 L 1945,2566 L 1935,2576 L 1924,2584 L 1911,2590 L 1898,2593 L 1867,2593 L 1853,2591 L 1841,2588 L 1801,2627 L 1799,2630 L 1796,2631 L 1792,2632 L 1789,2633 L 1706,2633 L 1702,2645 L 1695,2656 L 1685,2666 L 1674,2674 L 1661,2680 L 1648,2683 L 1617,2683 L 1603,2681 L 1590,2677 L 1578,2671 L 1568,2662 L 1559,2651 L 1553,2638 L 1550,2625 L 1549,2611 L 1551,2598 L 1556,2585 L 1563,2573 L 1573,2563 L 1584,2555 L 1597,2550 L 1610,2547 L 1641,2547 L 1655,2548 L 1668,2552 L 1680,2559 L 1690,2568 L 1699,2579 L 1705,2591 L 1706,2597 L 1782,2597 L 1813,2566 z " style="fill-opacity:1.000000;fill:rgb(254,237,165);stroke:rgb(0,0,0);stroke-width:2"/></g>
<g fill-rule="evenodd"><path d="M 1805,3232 L 1706,3232 L 1702,3245 L 1695,3256 L 1685,3266 L 1674,3274 L 1661,3280 L 1648,3282 L 1617,3283 L 1603,3281 L 1590,3277 L 1578,3271 L 1568,3262 L 1559,3251 L 1553,3238 L 1550,3225 L 1549,3211 L 1551,3198 L 1556,3185 L 1563,3173 L 1573,3163 L 1584,3155 L 1597,3150 L 1610,3147 L 1641,3147 L 1655,3148 L 1668,3152 L 1680,3159 L 1690,3168 L 1699,3179 L 1705,3191 L 1706,3197 L 1800,3197 L 1801,3188 L 1806,3175 L 1813,3163 L 1823,3153 L 1834,3145 L 1847,3140 L 1860,3137 L 1891,3137 L 1905,3138 L 1918,3142 L 1930,3149 L 1940,3158 L 1949,3169 L 1955,3181 L 1958,3194 L 1959,3208 L 1957,3222 L 1952,3235 L 1945,3246 L 1935,3256 L 1924,3264 L 1911,3270 L 1898,3272 L 1867,3273 L 1853,3271 L 1840,3267 L 1828,3261 L 1818,3252 L 1809,3241 L 1805,3232 z " style="fill-opacity:1.000000;fill:rgb(213,243,217);stroke:rgb(0,0,0);stroke-width:2"/></g>
<g fill-rule="evenodd"><path d="M 1813,2366 L 1809,2361 L 1803,2349 L 1800,2335 L 1799,2321 L 1801,2308 L 1806,2295 L 1813,2283 L 1823,2273 L 1834,2265 L 1847,2260 L 1860,2257 L 1891,2257 L 1905,2258 L 1918,2262 L 1930,2269 L 1940,2278 L 1949,2289 L 1955,2301 L 1958,2315 L 1959,2328 L 1957,2342 L 1952,2355 L 1945,2367 L 1935,2376 L 1924,2384 L 1911,2390 L 1898,2393 L 1867,2393 L 1853,2392 L 1841,2388 L 1801,2427 L 1799,2430 L 1796,2431 L 1792,2432 L 1789,2433 L 1706,2433 L 1702,2445 L 1695,2457 L 1685,2466 L 1674,2474 L 1661,2480 L 1648,2483 L 1617,2483 L 1603,2481 L 1590,2477 L 1578,2471 L 1568,2462 L 1559,2451 L 1553,2439 L 1550,2425 L 1549,2411 L 1551,2398 L 1556,2385 L 1563,2373 L 1573,2363 L 1584,2355 L 1597,2350 L 1610,2347 L 1641,2347 L 1655,2348 L 1668,2352 L 1680,2359 L 1690,2368 L 1699,2379 L 1705,2391 L 1706,2397 L 1782,2397 L 1813,2366 z " style="fill-opacity:1.000000;fill:rgb(228,91,250);stroke:rgb(0,0,0);stroke-width:2"/></g>
<g fill-rule="evenodd"><path d="M 1813,2166 L 1809,2161 L 1803,2149 L 1800,2135 L 1799,2122 L 1801,2108 L 1806,2095 L 1813,2083 L 1823,2073 L 1834,2066 L 1847,2060 L 1860,2057 L 1891,2057 L 1905,2058 L 1918,2062 L 1930,2069 L 1940,2078 L 1949,2089 L 1955,2101 L 1958,2115 L 1959,2128 L 1957,2142 L 1952,2155 L 1945,2167 L 1935,2177 L 1924,2184 L 1911,2190 L 1898,2193 L 1867,2193 L 1853,2192 L 1841,2188 L 1801,2227 L 1799,2230 L 1796,2231 L 1792,2232 L 1789,2233 L 1706,2233 L 1702,2245 L 1695,2257 L 1685,2267 L 1674,2274 L 1661,2280 L 1648,2283 L 1617,2283 L 1603,2282 L 1590,2277 L 1578,2271 L 1568,2262 L 1559,2251 L 1553,2239 L 1550,2225 L 1549,2211 L 1551,2198 L 1556,2185 L 1563,2173 L 1573,2163 L 1584,2155 L 1597,2150 L 1610,2147 L 1641,2147 L 1655,2148 L 1668,2152 L 1680,2159 L 1690,2168 L 1699,2179 L 1705,2191 L 1706,2197 L 1782,2197 L 1813,2166 z " style="fill-opacity:1.000000;fill:rgb(108,195,81);stroke:rgb(0,0,0);stroke-width:2"/></g>
<g fill-rule="evenodd"><path d="M 2119,1885 L 2119,3285 L 2118,3289 L 2117,3292 L 2115,3296 L 2113,3299 L 1963,3449 L 1960,3451 L 1956,3453 L 1953,3454 L 1949,3454 L 929,3454 L 925,3454 L 921,3453 L 918,3451 L 915,3449 L 775,3309 L 773,3306 L 771,3302 L 770,3299 L 769,3295 L 769,1775 L 770,1771 L 771,1767 L 773,1764 L 775,1761 L 992,1545 L 987,1537 L 982,1521 L 980,1505 L 982,1489 L 987,1473 L 995,1459 L 1006,1447 L 1020,1437 L 1035,1430 L 1051,1427 L 1067,1427 L 1083,1430 L 1098,1437 L 1112,1447 L 1123,1459 L 1131,1473 L 1136,1489 L 1138,1505 L 1136,1521 L 1131,1537 L 1123,1551 L 1112,1564 L 1098,1573 L 1083,1580 L 1067,1583 L 1051,1583 L 1035,1580 L 1019,1573 L 809,1783 L 809,3287 L 937,3415 L 1941,3415 L 2079,3277 L 2079,1893 L 1865,1679 L 1862,1676 L 1860,1672 L 1859,1668 L 1859,1665 L 1859,1492 L 1847,1489 L 1833,1481 L 1821,1470 L 1811,1457 L 1804,1443 L 1800,1427 L 1799,1411 L 1801,1395 L 1807,1380 L 1816,1366 L 1827,1354 L 1840,1345 L 1855,1339 L 1871,1335 L 1879,1335 L 1895,1337 L 1910,1342 L 1925,1349 L 1937,1360 L 1947,1373 L 1954,1387 L 1958,1403 L 1959,1419 L 1956,1435 L 1951,1450 L 1942,1464 L 1931,1476 L 1918,1485 L 1903,1491 L 1899,1492 L 1899,1657 L 2113,1871 L 2115,1874 L 2117,1877 L 2118,1881 L 2119,1885 z " style="fill-opacity:1.000000;fill:rgb(226,32,174);stroke:rgb(0,0,0);stroke-width:2"/></g>
<g fill-rule="evenodd"><path d="M 0,1765 L 0,515 L 0,511 L 1,508 L 3,504 L 5,501 L 95,411 L 98,409 L 102,407 L 105,406 L 109,406 L 219,406 L 223,406 L 227,407 L 230,409 L 233,411 L 340,518 L 343,516 L 356,509 L 369,506 L 383,505 L 396,507 L 409,512 L 421,519 L 431,529 L 439,540 L 444,553 L 447,566 L 447,597 L 446,611 L 442,624 L 435,636 L 426,646 L 415,655 L 403,661 L 389,664 L 376,665 L 362,663 L 349,658 L 338,651 L 328,641 L 320,630 L 314,618 L 311,604 L 311,573 L 313,560 L 316,550 L 211,445 L 117,445 L 39,523 L 39,1757 L 99,1817 L 99,1797 L 259,1797 L 259,1933 L 139,1933 L 49,2023 L 49,3037 L 109,3097 L 259,3097 L 259,3233 L 215,3233 L 307,3325 L 491,3325 L 649,3167 L 649,1575 L 650,1571 L 651,1568 L 653,1564 L 655,1561 L 905,1311 L 908,1309 L 911,1307 L 915,1306 L 919,1305 L 1139,1305 L 1143,1306 L 1147,1307 L 1150,1309 L 1153,1311 L 1279,1437 L 1295,1430 L 1311,1427 L 1327,1427 L 1343,1430 L 1358,1437 L 1370,1446 L 1562,1254 L 1559,1251 L 1553,1239 L 1550,1225 L 1549,1212 L 1551,1198 L 1556,1185 L 1562,1176 L 1305,919 L 1302,916 L 1301,912 L 1300,908 L 1299,902 L 1289,898 L 1277,891 L 1267,881 L 1260,870 L 1254,858 L 1251,844 L 1251,813 L 1252,799 L 1256,786 L 1263,774 L 1272,764 L 1283,755 L 1295,749 L 1309,746 L 1322,745 L 1336,747 L 1349,752 L 1361,759 L 1371,769 L 1378,780 L 1384,793 L 1386,805 L 1452,805 L 1452,799 L 1456,786 L 1463,774 L 1472,764 L 1483,755 L 1495,749 L 1509,746 L 1522,745 L 1536,747 L 1549,752 L 1561,759 L 1571,769 L 1578,780 L 1584,793 L 1587,806 L 1587,837 L 1586,851 L 1581,864 L 1575,876 L 1566,886 L 1555,895 L 1543,901 L 1529,904 L 1515,905 L 1502,903 L 1489,898 L 1477,891 L 1467,881 L 1459,870 L 1454,858 L 1451,845 L 1386,845 L 1386,851 L 1381,864 L 1375,876 L 1366,886 L 1355,895 L 1343,901 L 1593,1152 L 1597,1150 L 1610,1147 L 1641,1147 L 1655,1149 L 1668,1153 L 1680,1159 L 1690,1168 L 1699,1179 L 1705,1191 L 1706,1195 L 1799,1195 L 1799,1135 L 1959,1135 L 1959,1295 L 1799,1295 L 1799,1235 L 1706,1235 L 1702,1245 L 1700,1248 L 1773,1321 L 1775,1324 L 1777,1327 L 1778,1332 L 1779,1335 L 1779,1797 L 1839,1857 L 1959,1857 L 1959,1977 L 2033,2051 L 2035,2054 L 2037,2057 L 2038,2061 L 2039,2065 L 2039,2635 L 2038,2639 L 2037,2642 L 2035,2646 L 2033,2649 L 1945,2737 L 1959,2737 L 1959,2873 L 1799,2873 L 1799,2737 L 1889,2737 L 1999,2627 L 1999,2073 L 1919,1993 L 1799,1993 L 1799,1873 L 1745,1819 L 1743,1816 L 1741,1813 L 1740,1809 L 1739,1805 L 1739,1343 L 1672,1276 L 1661,1280 L 1648,1283 L 1617,1283 L 1603,1282 L 1593,1279 L 1393,1479 L 1396,1489 L 1398,1505 L 1396,1521 L 1391,1537 L 1383,1551 L 1372,1564 L 1358,1573 L 1343,1580 L 1327,1583 L 1311,1583 L 1295,1580 L 1280,1573 L 1266,1564 L 1255,1551 L 1247,1537 L 1242,1521 L 1240,1505 L 1242,1489 L 1247,1473 L 1251,1465 L 1131,1345 L 927,1345 L 689,1583 L 689,3175 L 688,3179 L 687,3182 L 685,3186 L 683,3189 L 513,3359 L 511,3361 L 507,3363 L 502,3364 L 499,3364 L 299,3364 L 295,3364 L 292,3363 L 288,3361 L 285,3359 L 165,3239 L 163,3236 L 161,3233 L 99,3233 L 99,3143 L 15,3059 L 13,3056 L 11,3052 L 10,3049 L 9,3045 L 9,2015 L 10,2011 L 11,2007 L 13,2004 L 15,2001 L 99,1917 L 99,1873 L 5,1779 L 3,1776 L 1,1773 L 0,1769 L 0,1765 z " style="fill-opacity:1.000000;fill:rgb(12,225,6);stroke:rgb(0,0,0);stroke-width:2"/></g>
</svg>
