<?xml version="1.0" standalone="no"?>
<!DOCTYPE svg PUBLIC "-//W3C//DTD SVG 1.1//EN"
"http://www.w3.org/Graphics/SVG/1.1/DTD/svg11.dtd">
<svg width="3111" height="5911" viewBox="0 0 3111 5911" version="1.1"
xmlns="http://www.w3.org/2000/svg"
xmlns:xlink="http://www.w3.org/1999/xlink">
<g fill-rule="evenodd"><path d="M 3111,3505 L 3111,5704 L 3110,5707 L 3109,5708 L 2909,5908 L 2907,5910 L 2905,5910 L 205,5910 L 203,5910 L 201,5908 L 1,5708 L 0,5707 L 0,5704 L 0,6 L 0,4 L 0,2 L 2,1 L 3,0 L 5,0 L 1505,0 L 1507,0 L 1508,1 L 1510,2 L 1510,4 L 1511,6 L 1511,1903 L 3109,3501 L 3110,3503 L 3111,3505M 208,5898 L 2902,5898 L 3099,5702 L 3099,3507 L 1501,1909 L 1500,1908 L 1499,1905 L 1499,12 L 11,12 L 11,5702 L 208,5898 z " style="fill-opacity:1.000000;fill:rgb(167,241,217);stroke:rgb(0,0,0);stroke-width:2"/></g>
</svg>
