<?xml version="1.0" standalone="no"?>
<!DOCTYPE svg PUBLIC "-//W3C//DTD SVG 1.1//EN"
"http://www.w3.org/Graphics/SVG/1.1/DTD/svg11.dtd">
<svg width="3100" height="5900" viewBox="0 0 3100 5900" version="1.1"
xmlns="http://www.w3.org/2000/svg"
xmlns:xlink="http://www.w3.org/1999/xlink">
<g fill-rule="evenodd"><path d="M 858,3222 L 856.608,3235.69 L 852.488,3248.82 L 845.81,3260.85 L 836.848,3271.28 L 825.968,3279.71 L 813.616,3285.77 L 800.296,3289.21 L 786.556,3289.91 L 772.956,3287.83 L 760.054,3283.05 L 748.378,3275.77 L 738.406,3266.29 L 730.546,3255 L 725.12,3242.36 L 722.35,3228.88 L 722,3198 L 723.392,3184.31 L 727.512,3171.18 L 734.19,3159.15 L 743.152,3148.72 L 754.032,3140.29 L 766.384,3134.23 L 779.704,3130.79 L 793.444,3130.09 L 807.044,3132.17 L 819.946,3136.95 L 831.622,3144.23 L 841.594,3153.71 L 849.454,3165 L 854.88,3177.64 L 857.65,3191.12 L 858,3222 z " style="fill-opacity:1.000000;fill:rgb(167,241,217);stroke:rgb(0,0,0);stroke-width:2"/></g>
<g fill-rule="evenodd"><path d="M 1768,5612 L 1766.61,5625.69 L 1762.49,5638.82 L 1755.81,5650.85 L 1746.85,5661.28 L 1735.97,5669.71 L 1723.62,5675.77 L 1710.3,5679.21 L 1696.56,5679.91 L 1682.96,5677.83 L 1670.05,5673.05 L 1658.38,5665.77 L 1648.41,5656.29 L 1640.55,5645 L 1635.12,5632.36 L 1632.35,5618.88 L 1632,5588 L 1633.39,5574.31 L 1637.51,5561.18 L 1644.19,5549.15 L 1653.15,5538.72 L 1664.03,5530.29 L 1676.38,5524.23 L 1689.7,5520.79 L 1703.44,5520.09 L 1717.04,5522.17 L 1729.95,5526.95 L 1741.62,5534.23 L 1751.59,5543.71 L 1759.45,5555 L 1764.88,5567.64 L 1767.65,5581.12 L 1768,5612 z " style="fill-opacity:1.000000;fill:rgb(42,130,200);stroke:rgb(0,0,0);stroke-width:2"/></g>
<g fill-rule="evenodd"><path d="M 1568,5612 L 1566.61,5625.69 L 1562.49,5638.82 L 1555.81,5650.85 L 1546.85,5661.28 L 1535.97,5669.71 L 1523.62,5675.77 L 1510.3,5679.21 L 1496.56,5679.91 L 1482.96,5677.83 L 1470.05,5673.05 L 1458.38,5665.77 L 1448.41,5656.29 L 1440.55,5645 L 1435.12,5632.36 L 1432.35,5618.88 L 1432,5588 L 1433.39,5574.31 L 1437.51,5561.18 L 1444.19,5549.15 L 1453.15,5538.72 L 1464.03,5530.29 L 1476.38,5524.23 L 1489.7,5520.79 L 1503.44,5520.09 L 1517.04,5522.17 L 1529.95,5526.95 L 1541.62,5534.23 L 1551.59,5543.71 L 1559.45,5555 L 1564.88,5567.64 L 1567.65,5581.12 L 1568,5612 z " style="fill-opacity:1.000000;fill:rgb(216,254,67);stroke:rgb(0,0,0);stroke-width:2"/></g>
<g fill-rule="evenodd"><path d="M 1368,5612 L 1366.61,5625.69 L 1362.49,5638.82 L 1355.81,5650.85 L 1346.85,5661.28 L 1335.97,5669.71 L 1323.62,5675.77 L 1310.3,5679.21 L 1296.56,5679.91 L 1282.96,5677.83 L 1270.05,5673.05 L 1258.38,5665.77 L 1248.41,5656.29 L 1240.55,5645 L 1235.12,5632.36 L 1232.35,5618.88 L 1232,5588 L 1233.39,5574.31 L 1237.51,5561.18 L 1244.19,5549.15 L 1253.15,5538.72 L 1264.03,5530.29 L 1276.38,5524.23 L 1289.7,5520.79 L 1303.44,5520.09 L 1317.04,5522.17 L 1329.95,5526.95 L 1341.62,5534.23 L 1351.59,5543.71 L 1359.45,5555 L 1364.88,5567.64 L 1367.65,5581.12 L 1368,5612 z " style="fill-opacity:1.000000;fill:rgb(77,152,85);stroke:rgb(0,0,0);stroke-width:2"/></g>
<g fill-rule="evenodd"><path d="M 1888,5468 L 1874.31,5466.61 L 1861.18,5462.49 L 1849.15,5455.81 L 1838.72,5446.85 L 1830.29,5435.97 L 1824.23,5423.62 L 1820.79,5410.3 L 1820.09,5396.56 L 1822.17,5382.96 L 1826.95,5370.05 L 1834.23,5358.38 L 1843.71,5348.41 L 1855,5340.55 L 1867.64,5335.12 L 1881.12,5332.35 L 1912,5332 L 1925.69,5333.39 L 1938.82,5337.51 L 1950.85,5344.19 L 1961.28,5353.15 L 1969.71,5364.03 L 1975.77,5376.38 L 1979.21,5389.7 L 1979.91,5403.44 L 1977.83,5417.04 L 1973.05,5429.95 L 1965.77,5441.62 L 1956.29,5451.59 L 1945,5459.45 L 1932.36,5464.88 L 1918.88,5467.65 L 1888,5468 z " style="fill-opacity:1.000000;fill:rgb(140,226,179);stroke:rgb(0,0,0);stroke-width:2"/></g>
<g fill-rule="evenodd"><path d="M 1888,5268 L 1874.31,5266.61 L 1861.18,5262.49 L 1849.15,5255.81 L 1838.72,5246.85 L 1830.29,5235.97 L 1824.23,5223.62 L 1820.79,5210.3 L 1820.09,5196.56 L 1822.17,5182.96 L 1826.95,5170.05 L 1834.23,5158.38 L 1843.71,5148.41 L 1855,5140.55 L 1867.64,5135.12 L 1881.12,5132.35 L 1912,5132 L 1925.69,5133.39 L 1938.82,5137.51 L 1950.85,5144.19 L 1961.28,5153.15 L 1969.71,5164.03 L 1975.77,5176.38 L 1979.21,5189.7 L 1979.91,5203.44 L 1977.83,5217.04 L 1973.05,5229.95 L 1965.77,5241.62 L 1956.29,5251.59 L 1945,5259.45 L 1932.36,5264.88 L 1918.88,5267.65 L 1888,5268 z " style="fill-opacity:1.000000;fill:rgb(71,23,17);stroke:rgb(0,0,0);stroke-width:2"/></g>
<g fill-rule="evenodd"><path d="M 1888,4268 L 1874.31,4266.61 L 1861.18,4262.49 L 1849.15,4255.81 L 1838.72,4246.85 L 1830.29,4235.97 L 1824.23,4223.62 L 1820.79,4210.3 L 1820.09,4196.56 L 1822.17,4182.96 L 1826.95,4170.05 L 1834.23,4158.38 L 1843.71,4148.41 L 1855,4140.55 L 1867.64,4135.12 L 1881.12,4132.35 L 1912,4132 L 1925.69,4133.39 L 1938.82,4137.51 L 1950.85,4144.19 L 1961.28,4153.15 L 1969.71,4164.03 L 1975.77,4176.38 L 1979.21,4189.7 L 1979.91,4203.44 L 1977.83,4217.04 L 1973.05,4229.95 L 1965.77,4241.62 L 1956.29,4251.59 L 1945,4259.45 L 1932.36,4264.88 L 1918.88,4267.65 L 1888,4268 z " style="fill-opacity:1.000000;fill:rgb(152,84,47);stroke:rgb(0,0,0);stroke-width:2"/></g>
<g fill-rule="evenodd"><path d="M 1888,3868 L 1874.31,3866.61 L 1861.18,3862.49 L 1849.15,3855.81 L 1838.72,3846.85 L 1830.29,3835.97 L 1824.23,3823.62 L 1820.79,3810.3 L 1820.09,3796.56 L 1822.17,3782.96 L 1826.95,3770.05 L 1834.23,3758.38 L 1843.71,3748.41 L 1855,3740.55 L 1867.64,3735.12 L 1881.12,3732.35 L 1912,3732 L 1925.69,3733.39 L 1938.82,3737.51 L 1950.85,3744.19 L 1961.28,3753.15 L 1969.71,3764.03 L 1975.77,3776.38 L 1979.21,3789.7 L 1979.91,3803.44 L 1977.83,3817.04 L 1973.05,3829.95 L 1965.77,3841.62 L 1956.29,3851.59 L 1945,3859.45 L 1932.36,3864.88 L 1918.88,3867.65 L 1888,3868 z " style="fill-opacity:1.000000;fill:rgb(17,45,5);stroke:rgb(0,0,0);stroke-width:2"/></g>
<g fill-rule="evenodd"><path d="M 1888,3468 L 1874.31,3466.61 L 1861.18,3462.49 L 1849.15,3455.81 L 1838.72,3446.85 L 1830.29,3435.97 L 1824.23,3423.62 L 1820.79,3410.3 L 1820.09,3396.56 L 1822.17,3382.96 L 1826.95,3370.05 L 1834.23,3358.38 L 1843.71,3348.41 L 1855,3340.55 L 1867.64,3335.12 L 1881.12,3332.35 L 1912,3332 L 1925.69,3333.39 L 1938.82,3337.51 L 1950.85,3344.19 L 1961.28,3353.15 L 1969.71,3364.03 L 1975.77,3376.38 L 1979.21,3389.7 L 1979.91,3403.44 L 1977.83,3417.04 L 1973.05,3429.95 L 1965.77,3441.62 L 1956.29,3451.59 L 1945,3459.45 L 1932.36,3464.88 L 1918.88,3467.65 L 1888,3468 z " style="fill-opacity:1.000000;fill:rgb(88,245,107);stroke:rgb(0,0,0);stroke-width:2"/></g>
<g fill-rule="evenodd"><path d="M 688.002,4068 L 674.312,4066.61 L 661.184,4062.49 L 649.154,4055.81 L 638.716,4046.85 L 630.294,4035.97 L 624.234,4023.62 L 620.786,4010.3 L 620.088,3996.56 L 622.172,3982.96 L 626.95,3970.05 L 634.228,3958.38 L 643.708,3948.41 L 655,3940.55 L 667.644,3935.12 L 681.122,3932.35 L 712,3932 L 725.688,3933.39 L 738.816,3937.51 L 750.846,3944.19 L 761.284,3953.15 L 769.706,3964.03 L 775.766,3976.38 L 779.214,3989.7 L 779.912,4003.44 L 777.828,4017.04 L 773.05,4029.95 L 765.772,4041.62 L 756.292,4051.59 L 745,4059.45 L 732.356,4064.88 L 718.878,4067.65 L 688.002,4068 z " style="fill-opacity:1.000000;fill:rgb(214,136,7);stroke:rgb(0,0,0);stroke-width:2"/></g>
<g fill-rule="evenodd"><path d="M 688.002,4268 L 674.312,4266.61 L 661.184,4262.49 L 649.154,4255.81 L 638.716,4246.85 L 630.294,4235.97 L 624.234,4223.62 L 620.786,4210.3 L 620.088,4196.56 L 622.172,4182.96 L 626.95,4170.05 L 634.228,4158.38 L 643.708,4148.41 L 655,4140.55 L 667.644,4135.12 L 681.122,4132.35 L 712,4132 L 725.688,4133.39 L 738.816,4137.51 L 750.846,4144.19 L 761.284,4153.15 L 769.706,4164.03 L 775.766,4176.38 L 779.214,4189.7 L 779.912,4203.44 L 777.828,4217.04 L 773.05,4229.95 L 765.772,4241.62 L 756.292,4251.59 L 745,4259.45 L 732.356,4264.88 L 718.878,4267.65 L 688.002,4268 z " style="fill-opacity:1.000000;fill:rgb(153,146,72);stroke:rgb(0,0,0);stroke-width:2"/></g>
<g fill-rule="evenodd"><path d="M 688.002,4468 L 674.312,4466.61 L 661.184,4462.49 L 649.154,4455.81 L 638.716,4446.85 L 630.294,4435.97 L 624.234,4423.62 L 620.786,4410.3 L 620.088,4396.56 L 622.172,4382.96 L 626.95,4370.05 L 634.228,4358.38 L 643.708,4348.41 L 655,4340.55 L 667.644,4335.12 L 681.122,4332.35 L 712,4332 L 725.688,4333.39 L 738.816,4337.51 L 750.846,4344.19 L 761.284,4353.15 L 769.706,4364.03 L 775.766,4376.38 L 779.214,4389.7 L 779.912,4403.44 L 777.828,4417.04 L 773.05,4429.95 L 765.772,4441.62 L 756.292,4451.59 L 745,4459.45 L 732.356,4464.88 L 718.878,4467.65 L 688.002,4468 z " style="fill-opacity:1.000000;fill:rgb(51,98,65);stroke:rgb(0,0,0);stroke-width:2"/></g>
<g fill-rule="evenodd"><path d="M 688.002,4668 L 674.312,4666.61 L 661.184,4662.49 L 649.154,4655.81 L 638.716,4646.85 L 630.294,4635.97 L 624.234,4623.62 L 620.786,4610.3 L 620.088,4596.56 L 622.172,4582.96 L 626.95,4570.05 L 634.228,4558.38 L 643.708,4548.41 L 655,4540.55 L 667.644,4535.12 L 681.122,4532.35 L 712,4532 L 725.688,4533.39 L 738.816,4537.51 L 750.846,4544.19 L 761.284,4553.15 L 769.706,4564.03 L 775.766,4576.38 L 779.214,4589.7 L 779.912,4603.44 L 777.828,4617.04 L 773.05,4629.95 L 765.772,4641.62 L 756.292,4651.59 L 745,4659.45 L 732.356,4664.88 L 718.878,4667.65 L 688.002,4668 z " style="fill-opacity:1.000000;fill:rgb(243,13,35);stroke:rgb(0,0,0);stroke-width:2"/></g>
<g fill-rule="evenodd"><path d="M 1520,2880 L 1520,2720 L 1680,2720 L 1680,2880 L 1520,2880 z " style="fill-opacity:1.000000;fill:rgb(229,95,48);stroke:rgb(0,0,0);stroke-width:2"/></g>
<g fill-rule="evenodd"><path d="M 1600,2680 L 1583.9,2678.36 L 1568.45,2673.52 L 1554.3,2665.66 L 1542.02,2655.12 L 1532.11,2642.32 L 1524.98,2627.78 L 1520.92,2612.11 L 1520.1,2595.95 L 1522.55,2579.95 L 1528.18,2564.77 L 1536.74,2551.03 L 1547.89,2539.3 L 1561.18,2530.05 L 1576.05,2523.67 L 1591.91,2520.41 L 1600,2520 L 1616.1,2521.64 L 1631.55,2526.48 L 1645.7,2534.34 L 1657.98,2544.88 L 1667.89,2557.68 L 1675.02,2572.22 L 1679.08,2587.89 L 1679.9,2604.05 L 1677.45,2620.05 L 1671.82,2635.23 L 1663.26,2648.97 L 1652.11,2660.7 L 1638.82,2669.95 L 1623.95,2676.33 L 1608.09,2679.59 L 1600,2680 z " style="fill-opacity:1.000000;fill:rgb(209,200,237);stroke:rgb(0,0,0);stroke-width:2"/></g>
<g fill-rule="evenodd"><path d="M 1820,2880 L 1820,2720 L 1980,2720 L 1980,2880 L 1820,2880 z " style="fill-opacity:1.000000;fill:rgb(97,12,75);stroke:rgb(0,0,0);stroke-width:2"/></g>
<g fill-rule="evenodd"><path d="M 1900,2680 L 1883.9,2678.36 L 1868.45,2673.52 L 1854.3,2665.66 L 1842.02,2655.12 L 1832.11,2642.32 L 1824.98,2627.78 L 1820.92,2612.11 L 1820.1,2595.95 L 1822.55,2579.95 L 1828.18,2564.77 L 1836.74,2551.03 L 1847.89,2539.3 L 1861.18,2530.05 L 1876.05,2523.67 L 1891.91,2520.41 L 1900,2520 L 1916.1,2521.64 L 1931.55,2526.48 L 1945.7,2534.34 L 1957.98,2544.88 L 1967.89,2557.68 L 1975.02,2572.22 L 1979.08,2587.89 L 1979.9,2604.05 L 1977.45,2620.05 L 1971.82,2635.23 L 1963.26,2648.97 L 1952.11,2660.7 L 1938.82,2669.95 L 1923.95,2676.33 L 1908.09,2679.59 L 1900,2680 z " style="fill-opacity:1.000000;fill:rgb(2,53,57);stroke:rgb(0,0,0);stroke-width:2"/></g>
<g fill-rule="evenodd"><path d="M 918,2982 L 916.608,2995.69 L 912.488,3008.82 L 905.81,3020.85 L 896.848,3031.28 L 885.968,3039.71 L 873.616,3045.77 L 860.296,3049.21 L 846.556,3049.91 L 832.956,3047.83 L 820.054,3043.05 L 808.378,3035.77 L 798.406,3026.29 L 790.546,3015 L 785.12,3002.36 L 782.35,2988.88 L 782,2958 L 783.392,2944.31 L 787.512,2931.18 L 794.19,2919.15 L 803.152,2908.72 L 814.032,2900.29 L 826.384,2894.23 L 839.704,2890.79 L 853.444,2890.09 L 867.044,2892.17 L 879.946,2896.95 L 891.622,2904.23 L 901.594,2913.71 L 909.454,2925 L 914.88,2937.64 L 917.65,2951.12 L 918,2982 z " style="fill-opacity:1.000000;fill:rgb(129,132,184);stroke:rgb(0,0,0);stroke-width:2"/></g>
<g fill-rule="evenodd"><path d="M 1118,2982 L 1116.61,2995.69 L 1112.49,3008.82 L 1105.81,3020.85 L 1096.85,3031.28 L 1085.97,3039.71 L 1073.62,3045.77 L 1060.3,3049.21 L 1046.56,3049.91 L 1032.96,3047.83 L 1020.05,3043.05 L 1008.38,3035.77 L 998.406,3026.29 L 990.546,3015 L 985.12,3002.36 L 982.35,2988.88 L 982,2958 L 983.392,2944.31 L 987.512,2931.18 L 994.19,2919.15 L 1003.15,2908.72 L 1014.03,2900.29 L 1026.38,2894.23 L 1039.7,2890.79 L 1053.44,2890.09 L 1067.04,2892.17 L 1079.95,2896.95 L 1091.62,2904.23 L 1101.59,2913.71 L 1109.45,2925 L 1114.88,2937.64 L 1117.65,2951.12 L 1118,2982 z " style="fill-opacity:1.000000;fill:rgb(20,162,156);stroke:rgb(0,0,0);stroke-width:2"/></g>
<g fill-rule="evenodd"><path d="M 1406.54,4507.72 L 1401.9,4522.01 L 1393.67,4536.26 L 1382.66,4548.48 L 1369.35,4558.16 L 1354.32,4564.85 L 1338.23,4568.27 L 1321.77,4568.27 L 1305.68,4564.85 L 1290.65,4558.16 L 1277.34,4548.48 L 1266.33,4536.26 L 1258.1,4522.01 L 1253.02,4506.36 L 1251.3,4490 L 1253.02,4473.64 L 1258.1,4457.99 L 1266.33,4443.74 L 1277.34,4431.52 L 1290.65,4421.84 L 1305.68,4415.15 L 1321.77,4411.73 L 1338.23,4411.73 L 1354.32,4415.15 L 1369.35,4421.84 L 1382.66,4431.52 L 1393.67,4443.74 L 1401.9,4457.99 L 1406.54,4472.28 L 1513.46,4472.28 L 1518.1,4457.99 L 1526.33,4443.74 L 1537.34,4431.52 L 1550.65,4421.84 L 1565.68,4415.15 L 1581.77,4411.73 L 1598.23,4411.73 L 1614.32,4415.15 L 1629.35,4421.84 L 1642.66,4431.52 L 1653.67,4443.74 L 1661.9,4457.99 L 1666.54,4472.28 L 1802.66,4472.28 L 1834.08,4440.86 L 1830.29,4435.97 L 1824.23,4423.62 L 1820.79,4410.3 L 1820.09,4396.56 L 1822.17,4382.96 L 1826.95,4370.05 L 1834.23,4358.38 L 1843.71,4348.41 L 1855,4340.55 L 1867.64,4335.12 L 1881.12,4332.35 L 1912,4332 L 1925.69,4333.39 L 1938.82,4337.51 L 1950.85,4344.19 L 1961.28,4353.15 L 1969.71,4364.03 L 1975.77,4376.38 L 1979.21,4389.7 L 1979.91,4403.44 L 1977.83,4417.04 L 1973.05,4429.95 L 1965.77,4441.62 L 1956.29,4451.59 L 1945,4459.45 L 1932.36,4464.88 L 1918.88,4467.65 L 1888,4468 L 1874.31,4466.61 L 1862.24,4462.82 L 1822.53,4502.53 L 1819.84,4504.73 L 1816.78,4506.37 L 1813.45,4507.38 L 1810,4507.72 L 1666.54,4507.72 L 1661.9,4522.01 L 1653.67,4536.26 L 1642.66,4548.48 L 1629.35,4558.16 L 1614.32,4564.85 L 1598.23,4568.27 L 1581.77,4568.27 L 1565.68,4564.85 L 1550.65,4558.16 L 1537.34,4548.48 L 1526.33,4536.26 L 1518.1,4522.01 L 1513.46,4507.72 L 1406.54,4507.72 z " style="fill-opacity:1.000000;fill:rgb(180,90,103);stroke:rgb(0,0,0);stroke-width:2"/></g>
<g fill-rule="evenodd"><path d="M 1257.02,3188.04 L 1257.65,3191.12 L 1258,3222 L 1256.61,3235.69 L 1252.49,3248.82 L 1245.81,3260.85 L 1236.85,3271.28 L 1225.97,3279.71 L 1213.62,3285.77 L 1207.72,3287.29 L 1207.72,3390 L 1207.37,3393.46 L 1206.37,3396.78 L 1204.73,3399.84 L 1202.53,3402.53 L 992.526,3612.53 L 989.84,3614.73 L 986.778,3616.37 L 983.454,3617.38 L 980,3617.72 L 777.58,3617.72 L 773.05,3629.95 L 765.772,3641.62 L 756.292,3651.59 L 745,3659.45 L 732.356,3664.88 L 718.878,3667.65 L 688.002,3668 L 674.312,3666.61 L 662.238,3662.82 L 515.916,3809.14 L 519.706,3814.03 L 525.766,3826.39 L 529.214,3839.71 L 529.912,3853.45 L 527.828,3867.05 L 523.05,3879.95 L 515.772,3891.62 L 506.292,3901.6 L 495,3909.46 L 482.356,3914.88 L 468.878,3917.65 L 438.002,3918 L 424.312,3916.61 L 411.184,3912.49 L 399.154,3905.81 L 388.716,3896.85 L 380.294,3885.97 L 374.234,3873.62 L 370.786,3860.3 L 370.088,3846.56 L 372.172,3832.96 L 376.95,3820.06 L 384.228,3808.38 L 393.708,3798.41 L 405,3790.55 L 417.644,3785.12 L 431.122,3782.35 L 462,3782 L 475.688,3783.39 L 487.762,3787.18 L 634.084,3640.86 L 630.294,3635.97 L 624.234,3623.62 L 620.786,3610.3 L 620.088,3596.56 L 622.172,3582.96 L 626.95,3570.05 L 634.228,3558.38 L 643.708,3548.41 L 655,3540.55 L 667.644,3535.12 L 681.122,3532.35 L 712,3532 L 725.688,3533.39 L 738.816,3537.51 L 750.846,3544.19 L 761.284,3553.15 L 769.706,3564.03 L 775.766,3576.38 L 777.292,3582.28 L 972.662,3582.28 L 1172.28,3382.66 L 1172.28,3287.58 L 1160.05,3283.05 L 1148.38,3275.77 L 1138.41,3266.29 L 1130.55,3255 L 1125.12,3242.36 L 1122.35,3228.88 L 1122,3198 L 1123.39,3184.31 L 1127.51,3171.18 L 1134.19,3159.15 L 1143.15,3148.72 L 1154.03,3140.29 L 1166.38,3134.23 L 1179.7,3130.79 L 1193.44,3130.09 L 1207.04,3132.17 L 1219.95,3136.95 L 1231.62,3144.23 L 1241.41,3153.53 L 1327.47,3067.47 L 1330.16,3065.27 L 1333.22,3063.63 L 1336.54,3062.63 L 1340,3062.28 L 1450,3062.28 L 1453.68,3062.67 L 1457.2,3063.82 L 1460.41,3065.67 L 1463.16,3068.15 L 1465.34,3071.14 L 1466.85,3074.53 L 1467.62,3078.15 L 1467.62,3081.85 L 1466.85,3085.48 L 1465.34,3088.86 L 1463.16,3091.86 L 1460.41,3094.33 L 1457.2,3096.19 L 1453.68,3097.33 L 1450,3097.72 L 1347.34,3097.72 L 1257.02,3188.04 z " style="fill-opacity:1.000000;fill:rgb(42,202,229);stroke:rgb(0,0,0);stroke-width:2"/></g>
<g fill-rule="evenodd"><path d="M 1372.28,3287.58 L 1360.05,3283.05 L 1348.38,3275.77 L 1338.41,3266.29 L 1330.55,3255 L 1325.12,3242.36 L 1322.35,3228.88 L 1322,3198 L 1323.39,3184.31 L 1327.51,3171.18 L 1334.19,3159.15 L 1343.15,3148.72 L 1354.03,3140.29 L 1366.38,3134.23 L 1379.7,3130.79 L 1393.44,3130.09 L 1407.04,3132.17 L 1419.95,3136.95 L 1431.62,3144.23 L 1441.59,3153.71 L 1445.55,3159.39 L 1537.47,3067.47 L 1540.16,3065.27 L 1543.22,3063.63 L 1546.54,3062.63 L 1550,3062.28 L 1938.12,3062.28 L 1939.65,3057.58 L 1945.41,3047.6 L 1953.12,3039.04 L 1962.44,3032.27 L 1972.97,3027.58 L 1984.24,3025.18 L 1995.76,3025.18 L 2007.03,3027.58 L 2017.56,3032.27 L 2026.88,3039.04 L 2034.59,3047.6 L 2040.35,3057.58 L 2043.91,3068.54 L 2045.12,3080 L 2043.91,3091.46 L 2040.35,3102.42 L 2034.59,3112.4 L 2026.88,3120.96 L 2017.56,3127.73 L 2007.03,3132.42 L 1995.76,3134.82 L 1984.24,3134.82 L 1972.97,3132.42 L 1962.44,3127.73 L 1953.12,3120.96 L 1945.41,3112.4 L 1939.65,3102.42 L 1938.12,3097.72 L 1557.34,3097.72 L 1457.72,3197.33 L 1458,3222 L 1456.61,3235.69 L 1452.49,3248.82 L 1445.81,3260.85 L 1436.85,3271.28 L 1425.97,3279.71 L 1413.62,3285.77 L 1407.72,3287.29 L 1407.72,3375.18 L 1415.76,3375.18 L 1427.03,3377.58 L 1437.56,3382.27 L 1446.88,3389.04 L 1454.59,3397.6 L 1460.35,3407.58 L 1463.91,3418.54 L 1465.12,3430 L 1463.91,3441.46 L 1460.35,3452.42 L 1454.59,3462.4 L 1446.88,3470.96 L 1437.56,3477.73 L 1427.03,3482.42 L 1415.76,3484.82 L 1404.24,3484.82 L 1392.97,3482.42 L 1382.44,3477.73 L 1373.12,3470.96 L 1365.41,3462.4 L 1359.65,3452.42 L 1356.09,3441.46 L 1354.88,3430 L 1356.09,3418.54 L 1359.65,3407.58 L 1365.41,3397.6 L 1372.28,3389.97 L 1372.28,3287.58 z " style="fill-opacity:1.000000;fill:rgb(72,233,197);stroke:rgb(0,0,0);stroke-width:2"/></g>
<g fill-rule="evenodd"><path d="M 487.582,5012.64 L 482.356,5014.88 L 468.878,5017.65 L 438.002,5018 L 424.312,5016.61 L 411.184,5012.49 L 399.154,5005.81 L 388.716,4996.85 L 380.294,4985.97 L 374.234,4973.62 L 370.786,4960.3 L 370.088,4946.56 L 372.172,4932.96 L 376.95,4920.05 L 384.228,4908.38 L 393.708,4898.41 L 405,4890.55 L 417.644,4885.12 L 431.122,4882.35 L 462,4882 L 475.688,4883.39 L 488.816,4887.51 L 500.846,4894.19 L 511.284,4903.15 L 519.706,4914.03 L 525.766,4926.38 L 529.214,4939.7 L 529.912,4953.44 L 527.828,4967.04 L 523.05,4979.95 L 516.12,4991.07 L 662.414,5137.36 L 667.644,5135.12 L 681.122,5132.35 L 712,5132 L 725.688,5133.39 L 738.816,5137.51 L 750.846,5144.19 L 761.284,5153.15 L 769.706,5164.03 L 775.766,5176.38 L 779.214,5189.7 L 779.912,5203.44 L 777.828,5217.04 L 773.05,5229.95 L 765.772,5241.62 L 756.292,5251.59 L 745,5259.45 L 732.356,5264.88 L 718.878,5267.65 L 688.002,5268 L 674.312,5266.61 L 661.184,5262.49 L 649.154,5255.81 L 638.716,5246.85 L 630.294,5235.97 L 624.234,5223.62 L 620.786,5210.3 L 620.088,5196.56 L 622.172,5182.96 L 626.95,5170.05 L 633.88,5158.94 L 487.582,5012.64 z " style="fill-opacity:1.000000;fill:rgb(241,176,196);stroke:rgb(0,0,0);stroke-width:2"/></g>
<g fill-rule="evenodd"><path d="M 662.414,4937.36 L 667.644,4935.12 L 681.122,4932.35 L 712,4932 L 725.688,4933.39 L 738.816,4937.51 L 750.846,4944.19 L 761.284,4953.15 L 769.706,4964.03 L 775.766,4976.38 L 779.214,4989.7 L 779.912,5003.44 L 777.828,5017.04 L 773.05,5029.95 L 765.772,5041.62 L 756.292,5051.59 L 745,5059.45 L 732.356,5064.88 L 718.878,5067.65 L 688.002,5068 L 674.312,5066.61 L 661.184,5062.49 L 649.154,5055.81 L 638.716,5046.85 L 630.294,5035.97 L 624.234,5023.62 L 620.786,5010.3 L 620.088,4996.56 L 622.172,4982.96 L 626.95,4970.05 L 633.88,4958.94 L 487.582,4812.64 L 482.356,4814.88 L 468.878,4817.65 L 438.002,4818 L 424.312,4816.61 L 411.184,4812.49 L 399.154,4805.81 L 388.716,4796.85 L 380.294,4785.97 L 374.234,4773.62 L 370.786,4760.3 L 370.088,4746.56 L 372.172,4732.96 L 376.95,4720.05 L 384.228,4708.38 L 393.708,4698.41 L 405,4690.55 L 417.644,4685.12 L 431.122,4682.35 L 462,4682 L 475.688,4683.39 L 488.816,4687.51 L 500.846,4694.19 L 511.284,4703.15 L 519.706,4714.03 L 525.766,4726.38 L 529.214,4739.7 L 529.912,4753.44 L 527.828,4767.04 L 523.05,4779.95 L 516.12,4791.07 L 662.414,4937.36 z " style="fill-opacity:1.000000;fill:rgb(21,138,229);stroke:rgb(0,0,0);stroke-width:2"/></g>
<g fill-rule="evenodd"><path d="M 516.12,5391.07 L 662.414,5537.36 L 667.644,5535.12 L 681.122,5532.35 L 712,5532 L 725.688,5533.39 L 738.816,5537.51 L 750.846,5544.19 L 761.284,5553.15 L 769.706,5564.03 L 775.766,5576.38 L 779.214,5589.7 L 779.912,5603.44 L 777.828,5617.04 L 773.05,5629.95 L 765.772,5641.62 L 756.292,5651.59 L 745,5659.45 L 732.356,5664.88 L 718.878,5667.65 L 688.002,5668 L 674.312,5666.61 L 661.184,5662.49 L 649.154,5655.81 L 638.716,5646.85 L 630.294,5635.97 L 624.234,5623.62 L 620.786,5610.3 L 620.088,5596.56 L 622.172,5582.96 L 626.95,5570.05 L 633.88,5558.94 L 487.582,5412.64 L 482.356,5414.88 L 468.878,5417.65 L 438.002,5418 L 424.312,5416.61 L 411.184,5412.49 L 399.154,5405.81 L 388.716,5396.85 L 380.294,5385.97 L 374.234,5373.62 L 370.786,5360.3 L 370.088,5346.56 L 372.172,5332.96 L 376.95,5320.05 L 384.228,5308.38 L 393.708,5298.41 L 405,5290.55 L 417.644,5285.12 L 431.122,5282.35 L 462,5282 L 475.688,5283.39 L 488.816,5287.51 L 500.846,5294.19 L 511.284,5303.15 L 519.706,5314.03 L 525.766,5326.38 L 529.214,5339.7 L 529.912,5353.44 L 527.828,5367.04 L 523.05,5379.95 L 516.12,5391.07 z " style="fill-opacity:1.000000;fill:rgb(155,77,57);stroke:rgb(0,0,0);stroke-width:2"/></g>
<g fill-rule="evenodd"><path d="M 516.12,5191.07 L 662.414,5337.36 L 667.644,5335.12 L 681.122,5332.35 L 712,5332 L 725.688,5333.39 L 738.816,5337.51 L 750.846,5344.19 L 761.284,5353.15 L 769.706,5364.03 L 775.766,5376.38 L 779.214,5389.7 L 779.912,5403.44 L 777.828,5417.04 L 773.05,5429.95 L 765.772,5441.62 L 756.292,5451.59 L 745,5459.45 L 732.356,5464.88 L 718.878,5467.65 L 688.002,5468 L 674.312,5466.61 L 661.184,5462.49 L 649.154,5455.81 L 638.716,5446.85 L 630.294,5435.97 L 624.234,5423.62 L 620.786,5410.3 L 620.088,5396.56 L 622.172,5382.96 L 626.95,5370.05 L 633.88,5358.94 L 487.582,5212.64 L 482.356,5214.88 L 468.878,5217.65 L 438.002,5218 L 424.312,5216.61 L 411.184,5212.49 L 399.154,5205.81 L 388.716,5196.85 L 380.294,5185.97 L 374.234,5173.62 L 370.786,5160.3 L 370.088,5146.56 L 372.172,5132.96 L 376.95,5120.05 L 384.228,5108.38 L 393.708,5098.41 L 405,5090.55 L 417.644,5085.12 L 431.122,5082.35 L 462,5082 L 475.688,5083.39 L 488.816,5087.51 L 500.846,5094.19 L 511.284,5103.15 L 519.706,5114.03 L 525.766,5126.38 L 529.214,5139.7 L 529.912,5153.44 L 527.828,5167.04 L 523.05,5179.95 L 516.12,5191.07 z " style="fill-opacity:1.000000;fill:rgb(246,247,232);stroke:rgb(0,0,0);stroke-width:2"/></g>
<g fill-rule="evenodd"><path d="M 633.88,4758.94 L 487.582,4612.64 L 482.356,4614.88 L 468.878,4617.65 L 438.002,4618 L 424.312,4616.61 L 411.184,4612.49 L 399.154,4605.81 L 388.716,4596.85 L 380.294,4585.97 L 374.234,4573.62 L 370.786,4560.3 L 370.088,4546.56 L 372.172,4532.96 L 376.95,4520.05 L 384.228,4508.38 L 393.708,4498.41 L 405,4490.55 L 417.644,4485.12 L 431.122,4482.35 L 462,4482 L 475.688,4483.39 L 488.816,4487.51 L 500.846,4494.19 L 511.284,4503.15 L 519.706,4514.03 L 525.766,4526.38 L 529.214,4539.7 L 529.912,4553.44 L 527.828,4567.04 L 523.05,4579.95 L 516.12,4591.07 L 662.414,4737.36 L 667.644,4735.12 L 681.122,4732.35 L 712,4732 L 725.688,4733.39 L 738.816,4737.51 L 750.846,4744.19 L 761.284,4753.15 L 769.706,4764.03 L 775.766,4776.38 L 779.214,4789.7 L 779.912,4803.44 L 777.828,4817.04 L 773.05,4829.95 L 765.772,4841.62 L 756.292,4851.59 L 745,4859.45 L 732.356,4864.88 L 718.878,4867.65 L 688.002,4868 L 674.312,4866.61 L 661.184,4862.49 L 649.154,4855.81 L 638.716,4846.85 L 630.294,4835.97 L 624.234,4823.62 L 620.786,4810.3 L 620.088,4796.56 L 622.172,4782.96 L 626.95,4770.05 L 633.88,4758.94 z " style="fill-opacity:1.000000;fill:rgb(161,5,211);stroke:rgb(0,0,0);stroke-width:2"/></g>
<g fill-rule="evenodd"><path d="M 927.364,3247.58 L 925.12,3242.36 L 922.35,3228.88 L 922,3198 L 923.392,3184.31 L 927.512,3171.18 L 934.19,3159.15 L 943.152,3148.72 L 954.032,3140.29 L 966.384,3134.23 L 979.704,3130.79 L 993.444,3130.09 L 1007.04,3132.17 L 1019.95,3136.95 L 1031.06,3143.88 L 1087.47,3087.47 L 1090.16,3085.27 L 1093.22,3083.63 L 1096.54,3082.63 L 1100,3082.28 L 1150,3082.28 L 1153.68,3082.67 L 1157.2,3083.82 L 1160.41,3085.67 L 1163.16,3088.15 L 1165.34,3091.14 L 1166.85,3094.53 L 1167.62,3098.15 L 1167.62,3101.85 L 1166.85,3105.48 L 1165.34,3108.86 L 1163.16,3111.86 L 1160.41,3114.33 L 1157.2,3116.19 L 1153.68,3117.33 L 1150,3117.72 L 1107.34,3117.72 L 1052.64,3172.42 L 1054.88,3177.64 L 1057.65,3191.12 L 1058,3222 L 1056.61,3235.69 L 1052.49,3248.82 L 1045.81,3260.85 L 1036.85,3271.28 L 1025.97,3279.71 L 1013.62,3285.77 L 1000.3,3289.21 L 986.556,3289.91 L 972.956,3287.83 L 960.054,3283.05 L 948.936,3276.12 L 812.526,3412.53 L 809.84,3414.73 L 806.778,3416.37 L 803.454,3417.38 L 800,3417.72 L 777.58,3417.72 L 773.05,3429.95 L 765.772,3441.62 L 756.292,3451.59 L 745,3459.45 L 732.356,3464.88 L 718.878,3467.65 L 688.002,3468 L 674.312,3466.61 L 662.236,3462.82 L 515.916,3609.14 L 519.706,3614.03 L 525.766,3626.38 L 529.214,3639.7 L 529.912,3653.44 L 527.828,3667.04 L 523.05,3679.95 L 515.772,3691.62 L 506.292,3701.59 L 495,3709.45 L 482.356,3714.88 L 468.878,3717.65 L 438.002,3718 L 424.312,3716.61 L 411.184,3712.49 L 399.154,3705.81 L 388.716,3696.85 L 380.294,3685.97 L 374.234,3673.62 L 370.786,3660.3 L 370.088,3646.56 L 372.172,3632.96 L 376.95,3620.05 L 384.228,3608.38 L 393.708,3598.41 L 405,3590.55 L 417.644,3585.12 L 431.122,3582.35 L 462,3582 L 475.688,3583.39 L 487.764,3587.18 L 634.084,3440.86 L 630.294,3435.97 L 624.234,3423.62 L 620.786,3410.3 L 620.088,3396.56 L 622.172,3382.96 L 626.95,3370.05 L 634.228,3358.38 L 643.708,3348.41 L 655,3340.55 L 667.644,3335.12 L 681.122,3332.35 L 712,3332 L 725.688,3333.39 L 738.816,3337.51 L 750.846,3344.19 L 761.284,3353.15 L 769.706,3364.03 L 775.766,3376.38 L 777.292,3382.28 L 792.662,3382.28 L 927.364,3247.58 z " style="fill-opacity:1.000000;fill:rgb(254,237,165);stroke:rgb(0,0,0);stroke-width:2"/></g>
<g fill-rule="evenodd"><path d="M 467.716,3382.58 L 475.688,3383.39 L 488.816,3387.51 L 500.846,3394.19 L 511.284,3403.15 L 519.706,3414.03 L 525.766,3426.38 L 529.214,3439.7 L 529.912,3453.44 L 527.828,3467.04 L 523.05,3479.95 L 515.772,3491.62 L 506.292,3501.59 L 495,3509.45 L 482.356,3514.88 L 468.878,3517.65 L 438.002,3518 L 424.312,3516.61 L 411.184,3512.49 L 399.154,3505.81 L 388.716,3496.85 L 380.294,3485.97 L 374.234,3473.62 L 370.786,3460.3 L 370.088,3446.56 L 372.172,3432.96 L 376.95,3420.05 L 384.228,3408.38 L 393.708,3398.41 L 405,3390.55 L 417.644,3385.12 L 431.122,3382.35 L 432.284,3382.34 L 432.284,3050 L 382,3050 L 382,2890 L 518,2890 L 518,3050 L 467.716,3050 L 467.716,3277.23 L 530.704,3214.24 L 529.648,3212.42 L 526.088,3201.46 L 524.882,3190 L 526.088,3178.54 L 529.648,3167.58 L 535.41,3157.6 L 543.12,3149.04 L 552.442,3142.27 L 562.968,3137.58 L 574.24,3135.18 L 585.76,3135.18 L 597.032,3137.58 L 607.558,3142.27 L 616.88,3149.04 L 624.59,3157.6 L 630.352,3167.58 L 633.912,3178.54 L 635.118,3190 L 633.912,3201.46 L 630.352,3212.42 L 624.59,3222.4 L 616.88,3230.96 L 607.558,3237.73 L 597.032,3242.42 L 585.76,3244.82 L 574.24,3244.82 L 562.968,3242.42 L 555.82,3239.24 L 467.716,3327.34 L 467.716,3382.58 z " style="fill-opacity:1.000000;fill:rgb(213,243,217);stroke:rgb(0,0,0);stroke-width:2"/></g>
<g fill-rule="evenodd"><path d="M 487.764,3987.18 L 634.084,3840.86 L 630.294,3835.97 L 624.234,3823.62 L 620.786,3810.3 L 620.088,3796.56 L 622.172,3782.96 L 626.95,3770.05 L 634.228,3758.38 L 643.708,3748.41 L 655,3740.55 L 667.644,3735.12 L 681.122,3732.35 L 712,3732 L 725.688,3733.39 L 738.816,3737.51 L 750.846,3744.19 L 761.284,3753.15 L 769.706,3764.03 L 775.766,3776.38 L 779.214,3789.7 L 779.912,3803.44 L 777.828,3817.04 L 773.05,3829.95 L 765.772,3841.62 L 756.292,3851.59 L 745,3859.45 L 732.356,3864.88 L 718.878,3867.65 L 688.002,3868 L 674.312,3866.61 L 662.236,3862.82 L 515.916,4009.14 L 519.706,4014.03 L 525.766,4026.38 L 529.214,4039.7 L 529.912,4053.44 L 527.828,4067.04 L 523.05,4079.95 L 515.772,4091.62 L 506.292,4101.59 L 495,4109.45 L 482.356,4114.88 L 468.878,4117.65 L 438.002,4118 L 424.312,4116.61 L 411.184,4112.49 L 399.154,4105.81 L 388.716,4096.85 L 380.294,4085.97 L 374.234,4073.62 L 370.786,4060.3 L 370.088,4046.56 L 372.172,4032.96 L 376.95,4020.05 L 384.228,4008.38 L 393.708,3998.41 L 405,3990.55 L 417.644,3985.12 L 431.122,3982.35 L 462,3982 L 475.688,3983.39 L 487.764,3987.18 z " style="fill-opacity:1.000000;fill:rgb(228,91,250);stroke:rgb(0,0,0);stroke-width:2"/></g>
<g fill-rule="evenodd"><path d="M 2084.08,4950.86 L 2080.29,4945.97 L 2074.23,4933.62 L 2070.79,4920.3 L 2070.09,4906.56 L 2072.17,4892.96 L 2076.95,4880.05 L 2084.23,4868.38 L 2093.71,4858.41 L 2105,4850.55 L 2117.64,4845.12 L 2131.12,4842.35 L 2162,4842 L 2175.69,4843.39 L 2188.82,4847.51 L 2200.85,4854.19 L 2211.28,4863.15 L 2219.71,4874.03 L 2225.77,4886.38 L 2229.21,4899.7 L 2229.91,4913.44 L 2227.83,4927.04 L 2223.05,4939.95 L 2215.77,4951.62 L 2206.29,4961.59 L 2195,4969.45 L 2182.36,4974.88 L 2168.88,4977.65 L 2138,4978 L 2124.31,4976.61 L 2112.24,4972.82 L 2072.53,5012.53 L 2069.84,5014.73 L 2066.78,5016.37 L 2063.45,5017.38 L 2060,5017.72 L 1977.58,5017.72 L 1973.05,5029.95 L 1965.77,5041.62 L 1956.29,5051.59 L 1945,5059.45 L 1932.36,5064.88 L 1918.88,5067.65 L 1888,5068 L 1874.31,5066.61 L 1861.18,5062.49 L 1849.15,5055.81 L 1838.72,5046.85 L 1830.29,5035.97 L 1824.23,5023.62 L 1820.79,5010.3 L 1820.09,4996.56 L 1822.17,4982.96 L 1826.95,4970.05 L 1834.23,4958.38 L 1843.71,4948.41 L 1855,4940.55 L 1867.64,4935.12 L 1881.12,4932.35 L 1912,4932 L 1925.69,4933.39 L 1938.82,4937.51 L 1950.85,4944.19 L 1961.28,4953.15 L 1969.71,4964.03 L 1975.77,4976.38 L 1977.29,4982.28 L 2052.66,4982.28 L 2084.08,4950.86 z " style="fill-opacity:1.000000;fill:rgb(108,195,81);stroke:rgb(0,0,0);stroke-width:2"/></g>
<g fill-rule="evenodd"><path d="M 2076.25,5617.72 L 1977.58,5617.72 L 1973.05,5629.95 L 1965.77,5641.62 L 1956.29,5651.59 L 1945,5659.45 L 1932.36,5664.88 L 1918.88,5667.65 L 1888,5668 L 1874.31,5666.61 L 1861.18,5662.49 L 1849.15,5655.81 L 1838.72,5646.85 L 1830.29,5635.97 L 1824.23,5623.62 L 1820.79,5610.3 L 1820.09,5596.56 L 1822.17,5582.96 L 1826.95,5570.05 L 1834.23,5558.38 L 1843.71,5548.41 L 1855,5540.55 L 1867.64,5535.12 L 1881.12,5532.35 L 1912,5532 L 1925.69,5533.39 L 1938.82,5537.51 L 1950.85,5544.19 L 1961.28,5553.15 L 1969.71,5564.03 L 1975.77,5576.38 L 1977.29,5582.28 L 2070.74,5582.28 L 2072.17,5572.96 L 2076.95,5560.05 L 2084.23,5548.38 L 2093.71,5538.41 L 2105,5530.55 L 2117.64,5525.12 L 2131.12,5522.35 L 2162,5522 L 2175.69,5523.39 L 2188.82,5527.51 L 2200.85,5534.19 L 2211.28,5543.15 L 2219.71,5554.03 L 2225.77,5566.38 L 2229.21,5579.7 L 2229.91,5593.44 L 2227.83,5607.04 L 2223.05,5619.95 L 2215.77,5631.62 L 2206.29,5641.59 L 2195,5649.45 L 2182.36,5654.88 L 2168.88,5657.65 L 2138,5658 L 2124.31,5656.61 L 2111.18,5652.49 L 2099.15,5645.81 L 2088.72,5636.85 L 2080.29,5625.97 L 2076.25,5617.72 z " style="fill-opacity:1.000000;fill:rgb(226,32,174);stroke:rgb(0,0,0);stroke-width:2"/></g>
<g fill-rule="evenodd"><path d="M 2200.54,5445.6 L 2195,5449.45 L 2182.36,5454.88 L 2168.88,5457.65 L 2138,5458 L 2124.31,5456.61 L 2111.18,5452.49 L 2099.15,5445.81 L 2088.72,5436.85 L 2080.29,5425.97 L 2074.23,5413.62 L 2070.79,5400.3 L 2070.09,5386.56 L 2072.17,5372.96 L 2076.95,5360.05 L 2084.23,5348.38 L 2093.71,5338.41 L 2105,5330.55 L 2117.64,5325.12 L 2131.12,5322.35 L 2162,5322 L 2175.69,5323.39 L 2188.82,5327.51 L 2200.85,5334.19 L 2211.28,5343.15 L 2219.71,5354.03 L 2225.77,5366.38 L 2229.21,5379.7 L 2229.91,5393.44 L 2227.83,5407.04 L 2223.58,5418.52 L 2312.53,5507.47 L 2314.73,5510.16 L 2316.37,5513.22 L 2317.37,5516.54 L 2317.72,5520 L 2317.72,5620 L 2317.37,5623.46 L 2316.37,5626.78 L 2314.73,5629.84 L 2312.53,5632.53 L 2182.53,5762.53 L 2179.84,5764.73 L 2176.78,5766.37 L 2173.45,5767.38 L 2170,5767.72 L 1240,5767.72 L 1236.54,5767.38 L 1233.22,5766.37 L 1230.16,5764.73 L 1227.47,5762.53 L 1167.47,5702.53 L 1165.27,5699.84 L 1163.63,5696.78 L 1162.62,5693.46 L 1162.28,5690 L 1162.28,4440 L 1162.62,4436.55 L 1163.63,4433.22 L 1165.27,4430.16 L 1167.47,4427.47 L 1537.47,4057.47 L 1540.16,4055.27 L 1543.22,4053.63 L 1546.54,4052.63 L 1550,4052.28 L 1822.66,4052.28 L 1834.08,4040.86 L 1830.29,4035.97 L 1824.23,4023.62 L 1820.79,4010.3 L 1820.09,3996.56 L 1822.17,3982.96 L 1826.42,3971.48 L 1804.18,3949.24 L 1797.03,3952.42 L 1785.76,3954.82 L 1774.24,3954.82 L 1762.97,3952.42 L 1752.44,3947.73 L 1743.12,3940.96 L 1735.41,3932.4 L 1729.65,3922.42 L 1726.09,3911.46 L 1724.88,3900 L 1726.09,3888.54 L 1729.65,3877.58 L 1735.41,3867.6 L 1743.12,3859.04 L 1752.44,3852.27 L 1762.97,3847.58 L 1774.24,3845.18 L 1785.76,3845.18 L 1797.03,3847.58 L 1807.56,3852.27 L 1816.88,3859.04 L 1824.59,3867.6 L 1830.35,3877.58 L 1833.91,3888.54 L 1835.12,3900 L 1833.91,3911.46 L 1830.35,3922.42 L 1829.3,3924.24 L 1849.46,3944.41 L 1855,3940.55 L 1867.64,3935.12 L 1881.12,3932.35 L 1912,3932 L 1925.69,3933.39 L 1938.82,3937.51 L 1950.85,3944.19 L 1961.28,3953.15 L 1969.71,3964.03 L 1975.77,3976.38 L 1979.21,3989.7 L 1979.91,4003.44 L 1977.83,4017.04 L 1973.05,4029.95 L 1965.77,4041.62 L 1956.29,4051.59 L 1945,4059.45 L 1932.36,4064.88 L 1918.88,4067.65 L 1888,4068 L 1874.31,4066.61 L 1862.24,4062.82 L 1842.53,4082.53 L 1839.84,4084.73 L 1836.78,4086.37 L 1833.45,4087.38 L 1830,4087.72 L 1557.34,4087.72 L 1197.72,4447.34 L 1197.72,5682.66 L 1247.34,5732.28 L 2162.66,5732.28 L 2282.28,5612.66 L 2282.28,5527.34 L 2200.54,5445.6 z " style="fill-opacity:1.000000;fill:rgb(12,225,6);stroke:rgb(0,0,0);stroke-width:2"/></g>
<g fill-rule="evenodd"><path d="M 2084.08,4750.86 L 2080.29,4745.97 L 2074.23,4733.62 L 2070.79,4720.3 L 2070.09,4706.56 L 2072.17,4692.96 L 2076.95,4680.05 L 2084.23,4668.38 L 2093.71,4658.41 L 2105,4650.55 L 2117.64,4645.12 L 2131.12,4642.35 L 2162,4642 L 2175.69,4643.39 L 2188.82,4647.51 L 2200.85,4654.19 L 2211.28,4663.15 L 2219.71,4674.03 L 2225.77,4686.38 L 2229.21,4699.7 L 2229.91,4713.44 L 2227.83,4727.04 L 2223.05,4739.95 L 2215.77,4751.62 L 2206.29,4761.59 L 2195,4769.45 L 2182.36,4774.88 L 2168.88,4777.65 L 2138,4778 L 2124.31,4776.61 L 2112.24,4772.82 L 2072.53,4812.53 L 2069.84,4814.73 L 2066.78,4816.37 L 2063.45,4817.38 L 2060,4817.72 L 1977.58,4817.72 L 1973.05,4829.95 L 1965.77,4841.62 L 1956.29,4851.59 L 1945,4859.45 L 1932.36,4864.88 L 1918.88,4867.65 L 1888,4868 L 1874.31,4866.61 L 1861.18,4862.49 L 1849.15,4855.81 L 1838.72,4846.85 L 1830.29,4835.97 L 1824.23,4823.62 L 1820.79,4810.3 L 1820.09,4796.56 L 1822.17,4782.96 L 1826.95,4770.05 L 1834.23,4758.38 L 1843.71,4748.41 L 1855,4740.55 L 1867.64,4735.12 L 1881.12,4732.35 L 1912,4732 L 1925.69,4733.39 L 1938.82,4737.51 L 1950.85,4744.19 L 1961.28,4753.15 L 1969.71,4764.03 L 1975.77,4776.38 L 1977.29,4782.28 L 2052.66,4782.28 L 2084.08,4750.86 z " style="fill-opacity:1.000000;fill:rgb(152,109,97);stroke:rgb(0,0,0);stroke-width:2"/></g>
<g fill-rule="evenodd"><path d="M 2084.08,4550.86 L 2080.29,4545.97 L 2074.23,4533.62 L 2070.79,4520.3 L 2070.09,4506.56 L 2072.17,4492.96 L 2076.95,4480.05 L 2084.23,4468.38 L 2093.71,4458.41 L 2105,4450.55 L 2117.64,4445.12 L 2131.12,4442.35 L 2162,4442 L 2175.69,4443.39 L 2188.82,4447.51 L 2200.85,4454.19 L 2211.28,4463.15 L 2219.71,4474.03 L 2225.77,4486.38 L 2229.21,4499.7 L 2229.91,4513.44 L 2227.83,4527.04 L 2223.05,4539.95 L 2215.77,4551.62 L 2206.29,4561.59 L 2195,4569.45 L 2182.36,4574.88 L 2168.88,4577.65 L 2138,4578 L 2124.31,4576.61 L 2112.24,4572.82 L 2072.53,4612.53 L 2069.84,4614.73 L 2066.78,4616.37 L 2063.45,4617.38 L 2060,4617.72 L 1977.58,4617.72 L 1973.05,4629.95 L 1965.77,4641.62 L 1956.29,4651.59 L 1945,4659.45 L 1932.36,4664.88 L 1918.88,4667.65 L 1888,4668 L 1874.31,4666.61 L 1861.18,4662.49 L 1849.15,4655.81 L 1838.72,4646.85 L 1830.29,4635.97 L 1824.23,4623.62 L 1820.79,4610.3 L 1820.09,4596.56 L 1822.17,4582.96 L 1826.95,4570.05 L 1834.23,4558.38 L 1843.71,4548.41 L 1855,4540.55 L 1867.64,4535.12 L 1881.12,4532.35 L 1912,4532 L 1925.69,4533.39 L 1938.82,4537.51 L 1950.85,4544.19 L 1961.28,4553.15 L 1969.71,4564.03 L 1975.77,4576.38 L 1977.29,4582.28 L 2052.66,4582.28 L 2084.08,4550.86 z " style="fill-opacity:1.000000;fill:rgb(255,52,161);stroke:rgb(0,0,0);stroke-width:2"/></g>
<g fill-rule="evenodd"><path d="M 1262.52,3929.65 L 1258.1,3922.01 L 1253.02,3906.36 L 1251.3,3890 L 1253.02,3873.64 L 1258.1,3857.99 L 1266.33,3843.74 L 1277.34,3831.52 L 1290.65,3821.85 L 1305.68,3815.15 L 1321.77,3811.73 L 1338.23,3811.73 L 1354.32,3815.15 L 1369.35,3821.85 L 1382.66,3831.52 L 1393.67,3843.74 L 1401.9,3857.99 L 1406.98,3873.64 L 1408.7,3890 L 1406.98,3906.36 L 1401.9,3922.01 L 1393.67,3936.26 L 1382.66,3948.49 L 1369.35,3958.16 L 1354.32,3964.85 L 1338.23,3968.27 L 1321.77,3968.27 L 1305.68,3964.85 L 1290.09,3957.75 L 1079.68,4168.15 L 1079.68,5671.85 L 1208.15,5800.32 L 2211.85,5800.32 L 2350.32,5661.85 L 2350.32,4278.16 L 2136.08,4063.92 L 2133.63,4060.94 L 2131.81,4057.53 L 2130.69,4053.84 L 2130.32,4050 L 2130.32,3877.24 L 2118.45,3873.52 L 2104.3,3865.66 L 2092.02,3855.12 L 2082.11,3842.32 L 2074.98,3827.78 L 2070.92,3812.11 L 2070.1,3795.95 L 2072.55,3779.95 L 2078.18,3764.77 L 2086.74,3751.03 L 2097.89,3739.3 L 2111.18,3730.05 L 2126.05,3723.67 L 2141.91,3720.41 L 2150,3720 L 2166.1,3721.64 L 2181.55,3726.48 L 2195.7,3734.34 L 2207.98,3744.88 L 2217.89,3757.68 L 2225.02,3772.22 L 2229.08,3787.89 L 2229.9,3804.05 L 2227.45,3820.05 L 2221.82,3835.23 L 2213.26,3848.97 L 2202.11,3860.7 L 2188.82,3869.95 L 2173.95,3876.33 L 2169.68,3877.21 L 2169.68,4041.85 L 2383.92,4256.08 L 2386.37,4259.07 L 2388.18,4262.47 L 2389.3,4266.16 L 2389.68,4270 L 2389.68,5670 L 2389.3,5673.84 L 2388.18,5677.53 L 2386.37,5680.94 L 2383.92,5683.92 L 2233.92,5833.92 L 2230.93,5836.37 L 2227.53,5838.19 L 2223.84,5839.31 L 2220,5839.68 L 1200,5839.68 L 1196.16,5839.31 L 1192.47,5838.19 L 1189.06,5836.37 L 1186.08,5833.92 L 1046.08,5693.92 L 1043.63,5690.94 L 1041.81,5687.53 L 1040.69,5683.84 L 1040.32,5680 L 1040.32,4160 L 1040.69,4156.16 L 1041.81,4152.47 L 1043.63,4149.07 L 1046.08,4146.08 L 1262.52,3929.65 z " style="fill-opacity:1.000000;fill:rgb(30,25,253);stroke:rgb(0,0,0);stroke-width:2"/></g>
<g fill-rule="evenodd"><path d="M 370,4257.84 L 276.08,4163.92 L 273.632,4160.94 L 271.814,4157.53 L 270.694,4153.84 L 270.316,4150 L 270.316,2900 L 270.694,2896.16 L 271.814,2892.47 L 273.632,2889.07 L 276.08,2886.08 L 366.08,2796.08 L 369.062,2793.63 L 372.466,2791.82 L 376.158,2790.7 L 380,2790.32 L 490,2790.32 L 493.84,2790.7 L 497.532,2791.82 L 500.934,2793.63 L 503.918,2796.08 L 610.704,2902.87 L 614.032,2900.29 L 626.384,2894.23 L 639.704,2890.79 L 653.444,2890.09 L 667.044,2892.17 L 679.946,2896.95 L 691.622,2904.23 L 701.594,2913.71 L 709.454,2925 L 714.88,2937.64 L 717.65,2951.12 L 718,2982 L 716.608,2995.69 L 712.488,3008.82 L 705.81,3020.85 L 696.848,3031.28 L 685.968,3039.71 L 673.616,3045.77 L 660.296,3049.21 L 646.556,3049.91 L 632.956,3047.83 L 620.054,3043.05 L 608.378,3035.77 L 598.406,3026.29 L 590.546,3015 L 585.12,3002.36 L 582.35,2988.88 L 582,2958 L 583.392,2944.31 L 586.516,2934.36 L 481.844,2829.68 L 388.154,2829.68 L 309.684,2908.15 L 309.684,4141.85 L 370,4202.16 L 370,4182 L 530,4182 L 530,4318 L 409.838,4318 L 319.684,4408.15 L 319.684,5421.85 L 379.836,5482 L 530,5482 L 530,5618 L 485.836,5618 L 578.152,5710.32 L 761.846,5710.32 L 920.316,5551.85 L 920.316,3960 L 920.694,3956.16 L 921.814,3952.47 L 923.632,3949.07 L 926.08,3946.08 L 1176.08,3696.08 L 1179.06,3693.63 L 1182.47,3691.82 L 1186.16,3690.7 L 1190,3690.32 L 1410,3690.32 L 1413.84,3690.7 L 1417.53,3691.82 L 1420.93,3693.63 L 1423.92,3696.08 L 1550.09,3822.25 L 1565.68,3815.15 L 1581.77,3811.73 L 1598.23,3811.73 L 1614.32,3815.15 L 1629.35,3821.85 L 1641.49,3830.67 L 1832.87,3639.29 L 1830.29,3635.97 L 1824.23,3623.62 L 1820.79,3610.3 L 1820.09,3596.56 L 1822.17,3582.96 L 1826.95,3570.05 L 1832.81,3560.65 L 1576.08,3303.92 L 1573.63,3300.94 L 1571.81,3297.53 L 1570.69,3293.84 L 1570.32,3286.85 L 1560.05,3283.05 L 1548.38,3275.77 L 1538.41,3266.29 L 1530.55,3255 L 1525.12,3242.36 L 1522.35,3228.88 L 1522,3198 L 1523.39,3184.31 L 1527.51,3171.18 L 1534.19,3159.15 L 1543.15,3148.72 L 1554.03,3140.29 L 1566.38,3134.23 L 1579.7,3130.79 L 1593.44,3130.09 L 1607.04,3132.17 L 1619.95,3136.95 L 1631.62,3144.23 L 1641.59,3153.71 L 1649.45,3165 L 1654.88,3177.64 L 1657.48,3190.32 L 1722.78,3190.32 L 1723.39,3184.31 L 1727.51,3171.18 L 1734.19,3159.15 L 1743.15,3148.72 L 1754.03,3140.29 L 1766.38,3134.23 L 1779.7,3130.79 L 1793.44,3130.09 L 1807.04,3132.17 L 1819.95,3136.95 L 1831.62,3144.23 L 1841.59,3153.71 L 1849.45,3165 L 1854.88,3177.64 L 1857.65,3191.12 L 1858,3222 L 1856.61,3235.69 L 1852.49,3248.82 L 1845.81,3260.85 L 1836.85,3271.28 L 1825.97,3279.71 L 1813.62,3285.77 L 1800.3,3289.21 L 1786.56,3289.91 L 1772.96,3287.83 L 1760.05,3283.05 L 1748.38,3275.77 L 1738.41,3266.29 L 1730.55,3255 L 1725.12,3242.36 L 1722.52,3229.68 L 1657.22,3229.68 L 1656.61,3235.69 L 1652.49,3248.82 L 1645.81,3260.85 L 1636.85,3271.28 L 1625.97,3279.71 L 1613.61,3285.77 L 1864.36,3536.53 L 1867.64,3535.12 L 1881.12,3532.35 L 1912,3532 L 1925.69,3533.39 L 1938.82,3537.51 L 1950.85,3544.19 L 1961.28,3553.15 L 1969.71,3564.03 L 1975.77,3576.38 L 1976.78,3580.32 L 2070,3580.32 L 2070,3520 L 2230,3520 L 2230,3680 L 2070,3680 L 2070,3619.68 L 1976.85,3619.68 L 1973.05,3629.95 L 1971.03,3633.19 L 2043.92,3706.08 L 2046.36,3709.07 L 2048.18,3712.47 L 2049.3,3716.16 L 2049.68,3720 L 2049.68,4181.85 L 2109.84,4242 L 2230,4242 L 2230,4362.16 L 2303.92,4436.08 L 2306.37,4439.07 L 2308.18,4442.47 L 2309.3,4446.16 L 2309.68,4450 L 2309.68,5020 L 2309.3,5023.84 L 2308.18,5027.53 L 2306.37,5030.94 L 2303.92,5033.92 L 2215.84,5122 L 2230,5122 L 2230,5258 L 2070,5258 L 2070,5122 L 2160.16,5122 L 2270.32,5011.85 L 2270.32,4458.16 L 2190.16,4378 L 2070,4378 L 2070,4257.84 L 2016.08,4203.92 L 2013.63,4200.94 L 2011.81,4197.53 L 2010.69,4193.84 L 2010.31,4190 L 2010.31,3728.16 L 1942.63,3660.47 L 1932.36,3664.88 L 1918.88,3667.65 L 1888,3668 L 1874.31,3666.61 L 1864.36,3663.48 L 1663.85,3863.99 L 1666.98,3873.64 L 1668.7,3890 L 1666.98,3906.36 L 1661.9,3922.01 L 1653.67,3936.26 L 1642.66,3948.49 L 1629.35,3958.16 L 1614.32,3964.85 L 1598.23,3968.27 L 1581.77,3968.27 L 1565.68,3964.85 L 1550.65,3958.16 L 1537.34,3948.49 L 1526.33,3936.26 L 1518.1,3922.01 L 1513.02,3906.36 L 1511.3,3890 L 1513.02,3873.64 L 1518.1,3857.99 L 1522.51,3850.36 L 1401.84,3729.68 L 1198.15,3729.68 L 959.684,3968.15 L 959.684,5560 L 959.304,5563.84 L 958.184,5567.53 L 956.366,5570.94 L 953.918,5573.92 L 783.918,5743.92 L 780.934,5746.37 L 777.532,5748.19 L 773.838,5749.31 L 770,5749.68 L 570,5749.68 L 566.158,5749.31 L 562.466,5748.19 L 559.064,5746.37 L 556.08,5743.92 L 436.08,5623.92 L 433.632,5620.94 L 432.064,5618 L 370,5618 L 370,5527.84 L 286.08,5443.92 L 283.632,5440.94 L 281.814,5437.53 L 280.694,5433.84 L 280.316,5430 L 280.316,4400 L 280.694,4396.16 L 281.814,4392.47 L 283.632,4389.07 L 286.08,4386.08 L 370,4302.16 L 370,4257.84 z " style="fill-opacity:1.000000;fill:rgb(54,80,233);stroke:rgb(0,0,0);stroke-width:2"/></g>
</svg>
