<?xml version="1.0" standalone="no"?>
<!DOCTYPE svg PUBLIC "-//W3C//DTD SVG 1.1//EN"
"http://www.w3.org/Graphics/SVG/1.1/DTD/svg11.dtd">
<svg width="2119" height="3455" viewBox="0 0 2119 3455" version="1.1"
xmlns="http://www.w3.org/2000/svg"
xmlns:xlink="http://www.w3.org/1999/xlink">
<g fill-rule="evenodd"><path d="M 408,809 L 408,801 L 408,795 L 408,789 L 408,786 L 409,779 L 409,771 L 409,767 L 409,760 L 409,754 L 409,744 L 409,741 L 409,731 L 411,730 L 419,725 L 423,722 L 430,717 L 434,715 L 442,710 L 446,707 L 452,703 L 456,701 L 464,696 L 468,693 L 475,688 L 479,686 L 479,686 L 484,687 L 494,690 L 499,691 L 506,693 L 510,695 L 520,697 L 524,698 L 529,700 L 533,701 L 543,703 L 547,704 L 551,706 L 555,707 L 565,709 L 569,711 L 574,712 L 578,713 L 588,716 L 592,717 L 599,719 L 604,721 L 614,723 L 619,725 L 619,725 L 619,735 L 619,736 L 619,750 L 619,752 L 619,763 L 619,766 L 619,775 L 619,778 L 619,786 L 619,789 L 619,796 L 619,800 L 619,806 L 619,810 L 619,814 L 619,837 L 619,840 L 619,844 L 619,851 L 619,853 L 618,854 L 615,860 L 608,872 L 605,877 L 596,888 L 593,892 L 584,902 L 580,905 L 570,914 L 566,917 L 555,926 L 550,929 L 538,936 L 531,939 L 520,944 L 518,942 L 514,941 L 510,940 L 501,935 L 497,934 L 495,933 L 492,931 L 482,927 L 479,926 L 477,925 L 473,923 L 464,919 L 461,918 L 458,917 L 455,915 L 445,911 L 441,909 L 441,909 L 433,905 L 419,898 L 410,893 L 409,892 L 398,886 L 397,885 L 397,882 L 398,877 L 400,869 L 401,865 L 402,854 L 402,852 L 404,845 L 404,842 L 406,831 L 407,821 L 407,814 L 408,810 L 408,809 z " style="fill-opacity:1.000000;fill:rgb(167,241,217);stroke:rgb(0,0,0);stroke-width:2"/></g>
<g fill-rule="evenodd"><path d="M 1329,3203 L 1329,3200 L 1329,3196 L 1329,3189 L 1329,3186 L 1329,3179 L 1329,3175 L 1329,3167 L 1329,3164 L 1329,3155 L 1329,3152 L 1329,3142 L 1329,3139 L 1329,3126 L 1329,3125 L 1329,3108 L 1329,3108 L 1329,3088 L 1329,3085 L 1329,3063 L 1329,3056 L 1329,3030 L 1329,3015 L 1329,2984 L 1329,2953 L 1329,2915 L 1330,2915 L 1331,2916 L 1354,2940 L 1373,2959 L 1387,2973 L 1403,2989 L 1412,2998 L 1426,3012 L 1432,3017 L 1445,3030 L 1448,3034 L 1460,3046 L 1462,3048 L 1473,3059 L 1474,3060 L 1485,3071 L 1486,3072 L 1496,3082 L 1496,3082 L 1506,3092 L 1506,3092 L 1516,3102 L 1516,3102 L 1525,3111 L 1525,3111 L 1529,3115 L 1529,3121 L 1528,3125 L 1527,3139 L 1527,3143 L 1527,3150 L 1527,3153 L 1526,3166 L 1525,3169 L 1525,3173 L 1525,3176 L 1524,3188 L 1524,3190 L 1524,3194 L 1524,3196 L 1523,3207 L 1523,3213 L 1523,3226 L 1523,3226 L 1523,3229 L 1524,3232 L 1524,3243 L 1525,3246 L 1525,3250 L 1525,3252 L 1526,3264 L 1526,3267 L 1526,3273 L 1526,3276 L 1527,3289 L 1528,3293 L 1528,3295 L 1522,3298 L 1508,3304 L 1500,3307 L 1486,3312 L 1479,3314 L 1466,3317 L 1460,3318 L 1446,3320 L 1441,3320 L 1427,3321 L 1422,3321 L 1408,3320 L 1402,3319 L 1388,3316 L 1382,3315 L 1368,3311 L 1361,3308 L 1347,3303 L 1338,3299 L 1329,3294 L 1329,3290 L 1329,3288 L 1329,3277 L 1329,3274 L 1329,3265 L 1329,3262 L 1329,3254 L 1329,3251 L 1329,3244 L 1329,3240 L 1329,3234 L 1329,3230 L 1329,3226 L 1329,3203 z " style="fill-opacity:1.000000;fill:rgb(42,130,200);stroke:rgb(0,0,0);stroke-width:2"/></g>
<g fill-rule="evenodd"><path d="M 1129,3203 L 1129,3200 L 1129,3196 L 1129,3189 L 1129,3186 L 1129,3179 L 1129,3175 L 1129,3167 L 1129,3164 L 1129,3155 L 1129,3152 L 1129,3142 L 1129,3139 L 1129,3126 L 1129,3125 L 1129,3108 L 1129,3108 L 1129,3088 L 1129,3085 L 1129,3063 L 1129,3056 L 1129,3030 L 1129,3015 L 1129,2984 L 1129,2953 L 1129,2952 L 1150,2923 L 1160,2910 L 1181,2884 L 1205,2858 L 1218,2844 L 1238,2824 L 1241,2827 L 1255,2840 L 1274,2861 L 1287,2873 L 1303,2889 L 1315,2900 L 1328,2914 L 1329,2915 L 1329,2953 L 1329,2984 L 1329,3015 L 1329,3030 L 1329,3056 L 1329,3063 L 1329,3085 L 1329,3088 L 1329,3108 L 1329,3108 L 1329,3125 L 1329,3126 L 1329,3139 L 1329,3142 L 1329,3152 L 1329,3155 L 1329,3164 L 1329,3167 L 1329,3175 L 1329,3179 L 1329,3186 L 1329,3189 L 1329,3196 L 1329,3200 L 1329,3203 L 1329,3226 L 1329,3230 L 1329,3234 L 1329,3240 L 1329,3244 L 1329,3251 L 1329,3254 L 1329,3262 L 1329,3265 L 1329,3274 L 1329,3277 L 1329,3288 L 1329,3290 L 1329,3294 L 1322,3298 L 1308,3304 L 1300,3307 L 1286,3312 L 1279,3314 L 1266,3317 L 1260,3318 L 1246,3320 L 1241,3320 L 1227,3321 L 1222,3321 L 1208,3320 L 1202,3319 L 1188,3316 L 1182,3315 L 1168,3311 L 1161,3308 L 1147,3303 L 1138,3299 L 1129,3294 L 1129,3290 L 1129,3288 L 1129,3277 L 1129,3274 L 1129,3265 L 1129,3262 L 1129,3254 L 1129,3251 L 1129,3244 L 1129,3240 L 1129,3234 L 1129,3230 L 1129,3226 L 1129,3203 z " style="fill-opacity:1.000000;fill:rgb(216,254,67);stroke:rgb(0,0,0);stroke-width:2"/></g>
<g fill-rule="evenodd"><path d="M 944,3203 L 944,3201 L 945,3187 L 945,3184 L 947,3170 L 948,3166 L 952,3152 L 953,3147 L 958,3133 L 961,3126 L 968,3113 L 973,3104 L 981,3090 L 990,3078 L 1000,3064 L 1014,3048 L 1027,3034 L 1051,3012 L 1067,2998 L 1110,2966 L 1129,2952 L 1129,2953 L 1129,2984 L 1129,3015 L 1129,3030 L 1129,3056 L 1129,3063 L 1129,3085 L 1129,3088 L 1129,3108 L 1129,3108 L 1129,3125 L 1129,3126 L 1129,3139 L 1129,3142 L 1129,3152 L 1129,3155 L 1129,3164 L 1129,3167 L 1129,3175 L 1129,3179 L 1129,3186 L 1129,3189 L 1129,3196 L 1129,3200 L 1129,3203 L 1129,3226 L 1129,3230 L 1129,3234 L 1129,3240 L 1129,3244 L 1129,3251 L 1129,3254 L 1129,3262 L 1129,3265 L 1129,3274 L 1129,3277 L 1129,3288 L 1129,3290 L 1129,3294 L 1122,3298 L 1108,3304 L 1100,3307 L 1086,3312 L 1079,3314 L 1066,3317 L 1060,3318 L 1046,3320 L 1041,3320 L 1027,3321 L 1022,3321 L 1008,3320 L 1002,3319 L 989,3317 L 989,3316 L 984,3313 L 973,3304 L 968,3300 L 959,3291 L 955,3287 L 954,3286 L 950,3273 L 949,3269 L 946,3255 L 946,3251 L 944,3237 L 944,3234 L 944,3203 z " style="fill-opacity:1.000000;fill:rgb(77,152,85);stroke:rgb(0,0,0);stroke-width:2"/></g>
<g fill-rule="evenodd"><path d="M 1403,2989 L 1387,2973 L 1373,2959 L 1354,2940 L 1331,2916 L 1330,2915 L 1368,2915 L 1398,2915 L 1429,2915 L 1444,2915 L 1470,2915 L 1477,2915 L 1499,2915 L 1502,2915 L 1522,2915 L 1522,2915 L 1539,2915 L 1540,2915 L 1554,2915 L 1556,2915 L 1566,2915 L 1569,2915 L 1578,2915 L 1581,2915 L 1589,2915 L 1593,2915 L 1600,2915 L 1603,2915 L 1610,2915 L 1614,2915 L 1617,2915 L 1641,2915 L 1644,2915 L 1648,2915 L 1654,2915 L 1658,2915 L 1665,2915 L 1668,2915 L 1676,2915 L 1680,2915 L 1689,2915 L 1691,2915 L 1702,2915 L 1704,2915 L 1718,2915 L 1719,2915 L 1736,2915 L 1736,2915 L 1740,2915 L 1747,2924 L 1750,2927 L 1751,2938 L 1751,2941 L 1751,2953 L 1751,2955 L 1752,2968 L 1752,2970 L 1752,2979 L 1753,2980 L 1753,2993 L 1753,2994 L 1754,3002 L 1754,3004 L 1754,3016 L 1754,3017 L 1755,3025 L 1755,3027 L 1755,3039 L 1755,3041 L 1756,3050 L 1756,3052 L 1756,3065 L 1756,3067 L 1757,3079 L 1757,3081 L 1758,3096 L 1758,3098 L 1758,3105 L 1755,3108 L 1752,3111 L 1750,3115 L 1736,3115 L 1736,3115 L 1719,3115 L 1718,3115 L 1704,3115 L 1702,3115 L 1691,3115 L 1689,3115 L 1680,3115 L 1676,3115 L 1668,3115 L 1665,3115 L 1658,3115 L 1654,3115 L 1648,3115 L 1644,3115 L 1641,3115 L 1617,3115 L 1614,3115 L 1610,3115 L 1603,3115 L 1600,3115 L 1593,3115 L 1589,3115 L 1581,3115 L 1578,3115 L 1569,3115 L 1566,3115 L 1556,3115 L 1554,3115 L 1540,3115 L 1539,3115 L 1529,3115 L 1525,3111 L 1525,3111 L 1516,3102 L 1516,3102 L 1506,3092 L 1506,3092 L 1496,3082 L 1496,3082 L 1486,3072 L 1485,3071 L 1474,3060 L 1473,3059 L 1462,3048 L 1460,3046 L 1448,3034 L 1445,3030 L 1432,3017 L 1426,3012 L 1412,2998 L 1403,2989 z " style="fill-opacity:1.000000;fill:rgb(140,226,179);stroke:rgb(0,0,0);stroke-width:2"/></g>
<g fill-rule="evenodd"><path d="M 1238,2824 L 1240,2764 L 1241,2750 L 1245,2714 L 1260,2714 L 1328,2715 L 1368,2715 L 1398,2715 L 1429,2715 L 1444,2715 L 1470,2715 L 1477,2715 L 1499,2715 L 1502,2715 L 1522,2715 L 1522,2715 L 1539,2715 L 1540,2715 L 1554,2715 L 1556,2715 L 1566,2715 L 1569,2715 L 1578,2715 L 1581,2715 L 1589,2715 L 1593,2715 L 1600,2715 L 1603,2715 L 1610,2715 L 1614,2715 L 1617,2715 L 1641,2715 L 1644,2715 L 1648,2715 L 1654,2715 L 1658,2715 L 1665,2715 L 1668,2715 L 1676,2715 L 1680,2715 L 1689,2715 L 1691,2715 L 1702,2715 L 1704,2715 L 1718,2715 L 1719,2715 L 1734,2715 L 1734,2717 L 1738,2731 L 1740,2737 L 1743,2745 L 1746,2756 L 1749,2769 L 1751,2779 L 1753,2793 L 1753,2802 L 1754,2816 L 1754,2825 L 1753,2839 L 1751,2848 L 1749,2862 L 1746,2873 L 1746,2873 L 1743,2887 L 1741,2901 L 1740,2915 L 1736,2915 L 1736,2915 L 1719,2915 L 1718,2915 L 1704,2915 L 1702,2915 L 1691,2915 L 1689,2915 L 1680,2915 L 1676,2915 L 1668,2915 L 1665,2915 L 1658,2915 L 1654,2915 L 1648,2915 L 1644,2915 L 1641,2915 L 1617,2915 L 1614,2915 L 1610,2915 L 1603,2915 L 1600,2915 L 1593,2915 L 1589,2915 L 1581,2915 L 1578,2915 L 1569,2915 L 1566,2915 L 1556,2915 L 1554,2915 L 1540,2915 L 1539,2915 L 1522,2915 L 1522,2915 L 1502,2915 L 1499,2915 L 1477,2915 L 1470,2915 L 1444,2915 L 1429,2915 L 1398,2915 L 1368,2915 L 1330,2915 L 1329,2915 L 1328,2914 L 1315,2900 L 1303,2889 L 1287,2873 L 1274,2861 L 1255,2840 L 1241,2827 L 1238,2824 z " style="fill-opacity:1.000000;fill:rgb(71,23,17);stroke:rgb(0,0,0);stroke-width:2"/></g>
<g fill-rule="evenodd"><path d="M 1435,1817 L 1456,1797 L 1469,1785 L 1485,1773 L 1499,1764 L 1510,1757 L 1524,1749 L 1533,1745 L 1547,1739 L 1554,1736 L 1559,1734 L 1562,1733 L 1565,1732 L 1567,1731 L 1571,1730 L 1573,1729 L 1574,1729 L 1579,1727 L 1582,1725 L 1585,1724 L 1587,1722 L 1590,1721 L 1591,1721 L 1593,1719 L 1601,1715 L 1603,1715 L 1610,1715 L 1614,1715 L 1617,1715 L 1641,1715 L 1644,1715 L 1648,1715 L 1654,1715 L 1658,1715 L 1665,1715 L 1668,1715 L 1676,1715 L 1680,1715 L 1689,1715 L 1691,1715 L 1694,1715 L 1699,1724 L 1703,1732 L 1710,1746 L 1712,1751 L 1717,1765 L 1718,1770 L 1721,1783 L 1722,1787 L 1723,1801 L 1724,1804 L 1724,1805 L 1724,1807 L 1724,1810 L 1724,1813 L 1725,1817 L 1725,1818 L 1726,1821 L 1726,1821 L 1726,1825 L 1727,1828 L 1728,1833 L 1729,1835 L 1729,1835 L 1731,1841 L 1734,1857 L 1736,1866 L 1738,1883 L 1739,1898 L 1738,1898 L 1733,1912 L 1732,1915 L 1719,1915 L 1718,1915 L 1704,1915 L 1702,1915 L 1691,1915 L 1689,1915 L 1680,1915 L 1676,1915 L 1668,1915 L 1665,1915 L 1658,1915 L 1654,1915 L 1648,1915 L 1644,1915 L 1641,1915 L 1617,1915 L 1614,1915 L 1610,1915 L 1603,1915 L 1600,1915 L 1593,1915 L 1589,1915 L 1581,1915 L 1578,1915 L 1569,1915 L 1566,1915 L 1556,1915 L 1554,1915 L 1540,1915 L 1539,1915 L 1522,1915 L 1522,1915 L 1502,1915 L 1499,1915 L 1477,1915 L 1470,1915 L 1444,1915 L 1432,1915 L 1431,1914 L 1421,1903 L 1419,1901 L 1406,1888 L 1398,1879 L 1389,1870 L 1391,1866 L 1421,1832 L 1435,1817 z " style="fill-opacity:1.000000;fill:rgb(152,84,47);stroke:rgb(0,0,0);stroke-width:2"/></g>
<g fill-rule="evenodd"><path d="M 1511,1414 L 1515,1406 L 1521,1393 L 1524,1388 L 1532,1376 L 1535,1372 L 1543,1361 L 1547,1358 L 1556,1348 L 1560,1345 L 1570,1336 L 1574,1333 L 1586,1325 L 1591,1322 L 1603,1315 L 1604,1315 L 1610,1315 L 1614,1315 L 1617,1315 L 1641,1315 L 1644,1315 L 1648,1315 L 1654,1315 L 1658,1315 L 1662,1315 L 1665,1316 L 1677,1324 L 1682,1327 L 1693,1335 L 1697,1339 L 1707,1348 L 1711,1352 L 1713,1354 L 1717,1365 L 1718,1370 L 1721,1383 L 1722,1387 L 1723,1401 L 1724,1404 L 1724,1418 L 1724,1421 L 1723,1435 L 1722,1438 L 1720,1452 L 1719,1456 L 1715,1469 L 1713,1474 L 1708,1488 L 1705,1495 L 1698,1509 L 1694,1515 L 1691,1515 L 1689,1515 L 1680,1515 L 1676,1515 L 1668,1515 L 1665,1515 L 1658,1515 L 1654,1515 L 1648,1515 L 1644,1515 L 1641,1515 L 1617,1515 L 1614,1515 L 1610,1515 L 1603,1515 L 1600,1515 L 1598,1515 L 1595,1512 L 1594,1511 L 1586,1501 L 1584,1498 L 1583,1497 L 1581,1495 L 1575,1488 L 1572,1485 L 1571,1484 L 1569,1481 L 1565,1476 L 1563,1474 L 1560,1471 L 1558,1469 L 1555,1466 L 1553,1464 L 1548,1459 L 1547,1457 L 1545,1455 L 1543,1453 L 1536,1447 L 1534,1444 L 1533,1444 L 1531,1441 L 1522,1433 L 1521,1431 L 1516,1427 L 1515,1425 L 1509,1420 L 1511,1414 z " style="fill-opacity:1.000000;fill:rgb(17,45,5);stroke:rgb(0,0,0);stroke-width:2"/></g>
<g fill-rule="evenodd"><path d="M 1510,1014 L 1507,1005 L 1502,991 L 1499,979 L 1496,966 L 1499,964 L 1507,960 L 1511,957 L 1518,954 L 1525,950 L 1531,946 L 1533,945 L 1539,942 L 1546,938 L 1551,935 L 1553,935 L 1558,932 L 1565,928 L 1570,925 L 1571,925 L 1576,922 L 1583,918 L 1588,915 L 1589,914 L 1595,911 L 1602,907 L 1608,904 L 1610,903 L 1617,899 L 1630,891 L 1640,885 L 1642,883 L 1648,880 L 1657,873 L 1663,870 L 1676,860 L 1684,855 L 1690,851 L 1692,851 L 1699,853 L 1713,856 L 1720,858 L 1725,859 L 1734,862 L 1749,865 L 1759,867 L 1761,868 L 1774,871 L 1792,874 L 1806,878 L 1807,878 L 1825,882 L 1851,887 L 1868,891 L 1875,892 L 1897,897 L 1920,902 L 1890,944 L 1876,961 L 1845,998 L 1831,1012 L 1809,1034 L 1799,1042 L 1795,1046 L 1780,1059 L 1769,1070 L 1759,1081 L 1750,1091 L 1742,1102 L 1734,1114 L 1733,1115 L 1719,1115 L 1718,1115 L 1704,1115 L 1702,1115 L 1691,1115 L 1689,1115 L 1680,1115 L 1676,1115 L 1668,1115 L 1665,1115 L 1658,1115 L 1654,1115 L 1648,1115 L 1644,1115 L 1641,1115 L 1617,1115 L 1614,1115 L 1610,1115 L 1603,1115 L 1600,1113 L 1594,1110 L 1582,1103 L 1578,1100 L 1567,1092 L 1563,1089 L 1553,1079 L 1550,1076 L 1541,1066 L 1538,1062 L 1529,1050 L 1526,1046 L 1519,1033 L 1516,1027 L 1510,1014 z " style="fill-opacity:1.000000;fill:rgb(88,245,107);stroke:rgb(0,0,0);stroke-width:2"/></g>
<g fill-rule="evenodd"><path d="M 310,1614 L 314,1606 L 320,1593 L 323,1588 L 331,1576 L 334,1571 L 343,1561 L 346,1557 L 356,1547 L 359,1544 L 370,1535 L 374,1532 L 386,1524 L 391,1521 L 401,1515 L 404,1515 L 410,1515 L 414,1515 L 417,1515 L 441,1515 L 444,1515 L 448,1515 L 455,1515 L 458,1515 L 465,1515 L 469,1515 L 477,1515 L 480,1515 L 489,1515 L 492,1515 L 502,1515 L 505,1515 L 518,1515 L 519,1515 L 536,1515 L 536,1515 L 556,1515 L 559,1515 L 570,1515 L 571,1520 L 571,1523 L 571,1525 L 573,1543 L 573,1544 L 573,1548 L 574,1558 L 575,1564 L 575,1568 L 576,1573 L 576,1575 L 578,1587 L 579,1601 L 579,1615 L 579,1629 L 578,1643 L 576,1658 L 573,1671 L 570,1687 L 566,1701 L 561,1715 L 559,1715 L 556,1715 L 536,1715 L 536,1715 L 519,1715 L 518,1715 L 505,1715 L 502,1715 L 492,1715 L 489,1715 L 480,1715 L 477,1715 L 469,1715 L 465,1715 L 458,1715 L 455,1715 L 448,1715 L 444,1715 L 441,1715 L 417,1715 L 414,1715 L 410,1715 L 404,1715 L 400,1715 L 393,1715 L 390,1715 L 382,1715 L 379,1715 L 369,1715 L 367,1715 L 356,1715 L 354,1715 L 340,1715 L 339,1715 L 322,1715 L 322,1715 L 321,1715 L 318,1705 L 318,1701 L 316,1691 L 314,1686 L 312,1677 L 312,1674 L 310,1666 L 309,1661 L 307,1652 L 307,1651 L 305,1643 L 303,1637 L 303,1634 L 305,1628 L 310,1614 z " style="fill-opacity:1.000000;fill:rgb(214,136,7);stroke:rgb(0,0,0);stroke-width:2"/></g>
<g fill-rule="evenodd"><path d="M 304,1814 L 304,1805 L 305,1797 L 305,1791 L 305,1781 L 305,1766 L 303,1752 L 302,1744 L 303,1743 L 306,1737 L 310,1731 L 314,1726 L 318,1719 L 321,1715 L 322,1715 L 322,1715 L 339,1715 L 340,1715 L 354,1715 L 356,1715 L 367,1715 L 369,1715 L 379,1715 L 382,1715 L 390,1715 L 393,1715 L 400,1715 L 404,1715 L 410,1715 L 414,1715 L 417,1715 L 441,1715 L 444,1715 L 448,1715 L 455,1715 L 458,1715 L 465,1715 L 469,1715 L 477,1715 L 480,1715 L 489,1715 L 492,1715 L 502,1715 L 505,1715 L 518,1715 L 519,1715 L 536,1715 L 536,1715 L 556,1715 L 559,1715 L 561,1715 L 565,1728 L 570,1744 L 573,1758 L 576,1773 L 578,1787 L 579,1801 L 579,1815 L 579,1829 L 578,1843 L 576,1858 L 573,1871 L 570,1887 L 566,1901 L 561,1915 L 559,1915 L 556,1915 L 536,1915 L 536,1915 L 519,1915 L 518,1915 L 505,1915 L 502,1915 L 492,1915 L 489,1915 L 480,1915 L 477,1915 L 469,1915 L 465,1915 L 458,1915 L 455,1915 L 448,1915 L 444,1915 L 441,1915 L 417,1915 L 414,1915 L 410,1915 L 404,1915 L 400,1915 L 393,1915 L 390,1915 L 382,1915 L 379,1915 L 369,1915 L 367,1915 L 356,1915 L 354,1915 L 340,1915 L 339,1915 L 326,1915 L 325,1912 L 320,1899 L 315,1885 L 312,1874 L 309,1860 L 307,1851 L 305,1837 L 305,1828 L 304,1814 z " style="fill-opacity:1.000000;fill:rgb(153,146,72);stroke:rgb(0,0,0);stroke-width:2"/></g>
<g fill-rule="evenodd"><path d="M 266,2016 L 279,2001 L 289,1988 L 297,1978 L 304,1966 L 309,1956 L 315,1943 L 319,1933 L 320,1932 L 325,1918 L 326,1915 L 339,1915 L 340,1915 L 354,1915 L 356,1915 L 367,1915 L 369,1915 L 379,1915 L 382,1915 L 390,1915 L 393,1915 L 400,1915 L 404,1915 L 410,1915 L 414,1915 L 417,1915 L 441,1915 L 444,1915 L 448,1915 L 455,1915 L 458,1915 L 465,1915 L 469,1915 L 477,1915 L 480,1915 L 489,1915 L 492,1915 L 502,1915 L 505,1915 L 518,1915 L 519,1915 L 536,1915 L 536,1915 L 556,1915 L 559,1915 L 561,1915 L 565,1928 L 570,1944 L 573,1958 L 576,1973 L 578,1987 L 579,2001 L 579,2015 L 579,2029 L 578,2043 L 576,2058 L 573,2071 L 570,2087 L 566,2101 L 561,2115 L 559,2115 L 556,2115 L 536,2115 L 536,2115 L 519,2115 L 518,2115 L 505,2115 L 502,2115 L 492,2115 L 489,2115 L 480,2115 L 477,2115 L 469,2115 L 465,2115 L 458,2115 L 455,2115 L 448,2115 L 444,2115 L 441,2115 L 417,2115 L 414,2115 L 410,2115 L 404,2115 L 400,2115 L 393,2115 L 390,2115 L 382,2115 L 379,2115 L 369,2115 L 367,2115 L 356,2115 L 354,2115 L 340,2115 L 339,2115 L 322,2115 L 322,2115 L 321,2115 L 318,2111 L 313,2104 L 310,2099 L 306,2092 L 302,2088 L 298,2081 L 295,2076 L 291,2069 L 287,2064 L 282,2057 L 279,2052 L 274,2045 L 269,2038 L 264,2030 L 261,2025 L 260,2023 L 266,2016 z " style="fill-opacity:1.000000;fill:rgb(51,98,65);stroke:rgb(0,0,0);stroke-width:2"/></g>
<g fill-rule="evenodd"><path d="M 309,2214 L 306,2205 L 303,2196 L 304,2191 L 304,2189 L 306,2181 L 307,2176 L 309,2168 L 309,2166 L 311,2157 L 313,2152 L 315,2143 L 315,2140 L 317,2130 L 319,2125 L 321,2115 L 322,2115 L 322,2115 L 339,2115 L 340,2115 L 354,2115 L 356,2115 L 367,2115 L 369,2115 L 379,2115 L 382,2115 L 390,2115 L 393,2115 L 400,2115 L 404,2115 L 410,2115 L 414,2115 L 417,2115 L 441,2115 L 444,2115 L 448,2115 L 455,2115 L 458,2115 L 465,2115 L 469,2115 L 477,2115 L 480,2115 L 489,2115 L 492,2115 L 502,2115 L 505,2115 L 518,2115 L 519,2115 L 536,2115 L 536,2115 L 556,2115 L 559,2115 L 561,2115 L 565,2127 L 570,2144 L 573,2158 L 576,2173 L 578,2187 L 579,2201 L 579,2215 L 579,2229 L 578,2243 L 576,2258 L 573,2271 L 570,2287 L 566,2301 L 561,2315 L 559,2315 L 556,2315 L 536,2315 L 536,2315 L 519,2315 L 518,2315 L 505,2315 L 502,2315 L 492,2315 L 489,2315 L 480,2315 L 477,2315 L 469,2315 L 465,2315 L 458,2315 L 455,2315 L 448,2315 L 444,2315 L 441,2315 L 417,2315 L 414,2315 L 410,2315 L 404,2315 L 401,2315 L 400,2314 L 394,2311 L 382,2304 L 377,2301 L 366,2292 L 363,2289 L 352,2280 L 349,2276 L 340,2266 L 337,2262 L 329,2251 L 326,2246 L 318,2233 L 315,2227 L 309,2214 z " style="fill-opacity:1.000000;fill:rgb(243,13,35);stroke:rgb(0,0,0);stroke-width:2"/></g>
<g fill-rule="evenodd"><path d="M 954,2108 L 954,2102 L 954,2086 L 955,2080 L 956,2074 L 962,2065 L 965,2060 L 975,2047 L 978,2043 L 990,2031 L 993,2028 L 1006,2017 L 1010,2014 L 1023,2005 L 1029,2002 L 1044,1993 L 1051,1990 L 1067,1983 L 1077,1980 L 1095,1974 L 1110,1971 L 1129,1967 L 1151,1965 L 1172,1963 L 1189,1962 L 1199,1953 L 1211,1943 L 1231,1927 L 1245,1918 L 1268,1904 L 1283,1896 L 1311,1882 L 1327,1876 L 1354,1866 L 1361,1867 L 1378,1868 L 1389,1870 L 1398,1879 L 1406,1888 L 1419,1901 L 1421,1903 L 1431,1914 L 1432,1915 L 1444,1915 L 1470,1915 L 1477,1915 L 1499,1915 L 1502,1915 L 1522,1915 L 1522,1915 L 1539,1915 L 1540,1915 L 1554,1915 L 1556,1915 L 1566,1915 L 1569,1915 L 1578,1915 L 1581,1915 L 1589,1915 L 1593,1915 L 1600,1915 L 1603,1915 L 1610,1915 L 1614,1915 L 1617,1915 L 1641,1915 L 1644,1915 L 1648,1915 L 1654,1915 L 1658,1915 L 1665,1915 L 1668,1915 L 1676,1915 L 1680,1915 L 1689,1915 L 1691,1915 L 1702,1915 L 1704,1915 L 1718,1915 L 1719,1915 L 1732,1915 L 1733,1918 L 1738,1931 L 1743,1945 L 1746,1956 L 1749,1969 L 1751,1979 L 1753,1993 L 1753,1993 L 1754,2002 L 1757,2016 L 1760,2026 L 1765,2041 L 1766,2044 L 1763,2052 L 1762,2053 L 1757,2064 L 1756,2065 L 1751,2075 L 1751,2076 L 1745,2087 L 1745,2088 L 1740,2099 L 1740,2099 L 1734,2111 L 1733,2112 L 1732,2115 L 1719,2115 L 1718,2115 L 1704,2115 L 1702,2115 L 1691,2115 L 1689,2115 L 1680,2115 L 1676,2115 L 1668,2115 L 1665,2115 L 1658,2115 L 1654,2115 L 1648,2115 L 1644,2115 L 1641,2115 L 1617,2115 L 1614,2115 L 1610,2115 L 1603,2115 L 1601,2115 L 1591,2121 L 1585,2124 L 1574,2132 L 1570,2135 L 1569,2135 L 1567,2137 L 1564,2139 L 1560,2142 L 1558,2143 L 1557,2143 L 1554,2146 L 1553,2146 L 1550,2148 L 1545,2151 L 1542,2152 L 1541,2153 L 1539,2154 L 1535,2156 L 1521,2163 L 1512,2169 L 1499,2178 L 1487,2188 L 1473,2200 L 1456,2216 L 1452,2220 L 1448,2230 L 1448,2232 L 1440,2254 L 1439,2256 L 1434,2269 L 1432,2275 L 1423,2302 L 1420,2312 L 1419,2315 L 1408,2325 L 1405,2329 L 1394,2340 L 1380,2353 L 1366,2367 L 1364,2369 L 1352,2381 L 1327,2405 L 1311,2422 L 1309,2424 L 1295,2438 L 1246,2486 L 1242,2490 L 1231,2478 L 1209,2449 L 1189,2420 L 1155,2396 L 1124,2373 L 1104,2357 L 1067,2324 L 1051,2307 L 1029,2284 L 1016,2267 L 1003,2250 L 993,2233 L 985,2220 L 977,2204 L 972,2194 L 966,2178 L 964,2170 L 959,2153 L 958,2147 L 955,2130 L 954,2124 L 954,2108 z " style="fill-opacity:1.000000;fill:rgb(229,95,48);stroke:rgb(0,0,0);stroke-width:2"/></g>
<g fill-rule="evenodd"><path d="M 69,1263 L 69,1257 L 70,1243 L 71,1237 L 74,1223 L 75,1216 L 79,1202 L 82,1194 L 88,1180 L 92,1170 L 95,1165 L 104,1165 L 106,1165 L 117,1165 L 119,1165 L 129,1165 L 132,1165 L 140,1165 L 143,1165 L 150,1165 L 154,1165 L 160,1165 L 164,1165 L 168,1165 L 191,1165 L 194,1165 L 198,1165 L 205,1165 L 207,1165 L 218,1159 L 223,1156 L 234,1148 L 238,1145 L 249,1136 L 253,1133 L 262,1123 L 265,1120 L 274,1109 L 277,1104 L 285,1092 L 288,1087 L 294,1074 L 298,1067 L 303,1053 L 306,1046 L 305,1043 L 303,1037 L 302,1029 L 301,1028 L 300,1020 L 298,1014 L 296,1006 L 296,1004 L 294,994 L 293,989 L 291,979 L 290,975 L 287,964 L 286,959 L 286,959 L 295,947 L 303,936 L 308,930 L 315,927 L 315,927 L 328,921 L 328,921 L 338,915 L 339,915 L 349,910 L 351,909 L 360,905 L 362,904 L 370,899 L 374,897 L 381,894 L 385,892 L 392,888 L 397,885 L 398,886 L 409,892 L 410,893 L 419,898 L 433,905 L 441,909 L 441,909 L 445,911 L 455,915 L 458,917 L 461,918 L 464,919 L 473,923 L 477,925 L 479,926 L 482,927 L 492,931 L 495,933 L 497,934 L 501,935 L 510,940 L 514,941 L 518,942 L 520,944 L 531,939 L 538,936 L 550,929 L 555,926 L 566,917 L 570,914 L 580,905 L 584,902 L 593,892 L 596,888 L 605,877 L 608,872 L 615,860 L 618,854 L 619,853 L 619,851 L 619,844 L 619,840 L 619,837 L 619,814 L 619,810 L 619,806 L 619,800 L 619,796 L 619,789 L 619,786 L 619,778 L 619,775 L 619,766 L 619,763 L 619,752 L 619,750 L 619,736 L 619,735 L 619,725 L 623,722 L 630,717 L 634,715 L 642,710 L 646,707 L 652,703 L 656,701 L 664,696 L 668,693 L 675,688 L 679,686 L 679,686 L 684,687 L 694,690 L 699,691 L 706,693 L 710,695 L 720,697 L 724,698 L 729,700 L 733,701 L 743,703 L 747,704 L 751,706 L 755,707 L 757,708 L 770,704 L 777,701 L 791,695 L 796,692 L 809,685 L 813,682 L 824,674 L 828,671 L 838,662 L 841,659 L 850,649 L 853,646 L 861,635 L 864,631 L 871,619 L 874,614 L 880,601 L 882,597 L 895,566 L 898,556 L 903,541 L 906,526 L 909,510 L 912,489 L 913,480 L 1058,335 L 1064,329 L 1065,329 L 1068,327 L 1086,322 L 1090,321 L 1107,318 L 1110,317 L 1126,316 L 1130,315 L 1138,315 L 1169,315 L 1192,300 L 1214,290 L 1218,291 L 1238,296 L 1247,298 L 1249,299 L 1263,304 L 1269,306 L 1285,310 L 1290,311 L 1306,314 L 1311,314 L 1327,315 L 1330,315 L 1338,315 L 1341,315 L 1357,313 L 1362,313 L 1378,309 L 1383,308 L 1400,303 L 1406,300 L 1409,299 L 1424,294 L 1436,291 L 1460,288 L 1479,286 L 1479,335 L 1479,495 L 1479,518 L 1461,529 L 1444,537 L 1426,542 L 1409,543 L 1249,543 L 1230,542 L 1211,536 L 1193,527 L 1174,514 L 1157,521 L 1150,524 L 1146,526 L 1135,532 L 1133,533 L 1123,539 L 1120,542 L 1111,549 L 1108,552 L 1104,556 L 964,696 L 954,698 L 943,701 L 928,706 L 921,709 L 907,715 L 901,718 L 889,725 L 885,728 L 873,736 L 870,739 L 860,748 L 857,751 L 847,761 L 845,764 L 836,775 L 833,779 L 826,791 L 823,797 L 819,805 L 819,806 L 819,810 L 819,814 L 819,837 L 819,840 L 819,844 L 819,851 L 819,854 L 819,861 L 819,865 L 819,873 L 819,876 L 819,885 L 819,888 L 819,898 L 819,901 L 819,914 L 819,915 L 819,932 L 819,932 L 819,949 L 817,953 L 813,961 L 809,965 L 795,976 L 784,984 L 767,995 L 755,1002 L 735,1012 L 721,1018 L 713,1022 L 653,1081 L 612,1098 L 602,1102 L 599,1103 L 581,1108 L 577,1109 L 560,1113 L 558,1113 L 555,1114 L 553,1115 L 536,1115 L 536,1115 L 519,1115 L 518,1115 L 505,1115 L 502,1115 L 492,1115 L 489,1115 L 480,1115 L 477,1115 L 469,1115 L 465,1115 L 458,1115 L 455,1115 L 448,1115 L 444,1115 L 441,1115 L 417,1115 L 414,1115 L 410,1115 L 404,1115 L 401,1115 L 391,1121 L 386,1124 L 374,1132 L 370,1135 L 359,1144 L 356,1147 L 346,1157 L 343,1161 L 334,1172 L 331,1176 L 323,1188 L 320,1193 L 314,1206 L 310,1214 L 305,1228 L 303,1235 L 303,1237 L 305,1243 L 306,1246 L 303,1253 L 298,1267 L 294,1274 L 288,1287 L 285,1292 L 277,1304 L 274,1309 L 265,1320 L 262,1323 L 253,1333 L 249,1336 L 238,1345 L 234,1348 L 223,1356 L 218,1359 L 207,1365 L 205,1365 L 198,1365 L 194,1365 L 191,1365 L 168,1365 L 164,1365 L 160,1365 L 154,1365 L 150,1365 L 143,1365 L 140,1365 L 132,1365 L 129,1365 L 119,1365 L 117,1365 L 106,1365 L 104,1365 L 95,1365 L 93,1362 L 87,1348 L 83,1339 L 78,1325 L 76,1317 L 73,1304 L 72,1297 L 70,1283 L 69,1277 L 69,1263 z " style="fill-opacity:1.000000;fill:rgb(209,200,237);stroke:rgb(0,0,0);stroke-width:2"/></g>
<g fill-rule="evenodd"><path d="M 2119,405 L 2119,459 L 2116,459 L 2052,477 L 1993,495 L 1925,518 L 1898,526 L 1836,544 L 1818,549 L 1787,557 L 1773,560 L 1753,563 L 1741,565 L 1725,567 L 1718,568 L 1713,572 L 1708,576 L 1705,578 L 1701,582 L 1695,587 L 1692,589 L 1691,590 L 1683,595 L 1681,597 L 1680,598 L 1676,600 L 1672,603 L 1664,610 L 1655,617 L 1648,624 L 1641,632 L 1609,645 L 1605,646 L 1602,647 L 1596,649 L 1593,650 L 1587,651 L 1584,651 L 1579,652 L 1575,652 L 1573,652 L 1279,652 L 1276,652 L 1273,652 L 1268,653 L 1264,653 L 1259,655 L 1256,655 L 1250,657 L 1246,658 L 1243,660 L 1187,683 L 1170,700 L 1168,701 L 1152,704 L 1142,707 L 1128,712 L 1121,714 L 1107,720 L 1103,723 L 1090,730 L 1087,732 L 1075,740 L 1073,742 L 1062,751 L 1060,754 L 1051,764 L 1049,766 L 1040,777 L 1038,781 L 1031,793 L 1028,797 L 1022,810 L 1021,814 L 1019,818 L 1019,837 L 1019,840 L 1019,844 L 1019,851 L 1019,854 L 1019,861 L 1019,865 L 1019,873 L 1019,876 L 1019,885 L 1019,888 L 1019,898 L 1019,901 L 1019,914 L 1019,915 L 1019,932 L 1019,932 L 1019,949 L 1019,949 L 1019,979 L 1018,982 L 1015,999 L 1014,1005 L 1013,1010 L 1012,1013 L 1012,1016 L 1010,1026 L 1009,1031 L 1008,1034 L 1008,1037 L 1005,1049 L 1004,1053 L 1004,1054 L 1001,1065 L 1000,1069 L 999,1073 L 997,1083 L 996,1086 L 993,1099 L 988,1126 L 986,1140 L 984,1165 L 919,1191 L 908,1196 L 905,1198 L 886,1208 L 882,1210 L 866,1221 L 863,1223 L 848,1235 L 845,1238 L 838,1244 L 788,1294 L 782,1301 L 779,1303 L 764,1315 L 762,1317 L 745,1328 L 742,1330 L 723,1340 L 720,1342 L 709,1346 L 645,1373 L 641,1370 L 628,1360 L 604,1343 L 590,1334 L 571,1324 L 557,1317 L 553,1315 L 536,1315 L 536,1315 L 519,1315 L 518,1315 L 505,1315 L 502,1315 L 492,1315 L 489,1315 L 480,1315 L 477,1315 L 469,1315 L 465,1315 L 458,1315 L 455,1315 L 448,1315 L 444,1315 L 441,1315 L 417,1315 L 414,1315 L 410,1315 L 404,1315 L 401,1315 L 391,1321 L 386,1324 L 374,1332 L 370,1335 L 359,1344 L 356,1347 L 346,1357 L 343,1361 L 334,1371 L 331,1376 L 323,1388 L 320,1393 L 314,1406 L 310,1414 L 305,1428 L 303,1434 L 303,1437 L 305,1443 L 306,1446 L 303,1452 L 298,1467 L 294,1474 L 288,1487 L 285,1492 L 277,1504 L 274,1509 L 265,1519 L 262,1523 L 253,1533 L 249,1536 L 238,1545 L 234,1548 L 223,1556 L 218,1559 L 207,1565 L 205,1565 L 198,1565 L 194,1565 L 191,1565 L 168,1565 L 164,1565 L 160,1565 L 154,1565 L 150,1565 L 143,1565 L 140,1565 L 132,1565 L 129,1565 L 119,1565 L 117,1565 L 106,1565 L 104,1565 L 95,1565 L 93,1562 L 87,1548 L 83,1539 L 78,1525 L 76,1517 L 73,1504 L 72,1497 L 70,1483 L 69,1477 L 69,1463 L 69,1457 L 70,1443 L 71,1437 L 74,1423 L 75,1416 L 79,1402 L 82,1394 L 88,1380 L 92,1370 L 95,1365 L 104,1365 L 106,1365 L 117,1365 L 119,1365 L 129,1365 L 132,1365 L 140,1365 L 143,1365 L 150,1365 L 154,1365 L 160,1365 L 164,1365 L 168,1365 L 191,1365 L 194,1365 L 198,1365 L 205,1365 L 207,1365 L 218,1359 L 223,1356 L 234,1348 L 238,1345 L 249,1336 L 253,1333 L 262,1323 L 265,1320 L 274,1309 L 277,1304 L 285,1292 L 288,1287 L 294,1274 L 298,1267 L 303,1253 L 306,1246 L 305,1243 L 303,1237 L 303,1235 L 305,1228 L 310,1214 L 314,1206 L 320,1193 L 323,1188 L 331,1176 L 334,1172 L 343,1161 L 346,1157 L 356,1147 L 359,1144 L 370,1135 L 374,1132 L 386,1124 L 391,1121 L 401,1115 L 404,1115 L 410,1115 L 414,1115 L 417,1115 L 441,1115 L 444,1115 L 448,1115 L 455,1115 L 458,1115 L 465,1115 L 469,1115 L 477,1115 L 480,1115 L 489,1115 L 492,1115 L 502,1115 L 505,1115 L 518,1115 L 519,1115 L 536,1115 L 536,1115 L 553,1115 L 555,1114 L 558,1113 L 560,1113 L 577,1109 L 581,1108 L 599,1103 L 602,1102 L 612,1098 L 653,1081 L 713,1022 L 721,1018 L 735,1012 L 755,1002 L 767,995 L 784,984 L 795,976 L 809,965 L 813,961 L 817,953 L 819,949 L 819,932 L 819,932 L 819,915 L 819,914 L 819,901 L 819,898 L 819,888 L 819,885 L 819,876 L 819,873 L 819,865 L 819,861 L 819,854 L 819,851 L 819,844 L 819,840 L 819,837 L 819,814 L 819,810 L 819,806 L 819,805 L 823,797 L 826,791 L 833,779 L 836,775 L 845,764 L 847,761 L 857,751 L 860,748 L 870,739 L 873,736 L 885,728 L 889,725 L 901,718 L 907,715 L 921,709 L 928,706 L 943,701 L 954,698 L 964,696 L 1104,556 L 1108,552 L 1111,549 L 1120,542 L 1123,539 L 1133,533 L 1135,532 L 1146,526 L 1150,524 L 1157,521 L 1174,514 L 1193,527 L 1211,536 L 1230,542 L 1249,543 L 1409,543 L 1426,542 L 1444,537 L 1461,529 L 1479,518 L 1479,495 L 1479,335 L 1479,286 L 1479,285 L 1499,288 L 1518,291 L 1538,296 L 1547,298 L 1549,299 L 1563,304 L 1569,306 L 1585,310 L 1590,311 L 1606,314 L 1611,314 L 1627,315 L 1630,315 L 1638,315 L 1641,315 L 1657,313 L 1662,313 L 1678,309 L 1683,308 L 1700,303 L 1706,300 L 1709,299 L 1724,294 L 1736,291 L 1760,288 L 1792,284 L 1833,282 L 1986,278 L 1992,278 L 2119,405 z " style="fill-opacity:1.000000;fill:rgb(97,12,75);stroke:rgb(0,0,0);stroke-width:2"/></g>
<g fill-rule="evenodd"><path d="M 679,574 L 679,570 L 679,566 L 679,560 L 679,556 L 679,549 L 679,546 L 679,538 L 679,535 L 679,526 L 679,523 L 679,512 L 679,510 L 679,496 L 679,495 L 679,478 L 679,478 L 679,462 L 679,461 L 679,453 L 679,445 L 679,442 L 681,425 L 682,422 L 684,407 L 686,405 L 688,402 L 698,389 L 701,387 L 707,381 L 945,143 L 949,138 L 951,136 L 965,125 L 969,122 L 969,122 L 987,119 L 990,118 L 1005,117 L 1008,117 L 1017,116 L 1202,116 L 1209,113 L 1226,106 L 1239,101 L 1256,96 L 1267,93 L 1284,89 L 1294,88 L 1311,86 L 1318,85 L 1326,85 L 1334,85 L 1350,86 L 1361,87 L 1377,90 L 1388,92 L 1404,96 L 1417,100 L 1433,106 L 1448,113 L 1464,121 L 1479,129 L 1479,131 L 1479,133 L 1479,151 L 1479,151 L 1479,168 L 1479,168 L 1479,184 L 1479,185 L 1479,200 L 1479,200 L 1479,215 L 1479,216 L 1479,230 L 1479,231 L 1479,246 L 1479,246 L 1479,262 L 1479,262 L 1479,279 L 1479,280 L 1479,285 L 1479,286 L 1460,288 L 1436,291 L 1424,294 L 1409,299 L 1406,300 L 1400,303 L 1383,308 L 1378,309 L 1362,313 L 1357,313 L 1341,315 L 1338,315 L 1330,315 L 1327,315 L 1311,314 L 1306,314 L 1290,311 L 1285,310 L 1269,306 L 1263,304 L 1249,299 L 1247,298 L 1238,296 L 1218,291 L 1214,290 L 1192,300 L 1169,315 L 1138,315 L 1130,315 L 1126,316 L 1110,317 L 1107,318 L 1090,321 L 1086,322 L 1068,327 L 1065,329 L 1064,329 L 1058,335 L 913,480 L 912,489 L 909,510 L 906,526 L 903,541 L 898,556 L 895,566 L 882,597 L 880,601 L 874,614 L 871,619 L 864,631 L 861,635 L 853,646 L 850,649 L 841,659 L 838,662 L 828,671 L 824,674 L 813,682 L 809,685 L 796,692 L 791,695 L 777,701 L 770,704 L 757,708 L 755,707 L 751,706 L 747,704 L 743,703 L 733,701 L 729,700 L 724,698 L 720,697 L 710,695 L 706,693 L 699,691 L 694,690 L 684,687 L 679,686 L 679,686 L 679,675 L 679,674 L 679,661 L 679,658 L 679,648 L 679,645 L 679,636 L 679,633 L 679,625 L 679,621 L 679,614 L 679,611 L 679,604 L 679,600 L 679,597 L 679,574 z " style="fill-opacity:1.000000;fill:rgb(2,53,57);stroke:rgb(0,0,0);stroke-width:2"/></g>
<g fill-rule="evenodd"><path d="M 2119,811 L 2108,816 L 2092,823 L 2013,859 L 2001,865 L 1959,885 L 1945,891 L 1933,896 L 1920,902 L 1897,897 L 1875,892 L 1868,891 L 1851,887 L 1825,882 L 1807,878 L 1806,878 L 1792,874 L 1774,871 L 1761,868 L 1759,867 L 1749,865 L 1734,862 L 1725,859 L 1720,858 L 1713,856 L 1699,853 L 1692,851 L 1690,851 L 1687,847 L 1682,841 L 1678,836 L 1669,822 L 1661,811 L 1658,805 L 1652,797 L 1650,793 L 1646,786 L 1642,781 L 1639,775 L 1636,770 L 1636,770 L 1623,761 L 1614,756 L 1600,749 L 1593,745 L 1579,740 L 1574,738 L 1560,734 L 1556,733 L 1542,731 L 1539,730 L 1525,729 L 1522,729 L 1508,729 L 1504,730 L 1491,731 L 1487,732 L 1473,735 L 1468,737 L 1455,741 L 1449,744 L 1435,750 L 1427,754 L 1419,759 L 1414,756 L 1400,749 L 1393,745 L 1379,740 L 1374,738 L 1360,734 L 1356,733 L 1342,731 L 1339,730 L 1325,729 L 1322,729 L 1308,729 L 1304,730 L 1294,731 L 1291,733 L 1288,735 L 1277,743 L 1274,744 L 1264,754 L 1262,755 L 1253,766 L 1251,768 L 1243,779 L 1241,781 L 1234,794 L 1231,797 L 1225,811 L 1224,813 L 1219,826 L 1219,837 L 1219,840 L 1219,844 L 1219,851 L 1219,854 L 1219,861 L 1219,865 L 1219,873 L 1219,876 L 1219,885 L 1219,888 L 1219,898 L 1219,901 L 1219,914 L 1219,915 L 1219,932 L 1219,932 L 1219,941 L 1221,942 L 1225,946 L 1233,953 L 1237,956 L 1237,957 L 1241,961 L 1243,964 L 1245,967 L 1250,974 L 1251,974 L 1258,983 L 1267,997 L 1274,1007 L 1283,1024 L 1288,1035 L 1296,1056 L 1301,1068 L 1308,1094 L 1312,1107 L 1318,1142 L 1320,1156 L 1323,1203 L 1324,1210 L 1313,1210 L 1265,1209 L 1256,1208 L 1250,1208 L 1238,1207 L 1234,1207 L 1217,1205 L 1206,1205 L 1204,1205 L 1201,1204 L 1179,1203 L 1178,1203 L 1174,1203 L 1167,1203 L 1153,1203 L 1149,1203 L 1145,1203 L 1139,1203 L 1133,1203 L 1112,1202 L 1100,1200 L 1078,1197 L 1066,1194 L 1042,1188 L 1031,1184 L 1004,1174 L 993,1169 L 984,1165 L 986,1140 L 988,1126 L 993,1099 L 996,1086 L 997,1083 L 999,1073 L 1000,1069 L 1001,1065 L 1004,1054 L 1004,1053 L 1005,1049 L 1008,1037 L 1008,1034 L 1009,1031 L 1010,1026 L 1012,1016 L 1012,1013 L 1013,1010 L 1014,1005 L 1015,999 L 1018,982 L 1019,979 L 1019,949 L 1019,949 L 1019,932 L 1019,932 L 1019,915 L 1019,914 L 1019,901 L 1019,898 L 1019,888 L 1019,885 L 1019,876 L 1019,873 L 1019,865 L 1019,861 L 1019,854 L 1019,851 L 1019,844 L 1019,840 L 1019,837 L 1019,818 L 1021,814 L 1022,810 L 1028,797 L 1031,793 L 1038,781 L 1040,777 L 1049,766 L 1051,764 L 1060,754 L 1062,751 L 1073,742 L 1075,740 L 1087,732 L 1090,730 L 1103,723 L 1107,720 L 1121,714 L 1128,712 L 1142,707 L 1152,704 L 1168,701 L 1170,700 L 1187,683 L 1243,660 L 1246,658 L 1250,657 L 1256,655 L 1259,655 L 1264,653 L 1268,653 L 1273,652 L 1276,652 L 1279,652 L 1573,652 L 1575,652 L 1579,652 L 1584,651 L 1587,651 L 1593,650 L 1596,649 L 1602,647 L 1605,646 L 1609,645 L 1641,632 L 1648,624 L 1655,617 L 1664,610 L 1672,603 L 1676,600 L 1680,598 L 1681,597 L 1683,595 L 1691,590 L 1692,589 L 1695,587 L 1701,582 L 1705,578 L 1708,576 L 1713,572 L 1718,568 L 1725,567 L 1741,565 L 1753,563 L 1773,560 L 1787,557 L 1818,549 L 1836,544 L 1898,526 L 1925,518 L 1993,495 L 2052,477 L 2116,459 L 2119,459 L 2119,811 z " style="fill-opacity:1.000000;fill:rgb(129,132,184);stroke:rgb(0,0,0);stroke-width:2"/></g>
<g fill-rule="evenodd"><path d="M 74,2363 L 74,2358 L 75,2344 L 76,2338 L 78,2325 L 80,2319 L 84,2305 L 86,2298 L 92,2284 L 96,2275 L 101,2265 L 104,2265 L 106,2265 L 117,2265 L 119,2265 L 129,2265 L 132,2265 L 140,2265 L 143,2265 L 150,2265 L 154,2265 L 160,2265 L 164,2265 L 168,2265 L 191,2265 L 194,2265 L 198,2265 L 205,2265 L 207,2265 L 208,2266 L 214,2269 L 226,2276 L 231,2279 L 242,2288 L 246,2291 L 256,2300 L 259,2304 L 268,2314 L 271,2318 L 280,2329 L 283,2334 L 290,2346 L 293,2353 L 299,2366 L 302,2375 L 305,2384 L 304,2389 L 304,2391 L 303,2396 L 306,2405 L 309,2413 L 315,2427 L 318,2433 L 326,2446 L 329,2451 L 337,2462 L 340,2466 L 349,2476 L 352,2480 L 363,2489 L 366,2492 L 377,2501 L 382,2504 L 394,2511 L 400,2514 L 401,2515 L 404,2515 L 410,2515 L 414,2515 L 417,2515 L 441,2515 L 444,2515 L 448,2515 L 455,2515 L 458,2515 L 465,2515 L 469,2515 L 477,2515 L 480,2515 L 489,2515 L 492,2515 L 502,2515 L 505,2515 L 518,2515 L 519,2515 L 536,2515 L 536,2515 L 556,2515 L 559,2515 L 561,2515 L 565,2527 L 570,2544 L 573,2558 L 576,2573 L 578,2587 L 579,2601 L 579,2615 L 579,2629 L 578,2643 L 576,2657 L 573,2671 L 570,2687 L 566,2701 L 561,2715 L 559,2715 L 556,2715 L 536,2715 L 536,2715 L 519,2715 L 518,2715 L 505,2715 L 502,2715 L 492,2715 L 489,2715 L 480,2715 L 477,2715 L 469,2715 L 465,2715 L 458,2715 L 455,2715 L 448,2715 L 444,2715 L 441,2715 L 417,2715 L 414,2715 L 410,2715 L 404,2715 L 401,2715 L 400,2714 L 394,2711 L 382,2704 L 377,2701 L 366,2692 L 363,2689 L 352,2680 L 349,2676 L 340,2666 L 337,2662 L 329,2651 L 326,2646 L 318,2633 L 315,2627 L 309,2613 L 306,2605 L 303,2596 L 304,2591 L 304,2589 L 305,2584 L 302,2575 L 299,2566 L 293,2553 L 290,2546 L 283,2534 L 280,2529 L 271,2518 L 268,2514 L 259,2504 L 256,2500 L 246,2491 L 242,2488 L 231,2479 L 226,2476 L 214,2469 L 208,2466 L 207,2465 L 205,2465 L 198,2465 L 194,2465 L 191,2465 L 168,2465 L 164,2465 L 160,2465 L 154,2465 L 150,2465 L 143,2465 L 140,2465 L 132,2465 L 129,2465 L 119,2465 L 117,2465 L 106,2465 L 104,2465 L 101,2465 L 97,2457 L 91,2443 L 87,2435 L 83,2422 L 81,2415 L 78,2401 L 77,2395 L 75,2382 L 74,2376 L 74,2363 z " style="fill-opacity:1.000000;fill:rgb(20,162,156);stroke:rgb(0,0,0);stroke-width:2"/></g>
<g fill-rule="evenodd"><path d="M 74,2963 L 74,2958 L 75,2944 L 76,2938 L 78,2925 L 80,2918 L 84,2905 L 86,2897 L 92,2884 L 96,2875 L 101,2865 L 104,2865 L 106,2865 L 117,2865 L 119,2865 L 129,2865 L 132,2865 L 140,2865 L 143,2865 L 150,2865 L 154,2865 L 160,2865 L 164,2865 L 168,2865 L 191,2865 L 194,2865 L 198,2865 L 205,2865 L 207,2865 L 208,2865 L 214,2869 L 226,2876 L 231,2879 L 242,2887 L 246,2891 L 256,2900 L 259,2903 L 268,2914 L 271,2918 L 280,2929 L 283,2934 L 290,2946 L 293,2953 L 299,2966 L 302,2975 L 305,2984 L 304,2989 L 304,2991 L 303,2996 L 306,3005 L 309,3013 L 315,3027 L 318,3033 L 326,3046 L 329,3050 L 337,3062 L 340,3066 L 349,3076 L 352,3080 L 363,3089 L 366,3092 L 377,3100 L 382,3104 L 394,3111 L 400,3114 L 401,3115 L 404,3115 L 410,3115 L 414,3115 L 417,3115 L 441,3115 L 444,3115 L 448,3115 L 455,3115 L 458,3115 L 465,3115 L 469,3115 L 477,3115 L 480,3115 L 489,3115 L 492,3115 L 502,3115 L 505,3115 L 518,3115 L 519,3115 L 536,3115 L 536,3115 L 556,3115 L 559,3115 L 561,3115 L 565,3127 L 567,3132 L 565,3146 L 562,3163 L 559,3177 L 555,3192 L 552,3202 L 547,3216 L 543,3223 L 537,3236 L 534,3242 L 526,3254 L 523,3258 L 515,3269 L 511,3272 L 502,3282 L 498,3285 L 488,3294 L 484,3297 L 480,3299 L 471,3301 L 466,3302 L 452,3304 L 448,3304 L 417,3304 L 415,3304 L 401,3303 L 397,3303 L 383,3301 L 378,3300 L 364,3296 L 358,3294 L 344,3289 L 337,3286 L 326,3280 L 324,3278 L 318,3271 L 310,3260 L 305,3252 L 305,3251 L 305,3237 L 305,3233 L 305,3227 L 304,3214 L 304,3204 L 305,3191 L 306,3184 L 270,3097 L 266,3090 L 259,3086 L 207,3064 L 205,3064 L 198,3065 L 168,3065 L 164,3065 L 150,3064 L 143,3063 L 130,3061 L 124,3060 L 123,3059 L 112,3051 L 106,3046 L 96,3037 L 91,3032 L 83,3022 L 83,3021 L 81,3015 L 78,3001 L 77,2995 L 75,2982 L 74,2976 L 74,2963 z " style="fill-opacity:1.000000;fill:rgb(180,90,103);stroke:rgb(0,0,0);stroke-width:2"/></g>
<g fill-rule="evenodd"><path d="M 74,2763 L 74,2758 L 75,2744 L 76,2738 L 78,2725 L 80,2719 L 84,2705 L 86,2697 L 92,2684 L 96,2675 L 101,2665 L 104,2665 L 106,2665 L 117,2665 L 119,2665 L 129,2665 L 132,2665 L 140,2665 L 143,2665 L 150,2665 L 154,2665 L 160,2665 L 164,2665 L 168,2665 L 191,2665 L 194,2665 L 198,2665 L 205,2665 L 207,2665 L 208,2665 L 214,2669 L 226,2676 L 231,2679 L 242,2688 L 246,2691 L 256,2700 L 259,2703 L 268,2714 L 271,2718 L 280,2729 L 283,2734 L 290,2746 L 293,2753 L 299,2766 L 302,2775 L 305,2784 L 304,2789 L 304,2791 L 303,2796 L 306,2805 L 309,2813 L 315,2827 L 318,2833 L 326,2846 L 329,2851 L 337,2862 L 340,2866 L 349,2876 L 352,2880 L 363,2889 L 366,2892 L 377,2901 L 382,2904 L 394,2911 L 400,2914 L 401,2915 L 404,2915 L 410,2915 L 414,2915 L 417,2915 L 441,2915 L 444,2915 L 448,2915 L 455,2915 L 458,2915 L 465,2915 L 469,2915 L 477,2915 L 480,2915 L 489,2915 L 492,2915 L 502,2915 L 505,2915 L 518,2915 L 519,2915 L 536,2915 L 536,2915 L 556,2915 L 559,2915 L 561,2915 L 565,2927 L 570,2944 L 573,2958 L 576,2973 L 578,2987 L 579,3001 L 579,3015 L 579,3029 L 578,3043 L 576,3057 L 573,3071 L 570,3087 L 566,3101 L 561,3115 L 559,3115 L 556,3115 L 536,3115 L 536,3115 L 519,3115 L 518,3115 L 505,3115 L 502,3115 L 492,3115 L 489,3115 L 480,3115 L 477,3115 L 469,3115 L 465,3115 L 458,3115 L 455,3115 L 448,3115 L 444,3115 L 441,3115 L 417,3115 L 414,3115 L 410,3115 L 404,3115 L 401,3115 L 400,3114 L 394,3111 L 382,3104 L 377,3100 L 366,3092 L 363,3089 L 352,3080 L 349,3076 L 340,3066 L 337,3062 L 329,3050 L 326,3046 L 318,3033 L 315,3027 L 309,3013 L 306,3005 L 303,2996 L 304,2991 L 304,2989 L 305,2984 L 302,2975 L 299,2966 L 293,2953 L 290,2946 L 283,2934 L 280,2929 L 271,2918 L 268,2914 L 259,2903 L 256,2900 L 246,2891 L 242,2887 L 231,2879 L 226,2876 L 214,2869 L 208,2865 L 207,2865 L 205,2865 L 198,2865 L 194,2865 L 191,2865 L 168,2865 L 164,2865 L 160,2865 L 154,2865 L 150,2865 L 143,2865 L 140,2865 L 132,2865 L 129,2865 L 119,2865 L 117,2865 L 106,2865 L 104,2865 L 101,2865 L 97,2857 L 91,2843 L 87,2835 L 83,2822 L 81,2815 L 78,2801 L 77,2795 L 75,2782 L 74,2776 L 74,2763 z " style="fill-opacity:1.000000;fill:rgb(42,202,229);stroke:rgb(0,0,0);stroke-width:2"/></g>
<g fill-rule="evenodd"><path d="M 74,2563 L 74,2558 L 75,2544 L 76,2538 L 78,2525 L 80,2519 L 84,2505 L 86,2497 L 92,2484 L 96,2475 L 101,2465 L 104,2465 L 106,2465 L 117,2465 L 119,2465 L 129,2465 L 132,2465 L 140,2465 L 143,2465 L 150,2465 L 154,2465 L 160,2465 L 164,2465 L 168,2465 L 191,2465 L 194,2465 L 198,2465 L 205,2465 L 207,2465 L 208,2466 L 214,2469 L 226,2476 L 231,2479 L 242,2488 L 246,2491 L 256,2500 L 259,2504 L 268,2514 L 271,2518 L 280,2529 L 283,2534 L 290,2546 L 293,2553 L 299,2566 L 302,2575 L 305,2584 L 304,2589 L 304,2591 L 303,2596 L 306,2605 L 309,2613 L 315,2627 L 318,2633 L 326,2646 L 329,2651 L 337,2662 L 340,2666 L 349,2676 L 352,2680 L 363,2689 L 366,2692 L 377,2701 L 382,2704 L 394,2711 L 400,2714 L 401,2715 L 404,2715 L 410,2715 L 414,2715 L 417,2715 L 441,2715 L 444,2715 L 448,2715 L 455,2715 L 458,2715 L 465,2715 L 469,2715 L 477,2715 L 480,2715 L 489,2715 L 492,2715 L 502,2715 L 505,2715 L 518,2715 L 519,2715 L 536,2715 L 536,2715 L 556,2715 L 559,2715 L 561,2715 L 565,2727 L 570,2744 L 573,2758 L 576,2773 L 578,2787 L 579,2801 L 579,2815 L 579,2829 L 578,2843 L 576,2857 L 573,2871 L 570,2887 L 566,2901 L 561,2915 L 559,2915 L 556,2915 L 536,2915 L 536,2915 L 519,2915 L 518,2915 L 505,2915 L 502,2915 L 492,2915 L 489,2915 L 480,2915 L 477,2915 L 469,2915 L 465,2915 L 458,2915 L 455,2915 L 448,2915 L 444,2915 L 441,2915 L 417,2915 L 414,2915 L 410,2915 L 404,2915 L 401,2915 L 400,2914 L 394,2911 L 382,2904 L 377,2901 L 366,2892 L 363,2889 L 352,2880 L 349,2876 L 340,2866 L 337,2862 L 329,2851 L 326,2846 L 318,2833 L 315,2827 L 309,2813 L 306,2805 L 303,2796 L 304,2791 L 304,2789 L 305,2784 L 302,2775 L 299,2766 L 293,2753 L 290,2746 L 283,2734 L 280,2729 L 271,2718 L 268,2714 L 259,2703 L 256,2700 L 246,2691 L 242,2688 L 231,2679 L 226,2676 L 214,2669 L 208,2665 L 207,2665 L 205,2665 L 198,2665 L 194,2665 L 191,2665 L 168,2665 L 164,2665 L 160,2665 L 154,2665 L 150,2665 L 143,2665 L 140,2665 L 132,2665 L 129,2665 L 119,2665 L 117,2665 L 106,2665 L 104,2665 L 101,2665 L 97,2657 L 91,2643 L 87,2635 L 83,2622 L 81,2615 L 78,2601 L 77,2595 L 75,2582 L 74,2576 L 74,2563 z " style="fill-opacity:1.000000;fill:rgb(72,233,197);stroke:rgb(0,0,0);stroke-width:2"/></g>
<g fill-rule="evenodd"><path d="M 74,2163 L 74,2158 L 75,2144 L 76,2138 L 78,2125 L 80,2119 L 84,2105 L 86,2098 L 92,2084 L 96,2075 L 103,2061 L 110,2049 L 110,2049 L 122,2041 L 133,2034 L 146,2027 L 159,2021 L 173,2015 L 190,2015 L 199,2015 L 213,2016 L 230,2018 L 244,2020 L 259,2023 L 260,2023 L 261,2025 L 264,2030 L 269,2038 L 274,2045 L 279,2052 L 282,2057 L 287,2064 L 291,2069 L 295,2076 L 298,2081 L 302,2088 L 306,2092 L 310,2099 L 313,2104 L 318,2111 L 321,2115 L 319,2125 L 317,2130 L 315,2140 L 315,2143 L 313,2152 L 311,2157 L 309,2166 L 309,2168 L 307,2176 L 306,2181 L 304,2189 L 304,2191 L 303,2196 L 306,2205 L 309,2214 L 315,2227 L 318,2233 L 326,2246 L 329,2251 L 337,2262 L 340,2266 L 349,2276 L 352,2280 L 363,2289 L 366,2292 L 377,2301 L 382,2304 L 394,2311 L 400,2314 L 401,2315 L 404,2315 L 410,2315 L 414,2315 L 417,2315 L 441,2315 L 444,2315 L 448,2315 L 455,2315 L 458,2315 L 465,2315 L 469,2315 L 477,2315 L 480,2315 L 489,2315 L 492,2315 L 502,2315 L 505,2315 L 518,2315 L 519,2315 L 536,2315 L 536,2315 L 556,2315 L 559,2315 L 561,2315 L 565,2327 L 570,2344 L 573,2358 L 576,2373 L 578,2387 L 579,2401 L 579,2415 L 579,2429 L 578,2443 L 576,2457 L 573,2471 L 570,2487 L 566,2501 L 561,2515 L 559,2515 L 556,2515 L 536,2515 L 536,2515 L 519,2515 L 518,2515 L 505,2515 L 502,2515 L 492,2515 L 489,2515 L 480,2515 L 477,2515 L 469,2515 L 465,2515 L 458,2515 L 455,2515 L 448,2515 L 444,2515 L 441,2515 L 417,2515 L 414,2515 L 410,2515 L 404,2515 L 401,2515 L 400,2514 L 394,2511 L 382,2504 L 377,2501 L 366,2492 L 363,2489 L 352,2480 L 349,2476 L 340,2466 L 337,2462 L 329,2451 L 326,2446 L 318,2433 L 315,2427 L 309,2413 L 306,2405 L 303,2396 L 304,2391 L 304,2389 L 305,2384 L 302,2375 L 299,2366 L 293,2353 L 290,2346 L 283,2334 L 280,2329 L 271,2318 L 268,2314 L 259,2304 L 256,2300 L 246,2291 L 242,2288 L 231,2279 L 226,2276 L 214,2269 L 208,2266 L 207,2265 L 205,2265 L 198,2265 L 194,2265 L 191,2265 L 168,2265 L 164,2265 L 160,2265 L 154,2265 L 150,2265 L 143,2265 L 140,2265 L 132,2265 L 129,2265 L 119,2265 L 117,2265 L 106,2265 L 104,2265 L 101,2265 L 97,2257 L 91,2243 L 87,2235 L 83,2222 L 81,2215 L 78,2201 L 77,2195 L 75,2182 L 74,2177 L 74,2163 z " style="fill-opacity:1.000000;fill:rgb(241,176,196);stroke:rgb(0,0,0);stroke-width:2"/></g>
<g fill-rule="evenodd"><path d="M 1713,0 L 1992,278 L 1986,278 L 1833,282 L 1792,284 L 1760,288 L 1736,291 L 1724,294 L 1709,299 L 1706,300 L 1700,303 L 1683,308 L 1678,309 L 1662,313 L 1657,313 L 1641,315 L 1638,315 L 1630,315 L 1627,315 L 1611,314 L 1606,314 L 1590,311 L 1585,310 L 1569,306 L 1563,304 L 1549,299 L 1547,298 L 1538,296 L 1518,291 L 1499,288 L 1479,285 L 1479,280 L 1479,279 L 1479,262 L 1479,262 L 1479,246 L 1479,246 L 1479,231 L 1479,230 L 1479,216 L 1479,215 L 1479,200 L 1479,200 L 1479,185 L 1479,184 L 1479,168 L 1479,168 L 1479,151 L 1479,151 L 1479,133 L 1479,131 L 1479,129 L 1464,121 L 1448,113 L 1433,106 L 1417,100 L 1404,96 L 1388,92 L 1377,90 L 1361,87 L 1350,86 L 1334,85 L 1326,85 L 1318,85 L 1311,86 L 1294,88 L 1284,89 L 1267,93 L 1256,96 L 1239,101 L 1226,106 L 1209,113 L 1202,116 L 1017,116 L 1008,117 L 1005,117 L 990,118 L 987,119 L 969,122 L 969,122 L 965,125 L 951,136 L 949,138 L 945,143 L 707,381 L 701,387 L 698,389 L 688,402 L 686,405 L 684,407 L 682,422 L 681,425 L 679,442 L 679,445 L 679,453 L 679,461 L 679,462 L 679,478 L 679,478 L 679,495 L 679,496 L 679,510 L 679,512 L 679,523 L 679,526 L 679,535 L 679,538 L 679,546 L 679,549 L 679,556 L 679,560 L 679,566 L 679,570 L 679,574 L 679,597 L 679,600 L 679,604 L 679,611 L 679,614 L 679,621 L 679,625 L 679,633 L 679,636 L 679,645 L 679,648 L 679,658 L 679,661 L 679,674 L 679,675 L 679,686 L 675,688 L 668,693 L 664,696 L 656,701 L 652,703 L 646,707 L 642,710 L 634,715 L 630,717 L 623,722 L 619,725 L 619,725 L 614,723 L 604,721 L 599,719 L 592,717 L 588,716 L 578,713 L 574,712 L 569,711 L 565,709 L 555,707 L 551,706 L 547,704 L 543,703 L 533,701 L 529,700 L 524,698 L 520,697 L 510,695 L 506,693 L 499,691 L 494,690 L 484,687 L 479,686 L 479,686 L 479,675 L 479,674 L 479,661 L 479,658 L 479,648 L 479,645 L 479,636 L 479,633 L 479,625 L 479,621 L 479,614 L 479,611 L 479,604 L 479,600 L 479,597 L 479,574 L 479,570 L 479,566 L 479,560 L 479,556 L 479,549 L 479,546 L 479,538 L 479,535 L 479,526 L 479,523 L 479,512 L 479,510 L 479,496 L 479,495 L 479,478 L 479,478 L 479,461 L 478,459 L 469,441 L 462,428 L 448,406 L 439,392 L 418,366 L 416,363 L 406,351 L 403,348 L 400,344 L 397,340 L 387,307 L 386,303 L 378,266 L 377,257 L 376,253 L 374,240 L 373,235 L 366,190 L 365,185 L 361,164 L 360,158 L 357,141 L 348,94 L 337,44 L 335,37 L 325,0 L 1713,0 z " style="fill-opacity:1.000000;fill:rgb(21,138,229);stroke:rgb(0,0,0);stroke-width:2"/></g>
<g fill-rule="evenodd"><path d="M 69,1063 L 69,1057 L 70,1043 L 71,1037 L 74,1023 L 75,1016 L 79,1002 L 82,994 L 88,980 L 92,970 L 100,956 L 100,955 L 100,725 L 89,710 L 81,695 L 77,680 L 75,665 L 75,538 L 89,505 L 93,498 L 98,492 L 104,487 L 111,483 L 130,475 L 198,475 L 247,495 L 253,499 L 257,505 L 280,560 L 279,570 L 279,574 L 279,604 L 280,611 L 281,624 L 282,631 L 285,645 L 287,653 L 291,665 L 291,667 L 294,677 L 298,693 L 298,693 L 303,695 L 309,697 L 315,698 L 323,701 L 325,702 L 332,704 L 336,705 L 345,708 L 346,709 L 355,712 L 357,712 L 367,716 L 368,716 L 378,720 L 378,720 L 390,724 L 392,725 L 403,729 L 406,730 L 409,731 L 409,741 L 409,744 L 409,754 L 409,760 L 409,767 L 409,771 L 409,779 L 408,786 L 408,789 L 408,795 L 408,801 L 408,809 L 408,810 L 407,814 L 407,821 L 406,831 L 404,842 L 404,845 L 402,852 L 402,854 L 401,865 L 400,869 L 398,877 L 397,882 L 397,885 L 392,888 L 385,892 L 381,894 L 374,897 L 370,899 L 362,904 L 360,905 L 351,909 L 349,910 L 339,915 L 338,915 L 328,921 L 328,921 L 315,927 L 315,927 L 308,930 L 303,936 L 295,947 L 286,959 L 286,959 L 287,964 L 290,975 L 291,979 L 293,989 L 294,994 L 296,1004 L 296,1006 L 298,1014 L 300,1020 L 301,1028 L 302,1029 L 303,1037 L 305,1043 L 306,1046 L 303,1053 L 298,1067 L 294,1074 L 288,1087 L 285,1092 L 277,1104 L 274,1109 L 265,1120 L 262,1123 L 253,1133 L 249,1136 L 238,1145 L 234,1148 L 223,1156 L 218,1159 L 207,1165 L 205,1165 L 198,1165 L 194,1165 L 191,1165 L 168,1165 L 164,1165 L 160,1165 L 154,1165 L 150,1165 L 143,1165 L 140,1165 L 132,1165 L 129,1165 L 119,1165 L 117,1165 L 106,1165 L 104,1165 L 95,1165 L 93,1162 L 87,1148 L 83,1139 L 78,1125 L 76,1117 L 73,1104 L 72,1097 L 70,1083 L 69,1077 L 69,1063 z " style="fill-opacity:1.000000;fill:rgb(155,77,57);stroke:rgb(0,0,0);stroke-width:2"/></g>
<g fill-rule="evenodd"><path d="M 69,1663 L 69,1657 L 70,1643 L 71,1637 L 74,1623 L 75,1616 L 79,1602 L 82,1594 L 88,1580 L 92,1570 L 95,1565 L 104,1565 L 106,1565 L 117,1565 L 119,1565 L 129,1565 L 132,1565 L 140,1565 L 143,1565 L 150,1565 L 154,1565 L 160,1565 L 164,1565 L 168,1565 L 191,1565 L 194,1565 L 198,1565 L 205,1565 L 207,1565 L 218,1559 L 223,1556 L 234,1548 L 238,1545 L 249,1536 L 253,1533 L 262,1523 L 265,1519 L 274,1509 L 277,1504 L 285,1492 L 288,1487 L 294,1474 L 298,1467 L 303,1452 L 306,1446 L 305,1443 L 303,1437 L 303,1434 L 305,1428 L 310,1414 L 314,1406 L 320,1393 L 323,1388 L 331,1376 L 334,1371 L 343,1361 L 346,1357 L 356,1347 L 359,1344 L 370,1335 L 374,1332 L 386,1324 L 391,1321 L 401,1315 L 404,1315 L 410,1315 L 414,1315 L 417,1315 L 441,1315 L 444,1315 L 448,1315 L 455,1315 L 458,1315 L 465,1315 L 469,1315 L 477,1315 L 480,1315 L 489,1315 L 492,1315 L 502,1315 L 505,1315 L 518,1315 L 519,1315 L 536,1315 L 536,1315 L 553,1315 L 557,1317 L 571,1324 L 590,1334 L 604,1343 L 628,1360 L 641,1370 L 645,1373 L 636,1398 L 631,1412 L 621,1436 L 614,1449 L 603,1468 L 596,1480 L 587,1493 L 584,1496 L 581,1500 L 579,1503 L 576,1507 L 570,1515 L 559,1515 L 556,1515 L 536,1515 L 536,1515 L 519,1515 L 518,1515 L 505,1515 L 502,1515 L 492,1515 L 489,1515 L 480,1515 L 477,1515 L 469,1515 L 465,1515 L 458,1515 L 455,1515 L 448,1515 L 444,1515 L 441,1515 L 417,1515 L 414,1515 L 410,1515 L 404,1515 L 401,1515 L 391,1521 L 386,1524 L 374,1532 L 370,1535 L 359,1544 L 356,1547 L 346,1557 L 343,1561 L 334,1571 L 331,1576 L 323,1588 L 320,1593 L 314,1606 L 310,1614 L 305,1628 L 303,1634 L 303,1637 L 305,1643 L 307,1651 L 307,1652 L 309,1661 L 310,1666 L 312,1674 L 312,1677 L 314,1686 L 316,1691 L 318,1701 L 318,1705 L 321,1715 L 318,1719 L 314,1726 L 310,1731 L 306,1737 L 303,1743 L 302,1744 L 287,1746 L 271,1750 L 261,1753 L 259,1753 L 247,1757 L 239,1759 L 225,1762 L 218,1763 L 205,1765 L 198,1765 L 168,1765 L 164,1765 L 150,1764 L 143,1764 L 130,1761 L 122,1760 L 109,1756 L 100,1754 L 99,1753 L 97,1753 L 89,1745 L 83,1739 L 83,1739 L 78,1725 L 76,1717 L 73,1704 L 72,1697 L 70,1683 L 69,1677 L 69,1663 z " style="fill-opacity:1.000000;fill:rgb(246,247,232);stroke:rgb(0,0,0);stroke-width:2"/></g>
<g fill-rule="evenodd"><path d="M 866,3307 L 865,3305 L 850,3269 L 850,2055 L 850,2051 L 850,2047 L 851,2039 L 852,2036 L 853,2027 L 854,2024 L 857,2015 L 858,2011 L 860,2006 L 931,1834 L 1059,1706 L 1067,1703 L 1090,1692 L 1105,1684 L 1124,1672 L 1138,1663 L 1154,1650 L 1167,1639 L 1181,1626 L 1189,1618 L 1206,1618 L 1212,1618 L 1222,1618 L 1226,1618 L 1227,1618 L 1241,1618 L 1245,1619 L 1247,1619 L 1257,1619 L 1259,1620 L 1261,1620 L 1271,1621 L 1274,1621 L 1276,1622 L 1279,1622 L 1285,1623 L 1302,1625 L 1311,1625 L 1327,1625 L 1336,1625 L 1352,1623 L 1362,1622 L 1378,1618 L 1389,1615 L 1405,1610 L 1418,1605 L 1425,1602 L 1425,1598 L 1425,1590 L 1425,1583 L 1425,1576 L 1425,1570 L 1425,1557 L 1425,1557 L 1425,1548 L 1425,1548 L 1425,1536 L 1425,1531 L 1425,1530 L 1425,1524 L 1425,1518 L 1426,1512 L 1426,1508 L 1426,1502 L 1426,1501 L 1427,1494 L 1427,1489 L 1430,1483 L 1434,1478 L 1441,1469 L 1445,1465 L 1453,1457 L 1457,1453 L 1465,1445 L 1470,1442 L 1480,1435 L 1485,1432 L 1496,1426 L 1503,1422 L 1509,1420 L 1515,1425 L 1516,1427 L 1521,1431 L 1522,1433 L 1531,1441 L 1533,1444 L 1534,1444 L 1536,1447 L 1543,1453 L 1545,1455 L 1547,1457 L 1548,1459 L 1553,1464 L 1555,1466 L 1558,1469 L 1560,1471 L 1563,1474 L 1565,1476 L 1569,1481 L 1571,1484 L 1572,1485 L 1575,1488 L 1581,1495 L 1583,1497 L 1584,1498 L 1586,1501 L 1594,1511 L 1595,1512 L 1598,1515 L 1600,1515 L 1603,1515 L 1610,1515 L 1614,1515 L 1617,1515 L 1641,1515 L 1644,1515 L 1648,1515 L 1654,1515 L 1658,1515 L 1665,1515 L 1668,1515 L 1676,1515 L 1680,1515 L 1689,1515 L 1691,1515 L 1694,1515 L 1699,1524 L 1703,1532 L 1710,1546 L 1712,1551 L 1717,1565 L 1718,1570 L 1721,1583 L 1722,1587 L 1723,1601 L 1724,1604 L 1724,1618 L 1724,1621 L 1723,1635 L 1722,1638 L 1720,1652 L 1719,1656 L 1715,1669 L 1713,1674 L 1708,1688 L 1705,1695 L 1698,1709 L 1694,1715 L 1691,1715 L 1689,1715 L 1680,1715 L 1676,1715 L 1668,1715 L 1665,1715 L 1658,1715 L 1654,1715 L 1648,1715 L 1644,1715 L 1641,1715 L 1617,1715 L 1614,1715 L 1610,1715 L 1603,1715 L 1601,1715 L 1593,1719 L 1591,1721 L 1590,1721 L 1587,1722 L 1585,1724 L 1582,1725 L 1579,1727 L 1574,1729 L 1573,1729 L 1571,1730 L 1567,1731 L 1565,1732 L 1562,1733 L 1559,1734 L 1554,1736 L 1547,1739 L 1533,1745 L 1524,1749 L 1510,1757 L 1499,1764 L 1485,1773 L 1469,1785 L 1456,1797 L 1435,1817 L 1421,1832 L 1391,1866 L 1389,1870 L 1378,1868 L 1361,1867 L 1354,1866 L 1327,1876 L 1311,1882 L 1283,1896 L 1268,1904 L 1245,1918 L 1231,1927 L 1211,1943 L 1199,1953 L 1189,1962 L 1172,1963 L 1151,1965 L 1129,1967 L 1110,1971 L 1095,1974 L 1077,1980 L 1067,1983 L 1051,1990 L 1044,1993 L 1029,2002 L 1023,2005 L 1010,2014 L 1006,2017 L 993,2028 L 990,2031 L 978,2043 L 975,2047 L 965,2060 L 962,2065 L 956,2074 L 955,2080 L 954,2086 L 954,2102 L 954,2108 L 954,2124 L 955,2130 L 958,2147 L 959,2153 L 964,2170 L 966,2178 L 972,2194 L 977,2204 L 985,2220 L 993,2233 L 1003,2250 L 1016,2267 L 1029,2284 L 1051,2307 L 1067,2324 L 1104,2357 L 1124,2373 L 1155,2396 L 1189,2420 L 1209,2449 L 1231,2478 L 1242,2490 L 1243,2505 L 1245,2514 L 1241,2550 L 1240,2564 L 1238,2596 L 1238,2627 L 1238,2641 L 1240,2673 L 1243,2704 L 1245,2714 L 1241,2750 L 1240,2764 L 1238,2824 L 1218,2844 L 1205,2858 L 1181,2884 L 1160,2910 L 1150,2923 L 1129,2952 L 1110,2966 L 1067,2998 L 1051,3012 L 1027,3034 L 1014,3048 L 1000,3064 L 990,3078 L 981,3090 L 973,3104 L 968,3113 L 961,3126 L 958,3133 L 953,3147 L 952,3152 L 948,3166 L 947,3170 L 945,3184 L 945,3187 L 944,3201 L 944,3203 L 944,3234 L 944,3237 L 946,3251 L 946,3255 L 949,3269 L 950,3273 L 954,3286 L 955,3287 L 959,3291 L 968,3300 L 973,3304 L 984,3313 L 989,3316 L 989,3317 L 1002,3319 L 1008,3320 L 1022,3321 L 1027,3321 L 1041,3320 L 1046,3320 L 1060,3318 L 1066,3317 L 1079,3314 L 1086,3312 L 1100,3307 L 1108,3304 L 1122,3298 L 1129,3294 L 1138,3299 L 1147,3303 L 1161,3308 L 1168,3311 L 1182,3315 L 1188,3316 L 1202,3319 L 1208,3320 L 1222,3321 L 1227,3321 L 1241,3320 L 1246,3320 L 1260,3318 L 1266,3317 L 1279,3314 L 1286,3312 L 1300,3307 L 1308,3304 L 1322,3298 L 1329,3294 L 1338,3299 L 1347,3303 L 1361,3308 L 1368,3311 L 1382,3315 L 1388,3316 L 1402,3319 L 1408,3320 L 1422,3321 L 1427,3321 L 1441,3320 L 1446,3320 L 1460,3318 L 1466,3317 L 1479,3314 L 1486,3312 L 1500,3307 L 1508,3304 L 1522,3298 L 1528,3295 L 1536,3298 L 1550,3304 L 1558,3306 L 1572,3310 L 1579,3311 L 1593,3313 L 1600,3314 L 1614,3315 L 1617,3315 L 1648,3315 L 1654,3314 L 1668,3313 L 1675,3312 L 1689,3309 L 1697,3307 L 1710,3303 L 1720,3299 L 1734,3293 L 1741,3290 L 1775,3290 L 1782,3293 L 1796,3298 L 1806,3301 L 1819,3304 L 1828,3306 L 1842,3308 L 1849,3309 L 1863,3310 L 1867,3310 L 1876,3310 L 1898,3301 L 1903,3298 L 1916,3291 L 1920,3289 L 1931,3281 L 1934,3279 L 1945,3270 L 1947,3268 L 1957,3258 L 1959,3255 L 1968,3245 L 1970,3241 L 1978,3230 L 1980,3225 L 1984,3216 L 1985,3212 L 1985,3207 L 1985,3193 L 1984,3188 L 1982,3174 L 1981,3168 L 1978,3156 L 1978,3155 L 1974,3149 L 1964,3139 L 1960,3135 L 1950,3125 L 1945,3121 L 1934,3113 L 1928,3109 L 1922,3105 L 1918,3105 L 1915,3105 L 1908,3105 L 1904,3105 L 1898,3105 L 1894,3105 L 1890,3105 L 1867,3105 L 1864,3105 L 1860,3105 L 1853,3105 L 1850,3105 L 1843,3105 L 1839,3105 L 1831,3105 L 1828,3105 L 1819,3105 L 1816,3105 L 1806,3105 L 1803,3105 L 1790,3105 L 1789,3105 L 1772,3105 L 1772,3105 L 1758,3105 L 1758,3098 L 1758,3096 L 1757,3081 L 1757,3079 L 1756,3067 L 1756,3065 L 1756,3052 L 1756,3050 L 1755,3041 L 1755,3039 L 1755,3027 L 1755,3025 L 1754,3017 L 1754,3016 L 1754,3004 L 1754,3002 L 1753,2994 L 1753,2993 L 1753,2980 L 1752,2979 L 1752,2970 L 1752,2968 L 1751,2955 L 1751,2953 L 1751,2941 L 1751,2938 L 1750,2927 L 1754,2926 L 1771,2923 L 1787,2920 L 1797,2917 L 1799,2916 L 1811,2913 L 1819,2911 L 1833,2908 L 1840,2907 L 1853,2905 L 1860,2905 L 1890,2905 L 1894,2905 L 1908,2906 L 1915,2906 L 1928,2908 L 1936,2910 L 1949,2913 L 1958,2916 L 1959,2916 L 1972,2920 L 1985,2923 L 2004,2926 L 2007,2927 L 2010,2939 L 2014,2952 L 2016,2965 L 2018,2979 L 2019,2991 L 2019,3005 L 2019,3014 L 2057,3107 L 2058,3109 L 2059,3112 L 2060,3116 L 2061,3120 L 2062,3123 L 2062,3126 L 2063,3130 L 2063,3133 L 2063,3135 L 2063,3235 L 2063,3236 L 2063,3240 L 2062,3243 L 2062,3247 L 2061,3250 L 2060,3254 L 2059,3257 L 2058,3261 L 2057,3263 L 2055,3267 L 1931,3391 L 1927,3393 L 1925,3394 L 1921,3395 L 1918,3396 L 1914,3397 L 1911,3398 L 1907,3398 L 1904,3399 L 1900,3399 L 1899,3399 L 969,3399 L 967,3399 L 964,3399 L 961,3398 L 957,3398 L 954,3397 L 950,3396 L 946,3395 L 946,3395 L 944,3393 L 942,3392 L 882,3332 L 881,3330 L 879,3328 L 876,3324 L 874,3322 L 871,3318 L 870,3315 L 867,3311 L 866,3307 z " style="fill-opacity:1.000000;fill:rgb(161,5,211);stroke:rgb(0,0,0);stroke-width:2"/></g>
<g fill-rule="evenodd"><path d="M 1238,2627 L 1238,2596 L 1240,2564 L 1241,2550 L 1245,2514 L 1260,2514 L 1328,2515 L 1368,2515 L 1398,2515 L 1429,2515 L 1444,2515 L 1470,2515 L 1477,2515 L 1499,2515 L 1502,2515 L 1522,2515 L 1522,2515 L 1539,2515 L 1540,2515 L 1554,2515 L 1556,2515 L 1566,2515 L 1569,2515 L 1578,2515 L 1581,2515 L 1589,2515 L 1593,2515 L 1600,2515 L 1603,2515 L 1610,2515 L 1614,2515 L 1617,2515 L 1641,2515 L 1644,2515 L 1648,2515 L 1654,2515 L 1658,2515 L 1665,2515 L 1668,2515 L 1676,2515 L 1680,2515 L 1689,2515 L 1691,2515 L 1702,2515 L 1704,2515 L 1718,2515 L 1719,2515 L 1732,2515 L 1733,2512 L 1734,2511 L 1740,2499 L 1740,2498 L 1743,2493 L 1749,2488 L 1762,2479 L 1771,2473 L 1785,2466 L 1789,2464 L 1791,2463 L 1792,2462 L 1795,2461 L 1800,2458 L 1803,2456 L 1804,2456 L 1807,2453 L 1808,2453 L 1810,2452 L 1814,2449 L 1817,2447 L 1819,2445 L 1820,2445 L 1824,2442 L 1835,2434 L 1840,2431 L 1851,2425 L 1853,2425 L 1860,2425 L 1864,2425 L 1867,2425 L 1890,2425 L 1894,2425 L 1898,2425 L 1904,2425 L 1908,2425 L 1915,2425 L 1918,2425 L 1926,2425 L 1929,2425 L 1939,2425 L 1941,2425 L 1951,2425 L 1952,2428 L 1957,2437 L 1963,2451 L 1966,2458 L 1971,2472 L 1972,2477 L 1976,2491 L 1977,2496 L 1978,2509 L 1979,2514 L 1979,2527 L 1979,2531 L 1978,2545 L 1977,2550 L 1975,2563 L 1974,2568 L 1970,2582 L 1968,2588 L 1962,2602 L 1958,2610 L 1958,2610 L 1948,2619 L 1941,2624 L 1929,2632 L 1921,2637 L 1908,2644 L 1898,2648 L 1868,2661 L 1865,2663 L 1860,2667 L 1847,2673 L 1841,2675 L 1837,2676 L 1826,2680 L 1822,2681 L 1811,2683 L 1808,2683 L 1799,2684 L 1797,2684 L 1794,2685 L 1789,2685 L 1767,2690 L 1745,2698 L 1743,2702 L 1735,2714 L 1734,2715 L 1719,2715 L 1718,2715 L 1704,2715 L 1702,2715 L 1691,2715 L 1689,2715 L 1680,2715 L 1676,2715 L 1668,2715 L 1665,2715 L 1658,2715 L 1654,2715 L 1648,2715 L 1644,2715 L 1641,2715 L 1617,2715 L 1614,2715 L 1610,2715 L 1603,2715 L 1600,2715 L 1593,2715 L 1589,2715 L 1581,2715 L 1578,2715 L 1569,2715 L 1566,2715 L 1556,2715 L 1554,2715 L 1540,2715 L 1539,2715 L 1522,2715 L 1522,2715 L 1502,2715 L 1499,2715 L 1477,2715 L 1470,2715 L 1444,2715 L 1429,2715 L 1398,2715 L 1368,2715 L 1328,2715 L 1260,2714 L 1245,2714 L 1243,2704 L 1240,2673 L 1238,2641 L 1238,2627 z " style="fill-opacity:1.000000;fill:rgb(254,237,165);stroke:rgb(0,0,0);stroke-width:2"/></g>
<g fill-rule="evenodd"><path d="M 1523,3213 L 1523,3207 L 1524,3196 L 1524,3194 L 1524,3190 L 1524,3188 L 1525,3176 L 1525,3173 L 1525,3169 L 1526,3166 L 1527,3153 L 1527,3150 L 1527,3143 L 1527,3139 L 1528,3125 L 1529,3121 L 1529,3115 L 1539,3115 L 1540,3115 L 1554,3115 L 1556,3115 L 1566,3115 L 1569,3115 L 1578,3115 L 1581,3115 L 1589,3115 L 1593,3115 L 1600,3115 L 1603,3115 L 1610,3115 L 1614,3115 L 1617,3115 L 1641,3115 L 1644,3115 L 1648,3115 L 1654,3115 L 1658,3115 L 1665,3115 L 1668,3115 L 1676,3115 L 1680,3115 L 1689,3115 L 1691,3115 L 1702,3115 L 1704,3115 L 1718,3115 L 1719,3115 L 1736,3115 L 1736,3115 L 1750,3115 L 1752,3111 L 1755,3108 L 1758,3105 L 1772,3105 L 1772,3105 L 1789,3105 L 1790,3105 L 1803,3105 L 1806,3105 L 1816,3105 L 1819,3105 L 1828,3105 L 1831,3105 L 1839,3105 L 1843,3105 L 1850,3105 L 1853,3105 L 1860,3105 L 1864,3105 L 1867,3105 L 1890,3105 L 1894,3105 L 1898,3105 L 1904,3105 L 1908,3105 L 1915,3105 L 1918,3105 L 1922,3105 L 1928,3109 L 1934,3113 L 1945,3121 L 1950,3125 L 1960,3135 L 1964,3139 L 1974,3149 L 1978,3155 L 1978,3156 L 1981,3168 L 1982,3174 L 1984,3188 L 1985,3193 L 1985,3207 L 1985,3212 L 1984,3216 L 1980,3225 L 1978,3230 L 1970,3241 L 1968,3245 L 1959,3255 L 1957,3258 L 1947,3268 L 1945,3270 L 1934,3279 L 1931,3281 L 1920,3289 L 1916,3291 L 1903,3298 L 1898,3301 L 1876,3310 L 1867,3310 L 1863,3310 L 1849,3309 L 1842,3308 L 1828,3306 L 1819,3304 L 1806,3301 L 1796,3298 L 1782,3293 L 1775,3290 L 1741,3290 L 1734,3293 L 1720,3299 L 1710,3303 L 1697,3307 L 1689,3309 L 1675,3312 L 1668,3313 L 1654,3314 L 1648,3315 L 1617,3315 L 1614,3315 L 1600,3314 L 1593,3313 L 1579,3311 L 1572,3310 L 1558,3306 L 1550,3304 L 1536,3298 L 1528,3295 L 1528,3293 L 1527,3289 L 1526,3276 L 1526,3273 L 1526,3267 L 1526,3264 L 1525,3252 L 1525,3250 L 1525,3246 L 1524,3243 L 1524,3232 L 1523,3229 L 1523,3226 L 1523,3226 L 1523,3213 z " style="fill-opacity:1.000000;fill:rgb(213,243,217);stroke:rgb(0,0,0);stroke-width:2"/></g>
<g fill-rule="evenodd"><path d="M 1311,2422 L 1327,2405 L 1352,2381 L 1364,2369 L 1366,2367 L 1380,2353 L 1394,2340 L 1405,2329 L 1408,2325 L 1419,2315 L 1429,2315 L 1444,2315 L 1470,2315 L 1477,2315 L 1499,2315 L 1502,2315 L 1522,2315 L 1522,2315 L 1539,2315 L 1540,2315 L 1554,2315 L 1556,2315 L 1566,2315 L 1569,2315 L 1578,2315 L 1581,2315 L 1589,2315 L 1593,2315 L 1600,2315 L 1603,2315 L 1610,2315 L 1614,2315 L 1617,2315 L 1641,2315 L 1644,2315 L 1648,2315 L 1654,2315 L 1658,2315 L 1665,2315 L 1668,2315 L 1676,2315 L 1680,2315 L 1689,2315 L 1691,2315 L 1702,2315 L 1704,2315 L 1718,2315 L 1719,2315 L 1732,2315 L 1733,2312 L 1734,2311 L 1740,2299 L 1740,2299 L 1743,2293 L 1749,2288 L 1762,2279 L 1771,2273 L 1785,2266 L 1789,2264 L 1791,2263 L 1792,2262 L 1795,2261 L 1800,2258 L 1803,2256 L 1804,2256 L 1807,2253 L 1808,2253 L 1810,2252 L 1814,2249 L 1817,2247 L 1819,2245 L 1820,2245 L 1824,2242 L 1835,2234 L 1840,2231 L 1851,2225 L 1853,2225 L 1860,2225 L 1864,2225 L 1867,2225 L 1890,2225 L 1894,2225 L 1898,2225 L 1904,2225 L 1908,2225 L 1915,2225 L 1918,2225 L 1926,2225 L 1929,2225 L 1939,2225 L 1941,2225 L 1951,2225 L 1952,2228 L 1957,2237 L 1963,2251 L 1966,2258 L 1971,2272 L 1972,2277 L 1976,2291 L 1977,2296 L 1978,2309 L 1979,2314 L 1979,2327 L 1979,2331 L 1978,2345 L 1977,2350 L 1975,2363 L 1974,2368 L 1970,2382 L 1968,2388 L 1962,2402 L 1958,2410 L 1951,2424 L 1951,2425 L 1941,2425 L 1939,2425 L 1929,2425 L 1926,2425 L 1918,2425 L 1915,2425 L 1908,2425 L 1904,2425 L 1898,2425 L 1894,2425 L 1890,2425 L 1867,2425 L 1864,2425 L 1860,2425 L 1853,2425 L 1851,2425 L 1840,2431 L 1835,2434 L 1824,2442 L 1820,2445 L 1819,2445 L 1817,2447 L 1814,2449 L 1810,2452 L 1808,2453 L 1807,2453 L 1804,2456 L 1803,2456 L 1800,2458 L 1795,2461 L 1792,2462 L 1791,2463 L 1789,2464 L 1785,2466 L 1771,2473 L 1762,2479 L 1749,2488 L 1743,2493 L 1740,2498 L 1740,2499 L 1734,2511 L 1733,2512 L 1732,2515 L 1719,2515 L 1718,2515 L 1704,2515 L 1702,2515 L 1691,2515 L 1689,2515 L 1680,2515 L 1676,2515 L 1668,2515 L 1665,2515 L 1658,2515 L 1654,2515 L 1648,2515 L 1644,2515 L 1641,2515 L 1617,2515 L 1614,2515 L 1610,2515 L 1603,2515 L 1600,2515 L 1593,2515 L 1589,2515 L 1581,2515 L 1578,2515 L 1569,2515 L 1566,2515 L 1556,2515 L 1554,2515 L 1540,2515 L 1539,2515 L 1522,2515 L 1522,2515 L 1502,2515 L 1499,2515 L 1477,2515 L 1470,2515 L 1444,2515 L 1429,2515 L 1398,2515 L 1368,2515 L 1328,2515 L 1260,2514 L 1245,2514 L 1243,2505 L 1242,2490 L 1246,2486 L 1295,2438 L 1309,2424 L 1311,2422 z " style="fill-opacity:1.000000;fill:rgb(228,91,250);stroke:rgb(0,0,0);stroke-width:2"/></g>
<g fill-rule="evenodd"><path d="M 1456,2216 L 1473,2200 L 1487,2188 L 1499,2178 L 1512,2169 L 1521,2163 L 1535,2156 L 1539,2154 L 1541,2153 L 1542,2152 L 1545,2151 L 1550,2148 L 1553,2146 L 1554,2146 L 1557,2143 L 1558,2143 L 1560,2142 L 1564,2139 L 1567,2137 L 1569,2135 L 1570,2135 L 1574,2132 L 1585,2124 L 1591,2121 L 1601,2115 L 1603,2115 L 1610,2115 L 1614,2115 L 1617,2115 L 1641,2115 L 1644,2115 L 1648,2115 L 1654,2115 L 1658,2115 L 1665,2115 L 1668,2115 L 1676,2115 L 1680,2115 L 1689,2115 L 1691,2115 L 1702,2115 L 1704,2115 L 1718,2115 L 1719,2115 L 1732,2115 L 1733,2112 L 1734,2111 L 1740,2099 L 1740,2099 L 1745,2088 L 1745,2087 L 1751,2076 L 1751,2075 L 1756,2065 L 1757,2064 L 1762,2053 L 1763,2052 L 1766,2044 L 1771,2044 L 1787,2040 L 1797,2037 L 1799,2037 L 1811,2033 L 1819,2031 L 1833,2028 L 1840,2027 L 1853,2025 L 1860,2025 L 1890,2025 L 1894,2025 L 1905,2026 L 1908,2027 L 1914,2030 L 1926,2037 L 1930,2040 L 1941,2049 L 1945,2052 L 1955,2061 L 1958,2064 L 1967,2075 L 1970,2078 L 1974,2084 L 1976,2091 L 1977,2096 L 1978,2109 L 1979,2114 L 1979,2127 L 1979,2131 L 1978,2145 L 1977,2150 L 1975,2163 L 1974,2168 L 1970,2182 L 1968,2188 L 1962,2202 L 1958,2210 L 1951,2224 L 1951,2225 L 1941,2225 L 1939,2225 L 1929,2225 L 1926,2225 L 1918,2225 L 1915,2225 L 1908,2225 L 1904,2225 L 1898,2225 L 1894,2225 L 1890,2225 L 1867,2225 L 1864,2225 L 1860,2225 L 1853,2225 L 1851,2225 L 1840,2231 L 1835,2234 L 1824,2242 L 1820,2245 L 1819,2245 L 1817,2247 L 1814,2249 L 1810,2252 L 1808,2253 L 1807,2253 L 1804,2256 L 1803,2256 L 1800,2258 L 1795,2261 L 1792,2262 L 1791,2263 L 1789,2264 L 1785,2266 L 1771,2273 L 1762,2279 L 1749,2288 L 1743,2293 L 1740,2299 L 1740,2299 L 1734,2311 L 1733,2312 L 1732,2315 L 1719,2315 L 1718,2315 L 1704,2315 L 1702,2315 L 1691,2315 L 1689,2315 L 1680,2315 L 1676,2315 L 1668,2315 L 1665,2315 L 1658,2315 L 1654,2315 L 1648,2315 L 1644,2315 L 1641,2315 L 1617,2315 L 1614,2315 L 1610,2315 L 1603,2315 L 1600,2315 L 1593,2315 L 1589,2315 L 1581,2315 L 1578,2315 L 1569,2315 L 1566,2315 L 1556,2315 L 1554,2315 L 1540,2315 L 1539,2315 L 1522,2315 L 1522,2315 L 1502,2315 L 1499,2315 L 1477,2315 L 1470,2315 L 1444,2315 L 1429,2315 L 1419,2315 L 1420,2312 L 1423,2302 L 1432,2275 L 1434,2269 L 1439,2256 L 1440,2254 L 1448,2232 L 1448,2230 L 1452,2220 L 1456,2216 z " style="fill-opacity:1.000000;fill:rgb(108,195,81);stroke:rgb(0,0,0);stroke-width:2"/></g>
<g fill-rule="evenodd"><path d="M 669,3454 L 669,3415 L 670,3395 L 670,3390 L 673,3359 L 673,3354 L 678,3330 L 679,3326 L 685,3307 L 687,3303 L 690,3295 L 719,3224 L 721,3220 L 722,3216 L 725,3207 L 726,3203 L 727,3194 L 728,3191 L 729,3183 L 729,3179 L 729,3175 L 729,1775 L 729,1771 L 729,1767 L 730,1759 L 731,1755 L 732,1747 L 733,1743 L 736,1734 L 737,1730 L 739,1725 L 782,1622 L 888,1517 L 888,1515 L 896,1496 L 903,1480 L 911,1466 L 920,1451 L 928,1439 L 939,1426 L 947,1416 L 954,1409 L 961,1406 L 973,1401 L 990,1396 L 1000,1393 L 1017,1389 L 1026,1388 L 1042,1386 L 1051,1386 L 1067,1386 L 1076,1386 L 1092,1388 L 1101,1389 L 1111,1392 L 1117,1395 L 1124,1401 L 1137,1412 L 1143,1418 L 1155,1430 L 1161,1437 L 1171,1450 L 1176,1458 L 1185,1473 L 1189,1479 L 1189,1483 L 1189,1500 L 1189,1510 L 1189,1527 L 1189,1539 L 1189,1556 L 1189,1571 L 1189,1590 L 1189,1611 L 1189,1618 L 1181,1626 L 1167,1639 L 1154,1650 L 1138,1663 L 1124,1672 L 1105,1684 L 1090,1692 L 1067,1703 L 1059,1706 L 931,1834 L 860,2006 L 858,2011 L 857,2015 L 854,2024 L 853,2027 L 852,2036 L 851,2039 L 850,2047 L 850,2051 L 850,2055 L 850,3269 L 865,3305 L 866,3307 L 867,3311 L 870,3315 L 871,3318 L 874,3322 L 876,3324 L 879,3328 L 881,3330 L 882,3332 L 942,3392 L 944,3393 L 946,3395 L 946,3395 L 950,3396 L 954,3397 L 957,3398 L 961,3398 L 964,3399 L 967,3399 L 969,3399 L 1899,3399 L 1900,3399 L 1904,3399 L 1907,3398 L 1911,3398 L 1914,3397 L 1918,3396 L 1921,3395 L 1925,3394 L 1927,3393 L 1931,3391 L 2055,3267 L 2057,3263 L 2058,3261 L 2059,3257 L 2060,3254 L 2061,3250 L 2062,3247 L 2062,3243 L 2063,3240 L 2063,3236 L 2063,3235 L 2063,3135 L 2063,3133 L 2063,3130 L 2062,3126 L 2062,3123 L 2061,3120 L 2060,3116 L 2059,3112 L 2058,3109 L 2057,3107 L 2019,3014 L 2019,3005 L 2019,2991 L 2018,2979 L 2016,2965 L 2014,2952 L 2010,2939 L 2007,2927 L 2016,2900 L 2019,2873 L 2019,2748 L 2052,2668 L 2053,2665 L 2054,2662 L 2056,2657 L 2057,2653 L 2058,2649 L 2058,2645 L 2059,2641 L 2059,2637 L 2059,2635 L 2059,2065 L 2059,2063 L 2059,2059 L 2058,2055 L 2058,2051 L 2057,2047 L 2056,2043 L 2054,2038 L 2053,2034 L 2052,2032 L 2019,1952 L 2019,1918 L 1994,1857 L 1988,1846 L 1980,1836 L 1970,1828 L 1959,1822 L 1869,1785 L 1851,1767 L 1829,1715 L 1827,1710 L 1826,1705 L 1823,1696 L 1822,1692 L 1820,1683 L 1820,1679 L 1819,1671 L 1819,1668 L 1819,1665 L 1819,1519 L 1815,1513 L 1812,1506 L 1804,1490 L 1802,1485 L 1797,1468 L 1796,1465 L 1792,1449 L 1791,1446 L 1789,1430 L 1789,1428 L 1789,1412 L 1789,1409 L 1790,1393 L 1790,1391 L 1793,1375 L 1794,1372 L 1799,1356 L 1800,1351 L 1807,1335 L 1807,1335 L 1807,1333 L 1809,1330 L 1809,1329 L 1810,1327 L 1824,1323 L 1830,1321 L 1846,1318 L 1850,1317 L 1867,1316 L 1870,1315 L 1878,1315 L 1881,1315 L 1897,1316 L 1901,1316 L 1918,1319 L 1922,1320 L 1939,1324 L 1945,1326 L 1959,1331 L 1961,1332 L 1969,1335 L 1990,1340 L 2008,1343 L 2039,1346 L 2102,1349 L 2119,1350 L 2119,3454 L 669,3454 z " style="fill-opacity:1.000000;fill:rgb(226,32,174);stroke:rgb(0,0,0);stroke-width:2"/></g>
<g fill-rule="evenodd"><path d="M 325,0 L 335,37 L 337,44 L 348,94 L 357,141 L 360,158 L 361,164 L 365,185 L 366,190 L 373,235 L 374,240 L 376,253 L 377,257 L 378,266 L 386,303 L 387,307 L 397,340 L 400,344 L 403,348 L 406,351 L 416,363 L 418,366 L 439,392 L 448,406 L 462,428 L 469,441 L 478,459 L 479,461 L 479,478 L 479,478 L 479,495 L 479,496 L 479,510 L 479,512 L 479,523 L 479,526 L 479,535 L 479,538 L 479,546 L 479,549 L 479,556 L 479,560 L 479,566 L 479,570 L 479,574 L 479,597 L 479,600 L 479,604 L 479,611 L 479,614 L 479,621 L 479,625 L 479,633 L 479,636 L 479,645 L 479,648 L 479,658 L 479,661 L 479,674 L 479,675 L 479,686 L 475,688 L 468,693 L 464,696 L 456,701 L 452,703 L 446,707 L 442,710 L 434,715 L 430,717 L 423,722 L 419,725 L 411,730 L 409,731 L 406,730 L 403,729 L 392,725 L 390,724 L 378,720 L 378,720 L 368,716 L 367,716 L 357,712 L 355,712 L 346,709 L 345,708 L 336,705 L 332,704 L 325,702 L 323,701 L 315,698 L 309,697 L 303,695 L 298,693 L 298,693 L 294,677 L 291,667 L 291,665 L 287,653 L 285,645 L 282,631 L 281,624 L 280,611 L 279,604 L 279,574 L 279,570 L 280,560 L 257,505 L 253,499 L 247,495 L 198,475 L 130,475 L 111,483 L 104,487 L 98,492 L 93,498 L 89,505 L 75,538 L 75,665 L 77,680 L 81,695 L 89,710 L 100,725 L 100,955 L 100,956 L 92,970 L 88,980 L 82,994 L 79,1002 L 75,1016 L 74,1023 L 71,1037 L 70,1043 L 69,1057 L 69,1063 L 69,1077 L 70,1083 L 72,1097 L 73,1104 L 76,1117 L 78,1125 L 83,1139 L 87,1148 L 93,1162 L 95,1165 L 92,1170 L 88,1180 L 82,1194 L 79,1202 L 75,1216 L 74,1223 L 71,1237 L 70,1243 L 69,1257 L 69,1263 L 69,1277 L 70,1283 L 72,1297 L 73,1304 L 76,1317 L 78,1325 L 83,1339 L 87,1348 L 93,1362 L 95,1365 L 92,1370 L 88,1380 L 82,1394 L 79,1402 L 75,1416 L 74,1423 L 71,1437 L 70,1443 L 69,1457 L 69,1463 L 69,1477 L 70,1483 L 72,1497 L 73,1504 L 76,1517 L 78,1525 L 83,1539 L 87,1548 L 93,1562 L 95,1565 L 92,1570 L 88,1580 L 82,1594 L 79,1602 L 75,1616 L 74,1623 L 71,1637 L 70,1643 L 69,1657 L 69,1663 L 69,1677 L 70,1683 L 72,1697 L 73,1704 L 76,1717 L 78,1725 L 83,1739 L 83,1739 L 89,1745 L 97,1753 L 99,1753 L 100,1754 L 109,1756 L 122,1760 L 130,1761 L 143,1764 L 150,1764 L 164,1765 L 168,1765 L 198,1765 L 205,1765 L 218,1763 L 225,1762 L 239,1759 L 247,1757 L 259,1753 L 261,1753 L 271,1750 L 287,1746 L 302,1744 L 303,1752 L 305,1766 L 305,1781 L 305,1791 L 305,1797 L 304,1805 L 304,1814 L 305,1828 L 305,1837 L 307,1851 L 309,1860 L 312,1874 L 315,1885 L 320,1899 L 325,1912 L 326,1915 L 325,1918 L 320,1932 L 319,1933 L 315,1943 L 309,1956 L 304,1966 L 297,1978 L 289,1988 L 279,2001 L 266,2016 L 260,2023 L 259,2023 L 244,2020 L 230,2018 L 213,2016 L 199,2015 L 190,2015 L 173,2015 L 159,2021 L 146,2027 L 133,2034 L 122,2041 L 110,2049 L 110,2049 L 103,2061 L 96,2075 L 92,2084 L 86,2098 L 84,2105 L 80,2119 L 78,2125 L 76,2138 L 75,2144 L 74,2158 L 74,2163 L 74,2177 L 75,2182 L 77,2195 L 78,2201 L 81,2215 L 83,2222 L 87,2235 L 91,2243 L 97,2257 L 101,2265 L 96,2275 L 92,2284 L 86,2298 L 84,2305 L 80,2319 L 78,2325 L 76,2338 L 75,2344 L 74,2358 L 74,2363 L 74,2376 L 75,2382 L 77,2395 L 78,2401 L 81,2415 L 83,2422 L 87,2435 L 91,2443 L 97,2457 L 101,2465 L 96,2475 L 92,2484 L 86,2497 L 84,2505 L 80,2519 L 78,2525 L 76,2538 L 75,2544 L 74,2558 L 74,2563 L 74,2576 L 75,2582 L 77,2595 L 78,2601 L 81,2615 L 83,2622 L 87,2635 L 91,2643 L 97,2657 L 101,2665 L 96,2675 L 92,2684 L 86,2697 L 84,2705 L 80,2719 L 78,2725 L 76,2738 L 75,2744 L 74,2758 L 74,2763 L 74,2776 L 75,2782 L 77,2795 L 78,2801 L 81,2815 L 83,2822 L 87,2835 L 91,2843 L 97,2857 L 101,2865 L 96,2875 L 92,2884 L 86,2897 L 84,2905 L 80,2918 L 78,2925 L 76,2938 L 75,2944 L 74,2958 L 74,2963 L 74,2976 L 75,2982 L 77,2995 L 78,3001 L 81,3015 L 83,3021 L 83,3022 L 91,3032 L 96,3037 L 106,3046 L 112,3051 L 123,3059 L 124,3060 L 130,3061 L 143,3063 L 150,3064 L 164,3065 L 168,3065 L 198,3065 L 205,3064 L 207,3064 L 259,3086 L 266,3090 L 270,3097 L 306,3184 L 305,3191 L 304,3204 L 304,3214 L 305,3227 L 305,3233 L 305,3237 L 305,3251 L 305,3252 L 310,3260 L 318,3271 L 324,3278 L 326,3280 L 337,3286 L 344,3289 L 358,3294 L 364,3296 L 378,3300 L 383,3301 L 397,3303 L 401,3303 L 415,3304 L 417,3304 L 448,3304 L 452,3304 L 466,3302 L 471,3301 L 480,3299 L 484,3297 L 488,3294 L 498,3285 L 502,3282 L 511,3272 L 515,3269 L 523,3258 L 526,3254 L 534,3242 L 537,3236 L 543,3223 L 547,3216 L 552,3202 L 555,3192 L 559,3177 L 562,3163 L 565,3146 L 567,3132 L 565,3127 L 561,3115 L 566,3101 L 570,3087 L 573,3071 L 576,3057 L 578,3043 L 579,3029 L 579,3015 L 579,3001 L 578,2987 L 576,2973 L 573,2958 L 570,2944 L 565,2927 L 561,2915 L 566,2901 L 570,2887 L 573,2871 L 576,2857 L 578,2843 L 579,2829 L 579,2815 L 579,2801 L 578,2787 L 576,2773 L 573,2758 L 570,2744 L 565,2727 L 561,2715 L 566,2701 L 570,2687 L 573,2671 L 576,2657 L 578,2643 L 579,2629 L 579,2615 L 579,2601 L 578,2587 L 576,2573 L 573,2558 L 570,2544 L 565,2527 L 561,2515 L 566,2501 L 570,2487 L 573,2471 L 576,2457 L 578,2443 L 579,2429 L 579,2415 L 579,2401 L 578,2387 L 576,2373 L 573,2358 L 570,2344 L 565,2327 L 561,2315 L 566,2301 L 570,2287 L 573,2271 L 576,2258 L 578,2243 L 579,2229 L 579,2215 L 579,2201 L 578,2187 L 576,2173 L 573,2158 L 570,2144 L 565,2127 L 561,2115 L 566,2101 L 570,2087 L 573,2071 L 576,2058 L 578,2043 L 579,2029 L 579,2015 L 579,2001 L 578,1987 L 576,1973 L 573,1958 L 570,1944 L 565,1928 L 561,1915 L 566,1901 L 570,1887 L 573,1871 L 576,1858 L 578,1843 L 579,1829 L 579,1815 L 579,1801 L 578,1787 L 576,1773 L 573,1758 L 570,1744 L 565,1728 L 561,1715 L 566,1701 L 570,1687 L 573,1671 L 576,1658 L 578,1643 L 579,1629 L 579,1615 L 579,1601 L 578,1587 L 576,1575 L 576,1573 L 575,1568 L 575,1564 L 574,1558 L 573,1548 L 573,1544 L 573,1543 L 571,1525 L 571,1523 L 571,1520 L 570,1515 L 576,1507 L 579,1503 L 581,1500 L 584,1496 L 587,1493 L 596,1480 L 603,1468 L 614,1449 L 621,1436 L 631,1412 L 636,1398 L 645,1373 L 709,1346 L 720,1342 L 723,1340 L 742,1330 L 745,1328 L 762,1317 L 764,1315 L 779,1303 L 782,1301 L 788,1294 L 838,1244 L 845,1238 L 848,1235 L 863,1223 L 866,1221 L 882,1210 L 886,1208 L 905,1198 L 908,1196 L 919,1191 L 984,1165 L 993,1169 L 1004,1174 L 1031,1184 L 1042,1188 L 1066,1194 L 1078,1197 L 1100,1200 L 1112,1202 L 1133,1203 L 1139,1203 L 1145,1203 L 1149,1203 L 1153,1203 L 1167,1203 L 1174,1203 L 1178,1203 L 1179,1203 L 1201,1204 L 1204,1205 L 1206,1205 L 1217,1205 L 1234,1207 L 1238,1207 L 1250,1208 L 1256,1208 L 1265,1209 L 1313,1210 L 1324,1210 L 1323,1203 L 1320,1156 L 1318,1142 L 1312,1107 L 1308,1094 L 1301,1068 L 1296,1056 L 1288,1035 L 1283,1024 L 1274,1007 L 1267,997 L 1258,983 L 1251,974 L 1250,974 L 1245,967 L 1243,964 L 1241,961 L 1237,957 L 1237,956 L 1233,953 L 1225,946 L 1221,942 L 1219,941 L 1219,932 L 1219,932 L 1219,915 L 1219,914 L 1219,901 L 1219,898 L 1219,888 L 1219,885 L 1219,876 L 1219,873 L 1219,865 L 1219,861 L 1219,854 L 1219,851 L 1219,844 L 1219,840 L 1219,837 L 1219,826 L 1224,813 L 1225,811 L 1231,797 L 1234,794 L 1241,781 L 1243,779 L 1251,768 L 1253,766 L 1262,755 L 1264,754 L 1274,744 L 1277,743 L 1288,735 L 1291,733 L 1294,731 L 1304,730 L 1308,729 L 1322,729 L 1325,729 L 1339,730 L 1342,731 L 1356,733 L 1360,734 L 1374,738 L 1379,740 L 1393,745 L 1400,749 L 1414,756 L 1419,759 L 1427,754 L 1435,750 L 1449,744 L 1455,741 L 1468,737 L 1473,735 L 1487,732 L 1491,731 L 1504,730 L 1508,729 L 1522,729 L 1525,729 L 1539,730 L 1542,731 L 1556,733 L 1560,734 L 1574,738 L 1579,740 L 1593,745 L 1600,749 L 1614,756 L 1623,761 L 1636,770 L 1636,770 L 1639,775 L 1642,781 L 1646,786 L 1650,793 L 1652,797 L 1658,805 L 1661,811 L 1669,822 L 1678,836 L 1682,841 L 1687,847 L 1690,851 L 1684,855 L 1676,860 L 1663,870 L 1657,873 L 1648,880 L 1642,883 L 1640,885 L 1630,891 L 1617,899 L 1610,903 L 1608,904 L 1602,907 L 1595,911 L 1589,914 L 1588,915 L 1583,918 L 1576,922 L 1571,925 L 1570,925 L 1565,928 L 1558,932 L 1553,935 L 1551,935 L 1546,938 L 1539,942 L 1533,945 L 1531,946 L 1525,950 L 1518,954 L 1511,957 L 1507,960 L 1499,964 L 1496,966 L 1499,979 L 1502,991 L 1507,1005 L 1510,1014 L 1516,1027 L 1519,1033 L 1526,1046 L 1529,1050 L 1538,1062 L 1541,1066 L 1550,1076 L 1553,1079 L 1563,1089 L 1567,1092 L 1578,1100 L 1582,1103 L 1594,1110 L 1600,1113 L 1603,1115 L 1610,1115 L 1614,1115 L 1617,1115 L 1641,1115 L 1644,1115 L 1648,1115 L 1654,1115 L 1658,1115 L 1665,1115 L 1668,1115 L 1676,1115 L 1680,1115 L 1689,1115 L 1691,1115 L 1702,1115 L 1704,1115 L 1718,1115 L 1719,1115 L 1733,1115 L 1734,1114 L 1742,1102 L 1750,1091 L 1759,1081 L 1769,1070 L 1780,1059 L 1795,1046 L 1799,1042 L 1809,1034 L 1831,1012 L 1845,998 L 1876,961 L 1890,944 L 1920,902 L 1933,896 L 1945,891 L 1959,885 L 2001,865 L 2013,859 L 2092,823 L 2108,816 L 2119,811 L 2119,1350 L 2102,1349 L 2039,1346 L 2008,1343 L 1990,1340 L 1969,1335 L 1961,1332 L 1959,1331 L 1945,1326 L 1939,1324 L 1922,1320 L 1918,1319 L 1901,1316 L 1897,1316 L 1881,1315 L 1878,1315 L 1870,1315 L 1867,1316 L 1850,1317 L 1846,1318 L 1830,1321 L 1824,1323 L 1810,1327 L 1809,1329 L 1809,1330 L 1807,1333 L 1807,1335 L 1807,1335 L 1800,1351 L 1799,1356 L 1794,1372 L 1793,1375 L 1790,1391 L 1790,1393 L 1789,1409 L 1789,1412 L 1789,1428 L 1789,1430 L 1791,1446 L 1792,1449 L 1796,1465 L 1797,1468 L 1802,1485 L 1804,1490 L 1812,1506 L 1815,1513 L 1819,1519 L 1819,1665 L 1819,1668 L 1819,1671 L 1820,1679 L 1820,1683 L 1822,1692 L 1823,1696 L 1826,1705 L 1827,1710 L 1829,1715 L 1851,1767 L 1869,1785 L 1959,1822 L 1970,1828 L 1980,1836 L 1988,1846 L 1994,1857 L 2019,1918 L 2019,1952 L 2052,2032 L 2053,2034 L 2054,2038 L 2056,2043 L 2057,2047 L 2058,2051 L 2058,2055 L 2059,2059 L 2059,2063 L 2059,2065 L 2059,2635 L 2059,2637 L 2059,2641 L 2058,2645 L 2058,2649 L 2057,2653 L 2056,2657 L 2054,2662 L 2053,2665 L 2052,2668 L 2019,2748 L 2019,2873 L 2016,2900 L 2007,2927 L 2004,2926 L 1985,2923 L 1972,2920 L 1959,2916 L 1958,2916 L 1949,2913 L 1936,2910 L 1928,2908 L 1915,2906 L 1908,2906 L 1894,2905 L 1890,2905 L 1860,2905 L 1853,2905 L 1840,2907 L 1833,2908 L 1819,2911 L 1811,2913 L 1799,2916 L 1797,2917 L 1787,2920 L 1771,2923 L 1754,2926 L 1750,2927 L 1747,2924 L 1740,2915 L 1741,2901 L 1743,2887 L 1746,2873 L 1746,2873 L 1749,2862 L 1751,2848 L 1753,2839 L 1754,2825 L 1754,2816 L 1753,2802 L 1753,2793 L 1751,2779 L 1749,2769 L 1746,2756 L 1743,2745 L 1740,2737 L 1738,2731 L 1734,2717 L 1734,2715 L 1735,2714 L 1743,2702 L 1745,2698 L 1767,2690 L 1789,2685 L 1794,2685 L 1797,2684 L 1799,2684 L 1808,2683 L 1811,2683 L 1822,2681 L 1826,2680 L 1837,2676 L 1841,2675 L 1847,2673 L 1860,2667 L 1865,2663 L 1868,2661 L 1898,2648 L 1908,2644 L 1921,2637 L 1929,2632 L 1941,2624 L 1948,2619 L 1958,2610 L 1958,2610 L 1962,2602 L 1968,2588 L 1970,2582 L 1974,2568 L 1975,2563 L 1977,2550 L 1978,2545 L 1979,2531 L 1979,2527 L 1979,2514 L 1978,2509 L 1977,2496 L 1976,2491 L 1972,2477 L 1971,2472 L 1966,2458 L 1963,2451 L 1957,2437 L 1952,2428 L 1951,2425 L 1951,2424 L 1958,2410 L 1962,2402 L 1968,2388 L 1970,2382 L 1974,2368 L 1975,2363 L 1977,2350 L 1978,2345 L 1979,2331 L 1979,2327 L 1979,2314 L 1978,2309 L 1977,2296 L 1976,2291 L 1972,2277 L 1971,2272 L 1966,2258 L 1963,2251 L 1957,2237 L 1952,2228 L 1951,2225 L 1951,2224 L 1958,2210 L 1962,2202 L 1968,2188 L 1970,2182 L 1974,2168 L 1975,2163 L 1977,2150 L 1978,2145 L 1979,2131 L 1979,2127 L 1979,2114 L 1978,2109 L 1977,2096 L 1976,2091 L 1974,2084 L 1970,2078 L 1967,2075 L 1958,2064 L 1955,2061 L 1945,2052 L 1941,2049 L 1930,2040 L 1926,2037 L 1914,2030 L 1908,2027 L 1905,2026 L 1894,2025 L 1890,2025 L 1860,2025 L 1853,2025 L 1840,2027 L 1833,2028 L 1819,2031 L 1811,2033 L 1799,2037 L 1797,2037 L 1787,2040 L 1771,2044 L 1766,2044 L 1765,2041 L 1760,2026 L 1757,2016 L 1754,2002 L 1753,1993 L 1753,1993 L 1751,1979 L 1749,1969 L 1746,1956 L 1743,1945 L 1738,1931 L 1733,1918 L 1732,1915 L 1733,1912 L 1738,1898 L 1739,1898 L 1738,1883 L 1736,1866 L 1734,1857 L 1731,1841 L 1729,1835 L 1729,1835 L 1728,1833 L 1727,1828 L 1726,1825 L 1726,1821 L 1726,1821 L 1725,1818 L 1725,1817 L 1724,1813 L 1724,1810 L 1724,1807 L 1724,1805 L 1724,1804 L 1723,1801 L 1722,1787 L 1721,1783 L 1718,1770 L 1717,1765 L 1712,1751 L 1710,1746 L 1703,1732 L 1699,1724 L 1694,1715 L 1698,1709 L 1705,1695 L 1708,1688 L 1713,1674 L 1715,1669 L 1719,1656 L 1720,1652 L 1722,1638 L 1723,1635 L 1724,1621 L 1724,1618 L 1724,1604 L 1723,1601 L 1722,1587 L 1721,1583 L 1718,1570 L 1717,1565 L 1712,1551 L 1710,1546 L 1703,1532 L 1699,1524 L 1694,1515 L 1698,1509 L 1705,1495 L 1708,1488 L 1713,1474 L 1715,1469 L 1719,1456 L 1720,1452 L 1722,1438 L 1723,1435 L 1724,1421 L 1724,1418 L 1724,1404 L 1723,1401 L 1722,1387 L 1721,1383 L 1718,1370 L 1717,1365 L 1713,1354 L 1711,1352 L 1707,1348 L 1697,1339 L 1693,1335 L 1682,1327 L 1677,1324 L 1665,1316 L 1662,1315 L 1658,1315 L 1654,1315 L 1648,1315 L 1644,1315 L 1641,1315 L 1617,1315 L 1614,1315 L 1610,1315 L 1604,1315 L 1603,1315 L 1591,1322 L 1586,1325 L 1574,1333 L 1570,1336 L 1560,1345 L 1556,1348 L 1547,1358 L 1543,1361 L 1535,1372 L 1532,1376 L 1524,1388 L 1521,1393 L 1515,1406 L 1511,1414 L 1509,1420 L 1503,1422 L 1496,1426 L 1485,1432 L 1480,1435 L 1470,1442 L 1465,1445 L 1457,1453 L 1453,1457 L 1445,1465 L 1441,1469 L 1434,1478 L 1430,1483 L 1427,1489 L 1427,1494 L 1426,1501 L 1426,1502 L 1426,1508 L 1426,1512 L 1425,1518 L 1425,1524 L 1425,1530 L 1425,1531 L 1425,1536 L 1425,1548 L 1425,1548 L 1425,1557 L 1425,1557 L 1425,1570 L 1425,1576 L 1425,1583 L 1425,1590 L 1425,1598 L 1425,1602 L 1418,1605 L 1405,1610 L 1389,1615 L 1378,1618 L 1362,1622 L 1352,1623 L 1336,1625 L 1327,1625 L 1311,1625 L 1302,1625 L 1285,1623 L 1279,1622 L 1276,1622 L 1274,1621 L 1271,1621 L 1261,1620 L 1259,1620 L 1257,1619 L 1247,1619 L 1245,1619 L 1241,1618 L 1227,1618 L 1226,1618 L 1222,1618 L 1212,1618 L 1206,1618 L 1189,1618 L 1189,1611 L 1189,1590 L 1189,1571 L 1189,1556 L 1189,1539 L 1189,1527 L 1189,1510 L 1189,1500 L 1189,1483 L 1189,1479 L 1185,1473 L 1176,1458 L 1171,1450 L 1161,1437 L 1155,1430 L 1143,1418 L 1137,1412 L 1124,1401 L 1117,1395 L 1111,1392 L 1101,1389 L 1092,1388 L 1076,1386 L 1067,1386 L 1051,1386 L 1042,1386 L 1026,1388 L 1017,1389 L 1000,1393 L 990,1396 L 973,1401 L 961,1406 L 954,1409 L 947,1416 L 939,1426 L 928,1439 L 920,1451 L 911,1466 L 903,1480 L 896,1496 L 888,1515 L 888,1517 L 782,1622 L 739,1725 L 737,1730 L 736,1734 L 733,1743 L 732,1747 L 731,1755 L 730,1759 L 729,1767 L 729,1771 L 729,1775 L 729,3175 L 729,3179 L 729,3183 L 728,3191 L 727,3194 L 726,3203 L 725,3207 L 722,3216 L 721,3220 L 719,3224 L 690,3295 L 687,3303 L 685,3307 L 679,3326 L 678,3330 L 673,3354 L 673,3359 L 670,3390 L 670,3395 L 669,3415 L 669,3454 L 0,3454 L 0,0 L 325,0 z " style="fill-opacity:1.000000;fill:rgb(12,225,6);stroke:rgb(0,0,0);stroke-width:2"/></g>
</svg>
