<?xml version="1.0" standalone="no"?>
<!DOCTYPE svg PUBLIC "-//W3C//DTD SVG 1.1//EN"
"http://www.w3.org/Graphics/SVG/1.1/DTD/svg11.dtd">
<svg width="2119" height="3319" viewBox="0 0 2119 3319" version="1.1"
xmlns="http://www.w3.org/2000/svg"
xmlns:xlink="http://www.w3.org/1999/xlink">
<g fill-rule="evenodd"><path d="M 587.597,701.855 L 586.206,715.541 L 582.086,728.666 L 575.41,740.693 L 566.45,751.129 L 555.572,759.549 L 543.222,765.608 L 529.905,769.056 L 516.168,769.753 L 502.571,767.67 L 489.671,762.893 L 477.998,755.616 L 468.028,746.138 L 460.17,734.849 L 454.745,722.207 L 451.975,708.732 L 451.625,677.86 L 453.017,664.175 L 457.136,651.05 L 463.813,639.022 L 472.773,628.586 L 483.651,620.166 L 496,614.107 L 509.317,610.66 L 523.055,609.962 L 536.652,612.046 L 549.551,616.823 L 561.225,624.099 L 571.195,633.577 L 579.053,644.867 L 584.478,657.508 L 587.247,670.984 L 587.597,701.855 z " style="fill-opacity:1.000000;fill:rgb(167,241,217);stroke:rgb(0,0,0);stroke-width:2"/></g>
<g fill-rule="evenodd"><path d="M 1497.41,3091.36 L 1496.02,3105.05 L 1491.9,3118.17 L 1485.22,3130.2 L 1476.26,3140.64 L 1465.38,3149.06 L 1453.03,3155.12 L 1439.72,3158.56 L 1425.98,3159.26 L 1412.38,3157.18 L 1399.48,3152.4 L 1387.81,3145.12 L 1377.84,3135.65 L 1369.98,3124.36 L 1364.56,3111.71 L 1361.79,3098.24 L 1361.44,3067.37 L 1362.83,3053.68 L 1366.95,3040.56 L 1373.63,3028.53 L 1382.59,3018.09 L 1393.46,3009.67 L 1405.81,3003.61 L 1419.13,3000.17 L 1432.87,2999.47 L 1446.46,3001.55 L 1459.36,3006.33 L 1471.04,3013.61 L 1481.01,3023.08 L 1488.87,3034.37 L 1494.29,3047.02 L 1497.06,3060.49 L 1497.41,3091.36 z " style="fill-opacity:1.000000;fill:rgb(42,130,200);stroke:rgb(0,0,0);stroke-width:2"/></g>
<g fill-rule="evenodd"><path d="M 1297.45,3091.36 L 1296.06,3105.05 L 1291.94,3118.17 L 1285.26,3130.2 L 1276.3,3140.64 L 1265.43,3149.06 L 1253.08,3155.12 L 1239.76,3158.56 L 1226.02,3159.26 L 1212.42,3157.18 L 1199.53,3152.4 L 1187.85,3145.12 L 1177.88,3135.65 L 1170.02,3124.36 L 1164.6,3111.71 L 1161.83,3098.24 L 1161.48,3067.37 L 1162.87,3053.68 L 1166.99,3040.56 L 1173.67,3028.53 L 1182.63,3018.09 L 1193.5,3009.67 L 1205.85,3003.61 L 1219.17,3000.17 L 1232.91,2999.47 L 1246.51,3001.55 L 1259.4,3006.33 L 1271.08,3013.61 L 1281.05,3023.08 L 1288.91,3034.37 L 1294.33,3047.02 L 1297.1,3060.49 L 1297.45,3091.36 z " style="fill-opacity:1.000000;fill:rgb(216,254,67);stroke:rgb(0,0,0);stroke-width:2"/></g>
<g fill-rule="evenodd"><path d="M 1097.49,3091.36 L 1096.1,3105.05 L 1091.98,3118.17 L 1085.3,3130.2 L 1076.34,3140.64 L 1065.47,3149.06 L 1053.12,3155.12 L 1039.8,3158.56 L 1026.06,3159.26 L 1012.47,3157.18 L 999.566,3152.4 L 987.893,3145.12 L 977.923,3135.65 L 970.064,3124.36 L 964.64,3111.71 L 961.87,3098.24 L 961.52,3067.37 L 962.912,3053.68 L 967.031,3040.56 L 973.708,3028.53 L 982.668,3018.09 L 993.546,3009.67 L 1005.9,3003.61 L 1019.21,3000.17 L 1032.95,2999.47 L 1046.55,3001.55 L 1059.45,3006.33 L 1071.12,3013.61 L 1081.09,3023.08 L 1088.95,3034.37 L 1094.37,3047.02 L 1097.14,3060.49 L 1097.49,3091.36 z " style="fill-opacity:1.000000;fill:rgb(77,152,85);stroke:rgb(0,0,0);stroke-width:2"/></g>
<g fill-rule="evenodd"><path d="M 1617.39,2947.39 L 1603.7,2946 L 1590.57,2941.88 L 1578.55,2935.21 L 1568.11,2926.24 L 1559.69,2915.37 L 1553.63,2903.02 L 1550.18,2889.7 L 1549.49,2875.96 L 1551.57,2862.37 L 1556.35,2849.47 L 1563.62,2837.79 L 1573.1,2827.82 L 1584.39,2819.96 L 1597.03,2814.54 L 1610.51,2811.77 L 1641.38,2811.42 L 1655.07,2812.81 L 1668.19,2816.93 L 1680.22,2823.61 L 1690.65,2832.57 L 1699.07,2843.45 L 1705.13,2855.8 L 1708.58,2869.11 L 1709.28,2882.85 L 1707.19,2896.45 L 1702.42,2909.35 L 1695.14,2921.02 L 1685.66,2930.99 L 1674.37,2938.85 L 1661.73,2944.27 L 1648.26,2947.04 L 1617.39,2947.39 z " style="fill-opacity:1.000000;fill:rgb(140,226,179);stroke:rgb(0,0,0);stroke-width:2"/></g>
<g fill-rule="evenodd"><path d="M 1617.39,2747.43 L 1603.7,2746.04 L 1590.57,2741.92 L 1578.55,2735.25 L 1568.11,2726.29 L 1559.69,2715.41 L 1553.63,2703.06 L 1550.18,2689.74 L 1549.49,2676 L 1551.57,2662.41 L 1556.35,2649.51 L 1563.62,2637.83 L 1573.1,2627.86 L 1584.39,2620.01 L 1597.03,2614.58 L 1610.51,2611.81 L 1641.38,2611.46 L 1655.07,2612.85 L 1668.19,2616.97 L 1680.22,2623.65 L 1690.65,2632.61 L 1699.07,2643.49 L 1705.13,2655.84 L 1708.58,2669.15 L 1709.28,2682.89 L 1707.19,2696.49 L 1702.42,2709.39 L 1695.14,2721.06 L 1685.66,2731.03 L 1674.37,2738.89 L 1661.73,2744.31 L 1648.26,2747.08 L 1617.39,2747.43 z " style="fill-opacity:1.000000;fill:rgb(71,23,17);stroke:rgb(0,0,0);stroke-width:2"/></g>
<g fill-rule="evenodd"><path d="M 1617.39,1747.64 L 1603.7,1746.25 L 1590.57,1742.13 L 1578.55,1735.45 L 1568.11,1726.49 L 1559.69,1715.61 L 1553.63,1703.26 L 1550.18,1689.95 L 1549.49,1676.21 L 1551.57,1662.61 L 1556.35,1649.71 L 1563.62,1638.04 L 1573.1,1628.07 L 1584.39,1620.21 L 1597.03,1614.79 L 1610.51,1612.02 L 1641.38,1611.67 L 1655.07,1613.06 L 1668.19,1617.18 L 1680.22,1623.86 L 1690.65,1632.82 L 1699.07,1643.69 L 1705.13,1656.04 L 1708.58,1669.36 L 1709.28,1683.1 L 1707.19,1696.69 L 1702.42,1709.59 L 1695.14,1721.27 L 1685.66,1731.24 L 1674.37,1739.1 L 1661.73,1744.52 L 1648.26,1747.29 L 1617.39,1747.64 z " style="fill-opacity:1.000000;fill:rgb(152,84,47);stroke:rgb(0,0,0);stroke-width:2"/></g>
<g fill-rule="evenodd"><path d="M 1617.39,1347.72 L 1603.7,1346.33 L 1590.57,1342.21 L 1578.55,1335.53 L 1568.11,1326.57 L 1559.69,1315.7 L 1553.63,1303.35 L 1550.18,1290.03 L 1549.49,1276.29 L 1551.57,1262.7 L 1556.35,1249.8 L 1563.62,1238.12 L 1573.1,1228.15 L 1584.39,1220.29 L 1597.03,1214.87 L 1610.51,1212.1 L 1641.38,1211.75 L 1655.07,1213.14 L 1668.19,1217.26 L 1680.22,1223.94 L 1690.65,1232.9 L 1699.07,1243.78 L 1705.13,1256.13 L 1708.58,1269.44 L 1709.28,1283.18 L 1707.19,1296.78 L 1702.42,1309.68 L 1695.14,1321.35 L 1685.66,1331.32 L 1674.37,1339.18 L 1661.73,1344.6 L 1648.26,1347.37 L 1617.39,1347.72 z " style="fill-opacity:1.000000;fill:rgb(17,45,5);stroke:rgb(0,0,0);stroke-width:2"/></g>
<g fill-rule="evenodd"><path d="M 1617.39,947.805 L 1603.7,946.413 L 1590.57,942.294 L 1578.55,935.617 L 1568.11,926.657 L 1559.69,915.779 L 1553.63,903.43 L 1550.18,890.113 L 1549.49,876.375 L 1551.57,862.778 L 1556.35,849.879 L 1563.62,838.205 L 1573.1,828.235 L 1584.39,820.377 L 1597.03,814.952 L 1610.51,812.183 L 1641.38,811.833 L 1655.07,813.224 L 1668.19,817.344 L 1680.22,824.02 L 1690.65,832.98 L 1699.07,843.858 L 1705.13,856.208 L 1708.58,869.525 L 1709.28,883.262 L 1707.19,896.859 L 1702.42,909.759 L 1695.14,921.432 L 1685.66,931.402 L 1674.37,939.26 L 1661.73,944.685 L 1648.26,947.455 L 1617.39,947.805 z " style="fill-opacity:1.000000;fill:rgb(88,245,107);stroke:rgb(0,0,0);stroke-width:2"/></g>
<g fill-rule="evenodd"><path d="M 417.634,1547.68 L 403.947,1546.29 L 390.822,1542.17 L 378.794,1535.49 L 368.358,1526.53 L 359.938,1515.66 L 353.879,1503.31 L 350.432,1489.99 L 349.734,1476.25 L 351.818,1462.65 L 356.595,1449.76 L 363.871,1438.08 L 373.349,1428.11 L 384.639,1420.25 L 397.28,1414.83 L 410.756,1412.06 L 441.627,1411.71 L 455.313,1413.1 L 468.438,1417.22 L 480.465,1423.9 L 490.901,1432.86 L 499.321,1443.73 L 505.38,1456.08 L 508.827,1469.4 L 509.525,1483.14 L 507.442,1496.74 L 502.665,1509.63 L 495.388,1521.31 L 485.91,1531.28 L 474.621,1539.14 L 461.979,1544.56 L 448.504,1547.33 L 417.634,1547.68 z " style="fill-opacity:1.000000;fill:rgb(214,136,7);stroke:rgb(0,0,0);stroke-width:2"/></g>
<g fill-rule="evenodd"><path d="M 417.634,1747.64 L 403.947,1746.25 L 390.822,1742.13 L 378.794,1735.45 L 368.358,1726.49 L 359.938,1715.61 L 353.879,1703.26 L 350.432,1689.95 L 349.734,1676.21 L 351.818,1662.61 L 356.595,1649.71 L 363.871,1638.04 L 373.349,1628.07 L 384.639,1620.21 L 397.28,1614.79 L 410.756,1612.02 L 441.627,1611.67 L 455.313,1613.06 L 468.438,1617.18 L 480.465,1623.86 L 490.901,1632.82 L 499.321,1643.69 L 505.38,1656.04 L 508.827,1669.36 L 509.525,1683.1 L 507.442,1696.69 L 502.665,1709.59 L 495.388,1721.27 L 485.91,1731.24 L 474.621,1739.1 L 461.979,1744.52 L 448.504,1747.29 L 417.634,1747.64 z " style="fill-opacity:1.000000;fill:rgb(153,146,72);stroke:rgb(0,0,0);stroke-width:2"/></g>
<g fill-rule="evenodd"><path d="M 417.634,1947.6 L 403.947,1946.21 L 390.822,1942.09 L 378.794,1935.41 L 368.358,1926.45 L 359.938,1915.57 L 353.879,1903.22 L 350.432,1889.91 L 349.734,1876.17 L 351.818,1862.57 L 356.595,1849.67 L 363.871,1838 L 373.349,1828.03 L 384.639,1820.17 L 397.28,1814.75 L 410.756,1811.98 L 441.627,1811.63 L 455.313,1813.02 L 468.438,1817.14 L 480.465,1823.81 L 490.901,1832.77 L 499.321,1843.65 L 505.38,1856 L 508.827,1869.32 L 509.525,1883.06 L 507.442,1896.65 L 502.665,1909.55 L 495.388,1921.23 L 485.91,1931.2 L 474.621,1939.05 L 461.979,1944.48 L 448.504,1947.25 L 417.634,1947.6 z " style="fill-opacity:1.000000;fill:rgb(51,98,65);stroke:rgb(0,0,0);stroke-width:2"/></g>
<g fill-rule="evenodd"><path d="M 417.634,2147.56 L 403.947,2146.17 L 390.822,2142.05 L 378.794,2135.37 L 368.358,2126.41 L 359.938,2115.53 L 353.879,2103.18 L 350.432,2089.87 L 349.734,2076.13 L 351.818,2062.53 L 356.595,2049.63 L 363.871,2037.96 L 373.349,2027.99 L 384.639,2020.13 L 397.28,2014.7 L 410.756,2011.94 L 441.627,2011.59 L 455.313,2012.98 L 468.438,2017.1 L 480.465,2023.77 L 490.901,2032.73 L 499.321,2043.61 L 505.38,2055.96 L 508.827,2069.28 L 509.525,2083.01 L 507.442,2096.61 L 502.665,2109.51 L 495.388,2121.18 L 485.91,2131.15 L 474.621,2139.01 L 461.979,2144.44 L 448.504,2147.21 L 417.634,2147.56 z " style="fill-opacity:1.000000;fill:rgb(243,13,35);stroke:rgb(0,0,0);stroke-width:2"/></g>
<g fill-rule="evenodd"><path d="M 1249.46,359.926 L 1249.46,199.959 L 1409.43,199.959 L 1409.43,359.926 L 1249.46,359.926 z " style="fill-opacity:1.000000;fill:rgb(229,95,48);stroke:rgb(0,0,0);stroke-width:2"/></g>
<g fill-rule="evenodd"><path d="M 1329.44,0 L 1345.54,1.63766 L 1360.99,6.48266 L 1375.13,14.337 L 1387.41,24.8789 L 1397.32,37.6762 L 1404.45,52.2052 L 1408.5,67.872 L 1409.32,84.0327 L 1406.87,100.031 L 1401.25,115.206 L 1392.69,128.941 L 1381.54,140.671 L 1368.26,149.915 L 1353.39,156.298 L 1337.53,159.555 L 1329.44,159.967 L 1313.35,158.329 L 1297.9,153.484 L 1283.75,145.63 L 1271.47,135.088 L 1261.57,122.291 L 1254.44,107.762 L 1250.38,92.095 L 1249.56,75.9344 L 1252.01,59.9356 L 1257.64,44.7608 L 1266.2,31.0256 L 1277.35,19.296 L 1290.63,10.0519 L 1305.5,3.66924 L 1321.35,0.411915 L 1329.44,0 z " style="fill-opacity:1.000000;fill:rgb(209,200,237);stroke:rgb(0,0,0);stroke-width:2"/></g>
<g fill-rule="evenodd"><path d="M 1549.4,359.926 L 1549.4,199.959 L 1709.37,199.959 L 1709.37,359.926 L 1549.4,359.926 z " style="fill-opacity:1.000000;fill:rgb(97,12,75);stroke:rgb(0,0,0);stroke-width:2"/></g>
<g fill-rule="evenodd"><path d="M 1629.38,0 L 1645.48,1.63766 L 1660.92,6.48266 L 1675.07,14.337 L 1687.35,24.8789 L 1697.26,37.6762 L 1704.39,52.2052 L 1708.44,67.872 L 1709.26,84.0327 L 1706.81,100.031 L 1701.19,115.206 L 1692.63,128.941 L 1681.48,140.671 L 1668.2,149.915 L 1653.33,156.298 L 1637.47,159.555 L 1629.38,159.967 L 1613.28,158.329 L 1597.84,153.484 L 1583.69,145.63 L 1571.41,135.088 L 1561.51,122.291 L 1554.38,107.762 L 1550.32,92.095 L 1549.5,75.9344 L 1551.95,59.9356 L 1557.57,44.7608 L 1566.13,31.0256 L 1577.29,19.296 L 1590.57,10.0519 L 1605.44,3.66924 L 1621.29,0.411915 L 1629.38,0 z " style="fill-opacity:1.000000;fill:rgb(2,53,57);stroke:rgb(0,0,0);stroke-width:2"/></g>
<g fill-rule="evenodd"><path d="M 647.585,461.905 L 646.193,475.59 L 642.074,488.715 L 635.397,500.743 L 626.437,511.179 L 615.559,519.599 L 603.21,525.658 L 589.893,529.105 L 576.156,529.803 L 562.558,527.719 L 549.659,522.942 L 537.985,515.666 L 528.016,506.188 L 520.157,494.898 L 514.732,482.257 L 511.963,468.781 L 511.613,437.91 L 513.005,424.225 L 517.124,411.099 L 523.8,399.072 L 532.761,388.636 L 543.638,380.216 L 555.988,374.157 L 569.305,370.71 L 583.042,370.012 L 596.639,372.095 L 609.539,376.872 L 621.212,384.149 L 631.182,393.627 L 639.041,404.917 L 644.466,417.558 L 647.235,431.033 L 647.585,461.905 z " style="fill-opacity:1.000000;fill:rgb(129,132,184);stroke:rgb(0,0,0);stroke-width:2"/></g>
<g fill-rule="evenodd"><path d="M 847.544,461.905 L 846.152,475.59 L 842.033,488.715 L 835.356,500.743 L 826.396,511.179 L 815.518,519.599 L 803.169,525.658 L 789.852,529.105 L 776.114,529.803 L 762.517,527.719 L 749.618,522.942 L 737.944,515.666 L 727.974,506.188 L 720.116,494.898 L 714.691,482.257 L 711.922,468.781 L 711.572,437.91 L 712.963,424.225 L 717.083,411.099 L 723.759,399.072 L 732.719,388.636 L 743.597,380.216 L 755.947,374.157 L 769.264,370.71 L 783.001,370.012 L 796.598,372.095 L 809.498,376.872 L 821.171,384.149 L 831.141,393.627 L 838.999,404.917 L 844.424,417.558 L 847.194,431.033 L 847.544,461.905 z " style="fill-opacity:1.000000;fill:rgb(20,162,156);stroke:rgb(0,0,0);stroke-width:2"/></g>
<g fill-rule="evenodd"><path d="M 1136.03,1987.31 L 1131.38,2001.6 L 1123.15,2015.84 L 1112.15,2028.07 L 1098.84,2037.74 L 1083.81,2044.43 L 1067.72,2047.85 L 1051.28,2047.85 L 1035.19,2044.43 L 1020.16,2037.74 L 1006.85,2028.07 L 995.845,2015.84 L 987.619,2001.6 L 982.536,1985.95 L 980.816,1969.59 L 982.536,1953.24 L 987.619,1937.59 L 995.845,1923.35 L 1006.85,1911.12 L 1020.16,1901.45 L 1035.19,1894.76 L 1051.28,1891.34 L 1067.72,1891.34 L 1083.81,1894.76 L 1098.84,1901.45 L 1112.15,1911.12 L 1123.15,1923.35 L 1131.38,1937.59 L 1136.02,1951.88 L 1242.92,1951.88 L 1247.57,1937.59 L 1255.79,1923.35 L 1266.8,1911.12 L 1280.1,1901.45 L 1295.13,1894.76 L 1311.22,1891.34 L 1327.67,1891.34 L 1343.76,1894.76 L 1358.79,1901.45 L 1372.1,1911.12 L 1383.1,1923.35 L 1391.33,1937.59 L 1395.97,1951.88 L 1532.06,1951.88 L 1563.48,1920.47 L 1559.69,1915.57 L 1553.63,1903.22 L 1550.18,1889.91 L 1549.49,1876.17 L 1551.57,1862.57 L 1556.35,1849.67 L 1563.62,1838 L 1573.1,1828.03 L 1584.39,1820.17 L 1597.03,1814.75 L 1610.51,1811.98 L 1641.38,1811.63 L 1655.07,1813.02 L 1668.19,1817.14 L 1680.22,1823.81 L 1690.65,1832.77 L 1699.07,1843.65 L 1705.13,1856 L 1708.58,1869.32 L 1709.28,1883.06 L 1707.19,1896.65 L 1702.42,1909.55 L 1695.14,1921.23 L 1685.66,1931.2 L 1674.37,1939.05 L 1661.73,1944.48 L 1648.26,1947.25 L 1617.39,1947.6 L 1603.7,1946.21 L 1591.63,1942.42 L 1551.92,1982.12 L 1549.24,1984.32 L 1546.18,1985.96 L 1542.85,1986.97 L 1539.4,1987.31 L 1395.97,1987.31 L 1391.33,2001.6 L 1383.1,2015.84 L 1372.1,2028.07 L 1358.79,2037.74 L 1343.76,2044.43 L 1327.67,2047.85 L 1311.22,2047.85 L 1295.13,2044.43 L 1280.11,2037.74 L 1266.8,2028.07 L 1255.79,2015.84 L 1247.57,2001.6 L 1242.92,1987.31 L 1136.03,1987.31 z " style="fill-opacity:1.000000;fill:rgb(180,90,103);stroke:rgb(0,0,0);stroke-width:2"/></g>
<g fill-rule="evenodd"><path d="M 986.531,667.898 L 987.165,670.984 L 987.515,701.855 L 986.123,715.541 L 982.004,728.666 L 975.327,740.693 L 966.367,751.129 L 955.489,759.549 L 943.14,765.608 L 937.241,767.134 L 937.241,869.821 L 936.899,873.278 L 935.891,876.601 L 934.254,879.663 L 932.052,882.346 L 722.096,1092.3 L 719.41,1094.51 L 716.349,1096.14 L 713.025,1097.15 L 709.572,1097.49 L 507.194,1097.49 L 502.665,1109.72 L 495.388,1121.39 L 485.91,1131.36 L 474.621,1139.22 L 461.979,1144.64 L 448.504,1147.41 L 417.634,1147.76 L 403.947,1146.37 L 391.876,1142.58 L 245.584,1288.87 L 249.373,1293.77 L 255.432,1306.12 L 258.879,1319.43 L 259.577,1333.17 L 257.493,1346.77 L 252.716,1359.67 L 245.44,1371.34 L 235.962,1381.31 L 224.672,1389.17 L 212.031,1394.59 L 198.555,1397.36 L 167.686,1397.71 L 153.999,1396.32 L 140.873,1392.2 L 128.846,1385.53 L 118.41,1376.57 L 109.99,1365.69 L 103.931,1353.34 L 100.484,1340.02 L 99.7858,1326.28 L 101.869,1312.69 L 106.646,1299.79 L 113.923,1288.11 L 123.401,1278.14 L 134.691,1270.29 L 147.332,1264.86 L 160.807,1262.09 L 191.679,1261.74 L 205.364,1263.13 L 217.436,1266.92 L 363.727,1120.63 L 359.938,1115.74 L 353.879,1103.39 L 350.432,1090.07 L 349.734,1076.33 L 351.818,1062.74 L 356.595,1049.84 L 363.871,1038.16 L 373.349,1028.19 L 384.639,1020.34 L 397.28,1014.91 L 410.756,1012.14 L 441.627,1011.79 L 455.313,1013.18 L 468.438,1017.3 L 480.465,1023.98 L 490.901,1032.94 L 499.321,1043.82 L 505.38,1056.17 L 506.906,1062.07 L 702.236,1062.07 L 901.816,862.484 L 901.816,767.422 L 889.589,762.893 L 877.915,755.616 L 867.945,746.138 L 860.087,734.849 L 854.662,722.207 L 851.893,708.732 L 851.543,677.86 L 852.935,664.175 L 857.054,651.05 L 863.73,639.022 L 872.69,628.586 L 883.568,620.166 L 895.918,614.107 L 909.235,610.66 L 922.972,609.962 L 936.569,612.046 L 949.469,616.823 L 961.142,624.099 L 970.928,633.403 L 1056.97,547.361 L 1059.66,545.16 L 1062.72,543.522 L 1066.04,542.514 L 1069.5,542.172 L 1179.48,542.172 L 1183.16,542.56 L 1186.68,543.704 L 1189.89,545.556 L 1192.64,548.033 L 1194.81,551.028 L 1196.32,554.412 L 1197.09,558.035 L 1197.09,561.736 L 1196.32,565.359 L 1194.81,568.741 L 1192.64,571.738 L 1189.89,574.216 L 1186.68,576.067 L 1183.16,577.211 L 1179.48,577.597 L 1076.83,577.597 L 986.531,667.898 z " style="fill-opacity:1.000000;fill:rgb(42,202,229);stroke:rgb(0,0,0);stroke-width:2"/></g>
<g fill-rule="evenodd"><path d="M 1101.78,767.422 L 1089.55,762.893 L 1077.87,755.616 L 1067.9,746.138 L 1060.05,734.849 L 1054.62,722.207 L 1051.85,708.732 L 1051.5,677.86 L 1052.89,664.175 L 1057.01,651.05 L 1063.69,639.022 L 1072.65,628.586 L 1083.53,620.166 L 1095.88,614.107 L 1109.19,610.66 L 1122.93,609.962 L 1136.53,612.046 L 1149.43,616.823 L 1161.1,624.099 L 1171.07,633.577 L 1175.03,639.262 L 1266.93,547.361 L 1269.61,545.16 L 1272.67,543.522 L 1276,542.514 L 1279.45,542.172 L 1667.49,542.172 L 1669.02,537.471 L 1674.78,527.495 L 1682.49,518.933 L 1691.81,512.162 L 1702.34,507.475 L 1713.61,505.08 L 1725.12,505.08 L 1736.39,507.475 L 1746.92,512.162 L 1756.24,518.933 L 1763.94,527.495 L 1769.71,537.471 L 1773.26,548.429 L 1774.47,559.885 L 1773.26,571.34 L 1769.71,582.298 L 1763.94,592.274 L 1756.24,600.836 L 1746.92,607.607 L 1736.39,612.294 L 1725.12,614.689 L 1713.61,614.689 L 1702.34,612.294 L 1691.81,607.607 L 1682.49,600.836 L 1674.78,592.274 L 1669.02,582.298 L 1667.5,577.597 L 1286.79,577.597 L 1187.19,677.192 L 1187.47,701.855 L 1186.08,715.541 L 1181.96,728.666 L 1175.29,740.693 L 1166.33,751.129 L 1155.45,759.549 L 1143.1,765.608 L 1137.2,767.134 L 1137.2,855.008 L 1145.24,855.008 L 1156.51,857.403 L 1167.04,862.09 L 1176.36,868.861 L 1184.06,877.423 L 1189.83,887.399 L 1193.38,898.357 L 1194.59,909.813 L 1193.38,921.268 L 1189.83,932.226 L 1184.06,942.202 L 1176.36,950.764 L 1167.04,957.535 L 1156.51,962.222 L 1145.24,964.617 L 1133.72,964.617 L 1122.46,962.222 L 1111.93,957.535 L 1102.61,950.764 L 1094.9,942.202 L 1089.14,932.226 L 1085.58,921.268 L 1084.38,909.813 L 1085.58,898.357 L 1089.14,887.399 L 1094.9,877.423 L 1101.78,869.791 L 1101.78,767.422 z " style="fill-opacity:1.000000;fill:rgb(72,233,197);stroke:rgb(0,0,0);stroke-width:2"/></g>
<g fill-rule="evenodd"><path d="M 217.256,2492.12 L 212.031,2494.37 L 198.555,2497.14 L 167.686,2497.49 L 153.999,2496.09 L 140.873,2491.97 L 128.846,2485.3 L 118.41,2476.34 L 109.99,2465.46 L 103.931,2453.11 L 100.484,2439.79 L 99.7858,2426.06 L 101.869,2412.46 L 106.646,2399.56 L 113.923,2387.89 L 123.401,2377.92 L 134.691,2370.06 L 147.332,2364.63 L 160.807,2361.86 L 191.679,2361.51 L 205.364,2362.91 L 218.489,2367.02 L 230.517,2373.7 L 240.953,2382.66 L 249.373,2393.54 L 255.432,2405.89 L 258.879,2419.21 L 259.577,2432.94 L 257.493,2446.54 L 252.716,2459.44 L 245.788,2470.56 L 392.052,2616.82 L 397.28,2614.58 L 410.756,2611.81 L 441.627,2611.46 L 455.313,2612.85 L 468.438,2616.97 L 480.465,2623.65 L 490.901,2632.61 L 499.321,2643.49 L 505.38,2655.84 L 508.827,2669.15 L 509.525,2682.89 L 507.442,2696.49 L 502.665,2709.39 L 495.388,2721.06 L 485.91,2731.03 L 474.621,2738.89 L 461.979,2744.31 L 448.504,2747.08 L 417.634,2747.43 L 403.947,2746.04 L 390.822,2741.92 L 378.794,2735.25 L 368.358,2726.29 L 359.938,2715.41 L 353.879,2703.06 L 350.432,2689.74 L 349.734,2676 L 351.818,2662.41 L 356.595,2649.51 L 363.523,2638.39 L 217.256,2492.12 z " style="fill-opacity:1.000000;fill:rgb(241,176,196);stroke:rgb(0,0,0);stroke-width:2"/></g>
<g fill-rule="evenodd"><path d="M 392.052,2416.87 L 397.28,2414.62 L 410.756,2411.85 L 441.627,2411.5 L 455.313,2412.89 L 468.438,2417.01 L 480.465,2423.69 L 490.901,2432.65 L 499.321,2443.53 L 505.38,2455.88 L 508.827,2469.2 L 509.525,2482.93 L 507.442,2496.53 L 502.665,2509.43 L 495.388,2521.1 L 485.91,2531.07 L 474.621,2538.93 L 461.979,2544.36 L 448.504,2547.13 L 417.634,2547.48 L 403.947,2546.08 L 390.822,2541.96 L 378.794,2535.29 L 368.358,2526.33 L 359.938,2515.45 L 353.879,2503.1 L 350.432,2489.78 L 349.734,2476.05 L 351.818,2462.45 L 356.595,2449.55 L 363.523,2438.44 L 217.256,2292.16 L 212.031,2294.41 L 198.555,2297.18 L 167.686,2297.53 L 153.999,2296.13 L 140.873,2292.02 L 128.846,2285.34 L 118.41,2276.38 L 109.99,2265.5 L 103.931,2253.15 L 100.484,2239.83 L 99.7858,2226.1 L 101.869,2212.5 L 106.646,2199.6 L 113.923,2187.93 L 123.401,2177.96 L 134.691,2170.1 L 147.332,2164.67 L 160.807,2161.9 L 191.679,2161.55 L 205.364,2162.95 L 218.489,2167.07 L 230.517,2173.74 L 240.953,2182.7 L 249.373,2193.58 L 255.432,2205.93 L 258.879,2219.25 L 259.577,2232.98 L 257.493,2246.58 L 252.716,2259.48 L 245.788,2270.6 L 392.052,2416.87 z " style="fill-opacity:1.000000;fill:rgb(21,138,229);stroke:rgb(0,0,0);stroke-width:2"/></g>
<g fill-rule="evenodd"><path d="M 245.788,2870.47 L 392.052,3016.74 L 397.28,3014.5 L 410.756,3011.73 L 441.627,3011.38 L 455.313,3012.77 L 468.438,3016.89 L 480.465,3023.57 L 490.901,3032.53 L 499.321,3043.4 L 505.38,3055.75 L 508.827,3069.07 L 509.525,3082.81 L 507.442,3096.41 L 502.665,3109.31 L 495.388,3120.98 L 485.91,3130.95 L 474.621,3138.81 L 461.979,3144.23 L 448.504,3147 L 417.634,3147.35 L 403.947,3145.96 L 390.822,3141.84 L 378.794,3135.16 L 368.358,3126.2 L 359.938,3115.33 L 353.879,3102.98 L 350.432,3089.66 L 349.734,3075.92 L 351.818,3062.32 L 356.595,3049.43 L 363.523,3038.31 L 217.256,2892.04 L 212.031,2894.28 L 198.555,2897.05 L 167.686,2897.4 L 153.999,2896.01 L 140.873,2891.89 L 128.846,2885.22 L 118.41,2876.26 L 109.99,2865.38 L 103.931,2853.03 L 100.484,2839.71 L 99.7858,2825.97 L 101.869,2812.38 L 106.646,2799.48 L 113.923,2787.8 L 123.401,2777.83 L 134.691,2769.98 L 147.332,2764.55 L 160.807,2761.78 L 191.679,2761.43 L 205.364,2762.82 L 218.489,2766.94 L 230.517,2773.62 L 240.953,2782.58 L 249.373,2793.46 L 255.432,2805.81 L 258.879,2819.12 L 259.577,2832.86 L 257.493,2846.46 L 252.716,2859.36 L 245.788,2870.47 z " style="fill-opacity:1.000000;fill:rgb(155,77,57);stroke:rgb(0,0,0);stroke-width:2"/></g>
<g fill-rule="evenodd"><path d="M 245.788,2670.52 L 392.052,2816.78 L 397.28,2814.54 L 410.756,2811.77 L 441.627,2811.42 L 455.313,2812.81 L 468.438,2816.93 L 480.465,2823.61 L 490.901,2832.57 L 499.321,2843.45 L 505.38,2855.8 L 508.827,2869.11 L 509.525,2882.85 L 507.442,2896.45 L 502.665,2909.35 L 495.388,2921.02 L 485.91,2930.99 L 474.621,2938.85 L 461.979,2944.27 L 448.504,2947.04 L 417.634,2947.39 L 403.947,2946 L 390.822,2941.88 L 378.794,2935.21 L 368.358,2926.24 L 359.938,2915.37 L 353.879,2903.02 L 350.432,2889.7 L 349.734,2875.96 L 351.818,2862.37 L 356.595,2849.47 L 363.523,2838.35 L 217.256,2692.08 L 212.031,2694.32 L 198.555,2697.09 L 167.686,2697.44 L 153.999,2696.05 L 140.873,2691.93 L 128.846,2685.26 L 118.41,2676.3 L 109.99,2665.42 L 103.931,2653.07 L 100.484,2639.75 L 99.7858,2626.01 L 101.869,2612.42 L 106.646,2599.52 L 113.923,2587.84 L 123.401,2577.87 L 134.691,2570.02 L 147.332,2564.59 L 160.807,2561.82 L 191.679,2561.47 L 205.364,2562.86 L 218.489,2566.98 L 230.517,2573.66 L 240.953,2582.62 L 249.373,2593.5 L 255.432,2605.85 L 258.879,2619.16 L 259.577,2632.9 L 257.493,2646.5 L 252.716,2659.4 L 245.788,2670.52 z " style="fill-opacity:1.000000;fill:rgb(246,247,232);stroke:rgb(0,0,0);stroke-width:2"/></g>
<g fill-rule="evenodd"><path d="M 363.523,2238.48 L 217.256,2092.2 L 212.031,2094.45 L 198.555,2097.22 L 167.686,2097.57 L 153.999,2096.18 L 140.873,2092.06 L 128.846,2085.38 L 118.41,2076.42 L 109.99,2065.54 L 103.931,2053.19 L 100.484,2039.88 L 99.7858,2026.14 L 101.869,2012.54 L 106.646,1999.64 L 113.923,1987.97 L 123.401,1978 L 134.691,1970.14 L 147.332,1964.72 L 160.807,1961.95 L 191.679,1961.6 L 205.364,1962.99 L 218.489,1967.11 L 230.517,1973.78 L 240.953,1982.74 L 249.373,1993.62 L 255.432,2005.97 L 258.879,2019.29 L 259.577,2033.03 L 257.493,2046.62 L 252.716,2059.52 L 245.788,2070.64 L 392.052,2216.91 L 397.28,2214.66 L 410.756,2211.89 L 441.627,2211.54 L 455.313,2212.94 L 468.438,2217.06 L 480.465,2223.73 L 490.901,2232.69 L 499.321,2243.57 L 505.38,2255.92 L 508.827,2269.24 L 509.525,2282.97 L 507.442,2296.57 L 502.665,2309.47 L 495.388,2321.14 L 485.91,2331.11 L 474.621,2338.97 L 461.979,2344.4 L 448.504,2347.17 L 417.634,2347.52 L 403.947,2346.12 L 390.822,2342.01 L 378.794,2335.33 L 368.358,2326.37 L 359.938,2315.49 L 353.879,2303.14 L 350.432,2289.82 L 349.734,2276.09 L 351.818,2262.49 L 356.595,2249.59 L 363.523,2238.48 z " style="fill-opacity:1.000000;fill:rgb(161,5,211);stroke:rgb(0,0,0);stroke-width:2"/></g>
<g fill-rule="evenodd"><path d="M 656.947,727.434 L 654.703,722.207 L 651.934,708.732 L 651.584,677.86 L 652.976,664.175 L 657.095,651.05 L 663.772,639.022 L 672.732,628.586 L 683.609,620.166 L 695.959,614.107 L 709.276,610.66 L 723.013,609.962 L 736.611,612.046 L 749.51,616.823 L 760.626,623.751 L 817.022,567.357 L 819.705,565.156 L 822.767,563.518 L 826.09,562.51 L 829.547,562.168 L 879.537,562.168 L 883.218,562.556 L 886.74,563.7 L 889.947,565.551 L 892.698,568.029 L 894.876,571.024 L 896.382,574.408 L 897.151,578.031 L 897.151,581.732 L 896.382,585.355 L 894.876,588.737 L 892.698,591.734 L 889.947,594.212 L 886.74,596.063 L 883.218,597.207 L 879.537,597.593 L 836.884,597.593 L 782.193,652.282 L 784.437,657.508 L 787.206,670.984 L 787.556,701.855 L 786.164,715.541 L 782.045,728.666 L 775.369,740.693 L 766.408,751.129 L 755.531,759.549 L 743.181,765.608 L 729.864,769.056 L 716.127,769.753 L 702.53,767.67 L 689.63,762.893 L 678.515,755.964 L 542.133,892.344 L 539.447,894.548 L 536.386,896.183 L 533.062,897.191 L 529.609,897.531 L 507.194,897.531 L 502.665,909.759 L 495.388,921.432 L 485.91,931.402 L 474.621,939.26 L 461.979,944.685 L 448.504,947.455 L 417.634,947.805 L 403.947,946.413 L 391.874,942.626 L 245.584,1088.91 L 249.373,1093.81 L 255.432,1106.16 L 258.879,1119.47 L 259.577,1133.21 L 257.493,1146.81 L 252.716,1159.71 L 245.44,1171.38 L 235.962,1181.35 L 224.672,1189.21 L 212.031,1194.63 L 198.555,1197.4 L 167.686,1197.75 L 153.999,1196.36 L 140.873,1192.24 L 128.846,1185.57 L 118.41,1176.61 L 109.99,1165.73 L 103.931,1153.38 L 100.484,1140.06 L 99.7858,1126.32 L 101.869,1112.73 L 106.646,1099.83 L 113.923,1088.15 L 123.401,1078.18 L 134.691,1070.33 L 147.332,1064.9 L 160.807,1062.13 L 191.679,1061.78 L 205.364,1063.17 L 217.438,1066.96 L 363.727,920.674 L 359.938,915.779 L 353.879,903.43 L 350.432,890.113 L 349.734,876.375 L 351.818,862.778 L 356.595,849.879 L 363.871,838.205 L 373.349,828.235 L 384.639,820.377 L 397.28,814.952 L 410.756,812.183 L 441.627,811.833 L 455.313,813.224 L 468.438,817.344 L 480.465,824.02 L 490.901,832.98 L 499.321,843.858 L 505.38,856.208 L 506.906,862.106 L 522.273,862.106 L 656.947,727.434 z " style="fill-opacity:1.000000;fill:rgb(254,237,165);stroke:rgb(0,0,0);stroke-width:2"/></g>
<g fill-rule="evenodd"><path d="M 197.394,862.402 L 205.364,863.214 L 218.489,867.333 L 230.517,874.01 L 240.953,882.97 L 249.373,893.848 L 255.432,906.197 L 258.879,919.515 L 259.577,933.252 L 257.493,946.849 L 252.716,959.748 L 245.44,971.422 L 235.962,981.392 L 224.672,989.25 L 212.031,994.675 L 198.555,997.444 L 167.686,997.794 L 153.999,996.403 L 140.873,992.284 L 128.846,985.607 L 118.41,976.647 L 109.99,965.769 L 103.931,953.42 L 100.484,940.102 L 99.7858,926.365 L 101.869,912.768 L 106.646,899.869 L 113.923,888.195 L 123.401,878.225 L 134.691,870.367 L 147.332,864.942 L 160.807,862.172 L 161.969,862.16 L 161.969,529.891 L 111.695,529.891 L 111.695,369.924 L 247.667,369.924 L 247.667,529.891 L 197.394,529.891 L 197.394,757.074 L 260.369,694.101 L 259.313,692.275 L 255.754,681.318 L 254.548,669.862 L 255.754,658.406 L 259.313,647.449 L 265.074,637.473 L 272.782,628.91 L 282.102,622.14 L 292.626,617.453 L 303.896,615.057 L 315.413,615.057 L 326.683,617.453 L 337.207,622.14 L 346.527,628.91 L 354.235,637.473 L 359.996,647.449 L 363.555,658.406 L 364.761,669.862 L 363.555,681.318 L 359.996,692.275 L 354.235,702.251 L 346.527,710.814 L 337.207,717.584 L 326.683,722.271 L 315.413,724.667 L 303.896,724.667 L 292.626,722.271 L 285.48,719.088 L 197.394,807.172 L 197.394,862.402 z " style="fill-opacity:1.000000;fill:rgb(213,243,217);stroke:rgb(0,0,0);stroke-width:2"/></g>
<g fill-rule="evenodd"><path d="M 217.438,1466.88 L 363.727,1320.59 L 359.938,1315.7 L 353.879,1303.35 L 350.432,1290.03 L 349.734,1276.29 L 351.818,1262.7 L 356.595,1249.8 L 363.871,1238.12 L 373.349,1228.15 L 384.639,1220.29 L 397.28,1214.87 L 410.756,1212.1 L 441.627,1211.75 L 455.313,1213.14 L 468.438,1217.26 L 480.465,1223.94 L 490.901,1232.9 L 499.321,1243.78 L 505.38,1256.13 L 508.827,1269.44 L 509.525,1283.18 L 507.442,1296.78 L 502.665,1309.68 L 495.388,1321.35 L 485.91,1331.32 L 474.621,1339.18 L 461.979,1344.6 L 448.504,1347.37 L 417.634,1347.72 L 403.947,1346.33 L 391.874,1342.54 L 245.584,1488.83 L 249.373,1493.72 L 255.432,1506.07 L 258.879,1519.39 L 259.577,1533.13 L 257.493,1546.73 L 252.716,1559.62 L 245.44,1571.3 L 235.962,1581.27 L 224.672,1589.13 L 212.031,1594.55 L 198.555,1597.32 L 167.686,1597.67 L 153.999,1596.28 L 140.873,1592.16 L 128.846,1585.48 L 118.41,1576.52 L 109.99,1565.65 L 103.931,1553.3 L 100.484,1539.98 L 99.7858,1526.24 L 101.869,1512.64 L 106.646,1499.74 L 113.923,1488.07 L 123.401,1478.1 L 134.691,1470.24 L 147.332,1464.82 L 160.807,1462.05 L 191.679,1461.7 L 205.364,1463.09 L 217.438,1466.88 z " style="fill-opacity:1.000000;fill:rgb(228,91,250);stroke:rgb(0,0,0);stroke-width:2"/></g>
<g fill-rule="evenodd"><path d="M 1813.43,2430.36 L 1809.64,2425.47 L 1803.58,2413.12 L 1800.13,2399.8 L 1799.44,2386.06 L 1801.52,2372.47 L 1806.3,2359.57 L 1813.57,2347.89 L 1823.05,2337.92 L 1834.34,2330.07 L 1846.98,2324.64 L 1860.46,2321.87 L 1891.33,2321.52 L 1905.01,2322.91 L 1918.14,2327.03 L 1930.17,2333.71 L 1940.6,2342.67 L 1949.02,2353.55 L 1955.08,2365.9 L 1958.53,2379.21 L 1959.23,2392.95 L 1957.14,2406.55 L 1952.37,2419.45 L 1945.09,2431.12 L 1935.61,2441.09 L 1924.32,2448.95 L 1911.68,2454.37 L 1898.21,2457.14 L 1867.34,2457.49 L 1853.65,2456.1 L 1841.57,2452.31 L 1801.87,2492.01 L 1799.19,2494.22 L 1796.13,2495.85 L 1792.8,2496.86 L 1789.35,2497.2 L 1706.95,2497.2 L 1702.42,2509.43 L 1695.14,2521.1 L 1685.66,2531.07 L 1674.37,2538.93 L 1661.73,2544.36 L 1648.26,2547.13 L 1617.39,2547.48 L 1603.7,2546.08 L 1590.57,2541.96 L 1578.55,2535.29 L 1568.11,2526.33 L 1559.69,2515.45 L 1553.63,2503.1 L 1550.18,2489.78 L 1549.49,2476.05 L 1551.57,2462.45 L 1556.35,2449.55 L 1563.62,2437.88 L 1573.1,2427.91 L 1584.39,2420.05 L 1597.03,2414.62 L 1610.51,2411.85 L 1641.38,2411.5 L 1655.07,2412.89 L 1668.19,2417.01 L 1680.22,2423.69 L 1690.65,2432.65 L 1699.07,2443.53 L 1705.13,2455.88 L 1706.66,2461.78 L 1782.01,2461.78 L 1813.43,2430.36 z " style="fill-opacity:1.000000;fill:rgb(108,195,81);stroke:rgb(0,0,0);stroke-width:2"/></g>
<g fill-rule="evenodd"><path d="M 1805.59,3097.08 L 1706.95,3097.08 L 1702.42,3109.31 L 1695.14,3120.98 L 1685.66,3130.95 L 1674.37,3138.81 L 1661.73,3144.23 L 1648.26,3147 L 1617.39,3147.35 L 1603.7,3145.96 L 1590.57,3141.84 L 1578.55,3135.16 L 1568.11,3126.2 L 1559.69,3115.33 L 1553.63,3102.98 L 1550.18,3089.66 L 1549.49,3075.92 L 1551.57,3062.32 L 1556.35,3049.43 L 1563.62,3037.75 L 1573.1,3027.78 L 1584.39,3019.92 L 1597.03,3014.5 L 1610.51,3011.73 L 1641.38,3011.38 L 1655.07,3012.77 L 1668.19,3016.89 L 1680.22,3023.57 L 1690.65,3032.53 L 1699.07,3043.4 L 1705.13,3055.75 L 1706.66,3061.65 L 1800.09,3061.65 L 1801.52,3052.33 L 1806.3,3039.43 L 1813.57,3027.75 L 1823.05,3017.78 L 1834.34,3009.93 L 1846.98,3004.5 L 1860.46,3001.73 L 1891.33,3001.38 L 1905.01,3002.77 L 1918.14,3006.89 L 1930.17,3013.57 L 1940.6,3022.53 L 1949.02,3033.41 L 1955.08,3045.76 L 1958.53,3059.07 L 1959.23,3072.81 L 1957.14,3086.41 L 1952.37,3099.31 L 1945.09,3110.98 L 1935.61,3120.95 L 1924.32,3128.81 L 1911.68,3134.23 L 1898.21,3137 L 1867.34,3137.35 L 1853.65,3135.96 L 1840.52,3131.84 L 1828.5,3125.17 L 1818.06,3116.21 L 1809.64,3105.33 L 1805.59,3097.08 z " style="fill-opacity:1.000000;fill:rgb(226,32,174);stroke:rgb(0,0,0);stroke-width:2"/></g>
<g fill-rule="evenodd"><path d="M 1929.86,2924.99 L 1924.32,2928.85 L 1911.68,2934.28 L 1898.21,2937.04 L 1867.34,2937.39 L 1853.65,2936 L 1840.52,2931.88 L 1828.5,2925.21 L 1818.06,2916.25 L 1809.64,2905.37 L 1803.58,2893.02 L 1800.13,2879.7 L 1799.44,2865.97 L 1801.52,2852.37 L 1806.3,2839.47 L 1813.57,2827.8 L 1823.05,2817.83 L 1834.34,2809.97 L 1846.98,2804.54 L 1860.46,2801.77 L 1891.33,2801.42 L 1905.01,2802.81 L 1918.14,2806.93 L 1930.17,2813.61 L 1940.6,2822.57 L 1949.02,2833.45 L 1955.08,2845.8 L 1958.53,2859.11 L 1959.23,2872.85 L 1957.14,2886.45 L 1952.89,2897.93 L 2041.82,2986.86 L 2044.03,2989.54 L 2045.66,2992.61 L 2046.67,2995.93 L 2047.01,2999.38 L 2047.01,3099.36 L 2046.67,3102.82 L 2045.66,3106.14 L 2044.03,3109.2 L 2041.82,3111.89 L 1911.85,3241.86 L 1909.16,3244.06 L 1906.1,3245.7 L 1902.78,3246.71 L 1899.33,3247.05 L 969.519,3247.05 L 966.061,3246.71 L 962.74,3245.7 L 959.677,3244.06 L 956.993,3241.86 L 897.005,3181.87 L 894.802,3179.19 L 893.166,3176.13 L 892.158,3172.8 L 891.819,3169.35 L 891.819,1919.6 L 892.158,1916.15 L 893.166,1912.83 L 894.802,1909.77 L 897.005,1907.08 L 1266.93,1537.16 L 1269.61,1534.96 L 1272.67,1533.32 L 1276,1532.31 L 1279.45,1531.97 L 1552.06,1531.97 L 1563.48,1520.55 L 1559.69,1515.66 L 1553.63,1503.31 L 1550.18,1489.99 L 1549.49,1476.25 L 1551.57,1462.65 L 1555.82,1451.18 L 1533.58,1428.94 L 1526.44,1432.12 L 1515.17,1434.52 L 1503.65,1434.52 L 1492.38,1432.12 L 1481.85,1427.44 L 1472.53,1420.67 L 1464.83,1412.1 L 1459.07,1402.13 L 1455.51,1391.17 L 1454.3,1379.72 L 1455.51,1368.26 L 1459.07,1357.3 L 1464.83,1347.33 L 1472.53,1338.76 L 1481.85,1331.99 L 1492.38,1327.31 L 1503.65,1324.91 L 1515.17,1324.91 L 1526.44,1327.31 L 1536.96,1331.99 L 1546.28,1338.76 L 1553.99,1347.33 L 1559.75,1357.3 L 1563.31,1368.26 L 1564.51,1379.72 L 1563.31,1391.17 L 1559.75,1402.13 L 1558.7,1403.95 L 1578.85,1424.11 L 1584.39,1420.25 L 1597.03,1414.83 L 1610.51,1412.06 L 1641.38,1411.71 L 1655.07,1413.1 L 1668.19,1417.22 L 1680.22,1423.9 L 1690.65,1432.86 L 1699.07,1443.73 L 1705.13,1456.08 L 1708.58,1469.4 L 1709.28,1483.14 L 1707.19,1496.74 L 1702.42,1509.63 L 1695.14,1521.31 L 1685.66,1531.28 L 1674.37,1539.14 L 1661.73,1544.56 L 1648.26,1547.33 L 1617.39,1547.68 L 1603.7,1546.29 L 1591.63,1542.5 L 1571.92,1562.21 L 1569.23,1564.41 L 1566.17,1566.05 L 1562.85,1567.05 L 1559.4,1567.39 L 1286.79,1567.39 L 927.243,1926.94 L 927.243,3162.01 L 976.853,3211.62 L 1891.99,3211.62 L 2011.59,3092.02 L 2011.59,3006.72 L 1929.86,2924.99 z " style="fill-opacity:1.000000;fill:rgb(12,225,6);stroke:rgb(0,0,0);stroke-width:2"/></g>
<g fill-rule="evenodd"><path d="M 1813.43,2230.4 L 1809.64,2225.51 L 1803.58,2213.16 L 1800.13,2199.84 L 1799.44,2186.11 L 1801.52,2172.51 L 1806.3,2159.61 L 1813.57,2147.94 L 1823.05,2137.97 L 1834.34,2130.11 L 1846.98,2124.68 L 1860.46,2121.91 L 1891.33,2121.56 L 1905.01,2122.95 L 1918.14,2127.07 L 1930.17,2133.75 L 1940.6,2142.71 L 1949.02,2153.59 L 1955.08,2165.94 L 1958.53,2179.25 L 1959.23,2192.99 L 1957.14,2206.59 L 1952.37,2219.49 L 1945.09,2231.16 L 1935.61,2241.13 L 1924.32,2248.99 L 1911.68,2254.42 L 1898.21,2257.18 L 1867.34,2257.53 L 1853.65,2256.14 L 1841.57,2252.36 L 1801.87,2292.06 L 1799.19,2294.26 L 1796.13,2295.89 L 1792.8,2296.9 L 1789.35,2297.24 L 1706.95,2297.24 L 1702.42,2309.47 L 1695.14,2321.14 L 1685.66,2331.11 L 1674.37,2338.97 L 1661.73,2344.4 L 1648.26,2347.17 L 1617.39,2347.52 L 1603.7,2346.12 L 1590.57,2342.01 L 1578.55,2335.33 L 1568.11,2326.37 L 1559.69,2315.49 L 1553.63,2303.14 L 1550.18,2289.82 L 1549.49,2276.09 L 1551.57,2262.49 L 1556.35,2249.59 L 1563.62,2237.92 L 1573.1,2227.95 L 1584.39,2220.09 L 1597.03,2214.66 L 1610.51,2211.89 L 1641.38,2211.54 L 1655.07,2212.94 L 1668.19,2217.06 L 1680.22,2223.73 L 1690.65,2232.69 L 1699.07,2243.57 L 1705.13,2255.92 L 1706.66,2261.82 L 1782.01,2261.82 L 1813.43,2230.4 z " style="fill-opacity:1.000000;fill:rgb(152,109,97);stroke:rgb(0,0,0);stroke-width:2"/></g>
<g fill-rule="evenodd"><path d="M 1813.43,2030.45 L 1809.64,2025.55 L 1803.58,2013.2 L 1800.13,1999.88 L 1799.44,1986.15 L 1801.52,1972.55 L 1806.3,1959.65 L 1813.57,1947.98 L 1823.05,1938.01 L 1834.34,1930.15 L 1846.98,1924.72 L 1860.46,1921.95 L 1891.33,1921.6 L 1905.01,1923 L 1918.14,1927.11 L 1930.17,1933.79 L 1940.6,1942.75 L 1949.02,1953.63 L 1955.08,1965.98 L 1958.53,1979.3 L 1959.23,1993.03 L 1957.14,2006.63 L 1952.37,2019.53 L 1945.09,2031.2 L 1935.61,2041.17 L 1924.32,2049.03 L 1911.68,2054.46 L 1898.21,2057.23 L 1867.34,2057.58 L 1853.65,2056.18 L 1841.57,2052.4 L 1801.87,2092.1 L 1799.19,2094.3 L 1796.13,2095.94 L 1792.8,2096.94 L 1789.35,2097.28 L 1706.95,2097.28 L 1702.42,2109.51 L 1695.14,2121.18 L 1685.66,2131.15 L 1674.37,2139.01 L 1661.73,2144.44 L 1648.26,2147.21 L 1617.39,2147.56 L 1603.7,2146.17 L 1590.57,2142.05 L 1578.55,2135.37 L 1568.11,2126.41 L 1559.69,2115.53 L 1553.63,2103.18 L 1550.18,2089.87 L 1549.49,2076.13 L 1551.57,2062.53 L 1556.35,2049.63 L 1563.62,2037.96 L 1573.1,2027.99 L 1584.39,2020.13 L 1597.03,2014.7 L 1610.51,2011.94 L 1641.38,2011.59 L 1655.07,2012.98 L 1668.19,2017.1 L 1680.22,2023.77 L 1690.65,2032.73 L 1699.07,2043.61 L 1705.13,2055.96 L 1706.66,2061.86 L 1782.01,2061.86 L 1813.43,2030.45 z " style="fill-opacity:1.000000;fill:rgb(255,52,161);stroke:rgb(0,0,0);stroke-width:2"/></g>
<g fill-rule="evenodd"><path d="M 2118.97,1749.64 L 2118.97,3149.35 L 2118.59,3153.19 L 2117.47,3156.88 L 2115.65,3160.29 L 2113.2,3163.27 L 1963.23,3313.24 L 1960.25,3315.68 L 1956.85,3317.5 L 1953.15,3318.62 L 1949.32,3319 L 929.527,3319 L 925.686,3318.62 L 921.994,3317.5 L 918.593,3315.68 L 915.61,3313.24 L 775.638,3173.27 L 773.191,3170.28 L 771.373,3166.88 L 770.254,3163.19 L 769.876,3159.35 L 769.876,1639.66 L 770.254,1635.82 L 771.373,1632.13 L 773.191,1628.73 L 775.638,1625.75 L 992.03,1409.36 L 987.619,1401.72 L 982.536,1386.08 L 980.816,1369.72 L 982.536,1353.36 L 987.619,1337.72 L 995.845,1323.47 L 1006.85,1311.25 L 1020.16,1301.58 L 1035.19,1294.89 L 1051.28,1291.47 L 1067.72,1291.47 L 1083.81,1294.89 L 1098.84,1301.58 L 1112.15,1311.25 L 1123.15,1323.47 L 1131.38,1337.72 L 1136.46,1353.36 L 1138.18,1369.72 L 1136.46,1386.08 L 1131.38,1401.72 L 1123.15,1415.97 L 1112.15,1428.19 L 1098.84,1437.86 L 1083.81,1444.55 L 1067.72,1447.97 L 1051.28,1447.97 L 1035.19,1444.55 L 1019.6,1437.45 L 809.236,1647.81 L 809.236,3151.2 L 937.677,3279.64 L 1941.16,3279.64 L 2079.61,3141.2 L 2079.61,1757.79 L 1865.41,1543.6 L 1862.97,1540.62 L 1861.15,1537.22 L 1860.03,1533.53 L 1859.65,1529.68 L 1859.65,1356.96 L 1847.79,1353.24 L 1833.64,1345.38 L 1821.36,1334.84 L 1811.46,1322.04 L 1804.33,1307.51 L 1800.27,1291.85 L 1799.45,1275.69 L 1801.9,1259.69 L 1807.52,1244.51 L 1816.08,1230.78 L 1827.23,1219.05 L 1840.52,1209.8 L 1855.39,1203.42 L 1871.24,1200.16 L 1879.33,1199.75 L 1895.43,1201.39 L 1910.87,1206.24 L 1925.02,1214.09 L 1937.3,1224.63 L 1947.21,1237.43 L 1954.34,1251.96 L 1958.39,1267.62 L 1959.21,1283.79 L 1956.76,1299.78 L 1951.14,1314.96 L 1942.58,1328.69 L 1931.43,1340.42 L 1918.15,1349.67 L 1903.27,1356.05 L 1899.01,1356.93 L 1899.01,1521.53 L 2113.2,1735.72 L 2115.65,1738.71 L 2117.47,1742.11 L 2118.59,1745.8 L 2118.97,1749.64 z " style="fill-opacity:1.000000;fill:rgb(30,25,253);stroke:rgb(0,0,0);stroke-width:2"/></g>
<g fill-rule="evenodd"><path d="M 0.0343412,1629.66 L 0.0343412,379.922 L 0.412263,376.084 L 1.53203,372.391 L 3.34966,368.99 L 5.79715,366.007 L 95.7786,276.025 L 98.76,273.578 L 102.163,271.76 L 105.855,270.64 L 109.696,270.26 L 219.673,270.26 L 223.512,270.64 L 227.204,271.76 L 230.605,273.578 L 233.588,276.025 L 340.352,382.791 L 343.68,380.216 L 356.029,374.157 L 369.346,370.71 L 383.083,370.012 L 396.681,372.095 L 409.58,376.872 L 421.254,384.149 L 431.223,393.627 L 439.082,404.917 L 444.507,417.558 L 447.276,431.033 L 447.626,461.905 L 446.234,475.59 L 442.115,488.715 L 435.439,500.743 L 426.478,511.179 L 415.601,519.599 L 403.251,525.658 L 389.934,529.105 L 376.197,529.803 L 362.6,527.719 L 349.7,522.942 L 338.027,515.666 L 328.057,506.188 L 320.198,494.898 L 314.773,482.257 L 312.004,468.781 L 311.654,437.91 L 313.046,424.225 L 316.169,414.273 L 211.519,309.62 L 117.848,309.62 L 39.3942,388.074 L 39.3942,1621.51 L 99.6978,1681.82 L 99.6978,1661.66 L 259.665,1661.66 L 259.665,1797.63 L 139.528,1797.63 L 49.3922,1887.76 L 49.3922,2901.25 L 109.532,2961.39 L 259.665,2961.39 L 259.665,3097.36 L 215.51,3097.36 L 307.807,3189.66 L 491.463,3189.66 L 649.9,3031.22 L 649.9,1439.7 L 650.278,1435.87 L 651.398,1432.17 L 653.216,1428.77 L 655.663,1425.79 L 905.612,1175.84 L 908.593,1173.39 L 911.996,1171.57 L 915.688,1170.45 L 919.529,1170.07 L 1139.48,1170.07 L 1143.32,1170.45 L 1147.01,1171.57 L 1150.42,1173.39 L 1153.4,1175.84 L 1279.54,1301.99 L 1295.13,1294.89 L 1311.22,1291.47 L 1327.67,1291.47 L 1343.76,1294.89 L 1358.79,1301.58 L 1370.93,1310.4 L 1562.27,1119.06 L 1559.69,1115.74 L 1553.63,1103.39 L 1550.18,1090.07 L 1549.49,1076.33 L 1551.57,1062.74 L 1556.35,1049.84 L 1562.21,1040.44 L 1305.53,783.758 L 1303.08,780.775 L 1301.26,777.374 L 1300.14,773.683 L 1299.77,766.694 L 1289.51,762.893 L 1277.83,755.616 L 1267.86,746.138 L 1260,734.849 L 1254.58,722.207 L 1251.81,708.732 L 1251.46,677.86 L 1252.85,664.175 L 1256.97,651.05 L 1263.65,639.022 L 1272.61,628.586 L 1283.49,620.166 L 1295.84,614.107 L 1309.15,610.66 L 1322.89,609.962 L 1336.49,612.046 L 1349.39,616.823 L 1361.06,624.099 L 1371.03,633.577 L 1378.89,644.867 L 1384.31,657.508 L 1386.92,670.178 L 1452.2,670.178 L 1452.81,664.175 L 1456.93,651.05 L 1463.61,639.022 L 1472.57,628.586 L 1483.44,620.166 L 1495.79,614.107 L 1509.11,610.66 L 1522.85,609.962 L 1536.45,612.046 L 1549.35,616.823 L 1561.02,624.099 L 1570.99,633.577 L 1578.85,644.867 L 1584.27,657.508 L 1587.04,670.984 L 1587.39,701.855 L 1586,715.541 L 1581.88,728.666 L 1575.2,740.693 L 1566.24,751.129 L 1555.37,759.549 L 1543.02,765.608 L 1529.7,769.056 L 1515.96,769.753 L 1502.36,767.67 L 1489.47,762.893 L 1477.79,755.616 L 1467.82,746.138 L 1459.96,734.849 L 1454.54,722.207 L 1451.94,709.538 L 1386.65,709.538 L 1386.04,715.541 L 1381.92,728.666 L 1375.24,740.693 L 1366.28,751.129 L 1355.41,759.549 L 1343.05,765.61 L 1593.75,1016.32 L 1597.03,1014.91 L 1610.51,1012.14 L 1641.38,1011.79 L 1655.07,1013.18 L 1668.19,1017.3 L 1680.22,1023.98 L 1690.65,1032.94 L 1699.07,1043.82 L 1705.13,1056.17 L 1706.15,1060.1 L 1799.35,1060.1 L 1799.35,999.794 L 1959.31,999.794 L 1959.31,1159.76 L 1799.35,1159.76 L 1799.35,1099.46 L 1706.22,1099.46 L 1702.42,1109.72 L 1700.4,1112.96 L 1773.27,1185.84 L 1775.72,1188.82 L 1777.53,1192.22 L 1778.65,1195.91 L 1779.03,1199.75 L 1779.03,1661.5 L 1839.18,1721.65 L 1959.31,1721.65 L 1959.31,1841.78 L 2033.22,1915.69 L 2035.66,1918.67 L 2037.48,1922.07 L 2038.6,1925.76 L 2038.98,1929.6 L 2038.98,2499.48 L 2038.6,2503.33 L 2037.48,2507.02 L 2035.66,2510.42 L 2033.22,2513.4 L 1945.16,2601.46 L 1959.31,2601.46 L 1959.31,2737.44 L 1799.35,2737.44 L 1799.35,2601.46 L 1889.49,2601.46 L 1999.62,2491.33 L 1999.62,1937.76 L 1919.48,1857.62 L 1799.35,1857.62 L 1799.35,1737.48 L 1745.44,1683.57 L 1742.99,1680.59 L 1741.17,1677.19 L 1740.05,1673.5 L 1739.67,1669.66 L 1739.67,1207.91 L 1672.01,1140.24 L 1661.73,1144.64 L 1648.26,1147.41 L 1617.39,1147.76 L 1603.7,1146.37 L 1593.75,1143.25 L 1393.28,1343.72 L 1396.41,1353.36 L 1398.13,1369.72 L 1396.41,1386.08 L 1391.33,1401.72 L 1383.1,1415.97 L 1372.1,1428.19 L 1358.79,1437.86 L 1343.76,1444.55 L 1327.67,1447.97 L 1311.22,1447.97 L 1295.13,1444.55 L 1280.11,1437.86 L 1266.8,1428.19 L 1255.79,1415.97 L 1247.57,1401.72 L 1242.48,1386.08 L 1240.76,1369.72 L 1242.48,1353.36 L 1247.57,1337.72 L 1251.97,1330.08 L 1131.33,1209.43 L 927.681,1209.43 L 689.26,1447.86 L 689.26,3039.37 L 688.88,3043.21 L 687.761,3046.91 L 685.943,3050.31 L 683.495,3053.29 L 513.531,3223.26 L 510.547,3225.7 L 507.146,3227.52 L 503.453,3228.64 L 499.615,3229.02 L 299.657,3229.02 L 295.815,3228.64 L 292.124,3227.52 L 288.723,3225.7 L 285.739,3223.26 L 165.764,3103.28 L 163.317,3100.3 L 161.749,3097.36 L 99.6978,3097.36 L 99.6978,3007.22 L 15.7951,2923.32 L 13.3476,2920.33 L 11.53,2916.93 L 10.4102,2913.24 L 10.0323,2909.4 L 10.0323,1879.61 L 10.4102,1875.78 L 11.53,1872.08 L 13.3476,1868.68 L 15.7951,1865.7 L 99.6978,1781.79 L 99.6978,1737.48 L 5.79715,1643.58 L 3.34966,1640.6 L 1.53203,1637.2 L 0.412263,1633.51 L 0.0343412,1629.66 z " style="fill-opacity:1.000000;fill:rgb(54,80,233);stroke:rgb(0,0,0);stroke-width:2"/></g>
</svg>
