<?xml version="1.0" standalone="no"?>
<!DOCTYPE svg PUBLIC "-//W3C//DTD SVG 1.1//EN"
"http://www.w3.org/Graphics/SVG/1.1/DTD/svg11.dtd">
<svg width="3178" height="5978" viewBox="0 0 3178 5978" version="1.1"
xmlns="http://www.w3.org/2000/svg"
xmlns:xlink="http://www.w3.org/1999/xlink">
<g fill-rule="evenodd"><path d="M 3178,3538.87 L 3178,5738.36 L 3177.24,5746.04 L 3175,5753.42 L 3171.37,5760.23 L 3166.47,5766.19 L 2966.52,5966.14 L 2960.55,5971.04 L 2953.75,5974.68 L 2946.36,5976.92 L 2938.69,5977.67 L 2538.78,5977.67 L 239.314,5977.67 L 231.634,5976.92 L 224.25,5974.68 L 217.445,5971.04 L 211.481,5966.14 L 11.5293,5766.19 L 6.63446,5760.23 L 2.9973,5753.42 L 0.757824,5746.04 L 8.52651e-14,5738.36 L 8.52651e-14,39.6868 L 0.757824,32.0085 L 2.9973,24.6243 L 6.63446,17.8198 L 11.5293,11.8552 L 17.4939,6.96037 L 24.2983,3.32322 L 31.6826,1.08374 L 39.3608,0.325915 L 1539.01,0.325915 L 1546.69,1.08374 L 1554.07,3.32322 L 1560.88,6.96037 L 1566.84,11.8552 L 1571.74,17.8198 L 1575.38,24.6243 L 1577.61,32.0085 L 1578.37,39.6868 L 1578.37,1922.94 L 3166.47,3511.04 L 3171.37,3517.01 L 3175,3523.81 L 3177.24,3531.19 L 3178,3538.87 z " style="fill-opacity:1.000000;fill:rgb(167,241,217);stroke:rgb(0,0,0);stroke-width:2"/></g>
</svg>
