<?xml version="1.0" standalone="no"?>
<!DOCTYPE svg PUBLIC "-//W3C//DTD SVG 1.1//EN"
"http://www.w3.org/Graphics/SVG/1.1/DTD/svg11.dtd">
<svg width="3190" height="5990" viewBox="0 0 3190 5990" version="1.1"
xmlns="http://www.w3.org/2000/svg"
xmlns:xlink="http://www.w3.org/1999/xlink">
<g fill-rule="evenodd"><path d="M 0,5989 L 0,0 L 3190,0 L 3190,5989 L 0,5989 z " style="fill-opacity:0.300000;fill:rgb(167,241,217);"/></g>
<g fill-rule="evenodd"><path d="M 1584,1928 L 3172,3516 L 3177,3522 L 3177,3523 L 3181,3529 L 3183,3537 L 3183,3537 L 3184,3545 L 3184,5743 L 3183,5751 L 3183,5752 L 3180,5759 L 3177,5766 L 3177,5766 L 3172,5772 L 2973,5971 L 2966,5976 L 2966,5977 L 2959,5980 L 2952,5982 L 2951,5983 L 2944,5983 L 245,5983 L 238,5983 L 237,5982 L 230,5980 L 223,5977 L 222,5976 L 216,5971 L 17,5772 L 12,5766 L 12,5766 L 8,5759 L 6,5752 L 6,5751 L 5,5743 L 5,46 L 6,38 L 6,37 L 9,30 L 12,23 L 17,17 L 23,12 L 30,9 L 37,6 L 38,6 L 45,6 L 1544,6 L 1552,6 L 1552,7 L 1560,9 L 1566,12 L 1572,17 L 1577,23 L 1581,30 L 1583,37 L 1583,38 L 1584,46 L 1584,1928 z " style="fill-opacity:0.600000;fill:rgb(167,241,217);stroke:rgb(0,0,0);stroke-width:2"/></g>
<g fill-rule="evenodd"><path d="M 245,5944 L 245,5944 L 244,5944 L 45,5744 L 45,5744 L 45,5743 L 45,46 L 45,45 L 45,45 L 1544,45 L 1544,45 L 1545,46 L 1545,1942 L 1545,1943 L 1545,1944 L 1546,1946 L 1546,1946 L 3144,3544 L 3144,3544 L 3144,3545 L 3144,5743 L 3144,5744 L 3144,5744 L 2945,5944 L 2944,5944 L 2944,5944 L 245,5944 z " style="fill-opacity:1.000000;fill:rgb(167,241,217);stroke:rgb(0,0,0);stroke-width:2"/></g>
</svg>
