M48
;DRILL file {KiCad 4.0.5} date Sunday 02 April 2017 22:21:44
;FORMAT={-:-/ absolute / metric / decimal}
FMAT,2
METRIC,TZ
T1C1.000
T2C1.001
T3C1.016
%
G90
G05
M71
T1
X7.366Y34.417
X17.907Y31.369
X22.606Y25.4
X25.273Y35.814
T2
X16.891Y25.527
X16.891Y17.907
X20.193Y25.527
X20.193Y17.907
T3
X5.715Y37.211
X5.715Y31.115
X5.715Y28.575
X5.715Y26.035
X5.715Y23.495
X5.715Y20.955
X5.715Y17.145
X5.715Y14.605
X5.715Y12.065
X5.715Y9.525
X5.715Y6.985
X5.715Y4.445
X8.255Y37.211
X8.89Y31.75
X8.89Y29.21
X8.89Y26.67
X8.89Y24.13
X8.89Y21.59
X8.89Y19.05
X8.89Y16.51
X8.89Y13.97
X8.89Y11.43
X8.89Y8.89
X8.89Y6.35
X8.89Y3.81
X10.033Y34.163
X10.795Y37.211
X12.573Y34.163
X13.335Y37.211
X15.113Y34.163
X16.51Y3.81
X17.653Y34.163
X19.05Y3.81
X20.193Y34.163
X20.32Y41.91
X20.32Y39.37
X21.59Y3.81
X22.733Y34.163
X24.13Y41.91
X24.13Y39.37
X24.13Y31.75
X24.13Y29.21
X24.13Y26.67
X24.13Y24.13
X24.13Y21.59
X24.13Y19.05
X24.13Y16.51
X24.13Y13.97
X24.13Y11.43
X24.13Y8.89
X24.13Y6.35
X24.13Y3.81
X27.305Y29.21
X27.305Y26.67
X27.305Y20.193
X27.305Y17.653
X27.305Y15.113
X27.305Y12.573
X27.305Y9.017
X27.305Y6.477
X27.305Y3.937
T0
M30
